<svg version="1.1" xmlns="http://www.w3.org/2000/svg" data-icon="aperture" width="128" height="128" class="iconic iconic-aperture" viewBox="0 0 128 128">
  <g class="iconic-metadata">
    <title>Aperture</title>
  </g>
  <g data-width="128" data-height="128" class="iconic-container iconic-lg" display="inline">
    <path d="M49 86l-35.4-61.4c-8.5 10.9-13.6 24.5-13.6 39.4 0 7.7 1.4 15.1 3.9 22h45.1z" class="iconic-aperture-blade iconic-aperture-blade-6 iconic-property-fill" />
    <path d="M75.5 88h-70.8c8.2 20.2 26.3 35.2 48.3 39l22.5-39z" class="iconic-aperture-blade iconic-aperture-blade-5 iconic-property-fill" />
    <path d="M90.6 66l-35.4 61.4c2.8.4 5.8.6 8.8.6 19.7 0 37.4-8.9 49.1-23l-22.5-39z" class="iconic-aperture-blade iconic-aperture-blade-4 iconic-property-fill" />
    <path d="M79 42l35.4 61.4c8.5-10.9 13.6-24.5 13.6-39.4 0-7.7-1.4-15.1-3.9-22h-45.1z" class="iconic-aperture-blade iconic-aperture-blade-3 iconic-property-fill" />
    <path d="M52.5 40h70.9c-8.2-20.2-26.4-35.2-48.4-39l-22.5 39z" class="iconic-aperture-blade iconic-aperture-blade-2 iconic-property-fill" />
    <path d="M37.4 62l35.5-61.4c-2.9-.4-5.9-.6-8.9-.6-19.7 0-37.4 8.9-49.1 23l22.5 39z" class="iconic-aperture-blade iconic-aperture-blade-1 iconic-property-fill" />
  </g>
  <g data-width="32" data-height="32" class="iconic-container iconic-md" display="none" transform="scale(4)">
    <path d="M12 21l-8.6-14.8c-2.1 2.7-3.4 6.1-3.4 9.8 0 1.7.3 3.4.8 5h11.2z" class="iconic-aperture-blade iconic-aperture-blade-6 iconic-property-fill" />
    <path d="M18.3 22h-17.1c2 4.9 6.3 8.6 11.6 9.7l5.5-9.7z" class="iconic-aperture-blade iconic-aperture-blade-5 iconic-property-fill" />
    <path d="M22.4 17l-8.6 14.8c.7.1 1.5.2 2.2.2 4.7 0 9-2.1 11.9-5.4l-5.5-9.6z" class="iconic-aperture-blade iconic-aperture-blade-4 iconic-property-fill" />
    <path d="M20 11l8.6 14.8c2.1-2.7 3.4-6.1 3.4-9.8 0-1.7-.3-3.4-.8-5h-11.2z" class="iconic-aperture-blade iconic-aperture-blade-3 iconic-property-fill" />
    <path d="M13.7 10h17.1c-2-4.9-6.3-8.6-11.6-9.7l-5.5 9.7z" class="iconic-aperture-blade iconic-aperture-blade-2 iconic-property-fill" />
    <path d="M9.6 15l8.6-14.8c-.7-.1-1.4-.2-2.2-.2-4.7 0-9 2.1-11.9 5.4l5.5 9.6z" class="iconic-aperture-blade iconic-aperture-blade-1 iconic-property-fill" />
  </g>
  <g data-width="16" data-height="16" class="iconic-container iconic-sm" display="none" transform="scale(8)">
    <path d="M5.7 10l-4-6.9c-1.1 1.3-1.7 3-1.7 4.9 0 .7.1 1.4.3 2h5.4z" class="iconic-aperture-blade iconic-aperture-blade-6 iconic-property-fill" />
    <path d="M8.6 11h-8c.9 2.3 2.9 4 5.3 4.7l2.7-4.7z" class="iconic-aperture-blade iconic-aperture-blade-5 iconic-property-fill" />
    <path d="M10.9 9l-4 6.9c.4.1.7.1 1.1.1 2.2 0 4.2-.9 5.6-2.3l-2.7-4.7z" class="iconic-aperture-blade iconic-aperture-blade-4 iconic-property-fill" />
    <path d="M14.3 12.9c1.1-1.3 1.7-3 1.7-4.9 0-.7-.1-1.4-.3-2h-5.4l4 6.9z" class="iconic-aperture-blade iconic-aperture-blade-3 iconic-property-fill" />
    <path d="M7.4 5h8c-.9-2.3-2.9-4-5.3-4.7l-2.7 4.7z" class="iconic-aperture-blade iconic-aperture-blade-2 iconic-property-fill" />
    <path d="M5.1 7l4-6.9c-.4-.1-.7-.1-1.1-.1-2.2 0-4.2.9-5.6 2.3l2.7 4.7z" class="iconic-aperture-blade iconic-aperture-blade-1 iconic-property-fill" />
  </g>
</svg>