<svg version="1.1" xmlns="http://www.w3.org/2000/svg" data-icon="audio" width="128" height="128" class="iconic iconic-audio" viewBox="0 0 128 128">
  <g class="iconic-metadata">
    <title>Audio</title>
  </g>
  <g data-width="128" data-height="90" class="iconic-container iconic-lg" display="inline" transform="translate(0 19)">
    <circle cx="64" cy="45.3" r="10" class="iconic-audio-center iconic-property-accent iconic-property-fill" />
    <path stroke="#000" stroke-width="8" stroke-miterlimit="10" d="M87 22.3c5.9 5.9 9.5 14 9.5 23s-3.6 17.1-9.5 23" class="iconic-audio-wave iconic-audio-wave-inner iconic-audio-wave-right iconic-audio-wave-inner-right iconic-property-stroke" fill="none"
    />
    <path stroke="#000" stroke-width="8" stroke-miterlimit="10" d="M106.4 2.8c10.9 10.9 17.6 25.9 17.6 42.5s-6.7 31.6-17.6 42.4" class="iconic-audio-wave iconic-audio-wave-outer iconic-audio-wave-right iconic-audio-wave-outer-right iconic-property-stroke"
    fill="none" />
    <path stroke="#000" stroke-width="8" stroke-miterlimit="10" d="M41 68.2c-5.9-5.9-9.5-14-9.5-23s3.6-17.1 9.5-23" class="iconic-audio-wave iconic-audio-wave-inner iconic-audio-wave-left iconic-audio-wave-inner-left iconic-property-stroke" fill="none"
    />
    <path stroke="#000" stroke-width="8" stroke-miterlimit="10" d="M21.6 87.7c-10.9-10.9-17.6-25.9-17.6-42.4s6.7-31.6 17.6-42.4" class="iconic-audio-wave iconic-audio-wave-outer iconic-audio-wave-left iconic-audio-wave-outer-left iconic-property-stroke"
    fill="none" />
  </g>
  <g data-width="32" data-height="22" class="iconic-container iconic-md" display="none" transform="scale(4) translate(0 5)">
    <circle cx="16" cy="11.3" r="3" class="iconic-audio-center iconic-property-accent iconic-property-fill" />
    <path stroke="#000" stroke-width="2" stroke-miterlimit="10" d="M22.4 4.9c1.6 1.7 2.6 3.9 2.6 6.4s-1 4.7-2.6 6.4" class="iconic-audio-wave iconic-audio-wave-inner iconic-audio-wave-right iconic-audio-wave-inner-right iconic-property-stroke" fill="none"
    />
    <path stroke="#000" stroke-width="2" stroke-miterlimit="10" d="M26.6.7c2.7 2.7 4.4 6.5 4.4 10.6s-1.7 7.9-4.4 10.6" class="iconic-audio-wave iconic-audio-wave-outer iconic-audio-wave-right iconic-audio-wave-outer-right iconic-property-stroke" fill="none"
    />
    <path stroke="#000" stroke-width="2" stroke-miterlimit="10" d="M9.6 17.7c-1.6-1.7-2.6-3.9-2.6-6.4s1-4.7 2.6-6.4" class="iconic-audio-wave iconic-audio-wave-inner iconic-audio-wave-left iconic-audio-wave-inner-left iconic-property-stroke" fill="none"
    />
    <path stroke="#000" stroke-width="2" stroke-miterlimit="10" d="M5.4 21.9c-2.7-2.7-4.4-6.4-4.4-10.6s1.7-7.9 4.4-10.6" class="iconic-audio-wave iconic-audio-wave-outer iconic-audio-wave-left iconic-audio-wave-outer-left iconic-property-stroke" fill="none"
    />
  </g>
  <g data-width="16" data-height="11" class="iconic-container iconic-sm" display="none" transform="scale(8) translate(0 2)">
    <circle cx="8" cy="5.7" r="2" class="iconic-audio-center iconic-property-accent iconic-property-fill" />
    <path stroke="#000" stroke-miterlimit="10" d="M11.2 2.5c.8.8 1.3 1.9 1.3 3.2s-.5 2.3-1.3 3.1" class="iconic-audio-wave iconic-audio-wave-inner iconic-audio-wave-right iconic-audio-wave-inner-right iconic-property-stroke" fill="none" />
    <path stroke="#000" stroke-miterlimit="10" d="M13.3.4c1.4 1.4 2.2 3.2 2.2 5.3s-.8 3.9-2.2 5.3" class="iconic-audio-wave iconic-audio-wave-outer iconic-audio-wave-right iconic-audio-wave-outer-right iconic-property-stroke" fill="none" />
    <path stroke="#000" stroke-miterlimit="10" d="M4.8 8.8c-.8-.8-1.3-1.9-1.3-3.1s.5-2.4 1.3-3.2" class="iconic-audio-wave iconic-audio-wave-inner iconic-audio-wave-left iconic-audio-wave-inner-left iconic-property-stroke" fill="none" />
    <path stroke="#000" stroke-miterlimit="10" d="M2.7 11c-1.4-1.4-2.2-3.3-2.2-5.3s.8-3.9 2.2-5.3" class="iconic-audio-wave iconic-audio-wave-outer iconic-audio-wave-left iconic-audio-wave-outer-left iconic-property-stroke" fill="none" />
  </g>
</svg>