<svg version="1.1" xmlns="http://www.w3.org/2000/svg" data-icon="basket" width="128" height="128" class="iconic iconic-basket" viewBox="0 0 128 128">
  <g class="iconic-metadata">
    <title>Basket</title>
  </g>
  <defs>
    <clipPath id="iconic-size-lg-basket-clip-0">
      <path d="M98.9 42.5c1.9 2.7 1.3 6.4-1.4 8.4-1.1.7-2.3 1.1-3.5 1.1-1.9 0-3.7-.9-4.9-2.5l-5.3-7.5h-39.6l-5.3 7.5c-1.2 1.6-3 2.5-4.9 2.5-1.2 0-2.4-.4-3.5-1.1-2.7-1.9-3.3-5.7-1.4-8.4l.4-.5h-29.5v68h128v-68h-29.5l.4.5zm-58.4 57.4c-.2 0-.4.1-.5.1-.9 0-1.7-.6-1.9-1.5l-10-36c-.3-1.1.3-2.2 1.4-2.5 1.1-.3 2.2.3 2.5 1.4l10 36c.2 1.1-.4 2.2-1.5 2.5zm15.7.1c-.1 0-.1 0-.2 0-1 0-1.9-.8-2-1.8l-4-36c-.1-1.1.7-2.1 1.8-2.2 1.1-.1 2.1.7 2.2 1.8l4 36c.1 1.1-.7 2.1-1.8 2.2zm21.8-37.8l-4 36c-.1 1-1 1.8-2 1.8-.1 0-.1 0-.2 0-1.1-.1-1.9-1.1-1.8-2.2l4-36c.1-1.1 1.1-1.9 2.2-1.8 1.1.1 1.9 1.1 1.8 2.2zm21.9.3l-10 36c-.2.9-1.1 1.5-1.9 1.5-.2 0-.4 0-.5-.1-1.1-.3-1.7-1.4-1.4-2.5l10-36c.3-1.1 1.4-1.7 2.5-1.4 1 .4 1.6 1.5 1.3 2.5z"
      />
    </clipPath>
    <clipPath id="iconic-size-lg-basket-clip-1">
      <path d="M61.9 0l-31.2 43.7c-1.3 1.8-.9 4.3.9 5.6.7.5 1.5.7 2.3.7 1.2 0 2.5-.6 3.3-1.7l34.6-48.3h-9.9zm-27.9 48c-1.1 0-2-.9-2-2s.9-2 2-2 2 .9 2 2-.9 2-2 2z" />
    </clipPath>
    <clipPath id="iconic-size-lg-basket-clip-2">
      <path d="M74.2 0l-35.3 49.5c-.1.2-.3.4-.4.5h61.5v-50h-25.8zm19.8 48c-1.1 0-2-.9-2-2s.9-2 2-2 2 .9 2 2-.9 2-2 2z" />
    </clipPath>
    <clipPath id="iconic-size-md-basket-clip-0">
      <path d="M25.9 12c.2.9-.2 1.9-1 2.5-.4.3-.9.5-1.4.5-.8 0-1.5-.4-2-1l-1.4-2h-8.1l-1.4 2c-.5.7-1.3 1-2 1-.5 0-1-.2-1.5-.5-.8-.6-1.2-1.6-1-2.5h-6.1v18h32v-18h-6.1zm-17.3 15s-.1 0-.1 0c-.2 0-.4-.2-.5-.4l-2-8c-.1-.3.1-.5.4-.6.3-.1.5.1.6.4l2 8c.1.2-.1.5-.4.6zm5 0c-.1 0-.1 0 0 0-.3 0-.5-.2-.6-.4l-1-8c0-.3.2-.5.4-.6.3 0 .5.2.6.4l1 8c0 .3-.2.6-.4.6zm5.4-.4c0 .3-.2.4-.5.4 0 0 0 0-.1 0-.3 0-.5-.3-.4-.6l1-8c0-.3.3-.5.6-.4.3 0 .5.3.4.6l-1 8zm7-8l-2 8c-.1.2-.3.4-.5.4 0 0-.1 0-.1 0-.3-.1-.4-.3-.4-.6l2-8c.1-.3.3-.4.6-.4.3.1.5.4.4.6z"
      />
    </clipPath>
    <clipPath id="iconic-size-md-basket-clip-1">
      <path d="M18 0c.6.8.7 2 .1 2.9l-7.5 11c-.5.7-1.3 1.1-2.1 1.1h17.5v-15h-8z" />
    </clipPath>
    <clipPath id="iconic-size-sm-basket-clip-0">
      <path d="M13 7c0 .7-.3 1.3-1 1.7-.3.2-.6.3-1 .3-.7 0-1.3-.3-1.7-1l-.6-1h-1.4l-.6 1c-.4.7-1 1-1.7 1-.4 0-.7-.1-1-.3-.7-.4-1-1-1-1.7h-3v9h16v-9h-3zm-7 6.5c0 .3-.2.5-.5.5s-.5-.2-.5-.5v-2c0-.3.2-.5.5-.5s.5.2.5.5v2zm5 0c0 .3-.2.5-.5.5s-.5-.2-.5-.5v-2c0-.3.2-.5.5-.5s.5.2.5.5v2z"
      />
    </clipPath>
    <clipPath id="iconic-size-sm-basket-clip-1">
      <path d="M13 0v9h-6v-1.4l2.7-4.6c.6-.9.3-2.1-.7-2.7l4-.3z" />
    </clipPath>
  </defs>
  <g data-width="128" data-height="110" class="iconic-container iconic-lg" display="inline" transform="translate(0 9)">
    <path d="M101 110h-74c-1.7 0-3.4-1.3-3.8-2.9l-16.4-58.2c-.4-1.6.5-2.9 2.2-2.9h110c1.7 0 2.6 1.3 2.2 2.9l-16.4 58.2c-.4 1.6-2.1 2.9-3.8 2.9z" clip-path="url(#iconic-size-lg-basket-clip-0)" class="iconic-basket-body iconic-property-fill" />
    <path d="M126.5 50h-125c-.8 0-1.5-.7-1.5-1.5v-5c0-.8.7-1.5 1.5-1.5h125c.8 0 1.5.7 1.5 1.5v5c0 .8-.7 1.5-1.5 1.5z" clip-path="url(#iconic-size-lg-basket-clip-0)" class="iconic-basket-lip iconic-property-fill" />
    <path clip-path="url(#iconic-size-lg-basket-clip-1)" stroke="#000" stroke-width="8" stroke-linecap="round" stroke-miterlimit="10" class="iconic-basket-handle iconic-basket-handle-left iconic-property-accent iconic-property-stroke" d="M34 46l30-42"
    fill="none" />
    <path clip-path="url(#iconic-size-lg-basket-clip-2)" stroke="#000" stroke-width="8" stroke-linecap="round" stroke-miterlimit="10" class="iconic-basket-handle iconic-basket-handle-right iconic-property-accent iconic-property-stroke" d="M94 46l-30-42"
    fill="none" />
  </g>
  <g data-width="32" data-height="30" class="iconic-container iconic-md" display="none" transform="scale(4) translate(0 1)">
    <path clip-path="url(#iconic-size-md-basket-clip-0)" d="M25.5 30h-19c-.3 0-.6-.2-.6-.5l-3.8-15c0-.3.1-.5.4-.5h27c.3 0 .4.2.4.5l-3.8 15c0 .3-.3.5-.6.5z" class="iconic-basket-body iconic-property-fill" />
    <path clip-path="url(#iconic-size-md-basket-clip-0)" d="M31.5 15h-31c-.3 0-.5-.2-.5-.5v-2c0-.3.2-.5.5-.5h31c.3 0 .5.2.5.5v2c0 .3-.2.5-.5.5z" class="iconic-basket-lip iconic-property-fill" />
    <path clip-path="url(#iconic-size-md-basket-clip-1)" stroke="#000" stroke-width="3" stroke-linecap="round" stroke-miterlimit="10" class="iconic-basket-handle iconic-basket-handle-right iconic-property-accent iconic-property-stroke" d="M23.5 12.5l-7.5-11"
    fill="none" />
    <path stroke="#000" stroke-width="3" stroke-linecap="round" stroke-miterlimit="10" class="iconic-basket-handle iconic-basket-handle-left iconic-property-accent iconic-property-stroke" d="M8.5 12.5l7.5-11" fill="none" />
  </g>
  <g data-width="16" data-height="16" class="iconic-container iconic-sm" display="none" transform="scale(8)">
    <path clip-path="url(#iconic-size-sm-basket-clip-0)" class="iconic-basket-body iconic-property-fill" d="M13 16h-10l-2-8h14z" />
    <path clip-path="url(#iconic-size-sm-basket-clip-0)" class="iconic-basket-lip iconic-property-fill" d="M0 7h16v2h-16z" />
    <path clip-path="url(#iconic-size-sm-basket-clip-1)" stroke="#000" stroke-width="2" stroke-linecap="round" stroke-miterlimit="10" class="iconic-basket-handle iconic-basket-handle-right iconic-property-accent iconic-property-stroke" d="M11 7l-3-5"
    fill="none" />
    <path stroke="#000" stroke-width="2" stroke-linecap="round" stroke-miterlimit="10" class="iconic-basket-handle iconic-basket-handle-left iconic-property-accent iconic-property-stroke" d="M5 7l3-5" fill="none" />
  </g>
</svg>