<svg version="1.1" xmlns="http://www.w3.org/2000/svg" data-icon="battery" width="128" height="128" class="iconic iconic-battery" viewBox="0 0 128 128">
  <g class="iconic-metadata">
    <title>Battery</title>
  </g>
  <defs>
    <clipPath id="iconic-size-lg-battery-clip-0">
      <path d="M0 0v64h118v-64h-118zm112 58h-106v-52h106v52z" />
    </clipPath>
    <clipPath id="iconic-size-md-battery-clip-0">
      <path d="M0 0v16h29v-16h-29zm27 14h-25v-12h25v12z" />
    </clipPath>
    <clipPath id="iconic-size-sm-battery-clip-0">
      <path d="M0 0v10h14v-10h-14zm13 9h-12v-8h12v8z" />
    </clipPath>
  </defs>
  <g data-width="128" data-height="64" class="iconic-container iconic-lg" display="inline" transform="translate(0 32)">
    <path d="M117.5 18h9c.8 0 1.5.7 1.5 1.5v25c0 .8-.7 1.5-1.5 1.5h-9c-.8 0-1.5-.7-1.5-1.5v-25c0-.8.7-1.5 1.5-1.5z" class="iconic-battery-terminal iconic-property-fill" />
    <path clip-path="url(#iconic-size-lg-battery-clip-0)" d="M115 64h-112c-1.7 0-3-1.3-3-3v-58c0-1.7 1.3-3 3-3h112c1.7 0 3 1.3 3 3v58c0 1.7-1.3 3-3 3z" class="iconic-battery-casing iconic-property-fill" />
    <path class="iconic-battery-charge-amount iconic-property-fill" d="M6 6h106v52h-106z" />
    <path display="none" fill="#fff" class="iconic-battery-charge-indicator iconic-property-fill" d="M18 36l-6 10h4v6l6-10h-4z" />
    <text transform="translate(24 50.343)" display="none" fill="#fff" font-family="'HelveticaNeue-Bold'" font-size="18" class="iconic-battery-charge-amount-percent iconic-property-fill iconic-property-text">100%</text>
  </g>
  <g data-width="32" data-height="16" class="iconic-container iconic-md" display="none" transform="scale(4) translate(0 8)">
    <path d="M25.5 4h6c.3 0 .5.2.5.5v7c0 .3-.2.5-.5.5h-6c-.3 0-.5-.2-.5-.5v-7c0-.3.2-.5.5-.5z" class="iconic-battery-terminal iconic-property-fill" />
    <path clip-path="url(#iconic-size-md-battery-clip-0)" d="M28 16h-27c-.6 0-1-.4-1-1v-14c0-.6.4-1 1-1h27c.6 0 1 .4 1 1v14c0 .6-.4 1-1 1z" class="iconic-battery-casing iconic-property-fill" />
    <path class="iconic-battery-charge-amount iconic-property-fill" d="M2 2h25v12h-25z" />
    <path display="none" fill="#fff" class="iconic-battery-charge-indicator iconic-property-fill" d="M7 4l-3 5h2v3l3-5h-2z" />
  </g>
  <g data-width="16" data-height="10" class="iconic-container iconic-sm" display="none" transform="scale(8) translate(0 3)">
    <path d="M12.2 3h3.5c.2 0 .3.1.3.2v3.5c0 .2-.1.3-.2.3h-3.5c-.2 0-.3-.1-.3-.2v-3.6c0-.1.1-.2.2-.2z" class="iconic-battery-terminal iconic-property-fill" />
    <path class="iconic-battery-charge-amount iconic-property-fill" d="M1 1h12v8h-12z" />
    <path display="none" fill="#fff" class="iconic-battery-charge-indicator iconic-property-fill" d="M5 1l-3 5h2v3l3-5h-2z" />
    <path clip-path="url(#iconic-size-sm-battery-clip-0)" d="M13.8 10h-13.5c-.2 0-.3-.1-.3-.2v-9.6c0-.1.1-.2.3-.2h13.5c.1 0 .2.1.2.2v9.5c0 .2-.1.3-.2.3z" class="iconic-battery-casing iconic-property-fill" />
  </g>
</svg>