<svg version="1.1" xmlns="http://www.w3.org/2000/svg" data-icon="beaker" width="128" height="128" class="iconic iconic-beaker" viewBox="0 0 128 128">
  <g class="iconic-metadata">
    <title>Beaker</title>
  </g>
  <g data-width="128" data-height="128" class="iconic-container iconic-lg" display="inline">
    <path d="M123.7 112.3l-21.4-30.3h-28.3c.6-.8 1-1.9 1-3 0-2.8-2.2-5-5-5s-5 2.2-5 5c0 1.1.4 2.2 1 3h-40l-21.7 30.3c-1.4 1.5-2.3 3.5-2.3 5.7s.9 4.2 2.3 5.7c1.4 1.4 3.4 2.3 5.7 2.3h108c2.2 0 4.2-.9 5.7-2.3 1.4-1.4 2.3-3.4 2.3-5.7 0-2.2-.9-4.2-2.3-5.7zm-62.7-12.3c-1.7 0-3-1.3-3-3s1.3-3 3-3 3 1.3 3 3-1.3 3-3 3zm8 12c-.6 0-1-.4-1-1s.4-1 1-1 1 .4 1 1-.4 1-1 1z"
    class="iconic-beaker-fluid iconic-property-fill" />
    <circle cx="60" cy="68" r="2" class="iconic-beaker-fluid iconic-beaker-fluid-bubble iconic-property-fill" />
    <path stroke="#000" stroke-width="2" stroke-linecap="round" stroke-miterlimit="10" class="iconic-beaker-measure-line iconic-beaker-measure-line-7 iconic-property-accent iconic-property-stroke" d="M95 73h-10" fill="none" />
    <path stroke="#000" stroke-width="2" stroke-linecap="round" stroke-miterlimit="10" class="iconic-beaker-measure-line iconic-beaker-measure-line-6 iconic-property-accent iconic-property-stroke" d="M88 63h-9" fill="none" />
    <path stroke="#000" stroke-width="2" stroke-linecap="round" stroke-miterlimit="10" class="iconic-beaker-measure-line iconic-beaker-measure-line-5 iconic-property-accent iconic-property-stroke" d="M81 53h-8" fill="none" />
    <path stroke="#000" stroke-width="2" stroke-linecap="round" stroke-miterlimit="10" class="iconic-beaker-measure-line iconic-beaker-measure-line-4 iconic-property-accent iconic-property-stroke" d="M81 43h-8" fill="none" />
    <path stroke="#000" stroke-width="2" stroke-linecap="round" stroke-miterlimit="10" class="iconic-beaker-measure-line iconic-beaker-measure-line-3 iconic-property-accent iconic-property-stroke" d="M81 33h-8" fill="none" />
    <path stroke="#000" stroke-width="2" stroke-linecap="round" stroke-miterlimit="10" class="iconic-beaker-measure-line iconic-beaker-measure-line-2 iconic-property-accent iconic-property-stroke" d="M81 23h-8" fill="none" />
    <path stroke="#000" stroke-width="2" stroke-linecap="round" stroke-miterlimit="10" class="iconic-beaker-measure-line iconic-beaker-measure-line-1 iconic-property-accent iconic-property-stroke" d="M81 13h-8" fill="none" />
    <path stroke="#000" stroke-width="4" stroke-miterlimit="10" d="M46 2v50.7l-41.7 59.6c-1.2 1.7-2.3 3.5-2.3 5.7s.9 4.2 2.3 5.7 3.5 2.3 5.7 2.3h108c2.2 0 4.2-.9 5.7-2.3s2.3-3.4 2.3-5.7-1.1-4-2.3-5.7l-41.7-59.6v-50.7h-36z" class="iconic-beaker-glass iconic-property-stroke"
    fill="none" />
    <path stroke="#000" stroke-width="4" stroke-linecap="round" stroke-miterlimit="10" class="iconic-beaker-glass iconic-beaker-glass-rim iconic-property-stroke" d="M42 2h44" fill="none" />
  </g>
  <g data-width="32" data-height="32" class="iconic-container iconic-md" display="none" transform="scale(4)">
    <path d="M30.6 26.4l-4.8-6.4h-7c.2-.3.3-.6.3-1 0-1.1-.9-2-2-2s-2 .9-2 2c0 .4.1.7.3 1h-9.6l-4.4 6.4c-.5.5-.9 1.3-.9 2.1s.3 1.6.9 2.1c.5.5 1.3.9 2.1.9h25c.8 0 1.6-.3 2.1-.9.5-.5.9-1.3.9-2.1s-.3-1.6-.9-2.1zm-17.6-1.4c-.6 0-1-.4-1-1s.4-1 1-1 1 .4 1 1-.4 1-1 1zm2.5 3c-.3 0-.5-.2-.5-.5s.2-.5.5-.5.5.2.5.5-.2.5-.5.5z"
    class="iconic-beaker-fluid iconic-property-fill" />
    <path stroke="#000" stroke-linecap="round" stroke-miterlimit="10" class="iconic-beaker-measure-line iconic-beaker-measure-line-4 iconic-property-accent iconic-property-stroke" d="M23.5 16.5h-3" fill="none" />
    <path stroke="#000" stroke-linecap="round" stroke-miterlimit="10" class="iconic-beaker-measure-line iconic-beaker-measure-line-3 iconic-property-accent iconic-property-stroke" d="M20.5 12.5h-2" fill="none" />
    <path stroke="#000" stroke-linecap="round" stroke-miterlimit="10" class="iconic-beaker-measure-line iconic-beaker-measure-line-2 iconic-property-accent iconic-property-stroke" d="M20.5 8.5h-2" fill="none" />
    <path stroke="#000" stroke-linecap="round" stroke-miterlimit="10" class="iconic-beaker-measure-line iconic-beaker-measure-line-1 iconic-property-accent iconic-property-stroke" d="M20.5 4.5h-2" fill="none" />
    <path stroke="#000" stroke-width="2" stroke-miterlimit="10" d="M3.5 31c-.7 0-1.3-.3-1.8-.7s-.7-1.1-.7-1.8.3-1.2.7-1.8l9.3-14.2v-11.5h10v11.5l9.3 14.3c.4.5.7 1.1.7 1.8s-.3 1.3-.7 1.8-1.1.6-1.8.6h-25z" class="iconic-beaker-glass iconic-property-stroke"
    fill="none" />
    <path stroke="#000" stroke-width="2" stroke-linecap="round" stroke-miterlimit="10" class="iconic-beaker-glass iconic-beaker-glass-rim iconic-property-stroke" d="M9.5 1h13" fill="none" />
  </g>
  <g data-width="16" data-height="16" class="iconic-container iconic-sm" display="none" transform="scale(8)">
    <path d="M14.9 12.1l-1.5-2.1h-3.4c0-.6-.4-1-1-1s-1 .4-1 1h-5.5l-1.5 2.1c-.4.4-.6.9-.6 1.4s.2 1 .6 1.4c.4.4.9.6 1.4.6h11c.5 0 1-.2 1.4-.6.4-.4.6-.9.6-1.4.1-.5-.1-1-.5-1.4z" class="iconic-beaker-fluid iconic-property-fill" />
    <path stroke="#000" stroke-miterlimit="10" d="M2.5 15.5c-.6 0-1.1-.2-1.4-.6-.4-.4-.6-.9-.6-1.4s.2-1.1.6-1.4l4.4-6.6v-5h5v5l4.4 6.6c.4.4.6.9.6 1.4s-.2 1.1-.6 1.4c-.4.4-.9.6-1.4.6h-11z" class="iconic-beaker-glass iconic-property-stroke" fill="none"
    />
    <path stroke="#000" stroke-linecap="round" stroke-miterlimit="10" class="iconic-beaker-glass iconic-beaker-glass-rim iconic-property-stroke" d="M4.5.5h7" fill="none" />
  </g>
</svg>