<svg version="1.1" xmlns="http://www.w3.org/2000/svg" data-icon="bell" width="128" height="128" class="iconic iconic-bell" viewBox="0 0 128 128">
  <g class="iconic-metadata">
    <title>Bell</title>
  </g>
  <g data-width="112" data-height="128" class="iconic-container iconic-lg" display="inline" transform="translate(8)">
    <circle cx="56" cy="6" r="6" class="iconic-bell-crown iconic-property-fill" />
    <path d="M100 82c-14.8-10.2-16-24.3-16-39.9v-4.1c0-15.5-12.5-28-28-28s-28 12.5-28 28v4.1c0 15.6-1.2 29.7-16 39.9-7.4 5.1-12 12.2-12 20v2h112v-2c0-7.8-4.6-14.9-12-20z" class="iconic-bell-body iconic-property-fill" />
    <path d="M41.2 106c-.8 1.9-1.2 3.9-1.2 6 0 8.8 7.2 16 16 16s16-7.2 16-16c0-2.1-.4-4.1-1.2-6h-29.6z" class="iconic-bell-clapper iconic-property-accent iconic-property-fill" />
  </g>
  <g data-width="28" data-height="32" class="iconic-container iconic-md" display="none" transform="scale(4) translate(2)">
    <path d="M10 28c0 2.2 1.8 4 4 4s4-1.8 4-4h-8z" class="iconic-bell-clapper iconic-property-force-fill iconic-property-accent iconic-property-fill" />
    <circle cx="14" cy="2" r="2" class="iconic-bell-crown iconic-property-force-fill iconic-property-fill" />
    <path d="M28 25.6c-.1-1.8-1.2-3.4-3-4.6-3.7-2.6-4-6.1-4-10v-1c0-3.9-3.1-7-7-7s-7 3.1-7 7v1c0 3.9-.3 7.4-4 10-1.7 1.2-2.8 2.8-3 4.6v.1c0 .1 0 .2 0 .3v1h28v-1.4z" class="iconic-bell-body iconic-property-fill" />
  </g>
  <g data-width="14" data-height="16" class="iconic-container iconic-sm" display="none" transform="scale(8) translate(1)">
    <path d="M5 14c0 1.1.9 2 2 2s2-.9 2-2h-4z" class="iconic-bell-clapper iconic-property-force-fill iconic-property-accent iconic-property-fill" />
    <circle cx="7" cy="1" r="1" class="iconic-bell-crown iconic-property-force-fill iconic-property-fill" />
    <path d="M0 13c0-1 .5-2 1.3-2.7 1.7-1.3 1.7-3.2 1.7-5.3 0-2.2 1.8-4 4-4s4 1.8 4 4c0 2.1 0 4 1.7 5.3.8.7 1.3 1.7 1.3 2.7h-14z" class="iconic-bell-body iconic-property-fill" />
  </g>
</svg>