<svg version="1.1" xmlns="http://www.w3.org/2000/svg" data-icon="bitcoin-transaction" width="128" height="128" class="iconic iconic-bitcoin-transaction" viewBox="0 0 128 128">
  <g class="iconic-metadata">
    <title>Bitcoin Transaction</title>
  </g>
  <g data-width="116" data-height="128" class="iconic-container iconic-lg" display="inline" transform="translate(6)">
    <path stroke="#000" stroke-width="8" stroke-miterlimit="10" class="iconic-bitcoin-transaction-strike iconic-bitcoin-transaction-strike-top iconic-bitcoin-transaction-strike-left iconic-property-accent iconic-property-stroke" d="M32 0v18" fill="none"
    />
    <path stroke="#000" stroke-width="8" stroke-miterlimit="10" class="iconic-bitcoin-transaction-strike iconic-bitcoin-transaction-strike-top iconic-bitcoin-transaction-strike-right iconic-property-accent iconic-property-stroke" d="M48 0v18" fill="none"
    />
    <path stroke="#000" stroke-width="8" stroke-miterlimit="10" class="iconic-bitcoin-transaction-strike iconic-bitcoin-transaction-strike-bottom iconic-bitcoin-transaction-strike-left iconic-property-accent iconic-property-stroke" d="M32 110v18" fill="none"
    />
    <path stroke="#000" stroke-width="8" stroke-miterlimit="10" class="iconic-bitcoin-transaction-strike iconic-bitcoin-transaction-strike-bottom iconic-bitcoin-transaction-strike-right iconic-property-accent iconic-property-stroke" d="M48 110v18" fill="none"
    />
    <path d="M63.4 58.4c5.2-4.4 8.6-11 8.6-18.4 0-12.7-9.8-23-22.3-23.9v-.1h-49.7v6h8c3.3 0 6 2.7 6 6v72c0 3.3-2.7 6-6 6h-8v6h53c15-.5 27-12.8 27-28 0-11.4-6.8-21.2-16.6-25.6zm-35.4-36.4h15c9.4 0 17 7.6 17 17s-7.6 17-17 17h-15v-34zm16.5 84h-16.5v-44h16.5c12.2 0 22 9.8 22 22s-9.8 22-22 22z"
    class="iconic-bitcoin-transaction-b iconic-property-fill" />
    <path stroke="#000" stroke-width="8" stroke-miterlimit="10" class="iconic-bitcoin-transaction-arrow iconic-bitcoin-transaction-arrow-bottom iconic-bitcoin-transaction-arrow-bottom-stem iconic-property-stroke" d="M86 68h16" fill="none" />
    <path class="iconic-bitcoin-transaction-arrow iconic-bitcoin-transaction-arrow-bottom iconic-bitcoin-transaction-arrow-bottom-head iconic-property-fill" d="M100 80v-24l16 12z" />
    <path stroke="#000" stroke-width="8" stroke-miterlimit="10" class="iconic-bitcoin-transaction-arrow iconic-bitcoin-transaction-arrow-top iconic-bitcoin-transaction-arrow-top-stem iconic-property-stroke" d="M110 48h-16" fill="none" />
    <path class="iconic-bitcoin-transaction-arrow iconic-bitcoin-transaction-arrow-top iconic-bitcoin-transaction-arrow-top-head iconic-property-fill" d="M96 36v24l-16-12z" />
  </g>
  <g data-width="29" data-height="32" class="iconic-container iconic-md" display="none" transform="scale(4) translate(1)">
    <path stroke="#000" stroke-width="2" stroke-miterlimit="10" class="iconic-bitcoin-transaction-strike iconic-bitcoin-transaction-strike-top iconic-bitcoin-transaction-strike-left iconic-property-accent iconic-property-stroke" d="M8 0v6" fill="none" />
    <path stroke="#000" stroke-width="2" stroke-miterlimit="10" class="iconic-bitcoin-transaction-strike iconic-bitcoin-transaction-strike-top iconic-bitcoin-transaction-strike-right iconic-property-accent iconic-property-stroke" d="M12 0v6" fill="none"
    />
    <path stroke="#000" stroke-width="2" stroke-miterlimit="10" class="iconic-bitcoin-transaction-strike iconic-bitcoin-transaction-strike-bottom iconic-bitcoin-transaction-strike-left iconic-property-accent iconic-property-stroke" d="M8 26v6" fill="none"
    />
    <path stroke="#000" stroke-width="2" stroke-miterlimit="10" class="iconic-bitcoin-transaction-strike iconic-bitcoin-transaction-strike-bottom iconic-bitcoin-transaction-strike-right iconic-property-accent iconic-property-stroke" d="M12 26v6" fill="none"
    />
    <path d="M16.5 14.5c.9-1 1.5-2.5 1.5-4 0-3-2.5-5.5-5.5-5.5h-12.5v2h2c1.1 0 2 .9 2 2v14c0 1.1-.9 2-2 2h-2v2h13.5c3.6 0 6.5-2.9 6.5-6.5 0-2.5-1.4-4.9-3.5-6zm-6-7.5c1.9 0 3.5 1.6 3.5 3.5s-1.6 3.5-3.5 3.5h-2.5v-7h2.5zm1 18h-3.5v-9h3.5c2.5 0 4.5 2 4.5 4.5s-2 4.5-4.5 4.5z"
    class="iconic-bitcoin-transaction-b iconic-property-fill" />
    <path stroke="#000" stroke-width="2" stroke-miterlimit="10" class="iconic-bitcoin-transaction-arrow iconic-bitcoin-transaction-arrow-bottom iconic-bitcoin-transaction-arrow-bottom-stem iconic-property-stroke" d="M26 17h-4" fill="none" />
    <path class="iconic-bitcoin-transaction-arrow iconic-bitcoin-transaction-arrow-bottom iconic-bitcoin-transaction-arrow-bottom-head iconic-property-fill" d="M25 18v2l4-3-4-3v2" />
    <path stroke="#000" stroke-width="2" stroke-miterlimit="10" class="iconic-bitcoin-transaction-arrow iconic-bitcoin-transaction-arrow-top iconic-bitcoin-transaction-arrow-top-stem iconic-property-stroke" d="M27 12h-4" fill="none" />
    <path class="iconic-bitcoin-transaction-arrow iconic-bitcoin-transaction-arrow-top iconic-bitcoin-transaction-arrow-top-head iconic-property-fill" d="M24 15l-4-3 4-3z" />
  </g>
  <g data-width="16" data-height="16" class="iconic-container iconic-sm" display="none" transform="scale(8)">
    <path stroke="#000" stroke-miterlimit="10" class="iconic-bitcoin-transaction-strike iconic-bitcoin-transaction-strike-top iconic-bitcoin-transaction-strike-left iconic-property-accent iconic-property-stroke" d="M3.5 0v3.5" fill="none" />
    <path stroke="#000" stroke-miterlimit="10" class="iconic-bitcoin-transaction-strike iconic-bitcoin-transaction-strike-top iconic-bitcoin-transaction-strike-right iconic-property-accent iconic-property-stroke" d="M5.5 0v3.5" fill="none" />
    <path stroke="#000" stroke-miterlimit="10" class="iconic-bitcoin-transaction-strike iconic-bitcoin-transaction-strike-bottom iconic-bitcoin-transaction-strike-left iconic-property-accent iconic-property-stroke" d="M3.5 12.5v3.5" fill="none" />
    <path stroke="#000" stroke-miterlimit="10" class="iconic-bitcoin-transaction-strike iconic-bitcoin-transaction-strike-bottom iconic-bitcoin-transaction-strike-right iconic-property-accent iconic-property-stroke" d="M5.5 12.5v3.5" fill="none" />
    <path d="M7.3 7.3c.4-.5.7-1.1.7-1.8 0-1.4-1.1-2.5-2.5-2.5h-5.5v1c.6 0 1 .4 1 1v6c0 .6-.4 1-1 1v1h6c1.7 0 3-1.3 3-3 0-1.2-.7-2.2-1.7-2.7zm-4.3-3.3h1.5c.8 0 1.5.7 1.5 1.5s-.7 1.5-1.5 1.5h-1.5v-3zm2 8h-2v-4h2c1.1 0 2 .9 2 2s-.9 2-2 2z" class="iconic-bitcoin-transaction-b iconic-property-fill"
    />
    <path stroke="#000" stroke-miterlimit="10" class="iconic-bitcoin-transaction-arrow iconic-bitcoin-transaction-arrow-bottom iconic-bitcoin-transaction-arrow-bottom-stem iconic-property-stroke" d="M14 10.5h-3" fill="none" />
    <path class="iconic-bitcoin-transaction-arrow iconic-bitcoin-transaction-arrow-bottom iconic-bitcoin-transaction-arrow-bottom-head iconic-property-fill" d="M16 10.5l-3-2.5v5z" />
    <path stroke="#000" stroke-miterlimit="10" class="iconic-bitcoin-transaction-arrow iconic-bitcoin-transaction-arrow-top iconic-bitcoin-transaction-arrow-top-stem iconic-property-stroke" d="M14 6.5h-3" fill="none" />
    <path class="iconic-bitcoin-transaction-arrow iconic-bitcoin-transaction-arrow-top iconic-bitcoin-transaction-arrow-top-head iconic-property-fill" d="M9 6.5l3 2.5v-5z" />
  </g>
</svg>