<svg version="1.1" xmlns="http://www.w3.org/2000/svg" data-icon="bold" width="128" height="128" class="iconic iconic-bold" viewBox="0 0 128 128">
  <g class="iconic-metadata">
    <title>Bold</title>
  </g>
  <g data-width="108" data-height="128" class="iconic-container iconic-lg" display="inline" transform="translate(10)">
    <path d="M85.7 58.7c8.6-5.7 14.3-15.6 14.3-26.7 0-17.7-14.3-32-32-32h-68v6h12c3.3 0 6 2.7 6 6v104c0 3.3-2.7 6-6 6h-10v6h70c19.9 0 36-16.1 36-36 0-15-9.2-27.9-22.3-33.3zm-34.7-52.7c13.8 0 25 11.2 25 25s-11.2 25-25 25h-11v-50h11zm5 116h-16v-60h16c16.6 0 30 13.4 30 30s-13.4 30-30 30z"
    class="iconic-property-fill" />
  </g>
  <g data-width="26" data-height="32" class="iconic-container iconic-md" display="none" transform="scale(4) translate(3)">
    <path d="M20.4 14.7c2.2-1.5 3.6-3.9 3.6-6.7 0-4.4-3.6-8-8-8h-16v2h2c1.1 0 2 .9 2 2v24c0 1.1-.9 2-2 2h-2v2h17c5 0 9-4 9-9 0-3.8-2.3-7-5.6-8.3zm-9.7-12.7h2.3c3.3 0 6 2.7 6 6s-2.7 6-6 6h-4v-12h1.7zm3.3 28h-5v-14h5c3.9 0 7 3.1 7 7s-3.1 7-7 7z" class="iconic-property-fill"
    />
  </g>
  <g data-width="14" data-height="16" class="iconic-container iconic-sm" display="none" transform="scale(8) translate(1)">
    <path stroke="#000" stroke-width="2" stroke-linecap="square" stroke-miterlimit="10" d="M3 15" class="iconic-property-stroke" fill="none" />
    <path d="M11.2 7.3c1.1-.7 1.8-1.9 1.8-3.3 0-2.2-1.8-4-4-4h-9v1h1c.6 0 1 .4 1 1v12c0 .6-.4 1-1 1h-1v1h9.5c2.5 0 4.5-2 4.5-4.5 0-1.9-1.2-3.5-2.8-4.2zm-4.2-6.3c1.7 0 3 1.3 3 3s-1.3 3-3 3h-2v-6h2zm.5 14h-2.5v-7h2.5c1.9 0 3.5 1.6 3.5 3.5s-1.6 3.5-3.5 3.5z"
    class="iconic-property-fill" />
  </g>
</svg>