<svg version="1.1" xmlns="http://www.w3.org/2000/svg" data-icon="book" width="128" height="128" class="iconic iconic-book" viewBox="0 0 128 128">
  <g class="iconic-metadata">
    <title>Book</title>
  </g>
  <g data-width="120" data-height="128" class="iconic-container iconic-lg" display="inline" transform="translate(4)">
    <path d="M6 112c-3.3 0-6 2.7-6 6v4c0 3.3 2.7 6 6 6h114v-4h-112c-2.2 0-4-1.8-4-4s1.8-4 4-4h112v-4h-114z" class="iconic-book-bottom iconic-property-fill" />
    <path d="M6 109.7v-109.7h-1v.1c-2.8.5-5 2.9-5 5.9 0 .2 0 .4 0 .6 0 .2 0 .3 0 .4v105.7c1.5-1.7 3.6-2.7 6-2.7h.1c-.1-.1-.1-.2-.1-.3z" class="iconic-book-spine iconic-property-fill" />
    <path d="M120 2.8c-.1-1.6-1.4-2.8-3-2.8h-13v52l-6-6-6 6v-52h-84v109.7c0 .1 0 .2-.1.3h112.1v-107.2z" class="iconic-book-cover iconic-property-fill" />
  </g>
  <g data-width="30" data-height="32" class="iconic-container iconic-md" display="none" transform="scale(4) translate(1)">
    <path d="M3.5 30c-.8 0-1.5-.7-1.5-1.5s.7-1.5 1.5-1.5h26.5v-2h-27.8c-1.2 0-2.2 1-2.2 2.2v2.2c0 1.5 1.1 2.6 2.5 2.6h27.5v-2h-26.5z" class="iconic-book-bottom iconic-property-fill" />
    <path d="M2 .1c-1.1.2-2 1.2-2 2.4v22.4c.5-.5 1.2-.8 2-.9v-23.9z" class="iconic-book-spine iconic-property-fill" />
    <path d="M28.5 0h-1.5v13l-2-2-2 2v-13h-20v24h27v-22.5c0-.8-.7-1.5-1.5-1.5z" class="iconic-book-cover iconic-property-fill" />
  </g>
  <g data-width="15" data-height="16" class="iconic-container iconic-sm" display="none" transform="scale(8)">
    <path d="M3 12h12v-2h-12c-1.7 0-3 1.3-3 3s1.3 3 3 3h12v-2h-12c-.6 0-1-.4-1-1s.4-1 1-1z" class="iconic-book-bottom iconic-property-fill" />
    <path d="M2 .2c-1.2.4-2 1.5-2 2.8v7.4c.5-.6 1.2-1 2-1.2v-9z" class="iconic-book-spine iconic-property-fill" />
    <path d="M14 0h-1v6l-2-2-2 2v-6h-6v9h12v-8c0-.6-.4-1-1-1z" class="iconic-book-cover iconic-property-fill" />
  </g>
</svg>