<svg version="1.1" xmlns="http://www.w3.org/2000/svg" data-icon="bookmark" width="128" height="128" class="iconic iconic-bookmark" viewBox="0 0 128 128">
  <g class="iconic-metadata">
    <title>Bookmark</title>
  </g>
  <g data-width="44" data-height="128" class="iconic-container iconic-lg" display="inline" transform="translate(42)">
    <path class="iconic-property-fill" d="M0 0v128l22-14.2 22 14.2v-128z" />
  </g>
  <g data-width="14" data-height="32" class="iconic-container iconic-md" display="none" transform="scale(4) translate(9)">
    <path d="M0 .5v31c0 .3.2.4.4.2l6.2-4.4c.2-.2.6-.2.8 0l6.2 4.4c.2.2.4.1.4-.2v-31c0-.3-.2-.5-.5-.5h-13c-.3 0-.5.2-.5.5z" class="iconic-property-fill" />
  </g>
  <g data-width="8" data-height="16" class="iconic-container iconic-sm" display="none" transform="scale(8) translate(4)">
    <path d="M0 .2v15.5c0 .1.1.2.2.1l3.6-3.6c.1-.1.3-.1.4 0l3.6 3.6c.1.1.2.1.2 0v-15.6c0-.1-.1-.2-.2-.2h-7.6c-.1 0-.2.1-.2.2z" class="iconic-property-fill" />
  </g>
</svg>