<svg version="1.1" xmlns="http://www.w3.org/2000/svg" data-icon="box" width="128" height="128" class="iconic iconic-box" viewBox="0 0 128 128">
  <g class="iconic-metadata">
    <title>Box</title>
  </g>
  <defs>
    <clipPath id="iconic-size-lg-box-clip-0">
      <path d="M2 10v110h124v-110h-124zm78 18.5c0 .8-.7 1.5-1.5 1.5h-29c-.8 0-1.5-.7-1.5-1.5v-9c0-.8.7-1.5 1.5-1.5h29c.8 0 1.5.7 1.5 1.5v9z" />
    </clipPath>
    <clipPath id="iconic-size-md-box-clip-0">
      <path d="M1 4v26h30v-26h-30zm19 5.5c0 .3-.2.5-.5.5h-7c-.3 0-.5-.2-.5-.5v-2c0-.3.2-.5.5-.5h7c.3 0 .5.2.5.5v2z" />
    </clipPath>
    <clipPath id="iconic-size-sm-box-clip-0">
      <path d="M0 3v12h16v-12h-16zm10 3.8c0 .1-.1.2-.2.2h-3.6c-.1 0-.2-.1-.2-.2v-1.6c0-.1.1-.2.2-.2h3.5c.2 0 .3.1.3.2v1.6z" />
    </clipPath>
  </defs>
  <g data-width="128" data-height="120" class="iconic-container iconic-lg" display="inline" transform="translate(0 4)">
    <path clip-path="url(#iconic-size-lg-box-clip-0)" d="M124.5 120h-121c-.8 0-1.5-.7-1.5-1.5v-109c0-.8.7-1.5 1.5-1.5h121c.8 0 1.5.7 1.5 1.5v109c0 .8-.7 1.5-1.5 1.5z" class="iconic-box-shell iconic-property-fill" />
    <path class="iconic-box-lid iconic-property-fill" d="M0 0h128v8h-128z" />
  </g>
  <g data-width="32" data-height="30" class="iconic-container iconic-md" display="none" transform="scale(4) translate(0 1)">
    <path clip-path="url(#iconic-size-md-box-clip-0)" d="M1 3.5v26c0 .3.2.5.5.5h29c.3 0 .5-.2.5-.5v-26c0-.3-.2-.5-.5-.5h-29c-.3 0-.5.2-.5.5z" class="iconic-box-shell iconic-property-fill" />
    <path stroke="#000" stroke-width="3" stroke-linecap="square" stroke-miterlimit="10" class="iconic-box-lid iconic-property-stroke" d="M1.5 1.5h29" fill="none" />
  </g>
  <g data-width="16" data-height="15" class="iconic-container iconic-sm" display="none" transform="scale(8)">
    <path clip-path="url(#iconic-size-sm-box-clip-0)" d="M15.8 15h-15.6c-.1 0-.2-.1-.2-.2v-12.6c0-.1.1-.2.2-.2h15.5c.2 0 .3.1.3.2v12.5c0 .2-.1.3-.2.3z" class="iconic-box-shell iconic-property-fill" />
    <path class="iconic-box-lid iconic-property-fill" d="M0 0h16v2h-16z" />
  </g>
</svg>