<svg version="1.1" xmlns="http://www.w3.org/2000/svg" data-icon="brain" width="128" height="128" class="iconic iconic-brain" viewBox="0 0 128 128">
  <g class="iconic-metadata">
    <title>Brain</title>
  </g>
  <g data-width="122" data-height="128" class="iconic-container iconic-lg" display="inline" transform="translate(3)">
    <path d="M55 98c-.6 0-1-.4-1-1s.4-1 1-1c2.8 0 5-2.2 5-5v-18c0-3.9-3.1-7-7-7h-6c-.6 0-1-.4-1-1s.4-1 1-1h6c3.9 0 7-3.1 7-7v-24c0-2.8-2.2-5-5-5-.6 0-1-.4-1-1s.4-1 1-1c2.8 0 5-2.2 5-5v-13c0-4.2-3.3-7.7-7.5-8-.1 0-.2 0-.3 0-.1 0-.1 0-.2 0-.3 0-.5 0-.8 0-24.1.7-41.4 19.6-48.1 42.6.3 1.9 1.9 3.4 3.9 3.4.6 0 1 .4 1 1s-.4 1-1 1c-2.4 0-4.6 1.2-5.9 3.3-.7 4.2-1.1 8.4-1.1 12.7 0 6.2.5 12.3 1.4 18.2 1 2.3 3.1 3.8 5.6 3.8.6 0 1 .4 1 1s-.4 1-1 1c-1.7 0-3.2 1.1-3.8 2.7 1.7 6.3 4 12.2 7 17.3h.8c1.7 0 3-1.3 3-3v-4c0-2.8 2.2-5 5-5s5 2.2 5 5c0 .6-.4 1-1 1s-1-.4-1-1c0-1.7-1.3-3-3-3s-3 1.3-3 3v4c0 2.6-2 4.7-4.5 5 3.6 5.4 8.1 9.9 13.5 13.1 1.9.6 3.9 1 6 1 1.7 0 3-1.3 3-3v-10c0-.6.4-1 1-1s1 .4 1 1v10c0 2.6-2 4.7-4.5 4.9 3.5 1.2 7.4 1.9 11.7 2 .3 0 .6 0 .8 0 .1 0 .1 0 .2 0s.2 0 .3 0c8.6-.3 15.5-7.3 15.5-16v-9c0-2.8-2.2-5-5-5zm-6-18c1.7 0 3-1.3 3-3s-1.3-3-3-3c-.6 0-1-.4-1-1s.4-1 1-1c2.8 0 5 2.2 5 5s-2.2 5-5 5h-3c-.6 0-1-.4-1-1s.4-1 1-1h3zm0-74c2.8 0 5 2.2 5 5 0 .6-.4 1-1 1s-1-.4-1-1c0-1.7-1.3-3-3-3s-3 1.3-3 3c0 .6-.4 1-1 1s-1-.4-1-1c0-2.8 2.2-5 5-5zm0 14c1.7 0 3-1.3 3-3 0-.6.4-1 1-1s1 .4 1 1c0 2.8-2.2 5-5 5s-5 2.2-5 5 2.2 5 5 5 5 2.2 5 5c0 .6-.4 1-1 1s-1-.4-1-1c0-1.7-1.3-3-3-3-3.9 0-7-3.1-7-7s3.1-7 7-7zm5 27c0 .6-.4 1-1 1s-1-.4-1-1c0-1.7-1.3-3-3-3-.6 0-1-.4-1-1s.4-1 1-1c2.8 0 5 2.2 5 5zm-43-3c-.6 0-1-.4-1-1s.4-1 1-1c2.8 0 5 2.2 5 5s-2.2 5-5 5c-.6 0-1-.4-1-1s.4-1 1-1c1.7 0 3-1.3 3-3s-1.3-3-3-3zm0 48c-.6 0-1-.4-1-1s.4-1 1-1c1.7 0 3-1.3 3-3s-1.3-3-3-3c-2.8 0-5-2.2-5-5s2.2-5 5-5c.6 0 1 .4 1 1s-.4 1-1 1c-1.7 0-3 1.3-3 3s1.3 3 3 3c2.8 0 5 2.2 5 5s-2.2 5-5 5zm6-16c-.6 0-1-.4-1-1 0-1.7-1.3-3-3-3-.6 0-1-.4-1-1s.4-1 1-1c2.8 0 5 2.2 5 5 0 .6-.4 1-1 1zm-6-16c-.6 0-1-.4-1-1s.4-1 1-1c6.1 0 11-4.9 11-11 0-.6.4-1 1-1s1 .4 1 1c0 7.2-5.8 13-13 13zm20-30c-.6 0-1-.4-1-1 0-1.7-1.3-3-3-3s-3 1.3-3 3c0 .6-.4 1-1 1s-1-.4-1-1c0-2.8 2.2-5 5-5s5 2.2 5 5c0 .6-.4 1-1 1zm10 26h8c1.7 0 3-1.3 3-3 0-.6.4-1 1-1s1 .4 1 1c0 2.8-2.2 5-5 5h-8c-3.9 0-7 3.1-7 7s3.1 7 7 7c.6 0 1 .4 1 1s-.4 1-1 1c-5 0-9-4-9-9s4-9 9-9zm-8 29c0-2.8 2.2-5 5-5h3c.6 0 1 .4 1 1s-.4 1-1 1h-3c-1.7 0-3 1.3-3 3s1.3 3 3 3c.6 0 1 .4 1 1s-.4 1-1 1c-2.8 0-5-2.2-5-5zm20 7c-2.8 0-5 2.2-5 5v10c0 2.8-2.2 5-5 5s-5-2.2-5-5c0-1.7-1.3-3-3-3-.6 0-1-.4-1-1s.4-1 1-1c2.8 0 5 2.2 5 5 0 1.7 1.3 3 3 3s3-1.3 3-3v-10c0-3.9 3.1-7 7-7 .6 0 1 .4 1 1s-.4 1-1 1z"
    class="iconic-brain-hemisphere iconic-brain-hemisphere-left iconic-property-fill" />
    <path d="M86 121v-10c0-.6.4-1 1-1s1 .4 1 1v10c0 1.7 1.3 3 3 3 2.1 0 4.1-.3 6-1 5.5-3.1 9.9-7.6 13.5-13.1-2.5-.3-4.5-2.4-4.5-5v-4c0-1.7-1.3-3-3-3s-3 1.3-3 3c0 .6-.4 1-1 1s-1-.4-1-1c0-2.8 2.2-5 5-5s5 2.2 5 5v4c0 1.7 1.3 3 3 3h.7c3.1-5.1 5.4-11 7-17.3-.5-1.6-2-2.7-3.8-2.7-.6 0-1-.4-1-1s.4-1 1-1c2.5 0 4.6-1.5 5.6-3.8 1-5.9 1.4-12.1 1.4-18.2 0-4.3-.4-8.5-1.1-12.7-1.3-2-3.5-3.3-5.9-3.3-.6 0-1-.4-1-1s.4-1 1-1c2 0 3.6-1.5 3.9-3.4-6.6-22.9-23.9-41.8-48-42.5-.3 0-.5 0-.8 0-.1 0-.1 0-.2 0s-.2 0-.3 0c-4.2.3-7.5 3.8-7.5 8v13c0 2.8 2.2 5 5 5 .6 0 1 .4 1 1s-.4 1-1 1c-2.8 0-5 2.2-5 5v24c0 3.9 3.1 7 7 7h6c.6 0 1 .4 1 1s-.4 1-1 1h-6c-3.9 0-7 3.1-7 7v18c0 2.8 2.2 5 5 5 .6 0 1 .4 1 1s-.4 1-1 1c-2.8 0-5 2.2-5 5v9c0 8.7 6.9 15.7 15.5 16 .1 0 .2 0 .3 0 .1 0 .1 0 .2 0 .3 0 .6 0 .8 0 4.2-.1 8.1-.8 11.7-2-2.5-.3-4.5-2.4-4.5-5zm-2-31c-.6 0-1-.4-1-1s.4-1 1-1c1.7 0 3-1.3 3-3s-1.3-3-3-3h-3c-.6 0-1-.4-1-1s.4-1 1-1h3c2.8 0 5 2.2 5 5s-2.2 5-5 5zm21-14c-.6 0-1-.4-1-1 0-2.8 2.2-5 5-5 .6 0 1 .4 1 1s-.4 1-1 1c-1.7 0-3 1.3-3 3 0 .6-.4 1-1 1zm11 3c0 2.8-2.2 5-5 5-1.7 0-3 1.3-3 3s1.3 3 3 3c.6 0 1 .4 1 1s-.4 1-1 1c-2.8 0-5-2.2-5-5s2.2-5 5-5c1.7 0 3-1.3 3-3s-1.3-3-3-3c-.6 0-1-.4-1-1s.4-1 1-1c2.8 0 5 2.2 5 5zm-5-37c.6 0 1 .4 1 1s-.4 1-1 1c-1.7 0-3 1.3-3 3s1.3 3 3 3c.6 0 1 .4 1 1s-.4 1-1 1c-2.8 0-5-2.2-5-5s2.2-5 5-5zm0 16c.6 0 1 .4 1 1s-.4 1-1 1c-7.2 0-13-5.8-13-13 0-.6.4-1 1-1s1 .4 1 1c0 6.1 4.9 11 11 11zm-16-34c2.8 0 5 2.2 5 5 0 .6-.4 1-1 1s-1-.4-1-1c0-1.7-1.3-3-3-3s-3 1.3-3 3c0 .6-.4 1-1 1s-1-.4-1-1c0-2.8 2.2-5 5-5zm-22-18c2.8 0 5 2.2 5 5 0 .6-.4 1-1 1s-1-.4-1-1c0-1.7-1.3-3-3-3s-3 1.3-3 3c0 .6-.4 1-1 1s-1-.4-1-1c0-2.8 2.2-5 5-5zm0 26c2.8 0 5-2.2 5-5s-2.2-5-5-5-5-2.2-5-5c0-.6.4-1 1-1s1 .4 1 1c0 1.7 1.3 3 3 3 3.9 0 7 3.1 7 7s-3.1 7-7 7c-1.7 0-3 1.3-3 3 0 .6-.4 1-1 1s-1-.4-1-1c0-2.8 2.2-5 5-5zm0 10c.6 0 1 .4 1 1s-.4 1-1 1c-1.7 0-3 1.3-3 3 0 .6-.4 1-1 1s-1-.4-1-1c0-2.8 2.2-5 5-5zm0 16c-2.8 0-5-2.2-5-5 0-.6.4-1 1-1s1 .4 1 1c0 1.7 1.3 3 3 3h8c5 0 9 4 9 9s-4 9-9 9c-.6 0-1-.4-1-1s.4-1 1-1c3.9 0 7-3.1 7-7s-3.1-7-7-7h-8zm0 14c.6 0 1 .4 1 1s-.4 1-1 1c-1.7 0-3 1.3-3 3s1.3 3 3 3h3c.6 0 1 .4 1 1s-.4 1-1 1h-3c-2.8 0-5-2.2-5-5s2.2-5 5-5zm11 35c0 2.8-2.2 5-5 5s-5-2.2-5-5v-10c0-2.8-2.2-5-5-5-.6 0-1-.4-1-1s.4-1 1-1c3.9 0 7 3.1 7 7v10c0 1.7 1.3 3 3 3s3-1.3 3-3c0-2.8 2.2-5 5-5 .6 0 1 .4 1 1s-.4 1-1 1c-1.7 0-3 1.3-3 3z"
    class="iconic-brain-hemisphere iconic-brain-hemisphere-right iconic-property-fill" />
  </g>
  <g data-width="31" data-height="32" class="iconic-container iconic-md" display="none" transform="scale(4)">
    <path d="M13.5 17h-3c-.3 0-.5-.2-.5-.5s.2-.5.5-.5h3c.8 0 1.5-.7 1.5-1.5v-6c0-.8-.7-1.5-1.5-1.5-.3 0-.5-.2-.5-.5s.2-.5.5-.5c.8 0 1.5-.7 1.5-1.5v-2.5c0-1.1-.9-2-2-2-6.2 0-10.6 4.9-12.3 10.8.3.1.5.2.8.2.3 0 .5.2.5.5s-.2.5-.5.5c-.5 0-.9.2-1.2.6-.2 1.1-.3 2.3-.3 3.4 0 1.5.1 3 .3 4.4.3.4.7.6 1.2.6.3 0 .5.2.5.5s-.2.5-.5.5-.6.1-.8.2c1.3 5.5 4.4 9.8 10.3 9.8 2.2 0 4-1.8 4-4v-9.5c0-.8-.7-1.5-1.5-1.5zm-2-14c.3 0 .5-.2.5-.5s.2-.5.5-.5.5.2.5.5c0 .8-.7 1.5-1.5 1.5-1.4 0-2.5 1.1-2.5 2.5s1.1 2.5 2.5 2.5c.3 0 .5.2.5.5s-.2.5-.5.5c-1.9 0-3.5-1.6-3.5-3.5s1.6-3.5 3.5-3.5zm-3 10h3c.8 0 1.5-.7 1.5-1.5 0-.3.2-.5.5-.5s.5.2.5.5c0 1.4-1.1 2.5-2.5 2.5h-3c-1.4 0-2.5 1.1-2.5 2.5s1.1 2.5 2.5 2.5c.3 0 .5.2.5.5s-.2.5-.5.5c-1.9 0-3.5-1.6-3.5-3.5s1.6-3.5 3.5-3.5zm4 15c-.3 0-.5-.2-.5-.5s-.2-.5-.5-.5-.5.2-.5.5c0 1.4-1.1 2.5-2.5 2.5s-2.5-1.1-2.5-2.5c0-.3.2-.5.5-.5s.5.2.5.5c0 .8.7 1.5 1.5 1.5s1.5-.7 1.5-1.5.7-1.5 1.5-1.5 1.5.7 1.5 1.5c0 .3-.2.5-.5.5zm-1-4h-1.5c-.6 0-1 .4-1 1v1.5c0 .3-.2.5-.5.5s-.5-.2-.5-.5v-1.5c0-1.1.9-2 2-2h1.5c.8 0 1.5-.7 1.5-1.5s-.7-1.5-1.5-1.5c-.3 0-.5-.2-.5-.5s.2-.5.5-.5c1.4 0 2.5 1.1 2.5 2.5s-1.1 2.5-2.5 2.5z"
    class="iconic-brain-hemisphere iconic-brain-hemisphere-left iconic-property-fill" />
    <path d="M29.5 22c-.3 0-.5-.2-.5-.5s.2-.5.5-.5c.5 0 .9-.2 1.2-.6.2-1.4.3-2.9.3-4.4 0-1.1-.1-2.3-.3-3.4-.3-.4-.7-.6-1.2-.6-.3 0-.5-.2-.5-.5s.2-.5.5-.5.5-.1.8-.2c-1.7-5.9-6.1-10.8-12.3-10.8-1.1 0-2 .9-2 2v2.5c0 .8.7 1.5 1.5 1.5.3 0 .5.2.5.5s-.2.5-.5.5c-.8 0-1.5.7-1.5 1.5v6c0 .8.7 1.5 1.5 1.5h3c.3 0 .5.2.5.5s-.2.5-.5.5h-3c-.8 0-1.5.7-1.5 1.5v9.5c0 2.2 1.8 4 4 4 5.9 0 9-4.3 10.3-9.8-.2-.1-.5-.2-.8-.2zm-11-20c.3 0 .5.2.5.5s.2.5.5.5c1.9 0 3.5 1.6 3.5 3.5s-1.6 3.5-3.5 3.5c-.3 0-.5-.2-.5-.5s.2-.5.5-.5c1.4 0 2.5-1.1 2.5-2.5s-1.1-2.5-2.5-2.5c-.8 0-1.5-.7-1.5-1.5 0-.3.2-.5.5-.5zm-1.5 19.5c0-1.4 1.1-2.5 2.5-2.5.3 0 .5.2.5.5s-.2.5-.5.5c-.8 0-1.5.7-1.5 1.5s.7 1.5 1.5 1.5h1.5c1.1 0 2 .9 2 2v1.5c0 .3-.2.5-.5.5s-.5-.2-.5-.5v-1.5c0-.6-.4-1-1-1h-1.5c-1.4 0-2.5-1.1-2.5-2.5zm5.5 8.5c-1.4 0-2.5-1.1-2.5-2.5 0-.3-.2-.5-.5-.5s-.5.2-.5.5-.2.5-.5.5-.5-.2-.5-.5c0-.8.7-1.5 1.5-1.5s1.5.7 1.5 1.5.7 1.5 1.5 1.5 1.5-.7 1.5-1.5c0-.3.2-.5.5-.5s.5.2.5.5c0 1.4-1.1 2.5-2.5 2.5zm0-10c-.3 0-.5-.2-.5-.5s.2-.5.5-.5c1.4 0 2.5-1.1 2.5-2.5s-1.1-2.5-2.5-2.5h-3c-1.4 0-2.5-1.1-2.5-2.5 0-.3.2-.5.5-.5s.5.2.5.5c0 .8.7 1.5 1.5 1.5h3c1.9 0 3.5 1.6 3.5 3.5s-1.6 3.5-3.5 3.5z"
    class="iconic-brain-hemisphere iconic-brain-hemisphere-right iconic-property-fill" />
  </g>
  <g data-width="15" data-height="16" class="iconic-container iconic-sm" display="none" transform="scale(8)">
    <path d="M6.5 8c-.3 0-.5-.2-.5-.5s.2-.5.5-.5h.5v-6c0-.6-.4-1-1-1-2.6 0-4.4 1.7-5.3 4.1.2 0 .3.2.3.4 0 .3-.2.5-.5.5 0 0-.1 0-.1 0-.3 1-.4 2-.4 3s.1 2 .2 2.9c.1.1.2.1.3.1.3 0 .5.2.5.5s-.2.5-.5.5c.6 2.3 1.9 4 4.5 4 1.1 0 2-.9 2-2v-6h-.5zm-1-7c.3 0 .5.2.5.5s-.2.5-.5.5c-.8 0-1.5.7-1.5 1.5 0 .3-.2.5-.5.5s-.5-.2-.5-.5c0-1.4 1.1-2.5 2.5-2.5zm-3 7c-.3 0-.5-.2-.5-.5 0-1.4 1.1-2.5 2.5-2.5.3 0 .5-.2.5-.5s.2-.5.5-.5.5.2.5.5c0 .8-.7 1.5-1.5 1.5s-1.5.7-1.5 1.5c0 .3-.2.5-.5.5zm2 7c-.8 0-1.5-.7-1.5-1.5 0-.3.2-.5.5-.5s.5.2.5.5.2.5.5.5.5-.2.5-.5.2-.5.5-.5.5.2.5.5c0 .8-.7 1.5-1.5 1.5zm0-3c-.3 0-.5-.2-.5-.5s.2-.5.5-.5.5-.2.5-.5-.2-.5-.5-.5-.5-.2-.5-.5.2-.5.5-.5c.8 0 1.5.7 1.5 1.5s-.7 1.5-1.5 1.5z"
    class="iconic-brain-hemisphere iconic-brain-hemisphere-left iconic-property-fill" />
    <path d="M14.5 12c-.3 0-.5-.2-.5-.5s.2-.5.5-.5c.1 0 .2 0 .3-.1.1-.9.2-1.9.2-2.9s-.1-2.1-.4-3c0 0-.1 0-.1 0-.3 0-.5-.2-.5-.5 0-.2.1-.4.3-.4-.9-2.4-2.7-4.1-5.3-4.1-.6 0-1 .4-1 1v6h.5c.3 0 .5.2.5.5s-.2.5-.5.5h-.5v6c0 1.1.9 2 2 2 2.6 0 3.9-1.7 4.5-4zm-5-11c1.4 0 2.5 1.1 2.5 2.5 0 .3-.2.5-.5.5s-.5-.2-.5-.5c0-.8-.7-1.5-1.5-1.5-.3 0-.5-.2-.5-.5s.2-.5.5-.5zm1 8c.3 0 .5.2.5.5s-.2.5-.5.5-.5.2-.5.5.2.5.5.5.5.2.5.5-.2.5-.5.5c-.8 0-1.5-.7-1.5-1.5s.7-1.5 1.5-1.5zm0 6c-.8 0-1.5-.7-1.5-1.5 0-.3.2-.5.5-.5s.5.2.5.5.2.5.5.5.5-.2.5-.5.2-.5.5-.5.5.2.5.5c0 .8-.7 1.5-1.5 1.5zm2-7c-.3 0-.5-.2-.5-.5 0-.8-.7-1.5-1.5-1.5s-1.5-.7-1.5-1.5c0-.3.2-.5.5-.5s.5.2.5.5.2.5.5.5c1.4 0 2.5 1.1 2.5 2.5 0 .3-.2.5-.5.5z"
    class="iconic-brain-hemisphere iconic-brain-hemisphere-right iconic-property-fill" />
  </g>
</svg>