<svg version="1.1" xmlns="http://www.w3.org/2000/svg" data-icon="briefcase" width="128" height="128" class="iconic iconic-briefcase" viewBox="0 0 128 128">
  <g class="iconic-metadata">
    <title>Briefcase</title>
  </g>
  <defs>
    <clipPath id="iconic-size-lg-briefcase-clip-0">
      <path d="M125 52h-51v1c0 1.7-1.3 3-3 3h-16c-1.7 0-3-1.3-3-3v-1h-49c-1.1 0-2.2-.4-3-1v57h128v-57c-.8.6-1.9 1-3 1z" />
    </clipPath>
    <clipPath id="iconic-size-lg-briefcase-clip-1">
      <path d="M3 50h49v-1c0-1.7 1.3-3 3-3h16c1.7 0 3 1.3 3 3v1h51c1.7 0 3-1.3 3-3v-35h-128v35c0 1.7 1.3 3 3 3z" />
    </clipPath>
    <clipPath id="iconic-size-md-briefcase-clip-0">
      <path d="M1.5 12h10.5v-.8c0-.7.6-1.2 1.2-1.2h5.5c.7 0 1.2.6 1.2 1.2v.8h10.5c.8 0 1.5-.5 1.5-1v-8h-31.9v8c0 .5.7 1 1.5 1z" />
    </clipPath>
    <clipPath id="iconic-size-md-briefcase-clip-1">
      <path d="M30.5 13h-10.5v.8c0 .7-.6 1.2-1.2 1.2h-5.5c-.7 0-1.2-.6-1.2-1.2v-.8h-10.6c-.6 0-1.1-.2-1.5-.4v14.4h32v-14.4c-.4.2-.9.4-1.5.4z" />
    </clipPath>
    <clipPath id="iconic-size-sm-briefcase-clip-0">
      <path d="M.5 8h5.5c.1-.6.5-1 1.1-1h1.8c.6 0 1 .4 1.1 1h5.5c.3 0 .5-.2.5-.5v-4.5h-16v4.5c0 .3.2.5.5.5z" />
    </clipPath>
    <clipPath id="iconic-size-sm-briefcase-clip-1">
      <path d="M15.5 9h-5.5c-.1.6-.5 1-1.1 1h-1.8c-.6 0-1-.4-1.1-1h-5.5c-.2 0-.3 0-.5-.1v6.1h16v-6.1c-.2.1-.3.1-.5.1z" />
    </clipPath>
  </defs>
  <g data-width="128" data-height="108" class="iconic-container iconic-lg" display="inline" transform="translate(0 10)">
    <path stroke="#000" stroke-width="4" stroke-linecap="square" stroke-miterlimit="10" d="M78 14v-9c0-1.7-1.3-3-3-3h-24c-1.7 0-3 1.3-3 3v11" class="iconic-briefcase-handle iconic-property-stroke" fill="none" />
    <path d="M55 48c-.5 0-1 .5-1 1v4c0 .5.5 1 1 1h16c.5 0 1-.5 1-1v-4c0-.5-.5-1-1-1h-16z" class="iconic-briefcase-body iconic-briefcase-body-buckle iconic-property-fill" />
    <path clip-path="url(#iconic-size-lg-briefcase-clip-0)" d="M126.5 108h-125c-.8 0-1.5-.7-1.5-1.5v-63c0-.8.7-1.5 1.5-1.5h125c.8 0 1.5.7 1.5 1.5v63c0 .8-.7 1.5-1.5 1.5z" class="iconic-briefcase-body iconic-briefcase-body-bottom iconic-property-fill"
    />
    <path clip-path="url(#iconic-size-lg-briefcase-clip-1)" d="M126.5 58h-125c-.8 0-1.5-.7-1.5-1.5v-43c0-.8.7-1.5 1.5-1.5h125c.8 0 1.5.7 1.5 1.5v43c0 .8-.7 1.5-1.5 1.5z" class="iconic-briefcase-body iconic-briefcase-body-top iconic-property-fill" />
  </g>
  <g data-width="32" data-height="27" class="iconic-container iconic-md" display="none" transform="scale(4) translate(0 2)">
    <path stroke="#000" stroke-linecap="square" stroke-miterlimit="10" d="M19.5 3.5v-2.5c0-.3-.2-.5-.5-.5h-6c-.3 0-.5.2-.5.5v2.5" class="iconic-briefcase-handle iconic-property-stroke" fill="none" />
    <path clip-path="url(#iconic-size-md-briefcase-clip-0)" d="M31.5 16h-31c-.3 0-.5-.2-.5-.5v-12c0-.3.2-.5.5-.5h31c.3 0 .5.2.5.5v12c0 .3-.2.5-.5.5z" class="iconic-briefcase-body iconic-briefcase-body-top iconic-property-fill" />
    <path clip-path="url(#iconic-size-md-briefcase-clip-1)" d="M31.5 27h-31c-.3 0-.5-.2-.5-.5v-17c0-.3.2-.5.5-.5h31c.3 0 .5.2.5.5v17c0 .3-.2.5-.5.5z" class="iconic-briefcase-body iconic-briefcase-body-bottom iconic-property-fill" />
    <path d="M13.2 11c-.1 0-.2.1-.2.2v2.6c0 .1.1.2.2.2h5.5c.1 0 .2-.1.2-.2v-2.6c0-.1-.1-.2-.2-.2h-5.5z" class="iconic-briefcase-body iconic-briefcase-body-buckle iconic-property-fill" />
  </g>
  <g data-width="16" data-height="15" class="iconic-container iconic-sm" display="none" transform="scale(8)">
    <path stroke="#000" stroke-linecap="square" stroke-miterlimit="10" d="M10.5 3v-2.2c0-.1-.1-.2-.2-.2h-4.5c-.1 0-.2.1-.2.2v2.2" class="iconic-briefcase-handle iconic-property-stroke" fill="none" />
    <path d="M7.1 8s-.1.1-.1.1v.8s.1.1.1.1h1.8s.1-.1.1-.1v-.8s-.1-.1-.1-.1h-1.8z" class="iconic-briefcase-body iconic-briefcase-body-buckle iconic-property-fill" />
    <path clip-path="url(#iconic-size-sm-briefcase-clip-0)" class="iconic-briefcase-body iconic-briefcase-body-top iconic-property-fill" d="M0 3h16v8h-16z" />
    <path clip-path="url(#iconic-size-sm-briefcase-clip-1)" class="iconic-briefcase-body iconic-briefcase-body-bottom iconic-property-fill" d="M0 7h16v8h-16z" />
  </g>
</svg>