<svg version="1.1" xmlns="http://www.w3.org/2000/svg" data-icon="british-pound" width="128" height="128" class="iconic iconic-british-pound" viewBox="0 0 128 128">
  <g class="iconic-metadata">
    <title>British Pound</title>
  </g>
  <g data-width="88" data-height="128" class="iconic-container iconic-lg" display="inline" transform="translate(20)">
    <path stroke="#000" stroke-width="6" stroke-miterlimit="10" class="iconic-british-pound-strike iconic-property-accent iconic-property-stroke" d="M6 69h42" fill="none" />
    <path stroke="#000" stroke-width="12" stroke-miterlimit="10" d="M76 32c0-16.5-13.5-26-30-26s-29.9 13.4-29.9 29.9c0 24.9 27.3 44.7-10.1 82.1v4h82" class="iconic-british-pound-l iconic-property-stroke" fill="none" />
  </g>
  <g data-width="21" data-height="32" class="iconic-container iconic-md" display="none" transform="scale(4) translate(5)">
    <path stroke="#000" stroke-width="2" stroke-miterlimit="10" class="iconic-british-pound-strike iconic-property-accent iconic-property-stroke" d="M0 16h12" fill="none" />
    <path stroke="#000" stroke-width="4" stroke-miterlimit="10" d="M17 8.5c0-3.9-3.1-6.5-7-6.5s-7 3.1-7 7c0 5.8 7.7 10.8-1 19.5v1.5h19" class="iconic-british-pound-l iconic-property-stroke" fill="none" />
  </g>
  <g data-width="11" data-height="16" class="iconic-container iconic-sm" display="none" transform="scale(8) translate(2)">
    <path stroke="#000" stroke-miterlimit="10" class="iconic-british-pound-strike iconic-property-accent iconic-property-stroke" d="M0 8.5h7" fill="none" />
    <path stroke="#000" stroke-width="2" stroke-miterlimit="10" d="M9 4c0-1.9-1.6-3-3.5-3s-3.5 1.6-3.5 3.5c0 2.9 3.4 5.1-1 9.5v1h10" class="iconic-british-pound-l iconic-property-stroke" fill="none" />
  </g>
</svg>