<svg version="1.1" xmlns="http://www.w3.org/2000/svg" data-icon="brush" width="128" height="128" class="iconic iconic-brush" viewBox="0 0 128 128">
  <g class="iconic-metadata">
    <title>Brush</title>
  </g>
  <defs>
    <clipPath id="iconic-size-lg-brush-clip-0">
      <path d="M40 0v76.7c.1 0 .3.1.4.1 6.1 1.7 10.9 5.9 13.5 11.2h74.1v-88h-88z" />
    </clipPath>
    <clipPath id="iconic-size-md-brush-clip-0">
      <path d="M10 0v15.9c.2 0 .5 0 .7 0 1.9.3 3.6 1.3 4.8 2.8.7 1 1.2 2.1 1.4 3.3h15.1v-22h-22z" />
    </clipPath>
    <clipPath id="iconic-size-sm-brush-clip-0">
      <path d="M7 0v6.3c1.2.5 2.2 1.5 2.7 2.7h6.3v-9h-9z" />
    </clipPath>
  </defs>
  <g data-width="128" data-height="126" class="iconic-container iconic-lg" display="inline" transform="translate(0 1)">
    <path d="M5.1 124.8c-1.7-.5-3.4-1.1-5.1-1.8 10.6-6.6 18.5-17 21.9-29.2l.2-.7c2.2-6.6 9.3-10.5 16.1-8.6 7.1 1.9 11.3 9.2 9.3 16.2l-.3 1c-5.4 17.7-24.1 28-42.1 23.1z" class="iconic-brush-head iconic-property-accent iconic-property-fill" />
    <path clip-path="url(#iconic-size-lg-brush-clip-0)" d="M40.9 77.2l4.1-12.3c.5-1.6 2-3.7 3.3-4.7l73.2-56.3c1.3-1 2.8-1.4 3.4-.8s.2 2.1-.9 3.4l-56.1 71.1c-1 1.3-3.1 3-4.5 3.7l-10.6 5.3c-1.5.7-3.7.5-5-.5l-5.3-4.3c-1.5-1-2.1-3.1-1.6-4.6z" class="iconic-brush-stem iconic-property-fill"
    />
  </g>
  <g data-width="32" data-height="32" class="iconic-container iconic-md" display="none" transform="scale(4)">
    <path d="M3.2 31.9c-1.1-.2-2.2-.5-3.2-1 2.9-1.8 5-4.8 5.5-8.3v-.2c.4-2.2 2.5-3.8 4.8-3.5 2.3.3 4 2.5 3.7 4.8v.3c-.9 5.1-5.7 8.6-10.8 7.9z" class="iconic-brush-head iconic-property-accent iconic-property-fill" />
    <path clip-path="url(#iconic-size-md-brush-clip-0)" d="M29.8.9l-16.6 12.2c-.7.5-1.5 1.5-1.9 2.2l-1.7 3.3c-.4.7-.2 1.8.4 2.4l.9.9c.6.6 1.7.8 2.4.4l3.3-1.7c.7-.4 1.7-1.2 2.2-1.9l12.3-16.5c.5-.7.7-1.4.4-1.7s-1-.1-1.7.4z" class="iconic-brush-stem iconic-property-fill"
    />
  </g>
  <g data-width="16" data-height="16" class="iconic-container iconic-sm" display="none" transform="scale(8)">
    <path d="M8 10.7c0-1.5-1.2-2.7-2.7-2.7-1.5 0-2.7 1.2-2.7 2.7 0 2-1.1 3.7-2.7 4.6.9.4 1.8.7 2.8.7 2.9 0 5.3-2.4 5.3-5.3z" class="iconic-brush-head iconic-property-accent iconic-property-fill" />
    <path clip-path="url(#iconic-size-sm-brush-clip-0)" d="M14.2.6l-5.4 3.8c-.4.3-1 1-1.3 1.5l-.1.2c-.2.5-.1 1.2.3 1.6l.6.6c.4.4 1.1.5 1.6.3l.2-.1c.5-.2 1.2-.8 1.5-1.3l3.8-5.4c.3-.4.4-1 .1-1.3s-.9-.2-1.3.1z" class="iconic-brush-stem iconic-property-fill"
    />
  </g>
</svg>