<svg version="1.1" xmlns="http://www.w3.org/2000/svg" data-icon="bug" width="128" height="128" class="iconic iconic-bug" viewBox="0 0 128 128">
  <g class="iconic-metadata">
    <title>Bug</title>
  </g>
  <g data-width="116" data-height="128" class="iconic-container iconic-lg" display="inline" transform="translate(6)">
    <path stroke="#000" stroke-width="2" stroke-linecap="round" stroke-linejoin="round" stroke-miterlimit="10" class="iconic-bug-leg iconic-bug-leg-right iconic-bug-leg-top iconic-bug-leg-top-right iconic-property-accent iconic-property-stroke" d="M72 46l15-5v-12l12-8"
    fill="none" />
    <path stroke="#000" stroke-width="2" stroke-linecap="round" stroke-linejoin="round" stroke-miterlimit="10" class="iconic-bug-leg iconic-bug-leg-right iconic-bug-leg-bottom iconic-bug-leg-bottom-right iconic-property-accent iconic-property-stroke"
    d="M85 81l18 8-12 34 4 4" fill="none" />
    <path stroke="#000" stroke-width="2" stroke-linecap="round" stroke-linejoin="round" stroke-miterlimit="10" class="iconic-bug-leg iconic-bug-leg-right iconic-bug-leg-middle iconic-bug-leg-middle-right iconic-property-accent iconic-property-stroke"
    d="M79 57l12-4 12 20 12 4" fill="none" />
    <path stroke="#000" stroke-width="2" stroke-linecap="round" stroke-linejoin="round" stroke-miterlimit="10" class="iconic-bug-leg iconic-bug-leg-left iconic-bug-leg-top iconic-bug-leg-top-left iconic-property-accent iconic-property-stroke" d="M44 46l-15-5v-12l-12-8"
    fill="none" />
    <path stroke="#000" stroke-width="2" stroke-linecap="round" stroke-linejoin="round" stroke-miterlimit="10" class="iconic-bug-leg iconic-bug-leg-left iconic-bug-leg-bottom iconic-bug-leg-bottom-left iconic-property-accent iconic-property-stroke" d="M31 81l-18 8 12 34-4 4"
    fill="none" />
    <path stroke="#000" stroke-width="2" stroke-linecap="round" stroke-linejoin="round" stroke-miterlimit="10" class="iconic-bug-leg iconic-bug-leg-left iconic-bug-leg-middle iconic-bug-leg-middle-left iconic-property-accent iconic-property-stroke" d="M37 57l-12-4-12 20-12 4"
    fill="none" />
    <path stroke="#000" stroke-width="2" stroke-linecap="round" stroke-miterlimit="10" d="M53.9 29.4s-4.1-28.4-20.3-28.4" class="iconic-bug-antenna iconic-bug-antenna-left iconic-property-accent iconic-property-stroke" fill="none" />
    <path stroke="#000" stroke-width="2" stroke-linecap="round" stroke-miterlimit="10" d="M62.1 29.4s4.1-28.4 20.3-28.4" class="iconic-bug-antenna iconic-bug-antenna-right iconic-property-accent iconic-property-stroke" fill="none" />
    <path d="M58.2 16c15.4 0 23.4 20.3 13.4 32h-27.1c-10.3-11.4-1.7-32 13.7-32z" class="iconic-bug-head iconic-property-fill" />
    <path d="M47.8 125.1c4.5-3.7 8.2-10 8.2-17.1v-50c0-1.1.9-2 2-2s2 .9 2 2v50c0 7.1 3.7 13.5 8.2 17.1 11.5-6.7 19.8-24.5 19.8-45.4 0-26.7-13.4-37.7-30-37.7s-30 11-30 37.7c0 20.9 8.3 38.7 19.8 45.4zm24.8-16.7c4.7-7.6 7.4-18.3 7.4-29.4 0-.6.4-1 1-1s1 .4 1 1c0 11.4-2.8 22.5-7.7 30.5-.2.3-.5.5-.9.5-.2 0-.4 0-.5-.2-.5-.3-.6-.9-.3-1.4zm-30.9 1.1c-4.9-7.9-7.7-19-7.7-30.5 0-.6.4-1 1-1s1 .4 1 1c0 11.1 2.7 21.8 7.4 29.4.3.5.1 1.1-.3 1.4-.2.1-.3.2-.5.2-.4-.1-.7-.2-.9-.5z"
    class="iconic-bug-thorax iconic-property-fill" />
  </g>
  <g data-width="29" data-height="32" class="iconic-container iconic-md" display="none" transform="scale(4) translate(1)">
    <path stroke="#000" stroke-linecap="round" stroke-miterlimit="10" class="iconic-bug-leg iconic-bug-leg-right iconic-bug-leg-top iconic-bug-leg-top-right iconic-property-accent iconic-property-stroke" d="M18.5 11.5l3-1v-3l3-2" fill="none" />
    <path stroke="#000" stroke-linecap="round" stroke-linejoin="round" stroke-miterlimit="10" class="iconic-bug-leg iconic-bug-leg-right iconic-bug-leg-bottom iconic-bug-leg-bottom-right iconic-property-accent iconic-property-stroke" d="M20.5 20.5l5 2-3 8 1 1"
    fill="none" />
    <path stroke="#000" stroke-linecap="round" stroke-linejoin="round" stroke-miterlimit="10" class="iconic-bug-leg iconic-bug-leg-right iconic-bug-leg-middle iconic-bug-leg-middle-right iconic-property-accent iconic-property-stroke" d="M19.5 14.5l3-1 3 5 3 1"
    fill="none" />
    <path stroke="#000" stroke-linecap="round" stroke-miterlimit="10" class="iconic-bug-leg iconic-bug-leg-left iconic-bug-leg-top iconic-bug-leg-top-left iconic-property-accent iconic-property-stroke" d="M10.5 11.5l-3-1v-3l-3-2" fill="none" />
    <path stroke="#000" stroke-linecap="round" stroke-linejoin="round" stroke-miterlimit="10" class="iconic-bug-leg iconic-bug-leg-left iconic-bug-leg-bottom iconic-bug-leg-bottom-left iconic-property-accent iconic-property-stroke" d="M8.5 20.5l-5 2 3 8-1 1"
    fill="none" />
    <path stroke="#000" stroke-linecap="round" stroke-linejoin="round" stroke-miterlimit="10" class="iconic-bug-leg iconic-bug-leg-left iconic-bug-leg-middle iconic-bug-leg-middle-left iconic-property-accent iconic-property-stroke" d="M9.5 14.5l-3-1-3 5-3 1"
    fill="none" />
    <path stroke="#000" stroke-linecap="round" stroke-miterlimit="10" d="M12.5 7.5s-1-7-5-7" class="iconic-bug-antenna iconic-bug-antenna-left iconic-property-accent iconic-property-stroke" fill="none" />
    <path stroke="#000" stroke-linecap="round" stroke-miterlimit="10" d="M15.5 7.5s1-7 5-7" class="iconic-bug-antenna iconic-bug-antenna-right iconic-property-accent iconic-property-stroke" fill="none" />
    <path d="M14.5 3.5c3.8 0 5.9 5.7 3.4 8.5h-6.8c-2.5-2.7-.4-8.5 3.4-8.5z" class="iconic-bug-head iconic-property-fill" />
    <path d="M11.8 31.3c1.2-.9 2.2-2.5 2.2-4.3v-12.5c0-.3.2-.5.5-.5s.5.2.5.5v12.5c0 1.8 1 3.4 2.2 4.3 2.8-1.6 4.8-5.6 4.8-10.3 0-6.1-3.4-11-7.5-11s-7.5 4.9-7.5 11c0 4.7 2 8.7 4.8 10.3z" class="iconic-bug-thorax iconic-property-fill" />
  </g>
  <g data-width="15" data-height="15" class="iconic-container iconic-sm" display="none" transform="scale(8)">
    <path stroke="#000" stroke-linecap="round" stroke-miterlimit="10" class="iconic-bug-leg iconic-bug-leg-right iconic-bug-leg-top iconic-bug-leg-top-right iconic-property-accent iconic-property-stroke" d="M9.5 6.5l3-2" fill="none" />
    <path stroke="#000" stroke-linecap="round" stroke-miterlimit="10" class="iconic-bug-leg iconic-bug-leg-right iconic-bug-leg-bottom iconic-bug-leg-bottom-right iconic-property-accent iconic-property-stroke" d="M10.5 9.5l3 4" fill="none" />
    <path stroke="#000" stroke-linecap="round" stroke-miterlimit="10" class="iconic-bug-leg iconic-bug-leg-right iconic-bug-leg-middle iconic-bug-leg-middle-right iconic-property-accent iconic-property-stroke" d="M10.5 7.5l4 2" fill="none" />
    <path stroke="#000" stroke-linecap="round" stroke-miterlimit="10" class="iconic-bug-leg iconic-bug-leg-left iconic-bug-leg-top iconic-bug-leg-top-left iconic-property-accent iconic-property-stroke" d="M5.5 6.5l-3-2" fill="none" />
    <path stroke="#000" stroke-linecap="round" stroke-miterlimit="10" class="iconic-bug-leg iconic-bug-leg-left iconic-bug-leg-bottom iconic-bug-leg-bottom-left iconic-property-accent iconic-property-stroke" d="M4.5 9.5l-3 4" fill="none" />
    <path stroke="#000" stroke-linecap="round" stroke-miterlimit="10" class="iconic-bug-leg iconic-bug-leg-left iconic-bug-leg-middle iconic-bug-leg-middle-left iconic-property-accent iconic-property-stroke" d="M4.5 7.5l-4 2" fill="none" />
    <path stroke="#000" stroke-linecap="round" stroke-miterlimit="10" d="M6.5 4s-.5-3.5-2.5-3.5" class="iconic-bug-antenna iconic-bug-antenna-left iconic-property-accent iconic-property-stroke" fill="none" />
    <path stroke="#000" stroke-linecap="round" stroke-miterlimit="10" d="M8 4s.5-3.5 2.5-3.5" class="iconic-bug-antenna iconic-bug-antenna-right iconic-property-accent iconic-property-stroke" fill="none" />
    <path d="M7.5 2c2 0 3.3 2.6 2 4h-4c-1.3-1.4 0-4 2-4z" class="iconic-bug-head iconic-property-fill" />
    <path d="M7.5 5c-2.5 0-4.5 2.5-4.5 5.5 0 2.3 1.2 4.3 2.9 5.1.6-.4 1.1-1.2 1.1-2.1v-6c0-.3.2-.5.5-.5s.5.2.5.5v6c0 .9.5 1.7 1.1 2.1 1.7-.8 2.9-2.8 2.9-5.1 0-3-2-5.5-4.5-5.5z" class="iconic-bug-thorax iconic-property-fill" />
  </g>
</svg>