<svg version="1.1" xmlns="http://www.w3.org/2000/svg" data-icon="bullhorn" width="128" height="128" class="iconic iconic-bullhorn" viewBox="0 0 128 128">
  <g class="iconic-metadata">
    <title>Bullhorn</title>
  </g>
  <defs>
    <clipPath id="iconic-size-lg-bullhorn-clip-0">
      <path d="M4 0h114v92h-114z" />
    </clipPath>
    <clipPath id="iconic-size-lg-bullhorn-clip-1">
      <path d="M120 0h8v92h-8z" />
    </clipPath>
    <clipPath id="iconic-size-md-bullhorn-clip-0">
      <path d="M2 0h26v22h-26z" />
    </clipPath>
    <clipPath id="iconic-size-md-bullhorn-clip-1">
      <path d="M29 0h3v22h-3z" />
    </clipPath>
    <clipPath id="iconic-size-sm-bullhorn-clip-0">
      <path d="M0 0h13v11h-13z" />
    </clipPath>
    <clipPath id="iconic-size-sm-bullhorn-clip-1">
      <path d="M14 0h2v11h-2z" />
    </clipPath>
  </defs>
  <g data-width="128" data-height="122" class="iconic-container iconic-lg" display="inline" transform="translate(0 3)">
    <path d="M41.7 68.3l5.6 10.4c.4.7 0 1.3-.8 1.3h-9c-.8 0-1.5-.7-1.5-1.5l.2-6c0-.8.6-1.9 1.2-2.5l2.4-2c.7-.6 1.5-.4 1.9.3z" class="iconic-bullhorn-handle iconic-bullhorn-handle-trigger iconic-property-fill" />
    <path d="M59.6 121.1l-19-47.6c-1.1-2.7 3.2-7.5 7.5-6.1l-.1-11.4h-28v10h1.6l22 55.1c.2.5.8.9 1.4.9h14c.5 0 .8-.4.6-.9z" class="iconic-bullhorn-handle iconic-property-fill" />
    <path d="M10.5 62h-9c-.8 0-1.5-.7-1.5-1.5v-29c0-.8.7-1.5 1.5-1.5h9c.8 0 1.5.7 1.5 1.5v29c0 .8-.7 1.5-1.5 1.5z" class="iconic-bullhorn-body iconic-bullhorn-body-back iconic-property-fill" />
    <path d="M4 64.5v-37c0-.8.7-1.5 1.5-1.5h37c.8 0 2.1-.2 2.9-.5l70.9-25c.8-.3 2.1-.5 2.9-.5h7.3c.8 0 1.5.7 1.5 1.5v89c0 .8-.7 1.5-1.5 1.5h-7.3c-.8 0-2.1-.2-2.9-.5l-70.9-25c-.8-.3-2.1-.5-2.9-.5h-37c-.8 0-1.5-.7-1.5-1.5z" clip-path="url(#iconic-size-lg-bullhorn-clip-0)"
    class="iconic-bullhorn-body iconic-property-fill" />
    <path d="M119.5 0h7c.8 0 1.5.7 1.5 1.5v89c0 .8-.7 1.5-1.5 1.5h-7c-.8 0-1.5-.7-1.5-1.5v-89c0-.8.7-1.5 1.5-1.5z" clip-path="url(#iconic-size-lg-bullhorn-clip-1)" class="iconic-bullhorn-body iconic-bullhorn-body-front-lip iconic-property-fill" />
  </g>
  <g data-width="32" data-height="30" class="iconic-container iconic-md" display="none" transform="scale(4) translate(0 1)">
    <path d="M14.8 29.5l-4.7-11.7c-.3-.7.3-1.7 1.4-1.4l-.5-2.4-6-1v3h.4l5.4 13.5c.1.3.4.5.7.5h3c.3 0 .4-.2.3-.5z" class="iconic-bullhorn-handle iconic-property-fill" />
    <path d="M2.5 15h-2c-.3 0-.5-.2-.5-.5v-7c0-.3.2-.5.5-.5h2c.3 0 .5.2.5.5v7c0 .3-.2.5-.5.5z" class="iconic-bullhorn-body iconic-bullhorn-body-back iconic-property-fill" />
    <path d="M2 15.5v-9c0-.3.2-.5.5-.5h7c.3 0 .7-.1 1-.2l17.5-5.6c.3-.1.7-.2 1-.2h2.6c.2 0 .4.2.4.5v21c0 .3-.2.5-.5.5h-2.6c-.3 0-.7-.1-1-.2l-17.5-5.7c-.3-.1-.7-.2-1-.2h-7c-.2.1-.4-.1-.4-.4z" clip-path="url(#iconic-size-md-bullhorn-clip-0)" class="iconic-bullhorn-body iconic-property-fill"
    />
    <path d="M28.5 0h3c.3 0 .5.2.5.5v21c0 .3-.2.5-.5.5h-3c-.3 0-.5-.2-.5-.5v-21c0-.3.2-.5.5-.5z" clip-path="url(#iconic-size-md-bullhorn-clip-1)" class="iconic-bullhorn-body iconic-bullhorn-body-front-lip iconic-property-fill" />
  </g>
  <g data-width="16" data-height="15" class="iconic-container iconic-sm" display="none" transform="scale(8)">
    <path d="M6.9 13.4l-1.9-4.4c-.1-.4.2-.9.7-.8l.3-1.2h-4v1l2.8 6.3c.3.6.9.8 1.5.6.6-.3.9-.9.6-1.5z" class="iconic-bullhorn-handle iconic-property-fill" />
    <path clip-path="url(#iconic-size-sm-bullhorn-clip-0)" class="iconic-bullhorn-body iconic-property-fill" d="M0 8v-5h5l8.7-3h2.3v11h-2.3l-8.7-3z" />
    <path d="M13.2 0h2.5c.2 0 .3.1.3.2v10.5c0 .1-.1.2-.2.2h-2.5c-.1 0-.2-.1-.2-.2v-10.5c-.1-.1 0-.2.1-.2z" clip-path="url(#iconic-size-sm-bullhorn-clip-1)" class="iconic-bullhorn-body iconic-bullhorn-body-front-lip iconic-property-fill" />
  </g>
</svg>