<svg version="1.1" xmlns="http://www.w3.org/2000/svg" data-icon="cart" width="128" height="128" class="iconic iconic-cart" viewBox="0 0 128 128">
  <g class="iconic-metadata">
    <title>Cart</title>
  </g>
  <defs>
    <clipPath id="iconic-size-lg-cart-clip-0">
      <path d="M0 0v106h22.7c-2.8-2-4.7-5.3-4.7-9 0-6.1 4.9-11 11-11s11 4.9 11 11c0 3.7-1.9 7-4.7 9h61.4c-2.8-2-4.7-5.3-4.7-9 0-6.1 4.9-11 11-11s11 4.9 11 11c0 3.7-1.9 7-4.7 9h18.7v-106h-128z" />
    </clipPath>
    <clipPath id="iconic-size-md-cart-clip-0">
      <path d="M0 0v28h5.1c-.7-.6-1.1-1.5-1.1-2.5 0-1.9 1.6-3.5 3.5-3.5s3.5 1.6 3.5 3.5c0 1-.4 1.9-1.1 2.5h14.1c-.7-.6-1.1-1.5-1.1-2.5 0-1.9 1.6-3.5 3.5-3.5s3.5 1.6 3.5 3.5c0 1-.4 1.9-1.1 2.5h3.2v-28h-32z" />
    </clipPath>
  </defs>
  <g data-width="128" data-height="106" class="iconic-container iconic-lg" display="inline" transform="translate(0 11)">
    <path d="M31.2 65.1l-14.4-50.2c-.4-1.6.5-2.9 2.2-2.9h106c1.7 0 2.7 1.3 2.4 2.9l-10.7 50.1c-.3 1.6-2 2.9-3.6 2.9h-78.1c-1.7.1-3.4-1.2-3.8-2.8z" class="iconic-cart-basket iconic-property-fill" />
    <circle cx="29" cy="97" r="9" class="iconic-cart-wheel iconic-cart-wheel-back iconic-property-fill" />
    <circle cx="103" cy="97" r="9" class="iconic-cart-wheel iconic-cart-wheel-front iconic-property-fill" />
    <path clip-path="url(#iconic-size-lg-cart-clip-0)" stroke="#000" stroke-width="4" stroke-miterlimit="10" d="M106 92h-81.2c-.4 0-.6-.3-.5-.7l9.4-22.6c.2-.4.2-1 .1-1.4l-18.6-64.6c-.1-.4-.5-.7-1-.7h-11.2" class="iconic-cart-body iconic-property-stroke"
    fill="none" />
    <circle cx="3" cy="3" r="3" class="iconic-cart-handle iconic-property-fill" />
  </g>
  <g data-width="32" data-height="28" class="iconic-container iconic-md" display="none" transform="scale(4) translate(0 2)">
    <path d="M8.7 17l-3.4-13c-.2-.6.1-1 .7-1h25c.6 0 .9.4.8 1l-2.6 13c-.1.5-.6 1-1.2 1h-18c-.6 0-1.1-.4-1.3-1z" class="iconic-cart-basket iconic-property-fill" />
    <circle cx="7.5" cy="25.5" r="2.5" class="iconic-cart-wheel iconic-cart-wheel-back iconic-property-fill" />
    <circle cx="26.5" cy="25.5" r="2.5" class="iconic-cart-wheel iconic-cart-wheel-front iconic-property-fill" />
    <path clip-path="url(#iconic-size-md-cart-clip-0)" stroke="#000" stroke-miterlimit="10" d="M27 24.5h-20c-.3 0-.4-.2-.3-.5l2.1-5.6c.1-.3.1-.7.1-1l-4.3-16.4c0-.3-.3-.5-.6-.5h-3" class="iconic-cart-body iconic-property-stroke" fill="none" />
    <circle cx="1" cy="1" r="1" class="iconic-cart-handle iconic-property-fill" />
  </g>
  <g data-width="16" data-height="14" class="iconic-container iconic-sm" display="none" transform="scale(8) translate(0 1)">
    <circle cx="3.5" cy="12.5" r="1.5" class="iconic-cart-wheel iconic-cart-wheel-back iconic-property-fill" />
    <circle cx="13.5" cy="12.5" r="1.5" class="iconic-cart-wheel iconic-cart-wheel-front iconic-property-fill" />
    <path d="M3.9 8.5l-.9-6c0-.3.2-.5.5-.5h12c.3 0 .5.2.4.5l-.9 6c0 .3-.2.5-.5.5h-10c-.3 0-.5-.2-.6-.5z" class="iconic-cart-basket iconic-property-fill" />
    <path stroke="#000" stroke-linecap="square" stroke-miterlimit="10" d="M.5.5h2.2c.1 0 .3.1.3.2l1.4 6.5c0 .1 0 .4 0 .5l-.9 4.5c0 .1.1.2.2.2h9.8" class="iconic-cart-body iconic-property-stroke" fill="none" />
  </g>
</svg>