<svg version="1.1" xmlns="http://www.w3.org/2000/svg" data-icon="chat" width="128" height="128" class="iconic iconic-chat" viewBox="0 0 128 128">
  <g class="iconic-metadata">
    <title>Chat</title>
  </g>
  <defs>
    <clipPath id="iconic-size-lg-chat-clip-0">
      <path d="M46 72h-46v-72h83v16h-37z" />
    </clipPath>
    <clipPath id="iconic-size-md-chat-clip-0">
      <path d="M11 18.9h-11v-18.9h22v6h-11z" />
    </clipPath>
    <clipPath id="iconic-size-sm-chat-clip-0">
      <path d="M5 11h-5v-11h11v3h-6z" />
    </clipPath>
  </defs>
  <g data-width="128" data-height="90" class="iconic-container iconic-lg" display="inline" transform="translate(0 19)">
    <path d="M48 19.5v55c0 .8.7 1.5 1.5 1.5h65c.8 0 1.9.5 2.5 1.1l10 11.7c.5.6 1 .5 1-.4v-69c0-.8-.7-1.5-1.5-1.5h-77c-.8.1-1.5.8-1.5 1.6z" class="iconic-chat-bubble iconic-chat-bubble-front iconic-property-fill" />
    <path d="M0 1.5v69c0 .8.4 1 1 .4l10-11.7c.5-.6 1.6-1.1 2.5-1.1h65c.8 0 1.5-.7 1.5-1.5v-55c0-.9-.7-1.6-1.5-1.6h-77c-.8 0-1.5.7-1.5 1.5z" clip-path="url(#iconic-size-lg-chat-clip-0)" class="iconic-chat-bubble iconic-chat-bubble-back iconic-property-accent iconic-property-fill"
    />
  </g>
  <g data-width="32" data-height="26" class="iconic-container iconic-md" display="none" transform="scale(4) translate(0 3)">
    <path d="M12 7.5v14c0 .3.2.5.5.5h15c.3 0 .7.2.9.4l3.3 3.3c.2.2.4.1.4-.1v-18c-.1-.4-.3-.6-.6-.6h-19c-.3 0-.5.2-.5.5z" class="iconic-chat-bubble iconic-chat-bubble-front iconic-property-fill" />
    <path d="M0 .5v18c0 .3.2.3.4.1l3.3-3.3c.1-.1.5-.3.8-.3h15c.3 0 .5-.2.5-.5v-14c0-.3-.2-.5-.5-.5h-19c-.3 0-.5.2-.5.5z" clip-path="url(#iconic-size-md-chat-clip-0)" class="iconic-chat-bubble iconic-chat-bubble-back iconic-property-accent iconic-property-fill"
    />
  </g>
  <g data-width="16" data-height="15" class="iconic-container iconic-sm" display="none" transform="scale(8)">
    <path class="iconic-chat-bubble iconic-chat-bubble-front iconic-property-fill" d="M6 4v8h7l3 3v-11z" />
    <path clip-path="url(#iconic-size-sm-chat-clip-0)" class="iconic-chat-bubble iconic-chat-bubble-back iconic-property-accent iconic-property-fill" d="M0 0v11l3-3h7v-8z" />
  </g>
</svg>