<svg version="1.1" xmlns="http://www.w3.org/2000/svg" data-icon="circle-x" width="128" height="128" class="iconic iconic-circle-x" viewBox="0 0 128 128">
  <g class="iconic-metadata">
    <title>Circle X</title>
  </g>
  <defs>
    <clipPath id="iconic-size-lg-circle-x-clip-0">
      <path d="M0 0v128h128v-128h-128zm90.7 85l-5.7 5.7-21-21-21 21-5.7-5.7 21-21-21-21 5.7-5.7 21 21 21-21 5.7 5.7-21 21 21 21z" />
    </clipPath>
    <clipPath id="iconic-size-md-circle-x-clip-0">
      <path d="M0 0v32h32v-32h-32zm23.1 21l-2.1 2.1-5-5-5 5-2.1-2.1 5-5-5-5 2.1-2.1 5 5 5-5 2.1 2.1-5 5 5 5z" />
    </clipPath>
    <clipPath id="iconic-size-sm-circle-x-clip-0">
      <path d="M0 0v16h16v-16h-16zm11.4 10l-1.4 1.4-2-2-2 2-1.4-1.4 2-2-2-2 1.4-1.4 2 2 2-2 1.4 1.4-2 2 2 2z" />
    </clipPath>
  </defs>
  <g data-width="128" data-height="128" class="iconic-container iconic-lg" display="inline">
    <circle cx="64" cy="64" r="64" clip-path="url(#iconic-size-lg-circle-x-clip-0)" class="iconic-circle-x-body iconic-property-fill" />
  </g>
  <g data-width="32" data-height="32" class="iconic-container iconic-md" display="none" transform="scale(4)">
    <circle cx="16" cy="16" r="16" clip-path="url(#iconic-size-md-circle-x-clip-0)" class="iconic-circle-x-body iconic-property-fill" />
  </g>
  <g data-width="16" data-height="16" class="iconic-container iconic-sm" display="none" transform="scale(8)">
    <circle cx="8" cy="8" r="8" clip-path="url(#iconic-size-sm-circle-x-clip-0)" class="iconic-circle-x-body iconic-property-fill" />
  </g>
</svg>