<svg version="1.1" xmlns="http://www.w3.org/2000/svg" data-icon="circle-check" width="128" height="128" class="iconic iconic-circle-check" viewBox="0 0 128 128">
  <g class="iconic-metadata">
    <title>Circle Check</title>
  </g>
  <defs>
    <clipPath id="iconic-size-lg-circle-check-clip-0">
      <path d="M0 0v128h128v-128h-128zm54.2 92.2l-23.9-23.9 5.7-5.7 17.9 17.9 39.8-44.2 5.9 5.4-45.4 50.5z" />
    </clipPath>
    <clipPath id="iconic-size-md-circle-check-clip-0">
      <path d="M0 0v32h32v-32h-32zm13.1 24.2l-6.2-6.2 2.1-2.1 3.9 3.9 10-10.9 2.2 2-12 13.3z" />
    </clipPath>
    <clipPath id="iconic-size-sm-circle-check-clip-0">
      <path d="M0 0v16h16v-16h-16zm7 11.4l-3.4-3.4 1.4-1.4 2 2 4-4 1.4 1.4-5.4 5.4z" />
    </clipPath>
  </defs>
  <g data-width="128" data-height="128" class="iconic-container iconic-lg" display="inline">
    <circle cx="64" cy="64" r="64" clip-path="url(#iconic-size-lg-circle-check-clip-0)" class="iconic-circle-check-body iconic-property-fill" />
  </g>
  <g data-width="32" data-height="32" class="iconic-container iconic-md" display="none" transform="scale(4)">
    <circle cx="16" cy="16" r="16" clip-path="url(#iconic-size-md-circle-check-clip-0)" class="iconic-circle-check-body iconic-property-fill" />
  </g>
  <g data-width="16" data-height="16" class="iconic-container iconic-sm" display="none" transform="scale(8)">
    <circle cx="8" cy="8" r="8" clip-path="url(#iconic-size-sm-circle-check-clip-0)" class="iconic-circle-check-body iconic-property-fill" />
  </g>
</svg>