<svg version="1.1" xmlns="http://www.w3.org/2000/svg" data-icon="clipboard" width="128" height="128" class="iconic iconic-clipboard" viewBox="0 0 128 128">
  <g class="iconic-metadata">
    <title>Clipboard</title>
  </g>
  <defs>
    <clipPath id="iconic-size-lg-clipboard-clip-0">
      <path d="M75.5 20c1.6 2.3 2.5 5 2.5 8v4h-68v-4c0-3 .9-5.7 2.5-8h-12.5v105h88v-105h-12.5z" />
    </clipPath>
    <clipPath id="iconic-size-md-clipboard-clip-0">
      <path d="M20.4 6c.4.6.6 1.3.6 2v2h-18v-2c0-.7.2-1.4.6-2h-3.6v26h24v-26h-3.6z" />
    </clipPath>
    <clipPath id="iconic-size-sm-clipboard-clip-0">
      <path d="M11 3v2h-9v-2h-2v13h13v-13z" />
    </clipPath>
  </defs>
  <g data-width="88" data-height="125" class="iconic-container iconic-lg" display="inline" transform="translate(20 1)">
    <path clip-path="url(#iconic-size-lg-clipboard-clip-0)" d="M86.5 125h-85c-.8 0-1.5-.7-1.5-1.5v-102c0-.8.7-1.5 1.5-1.5h85c.8 0 1.5.7 1.5 1.5v102c0 .8-.7 1.5-1.5 1.5z" class="iconic-clipboard-board iconic-property-fill" />
    <path d="M44 0c-6.6 0-12 5.4-12 12v10l24 .2v-10.2c0-6.6-5.4-12-12-12zm0 12c-2.2 0-4-1.8-4-4s1.8-4 4-4 4 1.8 4 4-1.8 4-4 4z" class="iconic-clipboard-clip iconic-clipboard-clip-loop iconic-property-accent iconic-property-fill" />
    <path d="M12 28c0-6.6 5.4-12 12-12h40c6.6 0 12 5.4 12 12v2h-64v-2z" class="iconic-clipboard-clip iconic-clipboard-clip-base iconic-property-accent iconic-property-fill" />
  </g>
  <g data-width="24" data-height="32" class="iconic-container iconic-md" display="none" transform="scale(4) translate(4)">
    <path clip-path="url(#iconic-size-md-clipboard-clip-0)" d="M23.5 32h-23c-.3 0-.5-.2-.5-.5v-25c0-.3.2-.5.5-.5h23c.3 0 .5.2.5.5v25c0 .3-.2.5-.5.5z" class="iconic-clipboard-board iconic-property-fill" />
    <path d="M12 0c-1.7 0-3 1.3-3 3v3h6v-3c0-1.7-1.3-3-3-3zm0 4c-.6 0-1-.4-1-1s.4-1 1-1 1 .4 1 1-.4 1-1 1z" class="iconic-clipboard-clip iconic-clipboard-clip-loop iconic-property-accent iconic-property-fill" />
    <path d="M17 5h-10c-1.7 0-3 1.3-3 3v1h16v-1c0-1.7-1.3-3-3-3z" class="iconic-clipboard-clip iconic-clipboard-clip-base iconic-property-accent iconic-property-fill" />
  </g>
  <g data-width="13" data-height="16" class="iconic-container iconic-sm" display="none" transform="scale(8) translate(1)">
    <path clip-path="url(#iconic-size-sm-clipboard-clip-0)" d="M12.8 16h-12.6c-.1 0-.2-.1-.2-.2v-12.6c0-.1.1-.2.2-.2h12.5c.2 0 .3.1.3.2v12.5c0 .2-.1.3-.2.3z" class="iconic-clipboard-board iconic-property-fill" />
    <path stroke="#000" stroke-miterlimit="10" d="M7.5 3v-1.5c0-.6-.4-1-1-1s-1 .4-1 1v1.5" class="iconic-clipboard-clip iconic-clipboard-clip-loop iconic-property-accent iconic-property-stroke" fill="none" />
    <path d="M9 2h-5c-.5 0-1 .5-1 1v1h7v-1c0-.5-.5-1-1-1z" class="iconic-clipboard-clip iconic-clipboard-clip-base iconic-property-accent iconic-property-fill" />
  </g>
</svg>