<svg version="1.1" xmlns="http://www.w3.org/2000/svg" data-icon="cloudy" width="128" height="128" class="iconic iconic-cloudy" viewBox="0 0 128 128">
  <g class="iconic-metadata">
    <title>Cloudy</title>
  </g>
  <defs>
    <clipPath id="iconic-size-lg-cloudy-clip-0">
      <path d="M16.3 58c3-19.2 19.9-34 39.7-34 10.7 0 20.5 4.2 27.7 11.1-3.3-19.9-20.7-35.1-41.5-35.1-23.3 0-42.2 18.9-42.2 42.2 0 8 2.2 15.5 6.1 21.9 3-2.7 6.4-4.8 10.2-6.1z" />
    </clipPath>
    <clipPath id="iconic-size-md-cloudy-clip-0">
      <path d="M3.2 15.6c1-5 5.4-8.6 10.8-8.6 2.2 0 4.2.6 5.9 1.7-.6-4.9-4.8-8.7-9.9-8.7-5.5 0-10 4.5-10 10 0 2.3.8 4.5 2.1 6.2.4-.3.7-.5 1.1-.6z" />
    </clipPath>
    <clipPath id="iconic-size-sm-cloudy-clip-0">
      <path d="M2.2 7.3c.8-2.5 3.1-4.3 5.8-4.3.7 0 1.4.1 2 .4v-3.4h-10v9c.6-.7 1.3-1.3 2.2-1.7z" />
    </clipPath>
  </defs>
  <g data-width="128" data-height="114" class="iconic-container iconic-lg" display="inline" transform="translate(0 7)">
    <circle cx="42" cy="42" r="42" clip-path="url(#iconic-size-lg-cloudy-clip-0)" class="iconic-cloudy-sun iconic-property-accent iconic-property-fill" />
    <path d="M110 78c-.7 0-1.3-.1-2 0-.9-8.4-7.6-15.1-16-16-1-19-16.8-34-36-34-18.8 0-34.4 14.6-36 33-11.6 3-20 13.5-20 26 0 14.6 11.6 26.5 26 27h84c9.9 0 18-8.1 18-18s-8.1-18-18-18z" class="iconic-cloudy-cloud iconic-property-fill" />
  </g>
  <g data-width="32" data-height="31" class="iconic-container iconic-md" display="none" transform="scale(4)">
    <circle cx="10" cy="10" r="10" clip-path="url(#iconic-size-md-cloudy-clip-0)" class="iconic-cloudy-sun iconic-property-accent iconic-property-fill" />
    <path d="M27 21c-.4-2-2.1-3.5-4-3.9-.5-4.5-4.3-8.1-9-8.1s-8.6 3.4-9 8c-2.9.9-5 3.8-5 7 0 3.5 2.6 6.5 6 7 4.3 0 20.9 0 21 0 2.8 0 5-2.2 5-5s-2.2-5-5-5z" class="iconic-cloudy-cloud iconic-property-fill" />
  </g>
  <g data-width="16" data-height="16" class="iconic-container iconic-sm" display="none" transform="scale(8)">
    <circle cx="5" cy="5" r="5" clip-path="url(#iconic-size-sm-cloudy-clip-0)" class="iconic-cloudy-sun iconic-property-accent iconic-property-fill" />
    <path d="M13 10v-1c0-2.8-2.2-5-5-5-2.5 0-4.5 1.8-4.9 4.1-1.8.4-3.1 2-3.1 3.9 0 2.2 1.8 4 4 4h9c1.7 0 3-1.3 3-3s-1.3-3-3-3z" class="iconic-cloudy-cloud iconic-property-fill" />
  </g>
</svg>