<svg version="1.1" xmlns="http://www.w3.org/2000/svg" data-icon="cloud" width="128" height="128" class="iconic iconic-cloud" viewBox="0 0 128 128">
  <g class="iconic-metadata">
    <title>Cloud</title>
  </g>
  <g data-width="128" data-height="86" class="iconic-container iconic-lg" display="inline" transform="translate(0 21)">
    <path d="M108 50c-.9-8.4-7.6-15.1-16-16-1-19-16.8-34-36-34-18.8 0-34.4 14.6-36 33-11.6 3-20 13.5-20 26 0 14.6 11.6 26.5 26 27h84c9.9 0 18-8.1 18-18s-7-18-20-18z" class="iconic-cloud-cloud iconic-property-fill" />
  </g>
  <g data-width="32" data-height="22" class="iconic-container iconic-md" display="none" transform="scale(4) translate(0 5)">
    <path d="M27 12c-.4-2-2.1-3.5-4-3.9-.5-4.5-4.3-8.1-9-8.1s-8.6 3.4-9 8c-2.9.9-5 3.8-5 7 0 3.5 2.6 6.5 6 7 4.3 0 20.9 0 21 0 2.8 0 5-2.2 5-5s-2.2-5-5-5z" class="iconic-cloud-cloud iconic-property-fill" />
  </g>
  <g data-width="16" data-height="12" class="iconic-container iconic-sm" display="none" transform="scale(8) translate(0 2)">
    <path d="M13 6v-1c0-2.8-2.2-5-5-5-2.5 0-4.5 1.8-4.9 4.1-1.8.4-3.1 2-3.1 3.9 0 2.2 1.8 4 4 4h9c1.7 0 3-1.3 3-3s-1.3-3-3-3z" class="iconic-cloud-cloud iconic-property-fill" />
  </g>
</svg>