<svg version="1.1" xmlns="http://www.w3.org/2000/svg" data-icon="cog" width="128" height="128" class="iconic iconic-cog" viewBox="0 0 128 128">
  <g class="iconic-metadata">
    <title>Cog</title>
  </g>
  <g data-width="128" data-height="128" class="iconic-container iconic-lg" display="inline">
    <path d="M128 73.9v-19.9l-14.3-3.6c-1.2-4.2-2.8-8.3-5-12l7.5-12.7-14.1-14.1-12.7 7.6c-3.7-2.1-7.8-3.8-12-5l-3.5-14.2h-19.9l-3.6 14.3c-4.2 1.2-8.3 2.8-12 5l-12.7-7.5-14 14 7.6 12.7c-2.1 3.7-3.8 7.8-5 12l-14.3 3.6v19.9l14.3 3.6c1.2 4.2 2.8 8.3 5 12l-7.5 12.7 14.1 14.1 12.7-7.6c3.7 2.1 7.8 3.8 12 5l3.7 14.3h19.7l3.6-14.3c4.2-1.2 8.3-2.8 12-5l12.7 7.5 14.1-14.1-7.6-12.7c2.1-3.7 3.8-7.8 5-12l14.2-3.6zm-64 24.1c-18.8 0-34-15.2-34-34s15.2-34 34-34 34 15.2 34 34-15.2 34-34 34z"
    class="iconic-cog-body iconic-property-fill" />
  </g>
  <g data-width="32" data-height="32" class="iconic-container iconic-md" display="none" transform="scale(4)">
    <path d="M32 18v-4l-4-1.3c-.3-1-.7-2-1.2-2.9l1.8-3.7-2.8-2.8-3.7 1.9c-.9-.5-1.9-.9-2.9-1.2l-1.2-4h-4l-1.3 4c-1 .3-2 .7-2.9 1.2l-3.7-1.9-2.8 2.8 1.9 3.7c-.5.9-.9 1.9-1.2 2.9l-4 1.3v4l4 1.3c.3 1 .7 2 1.2 2.9l-1.8 3.7 2.8 2.8 3.7-1.9c.9.5 1.9.9 2.9 1.2l1.3 4h4l1.3-4c1-.3 2-.7 2.9-1.2l3.7 1.8 2.8-2.8-1.9-3.7c.5-.9.9-1.9 1.2-2.9l3.9-1.2zm-16 5c-3.9 0-7-3.1-7-7s3.1-7 7-7 7 3.1 7 7-3.1 7-7 7z"
    class="iconic-cog-body iconic-property-fill" />
  </g>
  <g data-width="16" data-height="16" class="iconic-container iconic-sm" display="none" transform="scale(8)">
    <path d="M16 9v-2l-2-1c-.1-.3-.2-.6-.4-.9l.9-2.1-1.5-1.5-2.1.8c-.3-.1-.6-.2-.9-.3l-1-2h-2l-1 2c-.3.1-.6.2-.9.3l-2.1-.8-1.5 1.5.8 2.1c-.1.3-.2.6-.3.9l-2 1v2l2 1c.1.3.2.6.4.9l-.9 2.1 1.5 1.5 2.1-.8c.3.1.6.2.9.3l1 2h2l1-2c.3-.1.6-.2.9-.4l2.1.8 1.5-1.5-.8-2.1c.1-.3.3-.6.4-.9l1.9-.9zm-8 2c-1.7 0-3-1.3-3-3s1.3-3 3-3 3 1.3 3 3-1.3 3-3 3z"
    class="iconic-cog-body iconic-property-fill" />
  </g>
</svg>