<svg version="1.1" xmlns="http://www.w3.org/2000/svg" data-icon="cogs" width="128" height="128" class="iconic iconic-cogs" viewBox="0 0 128 128">
  <g class="iconic-metadata">
    <title>Cogs</title>
  </g>
  <g data-width="128" data-height="128" class="iconic-container iconic-lg" display="inline">
    <path d="M77.9 47.4c.4-2.9.4-5.9 0-8.9l8.1-6-5.2-12.5-10 1.5c-1.8-2.4-4-4.5-6.3-6.3l1.4-10-12.5-5.2-6 8.1c-2.9-.4-5.9-.4-8.9 0l-6-8.1-12.5 5.2 1.5 10c-2.4 1.8-4.5 4-6.3 6.3l-10-1.5-5.2 12.6 8.1 6c-.4 2.9-.4 5.9 0 8.9l-8.1 6 5.2 12.5 10-1.5c1.8 2.4 4 4.5 6.3 6.3l-1.4 10 12.5 5.2 6-8.1c2.9.4 5.9.4 8.9 0l6 8.1 12.5-5.2-1.5-10c2.4-1.8 4.5-4 6.3-6.3l10 1.4 5.2-12.5-8.1-6zm-26 17.1c-11.9 4.9-25.4-.8-30.4-12.6-4.9-11.9.8-25.4 12.6-30.4 11.8-4.9 25.4.7 30.3 12.6 5 11.9-.7 25.4-12.5 30.4z"
    class="iconic-cogs-cog iconic-cogs-cog-large iconic-property-fill" />
    <path d="M128 100.9v-9.9l-7.2-1.8c-.6-2.1-1.4-4.1-2.5-6l3.8-6.4-7-7-6.3 3.8c-1.9-1.1-3.9-1.9-6-2.5l-1.8-7.2h-10l-1.8 7.2c-2.1.6-4.1 1.4-6 2.5l-6.4-3.8-7 7 3.8 6.3c-1.1 1.9-1.9 3.9-2.5 6l-7.1 2v9.9l7.2 1.8c.6 2.1 1.4 4.1 2.5 6l-3.8 6.4 7 7 6.3-3.8c1.9 1.1 3.9 1.9 6 2.5l1.8 7.2h9.9l1.8-7.2c2.1-.6 4.1-1.4 6-2.5l6.4 3.8 7-7-3.8-6.3c1.1-1.9 1.9-3.9 2.5-6l7.2-2zm-32 12.1c-9.4 0-17-7.6-17-17s7.6-17 17-17 17 7.6 17 17-7.6 17-17 17z"
    class="iconic-cogs-cog iconic-cogs-cog-small iconic-property-accent iconic-property-fill" />
  </g>
  <g data-width="32" data-height="32" class="iconic-container iconic-md" display="none" transform="scale(4)">
    <path d="M19.2 11.7c.1-.7.1-1.4 0-2.1l2.2-1.9-1-2.5-2.9.2c-.5-.6-1-1.1-1.5-1.5l.1-2.9-2.5-1-1.9 2.2c-.7-.1-1.4-.1-2.1 0l-1.9-2.2-2.5 1 .2 2.9c-.6.5-1.1 1-1.5 1.5l-2.9-.2-1 2.5 2.2 1.9c-.1.7-.1 1.4 0 2.1l-2.2 1.9 1 2.5 2.9-.1c.4.6.9 1.1 1.5 1.5l-.2 2.9 2.5 1 1.9-2.2c.7.1 1.4.1 2.1 0l1.9 2.2 2.5-1-.1-2.9c.6-.4 1.1-.9 1.5-1.5l2.9.2 1-2.5-2.2-2zm-6.7 3.4c-2.5 1-5.3-.1-6.3-2.6s.1-5.3 2.6-6.3 5.3.1 6.3 2.6c1.1 2.5-.1 5.3-2.6 6.3z"
    class="iconic-cogs-cog iconic-cogs-cog-large iconic-property-fill" />
    <path d="M32 25v-2l-2-.7c-.1-.5-.3-1-.6-1.4l.9-1.9-1.4-1.4-1.9.9c-.4-.3-.9-.5-1.4-.6l-.6-1.9h-2l-.7 2c-.5.1-1 .3-1.4.6l-1.9-1-1.4 1.4.9 1.9c-.3.4-.5.9-.6 1.4l-1.9.7v2l2 .7c.1.5.3 1 .6 1.4l-1 1.9 1.4 1.4 1.9-.9c.4.3.9.5 1.4.6l.7 2h2l.7-2c.5-.1 1-.3 1.4-.6l1.9.9 1.4-1.4-.9-1.9c.3-.4.5-.9.6-1.4l1.9-.7zm-8 2.5c-1.9 0-3.5-1.6-3.5-3.5s1.6-3.5 3.5-3.5 3.5 1.6 3.5 3.5-1.6 3.5-3.5 3.5z"
    class="iconic-cogs-cog iconic-cogs-cog-small iconic-property-accent iconic-property-fill" />
  </g>
  <g data-width="16" data-height="16" class="iconic-container iconic-sm" display="none" transform="scale(8)">
    <path d="M9 5.3c0-.2 0-.4 0-.6l.9-1.1-.5-1.1-1.4-.1c-.1-.2-.2-.3-.4-.4v-1.5l-1.3-.5-1 1c-.2 0-.4 0-.6 0l-1.1-.9-1.1.5-.1 1.4c-.2.1-.3.2-.4.4h-1.5l-.5 1.3 1 1.1c0 .2 0 .4 0 .6l-.9 1 .5 1.2h1.4c.1.2.2.3.4.4v1.5l1.3.5 1.1-1c.2 0 .4 0 .6 0l1.1.9 1.2-.5-.1-1.4c.2-.1.3-.2.4-.4h1.5l.5-1.3-1-1zm-3.3 1.5c-1 .4-2.1-.1-2.5-1-.4-1 .1-2.1 1-2.5 1-.4 2.1.1 2.5 1 .5.9 0 2-1 2.5z"
    class="iconic-cogs-cog iconic-cogs-cog-large iconic-property-fill" />
    <path d="M16 12.5v-1l-1-.5c0-.1-.1-.3-.2-.4l.4-1.1-.8-.8-1.1.4s-.2-.1-.3-.1l-.5-1h-1l-.5 1c-.1 0-.3.1-.4.2l-1.1-.4-.7.7.4 1.1c-.1.1-.2.3-.2.4l-1 .5v1l1 .5c0 .1.1.3.2.4l-.4 1.1.8.8 1.1-.4c.1.1.3.1.4.2l.5 1h1l.5-1c.1 0 .3-.1.4-.2l1.1.4.8-.8-.4-1.1c.1-.1.1-.3.2-.4l.8-.5zm-4 1c-.8 0-1.5-.7-1.5-1.5s.7-1.5 1.5-1.5 1.5.7 1.5 1.5-.7 1.5-1.5 1.5z"
    class="iconic-cogs-cog iconic-cogs-cog-small iconic-property-accent iconic-property-fill" />
  </g>
</svg>