<svg version="1.1" xmlns="http://www.w3.org/2000/svg" data-icon="comment-square" width="128" height="128" class="iconic iconic-comment-square" viewBox="0 0 128 128">
  <g class="iconic-metadata">
    <title>Comment Square</title>
  </g>
  <g data-width="128" data-height="110" class="iconic-container iconic-lg" display="inline" transform="translate(0 9)">
    <path d="M0 1.5v85c0 .8.7 1.5 1.5 1.5h103c.8 0 2 .5 2.6 1.1l19.9 19.9c.6.6 1.1.4 1.1-.4v-107.1c0-.8-.7-1.5-1.5-1.5h-125.1c-.8 0-1.5.7-1.5 1.5z" class="iconic-property-fill" />
  </g>
  <g data-width="32" data-height="29" class="iconic-container iconic-md" display="none" transform="scale(4) translate(0 1)">
    <path d="M0 .5v22c0 .3.2.5.5.5h25c.3 0 .7.2.9.4l5.3 5.3c.2.2.4.1.4-.1v-28c-.1-.4-.3-.6-.6-.6h-31c-.3 0-.5.2-.5.5z" class="iconic-property-fill" />
  </g>
  <g data-width="16" data-height="16" class="iconic-container iconic-sm" display="none" transform="scale(8)">
    <path class="iconic-property-fill" d="M16 0h-16v12h12l4 4z" />
  </g>
</svg>