<svg version="1.1" xmlns="http://www.w3.org/2000/svg" data-icon="contrast" width="128" height="128" class="iconic iconic-contrast" viewBox="0 0 128 128">
  <g class="iconic-metadata">
    <title>Contrast</title>
  </g>
  <defs>
    <clipPath id="iconic-size-lg-contrast-clip-0">
      <path d="M64 116c-28.7 0-52-23.3-52-52s23.3-52 52-52v104z" />
    </clipPath>
  </defs>
  <g data-width="128" data-height="128" class="iconic-container iconic-lg" display="inline">
    <path d="M64 116c-28.7 0-52-23.3-52-52s23.3-52 52-52v104z" class="iconic-contrast-black iconic-property-accent iconic-property-fill" />
    <circle stroke="#000" stroke-width="8" stroke-miterlimit="10" cx="64" cy="64" r="60" class="iconic-contrast-border iconic-property-stroke" fill="none" />
  </g>
  <g data-width="32" data-height="32" class="iconic-container iconic-md" display="none" transform="scale(4)">
    <path d="M16 31c-8.3 0-15-6.7-15-15s6.7-15 15-15v30z" class="iconic-contrast-black iconic-property-accent iconic-property-fill" />
    <circle stroke="#000" stroke-width="3" stroke-miterlimit="10" cx="16" cy="16" r="14.5" class="iconic-contrast-border iconic-property-stroke" fill="none" />
  </g>
  <g data-width="16" data-height="16" class="iconic-container iconic-sm" display="none" transform="scale(8)">
    <path d="M8 15c-3.9 0-7-3.1-7-7s3.1-7 7-7v14z" class="iconic-contrast-black iconic-property-accent iconic-property-fill" />
    <circle stroke="#000" stroke-width="2" stroke-miterlimit="10" cx="8" cy="8" r="7" class="iconic-contrast-border iconic-property-stroke" fill="none" />
  </g>
</svg>