<svg version="1.1" xmlns="http://www.w3.org/2000/svg" data-icon="credit-card" width="128" height="128" class="iconic iconic-credit-card" viewBox="0 0 128 128">
  <g class="iconic-metadata">
    <title>Credit Card</title>
  </g>
  <defs>
    <clipPath id="iconic-size-lg-credit-card-clip-0">
      <path d="M0 0v80h128v-80h-128zm30 71.5c0 .3-.2.5-.5.5h-21c-.3 0-.5-.2-.5-.5v-13c0-.3.2-.5.5-.5h21c.3 0 .5.2.5.5v13zm62-30c0 .3-.2.5-.5.5h-83c-.3 0-.5-.2-.5-.5v-11c0-.3.2-.5.5-.5h83c.3 0 .5.2.5.5v11zm28 0c0 .3-.2.5-.5.5h-23c-.3 0-.5-.2-.5-.5v-11c0-.3.2-.5.5-.5h23c.3 0 .5.2.5.5v11zm6-19.5h-124v-14h124v14z"
      />
    </clipPath>
    <clipPath id="iconic-size-md-credit-card-clip-0">
      <path d="M0 0v20h32v-20h-32zm8 16.8c0 .1-.1.2-.2.2h-4.6c-.1 0-.2-.1-.2-.2v-2.5c0-.2.1-.3.2-.3h4.5c.2 0 .3.1.3.2v2.6zm15-6c0 .1-.1.2-.2.2h-19.6c-.1 0-.2-.1-.2-.2v-1.6c0-.1.1-.2.2-.2h19.5c.2 0 .3.1.3.2v1.6zm5 0c0 .1-.1.2-.2.2h-3.5c-.1 0-.2-.1-.2-.2v-1.6c-.1-.1 0-.2.1-.2h3.5c.2 0 .3.1.3.2v1.6zm3-4.8h-30v-3h30v3z"
      />
    </clipPath>
    <clipPath id="iconic-size-sm-credit-card-clip-0">
      <path d="M0 2v-2h16v2h-16zm16 2v8h-16v-8h16zm-11 4h-3v2h3v-2z" />
    </clipPath>
  </defs>
  <g data-width="128" data-height="80" class="iconic-container iconic-lg" display="inline" transform="translate(0 24)">
    <path clip-path="url(#iconic-size-lg-credit-card-clip-0)" d="M125 80h-122c-1.7 0-3-1.3-3-3v-74c0-1.7 1.3-3 3-3h122c1.7 0 3 1.3 3 3v74c0 1.7-1.3 3-3 3z" class="iconic-credit-card-body iconic-property-fill" />
  </g>
  <g data-width="32" data-height="20" class="iconic-container iconic-md" display="none" transform="scale(4) translate(0 6)">
    <path clip-path="url(#iconic-size-md-credit-card-clip-0)" d="M31 20h-30c-.6 0-1-.4-1-1v-18c0-.6.4-1 1-1h30c.6 0 1 .4 1 1v18c0 .6-.4 1-1 1z" class="iconic-credit-card-body iconic-property-fill" />
  </g>
  <g data-width="16" data-height="12" class="iconic-container iconic-sm" display="none" transform="scale(8) translate(0 2)">
    <path d="M15.5 12h-15c-.3 0-.5-.2-.5-.5v-11c0-.3.2-.5.5-.5h15c.3 0 .5.2.5.5v11c0 .3-.2.5-.5.5z" clip-path="url(#iconic-size-sm-credit-card-clip-0)" class="iconic-credit-card-body iconic-property-fill" />
  </g>
</svg>