<svg version="1.1" xmlns="http://www.w3.org/2000/svg" data-icon="crop" width="128" height="128" class="iconic iconic-crop" viewBox="0 0 128 128">
  <g class="iconic-metadata">
    <title>Crop</title>
  </g>
  <g data-width="128" data-height="128" class="iconic-container iconic-lg" display="inline">
    <path transform="matrix(-.707 .707 -.707 -.707 162.01 45.893)" class="iconic-crop-angle iconic-property-accent iconic-property-fill" d="M-5.6 53.7h154.1v5.7h-154.1z" />
    <path stroke="#000" stroke-width="8" stroke-miterlimit="10" class="iconic-crop-corner iconic-crop-corner-top iconic-property-stroke" d="M0 16h112v112" fill="none" />
    <path stroke="#000" stroke-width="8" stroke-miterlimit="10" class="iconic-crop-corner iconic-crop-corner-bottom iconic-property-stroke" d="M128 112h-112v-112" fill="none" />
  </g>
  <g data-width="32" data-height="32" class="iconic-container iconic-md" display="none" transform="scale(4)">
    <path transform="matrix(-.707 -.707 .707 -.707 22.035 36.127)" class="iconic-crop-angle iconic-property-accent iconic-property-fill" d="M17.8-4.9h1.4v36.8h-1.4z" />
    <path stroke="#000" stroke-width="3" stroke-miterlimit="10" class="iconic-crop-corner iconic-crop-corner-top iconic-property-stroke" d="M0 6.5h25.5v25.5" fill="none" />
    <path stroke="#000" stroke-width="3" stroke-miterlimit="10" class="iconic-crop-corner iconic-crop-corner-bottom iconic-property-stroke" d="M32 25.5h-25.5v-25.5" fill="none" />
  </g>
  <g data-width="16" data-height="16" class="iconic-container iconic-sm" display="none" transform="scale(8)">
    <path transform="matrix(-.707 -.707 .707 -.707 11.621 17.814)" class="iconic-crop-angle iconic-property-accent iconic-property-fill" d="M8.8-2h1.4v17h-1.4z" />
    <path stroke="#000" stroke-width="2" stroke-miterlimit="10" class="iconic-crop-corner iconic-crop-corner-top iconic-property-stroke" d="M0 3h13v13" fill="none" />
    <path stroke="#000" stroke-width="2" stroke-miterlimit="10" class="iconic-crop-corner iconic-crop-corner-bottom iconic-property-stroke" d="M16 13h-13v-13" fill="none" />
  </g>
</svg>