<svg version="1.1" xmlns="http://www.w3.org/2000/svg" data-icon="dashboard" width="128" height="128" class="iconic iconic-dashboard" viewBox="0 0 128 128">
  <g class="iconic-metadata">
    <title>Dashboard</title>
  </g>
  <defs>
    <clipPath id="iconic-size-lg-dashboard-clip-0">
      <path d="M0 0v122h128v-122h-128zm73.9 73.9c-2.6 2.6-6.2 4.1-9.9 4.1s-7.3-1.5-9.9-4.1c-4-4-25.3-37.1-29.5-43.7-1-1.6-.8-3.7.5-5 .8-.8 1.9-1.2 2.9-1.2.7 0 1.5.2 2.2.6 6.6 4.2 39.7 25.5 43.7 29.5 2.6 2.6 4.1 6.2 4.1 9.9s-1.5 7.3-4.1 9.9z" />
    </clipPath>
    <clipPath id="iconic-size-md-dashboard-clip-0">
      <path d="M0 0v30h32v-30h-32zm19.6 19.6c-.9.9-2.1 1.4-3.3 1.4-1.3 0-2.4-.5-3.3-1.4-1.1-1.1-5.7-8.5-7.7-11.6-.5-.7-.4-1.8.3-2.4.4-.4.9-.6 1.4-.6.4 0 .7.1 1.1.3 3.1 2 10.5 6.6 11.6 7.7 1.7 1.8 1.7 4.8-.1 6.6z" />
    </clipPath>
    <clipPath id="iconic-size-sm-dashboard-clip-0">
      <path d="M0 0v15h16v-15h-16zm9.3 9.3c-.4.5-1 .7-1.6.7s-1.7-1-1.7-1l-2-1s-1-4.4-.7-4.7c.2-.2.4-.3.7-.3.2 0 4 1 4 1l1 2s1.2 2.4.3 3.3z" />
    </clipPath>
  </defs>
  <g data-width="128" data-height="122" class="iconic-container iconic-lg" display="inline" transform="translate(0 3)">
    <path stroke="#000" stroke-width="8" stroke-miterlimit="10" d="M90 118c2.6-1.2 5.2-2.7 7.5-4.2 3.2-2.2 6.2-4.6 8.9-7.3s5.2-5.7 7.3-8.9c2.2-3.2 4-6.6 5.5-10.2s2.7-7.4 3.5-11.3 1.3-8 1.3-12.1-.4-8.2-1.2-12.1-2-7.7-3.5-11.3c-1.5-3.6-3.4-7-5.5-10.2s-4.6-6.2-7.3-8.9-5.7-5.2-8.9-7.3c-3.2-2.2-6.6-4-10.2-5.5s-7.4-2.7-11.3-3.5-8-1.2-12.1-1.2-8.2.4-12.1 1.2-7.7 2-11.3 3.5c-3.6 1.5-7 3.4-10.2 5.5s-6.2 4.6-8.9 7.3-5.2 5.7-7.3 8.9-4 6.6-5.5 10.2c-1.5 3.6-2.7 7.4-3.5 11.3s-1.2 8-1.2 12.1.4 8.2 1.2 12.1 2 7.7 3.5 11.3 3.4 7 5.5 10.2c2.2 3.2 4.6 6.2 7.3 8.9s5.7 5.2 8.9 7.3c2.4 1.6 4.9 3 7.5 4.2h52.1z"
    class="iconic-dashboard-body iconic-property-stroke" fill="none" />
    <path clip-path="url(#iconic-size-lg-dashboard-clip-0)" stroke="#000" stroke-width="4" stroke-linecap="round" stroke-miterlimit="10" d="M32.9 94.8c-4-4-7.2-8.7-9.4-14-2.3-5.3-3.5-11.1-3.5-17.1s1.2-11.9 3.5-17.1 5.4-10 9.4-14 8.7-7.2 14-9.4 11.1-3.5 17.1-3.5 11.9 1.2 17.1 3.5c5.3 2.2 10 5.4 14 9.4s7.2 8.7 9.4 14c2.2 5.3 3.5 11.1 3.5 17.1s-1.2 11.9-3.5 17.1c-2.2 5.3-5.4 10-9.4 14"
    class="iconic-dashboard-values iconic-property-accent iconic-property-stroke" fill="none" />
    <path d="M71.1 56.9c-3.9-3.9-43.1-28.9-43.1-28.9s25 39.2 28.9 43.1c3.9 3.9 10.2 3.9 14.1 0 4-3.9 4-10.3.1-14.2zm-7.1 9.1c-1.1 0-2-.9-2-2s.9-2 2-2 2 .9 2 2-.9 2-2 2z" class="iconic-dashboard-needle iconic-property-fill" />
  </g>
  <g data-width="32" data-height="30" class="iconic-container iconic-md" display="none" transform="scale(4) translate(0 1)">
    <path stroke="#000" stroke-width="3" stroke-miterlimit="10" d="M9 28.5c-4.5-2.4-7.5-7-7.5-12.5 0-8 6.5-14.5 14.5-14.5s14.5 6.5 14.5 14.5c0 5.5-3 10.1-7.5 12.5h-14z" class="iconic-dashboard-body iconic-property-stroke" fill="none" />
    <path d="M14.4 18.2c1 1 2.7 1 3.8 0s1-2.8 0-3.8-11.2-7.4-11.2-7.4 6.4 10.2 7.4 11.2z" class="iconic-dashboard-needle iconic-property-fill" />
    <path clip-path="url(#iconic-size-md-dashboard-clip-0)" stroke="#000" stroke-linecap="round" stroke-miterlimit="10" d="M9.3 22.7c-1.7-1.7-2.8-4.1-2.8-6.7s1.1-5 2.8-6.7 4.1-2.8 6.7-2.8 5 1.1 6.7 2.8 2.8 4.1 2.8 6.7-1.1 5-2.8 6.7" class="iconic-dashboard-values iconic-property-accent iconic-property-stroke"
    fill="none" />
  </g>
  <g data-width="16" data-height="15" class="iconic-container iconic-sm" display="none" transform="scale(8)">
    <path stroke="#000" stroke-width="2" stroke-miterlimit="10" d="M4.5 14c-2.1-1.2-3.5-3.4-3.5-6 0-3.9 3.1-7 7-7s7 3.1 7 7c0 2.6-1.4 4.8-3.5 6h-7z" class="iconic-dashboard-body iconic-property-stroke" fill="none" />
    <path d="M6.7 8.6c.5.5 1.4.5 1.9 0s.5-1.4 0-1.9-4.6-2.7-4.6-2.7 2.2 4.1 2.7 4.6z" class="iconic-dashboard-needle iconic-property-fill" />
    <path clip-path="url(#iconic-size-sm-dashboard-clip-0)" stroke="#000" stroke-linecap="round" stroke-miterlimit="10" d="M5.5 10.5c-.6-.7-1-1.5-1-2.5s.4-1.8 1-2.5 1.5-1 2.5-1 1.8.4 2.5 1 1 1.5 1 2.5-.4 1.8-1 2.5" class="iconic-dashboard-values iconic-property-accent iconic-property-stroke"
    fill="none" />
  </g>
</svg>