<svg version="1.1" xmlns="http://www.w3.org/2000/svg" data-icon="delete" width="128" height="128" class="iconic iconic-delete" viewBox="0 0 128 128">
  <g class="iconic-metadata">
    <title>Delete</title>
  </g>
  <defs>
    <clipPath id="iconic-size-lg-delete-clip-0">
      <path d="M0 0v72h128v-72h-128zm94.7 51l-5.7 5.7-15-15-15 15-5.7-5.7 15-15-15-15 5.7-5.7 15 15 15-15 5.7 5.7-15 15 15 15z" />
    </clipPath>
    <clipPath id="iconic-size-md-delete-clip-0">
      <path d="M0 0v18h32v-18h-32zm23.6 12l-2.1 2.1-3-3-3 3-2.1-2.1 3-3-3-3 2.1-2.1 3 3 3-3 2.1 2.1-3 3 3 3z" />
    </clipPath>
    <clipPath id="iconic-size-sm-delete-clip-0">
      <path d="M0 0v12h16v-12h-16zm13.4 8l-1.4 1.4-2-2-2 2-1.4-1.4 2-2-2-2 1.4-1.4 2 2 2-2 1.4 1.4-2 2 2 2z" />
    </clipPath>
  </defs>
  <g data-width="128" data-height="72" class="iconic-container iconic-lg" display="inline" transform="translate(0 28)">
    <path d="M23.2 1.2l-22.4 33.6c-.5.7-.5 1.8 0 2.5l22.3 33.5c.5.7 1.5 1.2 2.3 1.2h101c.8 0 1.5-.7 1.5-1.5v-69c0-.8-.7-1.5-1.5-1.5h-101c-.7 0-1.8.6-2.2 1.2z" clip-path="url(#iconic-size-lg-delete-clip-0)" class="iconic-delete-body iconic-property-fill"
    />
  </g>
  <g data-width="32" data-height="18" class="iconic-container iconic-md" display="none" transform="scale(4) translate(0 7)">
    <path d="M5.7.4l-5.4 8.2c-.2.2-.2.6 0 .8l5.4 8.2c.2.2.5.4.8.4h25c.3 0 .5-.2.5-.5v-17c0-.3-.2-.5-.5-.5h-25c-.3 0-.6.2-.8.4z" clip-path="url(#iconic-size-md-delete-clip-0)" class="iconic-delete-body iconic-property-fill" />
  </g>
  <g data-width="16" data-height="12" class="iconic-container iconic-sm" display="none" transform="scale(8) translate(0 2)">
    <path clip-path="url(#iconic-size-sm-delete-clip-0)" class="iconic-delete-body iconic-property-fill" d="M4 0l-4 6 4 6h12v-12z" />
  </g>
</svg>