<svg version="1.1" xmlns="http://www.w3.org/2000/svg" data-icon="dial" width="128" height="128" class="iconic iconic-dial" viewBox="0 0 128 128">
  <g class="iconic-metadata">
    <title>Dial</title>
  </g>
  <defs>
    <clipPath id="iconic-size-lg-dial-clip-0">
      <path d="M66 26v34c0 1.1-.9 2-2 2s-2-.9-2-2v-34h-36v76h76v-76h-36z" />
    </clipPath>
    <clipPath id="iconic-size-md-dial-clip-0">
      <path d="M17 5v10c0 .6-.4 1-1 1s-1-.4-1-1v-10h-10v22h22v-22h-10z" />
    </clipPath>
    <clipPath id="iconic-size-sm-dial-clip-0">
      <path d="M8 3v4.5c0 .3-.2.5-.5.5s-.5-.2-.5-.5v-4.5h-4v9h9v-9h-4z" />
    </clipPath>
  </defs>
  <g data-width="128" data-height="102" class="iconic-container iconic-lg" display="inline" transform="translate(0 13)">
    <circle cx="64" cy="64" r="38" clip-path="url(#iconic-size-lg-dial-clip-0)" class="iconic-dial-body iconic-property-fill" />
    <path stroke="#000" stroke-width="4" stroke-linecap="round" stroke-miterlimit="10" class="iconic-dial-notch iconic-dial-notch-1 iconic-property-accent iconic-property-stroke" d="M2 64h4" fill="none" />
    <path stroke="#000" stroke-width="4" stroke-linecap="round" stroke-miterlimit="10" class="iconic-dial-notch iconic-dial-notch-2 iconic-property-accent iconic-property-stroke" d="M6.7 40.3l3.7 1.5" fill="none" />
    <path stroke="#000" stroke-width="4" stroke-linecap="round" stroke-miterlimit="10" class="iconic-dial-notch iconic-dial-notch-3 iconic-property-accent iconic-property-stroke" d="M20.2 20.2l2.8 2.8" fill="none" />
    <path stroke="#000" stroke-width="4" stroke-linecap="round" stroke-miterlimit="10" class="iconic-dial-notch iconic-dial-notch-4 iconic-property-accent iconic-property-stroke" d="M40.3 6.7l1.5 3.7" fill="none" />
    <path stroke="#000" stroke-width="4" stroke-linecap="round" stroke-miterlimit="10" class="iconic-dial-notch iconic-dial-notch-5 iconic-property-accent iconic-property-stroke" d="M64 2v4" fill="none" />
    <path stroke="#000" stroke-width="4" stroke-linecap="round" stroke-miterlimit="10" class="iconic-dial-notch iconic-dial-notch-6 iconic-property-accent iconic-property-stroke" d="M86.2 10.4l1.5-3.7" fill="none" />
    <path stroke="#000" stroke-width="4" stroke-linecap="round" stroke-miterlimit="10" class="iconic-dial-notch iconic-dial-notch-7 iconic-property-accent iconic-property-stroke" d="M105 23l2.8-2.8" fill="none" />
    <path stroke="#000" stroke-width="4" stroke-linecap="round" stroke-miterlimit="10" class="iconic-dial-notch iconic-dial-notch-8 iconic-property-accent iconic-property-stroke" d="M117.6 41.8l3.7-1.5" fill="none" />
    <path stroke="#000" stroke-width="4" stroke-linecap="round" stroke-miterlimit="10" class="iconic-dial-notch iconic-dial-notch-9 iconic-property-accent iconic-property-stroke" d="M122 64h4" fill="none" />
  </g>
  <g data-width="32" data-height="27" class="iconic-container iconic-md" display="none" transform="scale(4) translate(0 2)">
    <circle cx="16" cy="16" r="11" clip-path="url(#iconic-size-md-dial-clip-0)" class="iconic-dial-body iconic-property-fill" />
    <circle cx="1" cy="16" r="1" class="iconic-dial-notch iconic-dial-notch-1 iconic-property-accent iconic-property-fill" />
    <circle cx="2.1" cy="10.3" r="1" class="iconic-dial-notch iconic-dial-notch-2 iconic-property-accent iconic-property-fill" />
    <circle cx="5.4" cy="5.4" r="1" class="iconic-dial-notch iconic-dial-notch-3 iconic-property-accent iconic-property-fill" />
    <circle cx="10.3" cy="2.1" r="1" class="iconic-dial-notch iconic-dial-notch-4 iconic-property-accent iconic-property-fill" />
    <circle cx="16" cy="1" r="1" class="iconic-dial-notch iconic-dial-notch-5 iconic-property-accent iconic-property-fill" />
    <circle cx="21.7" cy="2.1" r="1" class="iconic-dial-notch iconic-dial-notch-6 iconic-property-accent iconic-property-fill" />
    <circle cx="26.6" cy="5.4" r="1" class="iconic-dial-notch iconic-dial-notch-7 iconic-property-accent iconic-property-fill" />
    <circle cx="29.9" cy="10.3" r="1" class="iconic-dial-notch iconic-dial-notch-8 iconic-property-accent iconic-property-fill" />
    <circle cx="31" cy="16" r="1" class="iconic-dial-notch iconic-dial-notch-9 iconic-property-accent iconic-property-fill" />
  </g>
  <g data-width="15" data-height="12" class="iconic-container iconic-sm" display="none" transform="scale(8) translate(0 2)">
    <circle cx="7.5" cy="7.5" r="4.5" clip-path="url(#iconic-size-sm-dial-clip-0)" class="iconic-dial-body iconic-property-fill" />
    <path stroke="#000" stroke-linecap="round" stroke-miterlimit="10" d="M.5 7.5c0-3.9 3.1-7 7-7s7 3.1 7 7" class="iconic-dial-notches iconic-property-accent iconic-property-stroke" fill="none" />
  </g>
</svg>