<svg version="1.1" xmlns="http://www.w3.org/2000/svg" data-icon="dollar" width="128" height="128" class="iconic iconic-dollar" viewBox="0 0 128 128">
  <g class="iconic-metadata">
    <title>Dollar</title>
  </g>
  <g data-width="82" data-height="128" class="iconic-container iconic-lg" display="inline" transform="translate(23)">
    <path stroke="#000" stroke-width="8" stroke-miterlimit="10" class="iconic-dollar-vertical-line iconic-property-stroke" d="M42 128v-128" fill="none" />
    <path stroke="#000" stroke-width="12" stroke-miterlimit="10" d="M72 40c0-16-8-26-31-26-31 0-31 20.3-31 25 0 35 66 15 66 50 0 9-2 25-35 25-25 0-35-12-35-28" class="iconic-dollar-s-curve iconic-property-stroke" fill="none" />
  </g>
  <g data-width="20" data-height="32" class="iconic-container iconic-md" display="none" transform="scale(4) translate(6)">
    <path stroke="#000" stroke-width="2" stroke-miterlimit="10" class="iconic-dollar-vertical-line iconic-property-stroke" d="M10 32v-32" fill="none" />
    <path stroke="#000" stroke-width="4" stroke-miterlimit="10" d="M17 11c0-4-1.6-6.5-7-6.5-7.5 0-7 4.7-7 5.7 0 8.1 15 3.4 15 11.5 0 1.1-.5 5.8-8 5.8-5.4 0-8-2.5-8-6.5" class="iconic-dollar-s-curve iconic-property-stroke" fill="none" />
  </g>
  <g data-width="9" data-height="16" class="iconic-container iconic-sm" display="none" transform="scale(8) translate(3)">
    <path stroke="#000" stroke-miterlimit="10" class="iconic-dollar-vertical-line iconic-property-stroke" d="M4.5 16v-16" fill="none" />
    <path stroke="#000" stroke-width="2" stroke-miterlimit="10" d="M8 6c0-2-1-3-3.5-3-3.5 0-3.5 2-3.5 2.5 0 3.5 7 1.5 7 5 0 .5 0 2.5-3.5 2.5-2.5 0-3.5-1-3.5-3" class="iconic-dollar-s-curve iconic-property-stroke" fill="none" />
  </g>
</svg>