<svg version="1.1" xmlns="http://www.w3.org/2000/svg" data-icon="eject" width="128" height="128" class="iconic iconic-eject" viewBox="0 0 128 128">
  <g class="iconic-metadata">
    <title>Eject</title>
  </g>
  <g data-width="96" data-height="64" class="iconic-container iconic-lg" display="inline" transform="translate(16 32)">
    <path d="M47 1.1l-46 47.8c-.5.6-.3 1.1.5 1.1h93c.8 0 1-.5.5-1.1l-46-47.8c-.5-.6-1.5-.6-2 0z" class="iconic-eject-arrowhead iconic-property-fill" />
    <path class="iconic-eject-line iconic-property-fill" d="M0 56h96v8h-96z" />
  </g>
  <g data-width="22" data-height="16" class="iconic-container iconic-md" display="none" transform="scale(4) translate(5 8)">
    <path d="M10.6.4l-10.2 10.2c-.2.2-.2.4.1.4h21c.3 0 .3-.2.1-.4l-10.2-10.2c-.2-.2-.6-.2-.8 0z" class="iconic-eject-arrowhead iconic-property-fill" />
    <path class="iconic-eject-line iconic-property-fill" d="M0 13h22v3h-22z" />
  </g>
  <g data-width="10" data-height="8" class="iconic-container iconic-sm" display="none" transform="scale(8) translate(3 4)">
    <path class="iconic-eject-arrowhead iconic-property-fill" d="M5 0l-5 5h10z" />
    <path class="iconic-eject-line iconic-property-fill" d="M0 6h10v2h-10z" />
  </g>
</svg>