<svg version="1.1" xmlns="http://www.w3.org/2000/svg" data-icon="elevator" width="128" height="128" class="iconic iconic-elevator" viewBox="0 0 128 128">
  <g class="iconic-metadata">
    <title>Elevator</title>
  </g>
  <g data-width="72" data-height="128" class="iconic-container iconic-lg" display="inline" transform="translate(28)">
    <path d="M36.8 126.7l34.4-55.5c.4-.7.1-1.3-.7-1.3h-69c-.8 0-1.1.6-.7 1.3l34.4 55.5c.4.7 1.2.7 1.6 0z" class="iconic-elevator-arrow-bottom iconic-property-fill" />
    <path d="M35.2 1.3l-34.4 55.4c-.4.7-.1 1.3.7 1.3h69c.8 0 1.1-.6.7-1.3l-34.4-55.4c-.4-.7-1.2-.7-1.6 0z" class="iconic-elevator-arrow-top iconic-property-fill" />
  </g>
  <g data-width="18" data-height="32" class="iconic-container iconic-md" display="none" transform="scale(4) translate(7)">
    <path d="M9.3 31.6l8.5-13.2c.1-.2 0-.4-.2-.4h-17c-.3 0-.4.2-.2.4l8.5 13.2c0 .2.2.2.4 0z" class="iconic-elevator-arrow-bottom iconic-property-fill" />
    <path d="M8.7.4l-8.4 13.2c-.1.2 0 .4.2.4h17c.3 0 .4-.2.2-.4l-8.4-13.2c-.2-.2-.4-.2-.6 0z" class="iconic-elevator-arrow-top iconic-property-fill" />
  </g>
  <g data-width="10" data-height="16" class="iconic-container iconic-sm" display="none" transform="scale(8) translate(3)">
    <path class="iconic-elevator-arrow-bottom iconic-property-fill" d="M5 16l5-7h-10z" />
    <path class="iconic-elevator-arrow-top iconic-property-fill" d="M5 0l-5 7h10z" />
  </g>
</svg>