<svg version="1.1" xmlns="http://www.w3.org/2000/svg" data-icon="ellipses" width="128" height="128" class="iconic iconic-ellipses" viewBox="0 0 128 128">
  <g class="iconic-metadata">
    <title>Ellipses</title>
  </g>
  <g data-width="126" data-height="34" class="iconic-container iconic-lg" display="inline" transform="translate(1 47)">
    <path d="M32.5 34h-31c-.8 0-1.5-.7-1.5-1.5v-31c0-.8.7-1.5 1.5-1.5h31c.8 0 1.5.7 1.5 1.5v31c0 .8-.7 1.5-1.5 1.5z" class="iconic-ellipses-dot iconic-ellipses-dot-1 iconic-property-fill" />
    <path d="M78.5 34h-31c-.8 0-1.5-.7-1.5-1.5v-31c0-.8.7-1.5 1.5-1.5h31c.8 0 1.5.7 1.5 1.5v31c0 .8-.7 1.5-1.5 1.5z" class="iconic-ellipses-dot iconic-ellipses-dot-2 iconic-property-fill" />
    <path d="M124.5 34h-31c-.8 0-1.5-.7-1.5-1.5v-31c0-.8.7-1.5 1.5-1.5h31c.8 0 1.5.7 1.5 1.5v31c0 .8-.7 1.5-1.5 1.5z" class="iconic-ellipses-dot iconic-ellipses-dot-3 iconic-property-fill" />
  </g>
  <g data-width="32" data-height="8" class="iconic-container iconic-md" display="none" transform="scale(4) translate(0 12)">
    <path d="M7.5 8h-7c-.3 0-.5-.2-.5-.5v-7c0-.3.2-.5.5-.5h7c.3 0 .5.2.5.5v7c0 .3-.2.5-.5.5z" class="iconic-ellipses-dot iconic-ellipses-dot-1 iconic-property-fill" />
    <path d="M19.5 8h-7c-.3 0-.5-.2-.5-.5v-7c0-.3.2-.5.5-.5h7c.3 0 .5.2.5.5v7c0 .3-.2.5-.5.5z" class="iconic-ellipses-dot iconic-ellipses-dot-2 iconic-property-fill" />
    <path d="M31.5 8h-7c-.3 0-.5-.2-.5-.5v-7c0-.3.2-.5.5-.5h7c.3 0 .5.2.5.5v7c0 .3-.2.5-.5.5z" class="iconic-ellipses-dot iconic-ellipses-dot-3 iconic-property-fill" />
  </g>
  <g data-width="16" data-height="4" class="iconic-container iconic-sm" display="none" transform="scale(8) translate(0 6)">
    <path class="iconic-ellipses-dot iconic-ellipses-dot-1 iconic-property-fill" d="M0 0h4v4h-4z" />
    <path class="iconic-ellipses-dot iconic-ellipses-dot-2 iconic-property-fill" d="M6 0h4v4h-4z" />
    <path class="iconic-ellipses-dot iconic-ellipses-dot-3 iconic-property-fill" d="M12 0h4v4h-4z" />
  </g>
</svg>