<svg version="1.1" xmlns="http://www.w3.org/2000/svg" data-icon="external-link" width="128" height="128" class="iconic iconic-external-link" viewBox="0 0 128 128">
  <g class="iconic-metadata">
    <title>External Link</title>
  </g>
  <g data-width="127" data-height="128" class="iconic-container iconic-lg" display="inline">
    <path stroke="#000" stroke-width="8" stroke-linecap="square" stroke-miterlimit="10" d="M108 52v69c0 1.7-1.3 3-3 3h-98c-1.7 0-3-1.3-3-3v-98c0-1.7 1.3-3 3-3h68.9" class="iconic-external-link-box iconic-property-accent iconic-property-stroke" fill="none"
    />
    <path stroke="#000" stroke-width="8" stroke-linecap="square" stroke-miterlimit="10" class="iconic-external-link-arrow iconic-external-link-arrow-steam iconic-property-stroke" d="M116 12l-52.5 52.5" fill="none" />
    <path d="M126.4.3l-24.9 5.4c-.8.2-1 .8-.4 1.4l19.9 19.9c.6.6 1.2.4 1.4-.4l5.3-25.1c0-.8-.5-1.4-1.3-1.2z" class="iconic-external-link-arrow iconic-external-link-arrow-head iconic-property-fill" />
  </g>
  <g data-width="32" data-height="32" class="iconic-container iconic-md" display="none" transform="scale(4)">
    <path stroke="#000" stroke-width="3" stroke-miterlimit="10" d="M27.5 15v15c0 .3-.2.5-.5.5h-25c-.3 0-.5-.2-.5-.5v-25c0-.3.2-.5.5-.5h16" class="iconic-external-link-box iconic-property-accent iconic-property-stroke" fill="none" />
    <path stroke="#000" stroke-width="3" stroke-linecap="square" stroke-miterlimit="10" class="iconic-external-link-arrow iconic-external-link-arrow-stem iconic-property-stroke" d="M28 4l-10 10" fill="none" />
    <path class="iconic-external-link-arrow iconic-external-link-arrow-head iconic-property-fill" d="M32 0l-1 8-7-7z" />
  </g>
  <g data-width="16" data-height="16" class="iconic-container iconic-sm" display="none" transform="scale(8)">
    <path stroke="#000" stroke-width="2" stroke-miterlimit="10" class="iconic-external-link-box iconic-property-accent iconic-property-stroke" d="M13 8v7h-12v-12h7" fill="none" />
    <path stroke="#000" stroke-width="2" stroke-linecap="square" stroke-miterlimit="10" class="iconic-external-link-arrow iconic-external-link-arrow-stem iconic-property-stroke" d="M13 3l-4 4" fill="none" />
    <path class="iconic-external-link-arrow iconic-external-link-arrow-head iconic-property-fill" d="M16 0v5l-5-5z" />
  </g>
</svg>