<svg version="1.1" xmlns="http://www.w3.org/2000/svg" data-icon="eye" width="128" height="128" class="iconic iconic-eye" viewBox="0 0 128 128">
  <g class="iconic-metadata">
    <title>Eye</title>
  </g>
  <g data-width="128" data-height="76" class="iconic-container iconic-lg" display="inline" transform="translate(0 26)">
    <path d="M64.5 0c-40.5 0-64.5 38-64.5 38s24 38 64.5 38c39.5 0 63.5-38 63.5-38s-24-38-63.5-38zm-.5 62c-13.3 0-24-10.7-24-24s10.7-24 24-24 24 10.7 24 24-10.7 24-24 24z" class="iconic-eye-eyeball iconic-property-fill" />
    <path d="M72 34c-2.2 0-4-1.8-4-4 0-1.1.4-2.1 1.2-2.8-1.6-.8-3.3-1.2-5.2-1.2-6.6 0-12 5.4-12 12s5.4 12 12 12 12-5.4 12-12c0-1.9-.4-3.6-1.2-5.2-.7.8-1.7 1.2-2.8 1.2z" class="iconic-eye-pupil iconic-property-fill" />
  </g>
  <g data-width="32" data-height="20" class="iconic-container iconic-md" display="none" transform="scale(4) translate(0 6)">
    <path d="M16.1 0c-10.1 0-16.1 10-16.1 10s6 10 16.1 10c9.9 0 15.9-10 15.9-10s-6-10-15.9-10zm-.1 17c-3.9 0-7-3.1-7-7s3.1-7 7-7 7 3.1 7 7-3.1 7-7 7z" class="iconic-eye-eyeball iconic-property-fill" />
    <path d="M18.5 9c-.8 0-1.5-.7-1.5-1.5 0-.5.2-.9.6-1.2-.5-.2-1-.3-1.6-.3-2.2 0-4 1.8-4 4s1.8 4 4 4 4-1.8 4-4c0-.6-.1-1.1-.3-1.6-.3.4-.7.6-1.2.6z" class="iconic-eye-pupil iconic-property-fill" />
  </g>
  <g data-width="16" data-height="12" class="iconic-container iconic-sm" display="none" transform="scale(8) translate(0 2)">
    <path d="M8.1 0c-5.1 0-8.1 6-8.1 6s3 6 8.1 6c4.9 0 7.9-6 7.9-6s-3-6-7.9-6zm-.1 10c-2.2 0-4-1.8-4-4s1.8-4 4-4 4 1.8 4 4-1.8 4-4 4z" class="iconic-eye-eyeball iconic-property-fill" />
    <path d="M9 6c-.6 0-1-.4-1-1 0-.4.2-.7.6-.9-.2-.1-.4-.1-.6-.1-1.1 0-2 .9-2 2s.9 2 2 2 2-.9 2-2c0-.2 0-.4-.1-.6-.2.4-.5.6-.9.6z" class="iconic-eye-pupil iconic-property-fill" />
  </g>
</svg>