<svg version="1.1" xmlns="http://www.w3.org/2000/svg" data-icon="eyedropper" width="128" height="128" class="iconic iconic-eyedropper" viewBox="0 0 128 128">
  <g class="iconic-metadata">
    <title>Eyedropper</title>
  </g>
  <g data-width="128" data-height="128" class="iconic-container iconic-lg" display="inline">
    <path class="iconic-eyedropper-fluid iconic-property-fill" d="M16.8 94.8l16.2 16.2-13.1 13h-17.9v-14.6z" />
    <path stroke="#000" stroke-width="4" stroke-miterlimit="10" d="M103.4 40.4l-84.4 84.5c-.6.6-1.7 1.1-2.6 1.1h-12.9c-.8 0-1.5-.7-1.5-1.5v-12.9c0-.8.5-2 1.1-2.6l84.9-84.9" class="iconic-eyedropper-tube iconic-property-stroke" fill="none" />
    <path d="M86.9 26l22.8-22.8c4.2-4.2 10.9-4.2 15.1 0s4.2 10.9 0 15.1l-22.3 22.3-15.6-14.6z" class="iconic-eyedropper-top iconic-eyedropper-top-suction iconic-property-fill" />
    <path transform="matrix(.707 -.707 .707 .707 5.495 77.253)" class="iconic-eyedropper-top iconic-eyedropper-top-lip iconic-property-fill" d="M93.2 9.4h5.7v45.3h-5.7z" />
  </g>
  <g data-width="32" data-height="32" class="iconic-container iconic-md" display="none" transform="scale(4)">
    <path class="iconic-property-fill" d="M3.7 23.3l4.7 5-3.4 3.2h-4.5v-4.4z" />
    <path stroke="#000" stroke-linejoin="round" stroke-miterlimit="10" d="M19.6 7.7l-18.8 19c-.2.2-.4.6-.4.9v3.4c0 .3.2.5.5.5h3.4c.3 0 .7-.2.9-.4l18.9-18.9" class="iconic-eyedropper-tube iconic-property-stroke" fill="none" />
    <path d="M20 7l6-6c1.4-1.4 3.6-1.4 4.9 0 1.4 1.4 1.4 3.6 0 4.9l-6.2 6.2-4.7-5.1z" class="iconic-eyedropper-top iconic-eyedropper-top-suction iconic-property-fill" />
    <path transform="matrix(.707 -.707 .707 .707 -.127 18.692)" class="iconic-eyedropper-top iconic-eyedropper-top-lip iconic-property-fill" d="M21.1 3.1h2.8v12.7h-2.8z" />
  </g>
  <g data-width="15" data-height="15" class="iconic-container iconic-sm" display="none" transform="scale(8)">
    <path class="iconic-eyedropper-fluid iconic-property-fill" d="M2 9.7l3.1 3.3-1.5 1.8-3.1-.3v-3z" />
    <path stroke="#000" stroke-linejoin="round" stroke-miterlimit="10" class="iconic-eyedropper-tube iconic-property-stroke" d="M9.4 2.4l-8.9 9.1v3h3l9-9" fill="none" />
    <path d="M9.1 3.1l2.5-2.5c.8-.8 2-.8 2.8 0 .8.8.8 2 0 2.8l-2.4 2.5-2.9-2.8z" class="iconic-eyedropper-top iconic-eyedropper-top-suction iconic-property-fill" />
    <path transform="matrix(.707 -.707 .707 .707 -.107 8.743)" class="iconic-eyedropper-top iconic-eyedropper-top-lip iconic-property-fill" d="M9.8.3h1.4v8.5h-1.4z" />
  </g>
</svg>