<svg version="1.1" xmlns="http://www.w3.org/2000/svg" data-icon="firefly" width="128" height="128" class="iconic iconic-firefly" viewBox="0 0 128 128">
  <g class="iconic-metadata">
    <title>Firefly</title>
  </g>
  <g data-width="126" data-height="128" class="iconic-container iconic-lg" display="inline" transform="translate(1)">
    <path d="M72 38.5s20-9.8 38.3-17c13.2-5.2 15.6-1 15.7 3.4.5 29.8-33.9 29.1-56 29.1l2-15.5z" class="iconic-firefly-wing iconic-firefly-wing-right iconic-firefly-wing-front iconic-firefly-wing-front-right iconic-property-fill" />
    <path d="M98.2 54.6c-8.7 1.4-17.7 1.4-25 1.4h-1.7l-15.3-2.5c26.1 26 53.8 28.5 53.8 12.6 0-4.8-4.9-8.6-11.8-11.5z" class="iconic-firefly-wing iconic-firefly-wing-right iconic-firefly-wing-back iconic-firefly-wing-back-right iconic-property-fill" />
    <path d="M54 37.7s-20-9-38.3-16.2c-13.2-5.2-15.6-1-15.7 3.4-.5 29.8 34 29.1 56 29.1l-2-16.3z" class="iconic-firefly-wing iconic-firefly-wing-left iconic-firefly-wing-front iconic-firefly-wing-front-left iconic-property-fill" />
    <path d="M54.4 56h-1.7c-7.2 0-16.3 0-25-1.4-6.8 2.9-11.7 6.7-11.7 11.5 0 15.9 27.7 13.4 53.7-12.6l-15.3 2.5z" class="iconic-firefly-wing iconic-firefly-wing-left iconic-firefly-wing-back iconic-firefly-wing-back-left iconic-property-fill" />
    <path stroke="#000" stroke-width="2" stroke-linecap="round" stroke-miterlimit="10" d="M66.3 34.1s-1.3-33.1 19.7-33.1" class="iconic-firefly-antenna iconic-firefly-antenna-right iconic-property-stroke" fill="none" />
    <path stroke="#000" stroke-width="2" stroke-linecap="round" stroke-miterlimit="10" d="M59.7 34.1s1.3-33.1-19.7-33.1" class="iconic-firefly-antenna iconic-firefly-antenna-left iconic-property-stroke" fill="none" />
    <path d="M72 33c0 5 0 79-9 79s-9-74-9-79 4-9 9-9 9 4 9 9z" class="iconic-firefly-body iconic-property-fill" />
    <path stroke="#000" stroke-width="2" stroke-linecap="round" stroke-miterlimit="10" class="iconic-firefly-light-beam iconic-firefly-light-beam-5 iconic-property-stroke" d="M81 109h-6" fill="none" />
    <path stroke="#000" stroke-width="2" stroke-linecap="round" stroke-miterlimit="10" class="iconic-firefly-light-beam iconic-firefly-light-beam-4 iconic-property-stroke" d="M75 121l-4-4" fill="none" />
    <path stroke="#000" stroke-width="2" stroke-linecap="round" stroke-miterlimit="10" class="iconic-firefly-light-beam iconic-firefly-light-beam-3 iconic-property-stroke" d="M63 121v6" fill="none" />
    <path stroke="#000" stroke-width="2" stroke-linecap="round" stroke-miterlimit="10" class="iconic-firefly-light-beam iconic-firefly-light-beam-2 iconic-property-stroke" d="M51 121l4-4" fill="none" />
    <path stroke="#000" stroke-width="2" stroke-linecap="round" stroke-miterlimit="10" class="iconic-firefly-light-beam iconic-firefly-light-beam-1 iconic-property-stroke" d="M51 109h-6" fill="none" />
  </g>
  <g data-width="31" data-height="32" class="iconic-container iconic-md" display="none" transform="scale(4)">
    <path d="M18 10s4.5-2.4 9.1-4.3c3.3-1.3 3.9-.2 3.9.9.1 7.5-7 7.4-14 7.4l1-4z" class="iconic-firefly-wing iconic-firefly-wing-right iconic-firefly-wing-front iconic-firefly-wing-front-right iconic-property-fill" />
    <path d="M24.9 14.6c-2.3.4-5 .4-7.5.4l-2.8-.6c6.5 6.5 13.4 7.1 13.4 3.2 0-1.3-1.3-2.3-3.1-3z" class="iconic-firefly-wing iconic-firefly-wing-right iconic-firefly-wing-back iconic-firefly-wing-back-right iconic-property-fill" />
    <path d="M13 9.8s-4.5-2.2-9.1-4.1c-3.3-1.3-3.9-.2-3.9.9-.1 7.5 6 7.4 14 7.4l-1-4.2z" class="iconic-firefly-wing iconic-firefly-wing-left iconic-firefly-wing-front iconic-firefly-wing-front-left iconic-property-fill" />
    <path d="M13.6 15c-2.8 0-5.4 0-7.6-.4-1.7.7-3 1.7-3 2.9 0 4 6.9 3.4 13.4-3.2l-2.8.7z" class="iconic-firefly-wing iconic-firefly-wing-left iconic-firefly-wing-back iconic-firefly-wing-back-left iconic-property-fill" />
    <path stroke="#000" stroke-linecap="round" stroke-miterlimit="10" d="M16.6 8.8s.9-8.3 6.2-8.3" class="iconic-firefly-antenna iconic-firefly-antenna-right iconic-property-stroke" fill="none" />
    <path stroke="#000" stroke-linecap="round" stroke-miterlimit="10" d="M14.4 8.8s-.9-8.3-6.2-8.3" class="iconic-firefly-antenna iconic-firefly-antenna-left iconic-property-stroke" fill="none" />
    <path d="M18 8.5c0 1.4 0 19.5-2.5 19.5s-2.5-18.1-2.5-19.5 1.1-2.5 2.5-2.5 2.5 1.1 2.5 2.5z" class="iconic-firefly-body iconic-property-fill" />
    <path stroke="#000" stroke-linecap="round" stroke-miterlimit="10" class="iconic-firefly-light-beam iconic-firefly-light-beam-5 iconic-property-stroke" d="M19.5 26.5h1" fill="none" />
    <path stroke="#000" stroke-linecap="round" stroke-miterlimit="10" class="iconic-firefly-light-beam iconic-firefly-light-beam-4 iconic-property-stroke" d="M18.5 29.5l1 1" fill="none" />
    <path stroke="#000" stroke-linecap="round" stroke-miterlimit="10" class="iconic-firefly-light-beam iconic-firefly-light-beam-3 iconic-property-stroke" d="M15.5 31.5v-1" fill="none" />
    <path stroke="#000" stroke-linecap="round" stroke-miterlimit="10" class="iconic-firefly-light-beam iconic-firefly-light-beam-2 iconic-property-stroke" d="M12.5 29.5l-1 1" fill="none" />
    <path stroke="#000" stroke-linecap="round" stroke-miterlimit="10" class="iconic-firefly-light-beam iconic-firefly-light-beam-1 iconic-property-stroke" d="M10.5 26.5h1" fill="none" />
  </g>
  <g data-width="15" data-height="16" class="iconic-container iconic-sm" display="none" transform="scale(8)">
    <path d="M9 5s1.9-1.1 4.1-2c1.6-.6 1.9-.1 1.9.5.1 3.6-5 3.5-7 3.5l1-2z" class="iconic-firefly-wing iconic-firefly-wing-right iconic-firefly-wing-front iconic-firefly-wing-front-right iconic-property-fill" />
    <path d="M12.8 7.5c-1.4.4-3 .5-4.2.5-.1 0-.2 0-.3 0 2.9 2.4 5.7 2.6 5.7.8 0-.5-.5-1-1.2-1.3z" class="iconic-firefly-wing iconic-firefly-wing-right iconic-firefly-wing-back iconic-firefly-wing-back-right iconic-property-fill" />
    <path d="M6 5s-1.9-1.1-4.1-2c-1.6-.6-1.9-.1-1.9.5-.1 3.6 5 3.5 7 3.5l-1-2z" class="iconic-firefly-wing iconic-firefly-wing-left iconic-firefly-wing-front iconic-firefly-wing-front-left iconic-property-fill" />
    <path d="M6.4 8c-1.2 0-2.8-.1-4.2-.5-.7.3-1.2.8-1.2 1.3 0 1.8 2.8 1.7 5.7-.8-.1 0-.2 0-.3 0z" class="iconic-firefly-wing iconic-firefly-wing-left iconic-firefly-wing-back iconic-firefly-wing-back-left iconic-property-fill" />
    <path stroke="#000" stroke-linecap="round" stroke-miterlimit="10" d="M8.5 4.5s.5-4 3-4" class="iconic-firefly-antenna iconic-firefly-antenna-right iconic-property-stroke" fill="none" />
    <path stroke="#000" stroke-linecap="round" stroke-miterlimit="10" d="M6.5 4.5s-.5-4-3-4" class="iconic-firefly-antenna iconic-firefly-antenna-left iconic-property-stroke" fill="none" />
    <path d="M9 4.5c0 .8.1 8.5-1.5 8.5-1.5 0-1.5-7.7-1.5-8.5s.7-1.5 1.5-1.5 1.5.7 1.5 1.5z" class="iconic-firefly-body iconic-property-fill" />
    <circle cx="10.5" cy="12.5" r=".5" class="iconic-firefly-light-beam iconic-firefly-light-beam-5 iconic-property-fill" />
    <circle cx="9.5" cy="14.5" r=".5" class="iconic-firefly-light-beam iconic-firefly-light-beam-4 iconic-property-fill" />
    <circle cx="7.5" cy="15.5" r=".5" class="iconic-firefly-light-beam iconic-firefly-light-beam-3 iconic-property-fill" />
    <circle cx="5.5" cy="14.5" r=".5" class="iconic-firefly-light-beam iconic-firefly-light-beam-2 iconic-property-fill" />
    <circle cx="4.5" cy="12.5" r=".5" class="iconic-firefly-light-beam iconic-firefly-light-beam-1 iconic-property-fill" />
  </g>
</svg>