<svg version="1.1" xmlns="http://www.w3.org/2000/svg" data-icon="fire" width="128" height="128" class="iconic iconic-fire" viewBox="0 0 128 128">
  <g class="iconic-metadata">
    <title>Fire</title>
  </g>
  <g data-width="100" data-height="128" class="iconic-container iconic-lg" display="inline" transform="translate(14)">
    <path d="M32 0s32 16 32 48-47.8 48.2-32 80c0 0-32-16-32-48s48-48 32-80z" class="iconic-fire-flame iconic-fire-flame-large iconic-property-fill" />
    <path d="M68 38s32 16 32 48c0 15.1-10.6 26.7-20.2 38-1.1 1.3-4 4-7.8 4s-34 0-34 0-1.4-2.5-1.8-6c-.2-1.3-.2-2.6-.2-4 0-32 48-48 32-80z" class="iconic-fire-flame iconic-fire-flame-small iconic-property-accent iconic-property-fill" />
  </g>
  <g data-width="26" data-height="32" class="iconic-container iconic-md" display="none" transform="scale(4) translate(3)">
    <path d="M8 0s8 4 8 12-11.9 12.1-8 20c0 0-8-4-8-12s12-12 8-20z" class="iconic-fire-flame iconic-fire-flame-large iconic-property-fill" />
    <path d="M11 32c-.6-.3-1-1-1-2 0-8 12-12 8-20 0 0 8 4 8 12 0 3.5-2.3 6.3-4.6 9-.3.3-.9 1-2.4 1h-8z" class="iconic-fire-flame iconic-fire-flame-small iconic-property-accent iconic-property-fill" />
  </g>
  <g data-width="14" data-height="16" class="iconic-container iconic-sm" display="none" transform="scale(8) translate(1)">
    <path d="M4 0s4 2 4 6-6 6-4 10c0 0-4-2-4-6s6-6 4-10z" class="iconic-fire-flame iconic-fire-flame-large iconic-property-fill" />
    <path d="M10 6s4 2 4 6c0 3-2 4-2 4-1 0-6 0-6 0 0-4 6-6 4-10z" class="iconic-fire-flame iconic-fire-flame-small iconic-property-accent iconic-property-fill" />
  </g>
</svg>