<svg version="1.1" xmlns="http://www.w3.org/2000/svg" data-icon="flag" width="128" height="128" class="iconic iconic-flag" viewBox="0 0 128 128">
  <g class="iconic-metadata">
    <title>Flag</title>
  </g>
  <g data-width="98" data-height="128" class="iconic-container iconic-lg" display="inline" transform="translate(15)">
    <path stroke="#000" stroke-width="8" stroke-linecap="square" stroke-miterlimit="10" class="iconic-flag-mast iconic-property-stroke" d="M4 12v112" fill="none" />
    <path d="M0 4c0-2.2 1.8-4 4-4s4 1.8 4 4v2h-8v-2z" class="iconic-flag-mast iconic-flag-mast-top iconic-property-fill" />
    <path d="M42 13s0-.1 0 0c0-.1 0-.1 0-.2 0-.3.2-.6.3-.8l1.3-2c.3-.3.4-.5.4-.8 0-.3-.1-.6-.3-.8-.3-.3-.5-.4-.9-.4h-32.8v52h32v-47z" class="iconic-flag-back iconic-property-accent iconic-property-fill" />
    <path d="M98 14h-54v51c0 .6.4 1 1 1h53l-14-26.1 14-25.9z" class="iconic-flag-front iconic-property-fill" />
  </g>
  <g data-width="27" data-height="32" class="iconic-container iconic-md" display="none" transform="scale(4) translate(2)">
    <path stroke="#000" stroke-width="3" stroke-linecap="square" stroke-miterlimit="10" class="iconic-flag-mast iconic-property-stroke" d="M1.5 3.5v27" fill="none" />
    <path d="M0 1c0-.6.7-1 1.5-1s1.5.4 1.5 1h-3z" class="iconic-flag-mast iconic-flag-mast-top iconic-property-fill" />
    <path d="M13 4.5s0-.1 0-.1 0-.1 0-.1c0-.2.1-.4.2-.5l.6-.4c.1-.3.2-.4.2-.6s-.1-.4-.2-.5-.3-.3-.6-.3h-9.2v14h9v-11.5z" class="iconic-flag-back iconic-property-accent iconic-property-fill" />
    <path class="iconic-flag-front iconic-property-fill" d="M27 5h-13v14h13l-5-6.9z" />
  </g>
  <g data-width="16" data-height="16" class="iconic-container iconic-sm" display="none" transform="scale(8)">
    <path stroke="#000" stroke-width="2" stroke-linecap="square" stroke-miterlimit="10" class="iconic-flag-mast iconic-property-stroke" d="M1 1v14" fill="none" />
    <path d="M7 1.8c0-.1.1-.3.2-.4l.6-.6c.1-.2.2-.4.2-.5s-.1-.3-.2-.3h-4.8v8h4v-6.2z" class="iconic-flag-back iconic-property-accent iconic-property-fill" />
    <path d="M16 2h-7.9c-.1.1-.1.2-.1.3v7.7h8l-4-3.9 4-4.1z" class="iconic-flag-front iconic-property-fill" />
  </g>
</svg>