<svg version="1.1" xmlns="http://www.w3.org/2000/svg" data-icon="flash" width="128" height="128" class="iconic iconic-flash" viewBox="0 0 128 128">
  <g class="iconic-metadata">
    <title>Flash</title>
  </g>
  <g data-width="50" data-height="128" class="iconic-container iconic-lg" display="inline" transform="translate(39)">
    <path class="iconic-flash-line iconic-property-fill" d="M16 0l-16 68h32l-8 40h10l16-52h-32l16-56" />
    <path d="M23.4 126.6l-6.9-17.2c-.3-.8.1-1.4.9-1.4h25c.8 0 1 .5.4 1.1l-17.9 17.9c-.4.5-1.1.4-1.5-.4z" class="iconic-flash-arrowhead iconic-property-fill" />
  </g>
  <g data-width="13" data-height="32" class="iconic-container iconic-md" display="none" transform="scale(4) translate(9)">
    <path class="iconic-property-fill" d="M5 14l4-14h-5l-4 17h8l-2 10-.3 1h3l.3-1 4-13z" />
    <path d="M5.7 31.6l-2.5-4.1c-.1-.2 0-.4.2-.4h8c.3 0 .3.1.1.3l-5.2 4.4c-.1.1-.4 0-.6-.2z" class="iconic-flash-arrowhead iconic-property-fill" />
  </g>
  <g data-width="7" data-height="15" class="iconic-container iconic-sm" display="none" transform="scale(8) translate(4)">
    <path class="iconic-flash-line iconic-property-fill" d="M2 0l-2 8h4l-1 4h2l2-6h-4l2-6" />
    <path class="iconic-flash-arrowhead iconic-property-fill" d="M4 15l-3-3h6z" />
  </g>
</svg>