<svg version="1.1" xmlns="http://www.w3.org/2000/svg" data-icon="folder" width="128" height="128" class="iconic iconic-folder" viewBox="0 0 128 128">
  <g class="iconic-metadata">
    <title>Folder</title>
  </g>
  <defs>
    <clipPath id="iconic-size-lg-folder-clip-0">
      <path d="M0 26h128v78h-128z" />
    </clipPath>
    <clipPath id="iconic-size-md-folder-clip-0">
      <path d="M0 7h32v20h-32z" />
    </clipPath>
    <clipPath id="iconic-size-sm-folder-clip-0">
      <path d="M0 5h16v9h-16z" />
    </clipPath>
  </defs>
  <g data-width="128" data-height="104" class="iconic-container iconic-lg" display="inline" transform="translate(0 12)">
    <path d="M40.5 14h-39c-.8 0-1.5-.7-1.5-1.5v-11c0-.8.7-1.5 1.5-1.5h39c.8 0 1.5.7 1.5 1.5v11c0 .8-.7 1.5-1.5 1.5z" class="iconic-folder-top iconic-folder-top-tag iconic-property-fill" />
    <path class="iconic-folder-top iconic-property-fill" d="M0 10h128v12h-128z" />
    <path clip-path="url(#iconic-size-lg-folder-clip-0)" d="M125 104h-122c-1.7 0-3-1.3-3-3v-76c0-1.7 1.3-3 3-3h122c1.7 0 3 1.3 3 3v76c0 1.7-1.3 3-3 3z" class="iconic-folder-bottom iconic-property-fill" />
  </g>
  <g data-width="32" data-height="27" class="iconic-container iconic-md" display="none" transform="scale(4) translate(0 2)">
    <path d="M.5 5h10c.3 0 .5-.2.5-.5v-4c0-.3-.2-.5-.5-.5h-10c-.3 0-.5.2-.5.5v4c0 .3.2.5.5.5z" class="iconic-folder-top iconic-folder-top-tag iconic-property-fill" />
    <path class="iconic-folder-top iconic-property-fill" d="M0 3h32v3h-32z" />
    <path clip-path="url(#iconic-size-md-folder-clip-0)" d="M31 27h-30c-.6 0-1-.4-1-1v-19c0-.6.4-1 1-1h30c.6 0 1 .4 1 1v19c0 .6-.4 1-1 1z" class="iconic-folder-bottom iconic-property-fill" />
  </g>
  <g data-width="16" data-height="14" class="iconic-container iconic-sm" display="none" transform="scale(8) translate(0 1)">
    <path d="M.2 3h5.5c.2 0 .3-.1.3-.2v-2.6c0-.1-.1-.2-.2-.2h-5.6c-.1 0-.2.1-.2.2v2.5c0 .2.1.3.2.3z" class="iconic-folder-top iconic-folder-top-tag iconic-property-fill" />
    <path class="iconic-folder-top iconic-property-fill" d="M0 2h16v2h-16z" />
    <path clip-path="url(#iconic-size-sm-folder-clip-0)" d="M15.5 14h-15c-.3 0-.5-.2-.5-.5v-9c0-.3.2-.5.5-.5h15c.3 0 .5.2.5.5v9c0 .3-.2.5-.5.5z" class="iconic-folder-bottom iconic-property-fill" />
  </g>
</svg>