<svg version="1.1" xmlns="http://www.w3.org/2000/svg" data-icon="fork" width="128" height="128" class="iconic iconic-fork" viewBox="0 0 128 128">
  <g class="iconic-metadata">
    <title>Fork</title>
  </g>
  <defs>
    <clipPath id="iconic-size-lg-fork-clip-0">
      <path d="M50 54c-7.7 0-14-6.3-14-14s6.3-14 14-14c5.1 0 9.6 2.7 12 6.8v-32.8h-42.8c4.1 2.4 6.8 6.9 6.8 12 0 7.7-6.3 14-14 14-5.1 0-9.6-2.7-12-6.8v89.7c2.4-4.1 6.9-6.8 12-6.8 7.7 0 14 6.3 14 14 0 5.1-2.7 9.6-6.8 12h42.8v-80.9c-2.4 4.1-6.9 6.8-12 6.8z"
      />
    </clipPath>
    <clipPath id="iconic-size-md-fork-clip-0">
      <path d="M14.5 13c-2.5 0-4.5-2-4.5-4.5s2-4.5 4.5-4.5c1.4 0 2.7.7 3.5 1.7v-5.7h-11.7c1 .8 1.7 2.1 1.7 3.5 0 2.5-2 4.5-4.5 4.5-1.4 0-2.7-.7-3.5-1.7v19.4c.8-1 2.1-1.7 3.5-1.7 2.5 0 4.5 2 4.5 4.5 0 1.4-.7 2.7-1.7 3.5h11.7v-20.7c-.8 1-2.1 1.7-3.5 1.7z"
      />
    </clipPath>
    <clipPath id="iconic-size-sm-fork-clip-0">
      <path d="M8 7c-1.7 0-3-1.3-3-3s1.3-3 3-3c.8 0 1.5.3 2 .8v-1.8h-5.8c.5.5.8 1.2.8 2 0 1.7-1.3 3-3 3-.8 0-1.5-.3-2-.8v7.6c.5-.5 1.2-.8 2-.8 1.7 0 3 1.3 3 3 0 .8-.3 1.5-.8 2h5.8v-9.8c-.5.5-1.2.8-2 .8z" />
    </clipPath>
  </defs>
  <g data-width="62" data-height="128" class="iconic-container iconic-lg" display="inline" transform="translate(33)">
    <path stroke="#000" stroke-width="8" stroke-miterlimit="10" d="M12 112v-14c0-4.4 3.3-9.4 7.4-11.1l23.3-9.8c4-1.7 7.3-6.7 7.3-11.1v-22" clip-path="url(#iconic-size-lg-fork-clip-0)" class="iconic-fork-line-fork iconic-property-stroke" fill="none" />
    <path clip-path="url(#iconic-size-lg-fork-clip-0)" stroke="#000" stroke-width="8" stroke-miterlimit="10" class="iconic-fork-line-trunk iconic-property-stroke" d="M12 12v92" fill="none" />
    <circle cx="12" cy="116" r="12" class="iconic-fork-point-trunk-start iconic-property-accent iconic-property-fill" />
    <circle cx="50" cy="40" r="12" class="iconic-fork-point-fork iconic-property-accent iconic-property-fill" />
    <circle cx="12" cy="12" r="12" class="iconic-fork-point-trunk-start iconic-property-accent iconic-property-fill" />
  </g>
  <g data-width="18" data-height="32" class="iconic-container iconic-md" display="none" transform="scale(4) translate(7)">
    <path stroke="#000" stroke-width="3" stroke-miterlimit="10" d="M3.5 25s0-.8 0-1.8.8-2.1 1.9-2.5l7.3-3c1-.4 1.9-1.7 1.9-2.8v-3" clip-path="url(#iconic-size-md-fork-clip-0)" class="iconic-fork-line-fork iconic-property-stroke" fill="none" />
    <path clip-path="url(#iconic-size-md-fork-clip-0)" stroke="#000" stroke-width="3" stroke-miterlimit="10" class="iconic-fork-line-trunk iconic-property-stroke" d="M3.5 5v25" fill="none" />
    <circle cx="14.5" cy="8.5" r="3.5" class="iconic-fork-fork-point iconic-property-accent iconic-property-fill" />
    <circle cx="3.5" cy="28.5" r="3.5" class="iconic-fork-trunk-point-start iconic-property-accent iconic-property-fill" />
    <circle cx="3.5" cy="3.5" r="3.5" class="iconic-fork-point-trunk-end iconic-property-accent iconic-property-fill" />
  </g>
  <g data-width="10" data-height="16" class="iconic-container iconic-sm" display="none" transform="scale(8) translate(3)">
    <path stroke="#000" stroke-width="2" stroke-miterlimit="10" d="M2 14v-2c0-1.1.9-2.1 2-2.3l2-.4c1.1-.2 2-1.2 2-2.3v-3" clip-path="url(#iconic-size-sm-fork-clip-0)" class="iconic-fork-line-fork iconic-property-stroke" fill="none" />
    <path clip-path="url(#iconic-size-sm-fork-clip-0)" stroke="#000" stroke-width="2" stroke-miterlimit="10" class="iconic-fork-line-trunk iconic-property-stroke" d="M2 4v8" fill="none" />
    <circle cx="2" cy="14" r="2" class="iconic-fork-point-trunk-start iconic-property-accent iconic-property-fill" />
    <circle cx="2" cy="2" r="2" class="iconic-fork-point-trunk-end iconic-property-accent iconic-property-fill" />
    <circle cx="8" cy="4" r="2" class="iconic-fork-point-fork iconic-property-accent iconic-property-fill" />
  </g>
</svg>