<svg version="1.1" xmlns="http://www.w3.org/2000/svg" data-icon="globe" width="128" height="128" class="iconic iconic-globe" viewBox="0 0 128 128">
  <g class="iconic-metadata">
    <title>Globe</title>
  </g>
  <g data-width="128" data-height="128" class="iconic-container iconic-lg" display="inline">
    <path d="M77.7 22.6c-1.4-.9-2.1-2.1-1.5-2.6s1.4-.5 1.9 0 1.4 1.4 1.9 1.9 1.4 1.4 1.9 1.9 1.4 1.4 1.9 1.9-.2 1.7-1.6 2.6l-.6.4c-1.4.9-2.1.4-1.6-1.1s-.2-3.5-1.5-4.5l-.8-.5zm-2.5 3.9c0 1 .8 1 1.9 0s1.5-2.3.9-2.8-1.4-.5-1.9 0-.9 1.8-.9 2.8zm30 4.6c0 .5.4 1.3.9 1.9s1.4.6 1.9.1 1.3-1 1.8-1 .9-.4 1-.9-.7-1.3-1.7-1.9-2.3-1.4-2.8-2-1-.1-1 .9c0 1.2-.1 2.4-.1 2.9zm-36.3-17.7c-1.7 0-3.4.5-3.9 1s-.1 1.4.9 1.9 2.3.4 2.8-.1.9-1.7.9-2.6c0 0 0 0 0-.2h-.7zm-59.3 41.1c0 1.1.4 2.4.9 2.9s1.4.9 1.9.9.2-1.1-.7-2.5l-.5-.7c-.8-1.4-1.6-1.6-1.6-.6zm2.8 6.7c-.5.5 0 1.4 1 1.9s1.9.1 1.9-.9-.5-1.9-1-1.9-1.5.4-1.9.9zm6.6 5.6c0 1.5.4 2.8.9 2.8s.9-.4.9-.9-.4-1.8-.9-2.8-.9-.6-.9.9zm105 12.9v-31.4c-4.7-18-17.3-32.9-33.9-40.6h-.6c-1.7 0-3 .4-3 .9s.4 1.4.9 1.9.1.5-.9 0-2.7-.9-3.8-.9-1.9.8-1.9 1.9.4 2.3.9 2.8.5 1.4 0 1.9 0 1.8 1.1 2.8 2.3 1.5 2.8.9.9-.1.9.9.4 2.3.9 2.8.5.9 0 .9-1.7 1.1-2.6 2.5l-.4.6c-.9 1.4-2.1 2.5-2.6 2.5s-.5.4 0 .9 1.4 1 1.9 1.1c.5.1 1.4 1 1.9 1.9.5.9-.4 1.7-2.1 1.7h-1.5c-1.7 0-2.6 1.3-2.1 2.8s.5 2.8 0 2.8-.5.8 0 1.9 1.8 1.9 2.8 1.9 1.9.1 1.9.2 1.1-.6 2.4-1.6l.8-.6c1.3-1 2.4-2.6 2.4-3.6s-.1-2.3-.1-2.9.5-1 1.1-.9 1.5-.3 2-.9 1.7-.5 2.7 0 2.7 1.4 3.7 1.9 1.9 1.8 1.9 2.8.4 1.8.9 1.8 1-.8.9-1.8-.5-2.3-1.1-2.8-1.8-1.3-2.8-1.9-2.2-1.4-2.7-1.9-.6-1-.1-1.1 2 .7 3.3 1.6l.7.5c1.3 1 2.9 2.2 3.4 2.7s1 1.3 1 1.8.5.9 1.1.9c.6 0 1-.8 1-1.8s.8-1 1.8 0 2.3 1.4 2.9.9 1.4-.1 1.9.9.8 2.7.8 3.6-1.3 1.4-2.8.9-3.2-.4-3.8.2-.5 1.4 0 1.9.1.9-.9.9-2.3-.4-2.8-1-1.3-.5-1.9 0-1.4.5-1.9 0-.9-1.8-.9-2.9-.4-1.9-1-1.9-1.4.4-1.8.9-1.7.9-2.8.9-2.3.5-2.9 1c-.5.5-1.4 1.3-1.9 1.8s-1.8 1.1-2.8 1.3-1.9.6-1.9.9-.8 1-1.9 1.5-1.9 1.8-1.9 2.8-.6 3.4-1.6 4.4-2.5 3.1-3.2 4.6l-1.1 2.1c-.7 1.5-1.3 3.1-1.3 3.6s.4 1.8.9 2.8.5 2.7 0 3.8-.9 2.3-.9 2.8.4 1.4.9 1.9.9 1.4.9 1.9.4 1.4.9 1.9 1.8 1.4 2.8 1.9 1.9 1.4 1.9 1.9 1.1 1.7 2.5 2.6l.6.4c1.4.9 3.3.8 4.4-.2s2.7-1.9 3.8-1.9 3-.7 4.4-1.7l.6-.4c1.4-.9 2.9-1.2 3.4-.7s1.8.9 2.8.9 1.9.8 1.9 1.9-.4 2.3-.9 2.8-.1 1.8.9 2.8 1.9 2.3 1.9 2.8-.4 1.4-.9 1.9-.9 1.4-.9 1.9-.7 2.1-1.7 3.4l-.4.6c-.9 1.4-.7 3.3.5 4.4 0 0 0 0-.3 0s-2.2 3.1-2.2 3.1c-.8 1.3-.3 2.4 1.1 2.5 10.5-8.3 18.2-19.9 21.7-33.1zm-59.1-69.1c.5-.5.9-1.8.9-2.8s1.3-1.9 2.8-1.9 3.2-.4 3.8-.9-.4-1-2-1h-22c-21.7 5.6-38.8 22.7-44.4 44.3v8.9c0 1.6.4 3.8.9 4.9s.9 3.1.9 4.7.4 3.2.9 3.8 1.4 1.8 1.9 2.8.5 2.3 0 2.9-.9 1.4-.9 1.9 0 1.7 0 2.8-.1 3.2-.3 4.9l-.3 3c5.5 12.6 15.1 23.1 27.1 29.7h.5c1.7 0 3.4-.4 3.9-.9s.9-1.4.9-1.9 1.3-.9 2.8-.9 3.2-.8 3.8-1.9.9-2.7.9-3.7.8-2.3 1.9-2.8 1.9-1.9 1.9-2.9-.8-2.3-1.9-2.8-2.3-1.4-2.8-1.9-2.2-1.3-3.8-1.8-4-1.5-5.5-2.3l-2.2-1.1c-1.5-.8-2.7-1.8-2.7-2.3s-.4-1.4-.9-1.9-1.4-1.8-1.9-2.8-2.1-2.6-3.4-3.5l-.6-.4c-1.4-.9-3.1-2.9-3.8-4.3l-1.1-2.1c-.7-1.5-2.2-2.7-3.2-2.7s-2.6-1.1-3.6-2.5l-.4-.6c-.9-1.4-2.1-2.1-2.6-1.6s-1.3.5-1.9 0-.9-2.3-.9-3.9v-1.5c0-1.7-.4-3.4-.9-3.9s-.5-1.8 0-2.8.9-2.7.9-3.8-.4-1.5-.9-.9-.7-.4-.4-2l.9-5.4c.3-1.6.9-3 1.4-3s.9.4.9.9.4.9.9.9.6 1.3.2 2.9l-.2 1.5c-.4 1.6 0 2.9.8 2.9 0 0 0 0 .4 0s1.3-4.6 1.3-4.6c.3-1.6 1.7-3.7 3.1-4.5l.5-.3c1.4-.9 2.5-2.1 2.5-2.6s.4-1 .9-1 .9-.4.9-.9.4-1.4.9-1.9 1.4-.5 1.9 0 .9.5.9 0 .4-1.4.9-1.9 1.4-.9 1.9-.9.9.4.9.9.4.9.9.9 1.8-.4 2.8-.9 1.9-1.4 1.9-1.9-.4-.9-.9-.9-.9-.4-.9-.9 0-1.4 0-1.9.4-.5.9 0 1.8.5 2.8 0 1.5-.5.9 0-.9 1.4-.9 1.9.4 1.4.9 1.9 1.4.9 1.9.9.9-.8.9-1.9-.4-1.9-.9-1.9-.5-.4 0-.9 1.4-1.8 1.9-2.8.5-1.9 0-1.9-.9-.4-.9-.9.4-1.4.9-1.9.9-1.4.9-1.9-.9-.5-1.9 0-1.4.1-.9-.9.5-1.9 0-1.9-1.8.4-2.9 1-1.9 1.4-2 1.9-1.1 1.6-2.5 2.5l-.3.2c-1.4.9-2 .9-1.5-.2s.9-2.3.9-2.8 1.1-1.7 2.5-2.6l.6-.4c1.4-.9 3.8-1.7 5.3-1.7s2.8.4 2.8.9.4.9.9.9 2.1-.7 3.4-1.7l.6-.4c1.4-.9 2.9-2.1 3.4-2.6s.5-.9 0-.9-.7-.3-.7-.8.8-1.4 1.9-1.9 2.3-.5 2.8 0 .5 1.4 0 1.9-1.7 2.1-2.6 3.4l-.4.6c-.9 1.4-1.7 2.9-1.7 3.4s.4 1.4.9 1.9 1.4.9 1.9.9 1.4-.4 1.9-.9 2.1-1.7 3.4-2.6l.6-.4c1.4-.9 3.3-1.7 4.4-1.7s1.9-.3 1.9-.9.4-1.3.9-1.8z"
    class="iconic-globe-land-mass iconic-property-fill" />
    <circle stroke="#000" stroke-width="4" stroke-miterlimit="10" cx="64" cy="64" r="62" class="iconic-globe-border iconic-property-stroke" fill="none" />
  </g>
  <g data-width="32" data-height="32" class="iconic-container iconic-md" display="none" transform="scale(4)">
    <path d="M31 19.8v-7.7c-1.2-4.5-4.3-8.3-8.5-10.2h-.1c-.4 0-.8.2-.8.5s-.2.5-.5.5-.7 0-.9 0-.3.2 0 .5.5.7.5.9.2.5.5.5.4.4.4.8v.4c0 .4-.2.5-.5.3s-.7-.7-1-.9-.7-.5-1-.5-.5.2-.5.5 0 .7 0 .9.2.5.5.5.7 0 .9 0 .5.2.5.5.2.7.5.9.3.7 0 .9-.7.5-.9.5-.4.2-.4.5.2.7.5.9.7.2 1-.1l.8-.9c.3-.3.5-.7.5-1s.2-.5.5-.5.8.2 1.1.4l.5.3c.4.2.7.6.7.8s.2.2.5 0 .2-.6-.2-.8l-.6-.3c-.4-.2-.5-.3-.2-.3s.7.2 1 .5.7.3.9 0 .5-.3.5 0 .2.5.5.5.7.2.9.5.2.7 0 1-.7.5-1 .4-.7.2-.9.5-.7.5-.9.5-.5-.2-.5-.5-.3-.4-.7-.3l-2.3.6c-.4.1-.9.4-1.2.6s-.7.7-.9.9-.7.7-.9.9-.5.7-.5.9-.2.7-.5.9-.3.7 0 .9.5.8.5 1.2v.3c0 .4.2 1 .5 1.3l1.8 1.8c.3.3.7.3 1 0s.7-.5.9-.5.7-.2.9-.5.8-.3 1.2-.1l.5.3c.4.2.7.5.7.8s0 .8 0 1.2v.4c0 .4-.1 1-.3 1.4l-.3.5c-.2.4-.3 1-.3 1.4v.4c0 .3.2.5.4.6 2.5-1.9 4.4-4.8 5.2-8.1zm-14.6-18.3c.3.3.7.3 1 0s.1-.5-.3-.5h-5c-5.4 1.4-9.7 5.7-11.1 11.2v3.1c0 .4.2 1.1.3 1.4l.3.5c.2.4.3 1 .3 1.4v.4c0 .4.1 1.1.2 1.5l.5 1.4c.1.4.4 1 .7 1.3l1.1 1.6c.2.3.4.8.4 1.1s.2.7.5.9.7.7 1.1.9l2.5 1.9c.3.2.6.2.6 0s.2-.7.5-.9.7-.5 1-.5.5-.2.5-.5.2-.7.5-.9.5-.7.4-.9-.2-.7-.5-.9-.7-.5-.9-.4-.8-.2-1.1-.4l-1.7-1.2c-.3-.2-.6-.6-.6-.9s-.2-.7-.5-.9-.7-.7-1-.9-.7-.7-.9-.9-.7-.7-1-1l-.8-.8c-.3-.3-.7-.5-1-.5s-.5-.3-.5-.8v-.3c0-.4.3-.6.7-.4l.6.3c.3 0 .8.1 1.1.1s.2-.3-.1-.6l-1.7-1.7c-.3-.3-.5-.9-.5-1.3v-.4c0-.4.2-1 .5-1.2s.5-.1.5.3v.4c0 .4.2.5.5.3s.5-.7.5-1 .2-.5.5-.5.5-.2.5-.5.2-.7.5-1l.8-.8c.3-.3.7-.3 1-.1s.4.6.7.6.5-.2.5-.5-.2-.7-.5-.9-.1-.5.3-.5h.4c.4 0 .9-.3 1.1-.7l.2-.5c.2-.4.1-.9-.1-1.1s-.7-.3-1 0-.7.5-.9.5-.2-.3.1-.6l.8-.8c.3-.3.7-.3 1 0s.7.5.9.5.7-.2.9-.5.5-.7.5-.9.2-.5.5-.4.3.3.1.7l-.3.5c-.2.4-.3.9-.3 1.1s.2.5.5.5.7-.2.9-.5.8-.7 1.1-.8l.5-.3c.5-.3.8-.7.8-.9s0-.7 0-.9.2-.3.4 0z"
    class="iconic-globe-land-mass iconic-property-fill" />
    <circle stroke="#000" stroke-width="2" stroke-miterlimit="10" cx="16" cy="16" r="15" class="iconic-globe-border iconic-property-stroke" fill="none" />
  </g>
  <g data-width="16" data-height="16" class="iconic-container iconic-sm" display="none" transform="scale(8)">
    <path d="M15 10.7v-5.4c-.7-1.9-2.2-3.5-4.1-4.3-.1.1-.2.2-.2.4s-.2.4-.4.4-.4.2-.4.4-.2.6-.4.8l-.3.3c-.2.2-.2.3.1.3.2 0 .6 0 .9-.1.2 0 .3.1.1.3l-.2.2c-.2.2-.3.6-.3.9v.2c0 .3.3.4.5.3l1.5-.6c.3-.1.6-.4.8-.6l.3-.2c.2-.2.3-.2.3.1 0 .2.2.6.3.8l.2.1c.2.2.2.4-.1.4s-.4.2-.4.4-.2.5-.4.5-.4-.2-.4-.4-.2-.3-.4-.2l-.2.1c-.3 0-.7.2-.8.3-.2.1-.5.3-.7.5l-.2.2c-.2.2-.5.5-.7.7l-.1.1c-.2.2-.4.6-.4.9v.8c-.1.2.1.5.4.7l.9.4c.2.1.7.2.9.2.3 0 .6 0 .9 0s.6.2.8.3l.2.2c.2.2.2.5 0 .7l-.3.2c-.2.2-.4.6-.4.8v.7c0 .1.1.3.1.4 1.2-.8 2.1-1.9 2.6-3.2zm-14-5.4v3.9c0 .3 0 .7 0 1v.4c.5 1.4 1.5 2.6 2.7 3.4h1.2c.3 0 .7-.2.8-.4l.2-.2c.2-.2.4-.6.4-.9v-.7c0-.3-.2-.5-.5-.5h-.8c-.3 0-.6-.2-.7-.4l-.4-.9c-.2-.1-.5-.3-.8-.3h-.7c-.3 0-.5-.2-.5-.5v-.8c0-.2.2-.4.4-.4s.6.2.8.4l.2.2c.2.2.3.2.3-.1 0-.2-.2-.6-.3-.8l-.2-.2c-.2-.2-.4-.6-.3-.8s0-.6 0-.9.1-.4.3-.4c.2 0 .4-.2.4-.4.1-.2.4-.4.6-.4h.5c.3 0 .7-.2.8-.4l.3-.2c.2-.2.1-.5-.1-.6l-.7-.4c-.2-.1-.4-.4-.4-.7 0-.2.2-.3.4-.1l.1.2c.2.2.5.2.7 0l.2-.2c.2-.2.4-.5.4-.8 0-.2.1-.4.4-.4h-1.4c-2 .8-3.5 2.3-4.3 4.3zm7.9-4.3h-2.2c.2 0 .4.2.4.4 0 .3-.1.6-.3.8l-.2.2c-.2.2-.2.4.1.4s.6-.2.8-.4l.2-.2c.1-.2.4-.5.6-.7l.6-.5z"
    class="iconic-globe-land-mass iconic-property-fill" />
    <circle stroke="#000" stroke-miterlimit="10" cx="8" cy="8" r="7.5" class="iconic-globe-border iconic-property-stroke" fill="none" />
  </g>
</svg>