<svg version="1.1" xmlns="http://www.w3.org/2000/svg" data-icon="hard-drive" width="128" height="128" class="iconic iconic-hard-drive" viewBox="0 0 128 128">
  <g class="iconic-metadata">
    <title>Hard Drive</title>
  </g>
  <defs>
    <clipPath id="iconic-size-lg-hard-drive-clip-0">
      <path d="M0 0v96c0 2.2 1.8 4 4 4h90c2.2 0 4-1.8 4-4v-96h-98zm50 86c-6.4 0-12.3-1.7-17.5-4.6-1.5 2.5-2.8 4.5-3.7 5.3-2.1 2.2-4.9 3.3-7.8 3.3s-5.7-1.1-7.8-3.2c-4.3-4.3-4.3-11.3 0-15.6.9-.9 2.8-2.2 5.3-3.7-2.8-5.2-4.5-11.1-4.5-17.5 0-19.9 16.1-36 36-36s36 16.1 36 36-16.1 36-36 36z"
      />
    </clipPath>
    <clipPath id="iconic-size-lg-hard-drive-clip-1">
      <path d="M94 104h-90c-1.5 0-2.8-.4-4-1.1v25.1h98v-25.1c-1.2.7-2.5 1.1-4 1.1zm-80 18h-2v-12h2v12zm4 0h-2v-12h2v12zm4 0h-2v-12h2v12zm4 0h-2v-12h2v12zm4 0h-2v-12h2v12zm4 0h-2v-12h2v12zm4 0h-2v-12h2v12zm50-4c-1.1 0-2-.9-2-2s.9-2 2-2 2 .9 2 2-.9 2-2 2z"
      />
    </clipPath>
    <clipPath id="iconic-size-md-hard-drive-clip-0">
      <path d="M0 0v23c0 .6.4 1 1 1h22c.6 0 1-.4 1-1v-23h-24zm12 20c-1.5 0-2.8-.4-4-1.1-.8 1.2-1.5 2.1-1.8 2.3-.4.5-1.1.8-1.7.8-.7 0-1.3-.3-1.8-.7-.5-.5-.7-1.1-.7-1.8s.3-1.3.7-1.8c.2-.2 1.2-.9 2.4-1.8-.7-1.1-1.1-2.5-1.1-3.9 0-4.4 3.6-8 8-8s8 3.6 8 8-3.6 8-8 8z"
      />
    </clipPath>
    <clipPath id="iconic-size-md-hard-drive-clip-1">
      <path d="M23 26h-22c-.4 0-.7-.1-1-.2v6.2h24v-6.2c-.3.1-.6.2-1 .2zm-19 5h-1v-4h1v4zm2 0h-1v-4h1v4zm2 0h-1v-4h1v4zm2 0h-1v-4h1v4zm10-1c-.6 0-1-.4-1-1s.4-1 1-1 1 .4 1 1-.4 1-1 1z" />
    </clipPath>
    <clipPath id="iconic-size-sm-hard-drive-clip-0">
      <path d="M0 0v10.5c0 .3.2.5.5.5h12c.3 0 .5-.2.5-.5v-10.5h-13zm6.5 9c-.3 0-.5 0-.7-.1-.2.2-.3.4-.4.5-.4.4-.9.6-1.4.6-.5 0-1-.2-1.4-.6s-.6-.9-.6-1.4.2-1 .6-1.4c.1-.1.3-.2.5-.4-.1-.2-.1-.4-.1-.7 0-1.9 1.6-3.5 3.5-3.5s3.5 1.6 3.5 3.5-1.6 3.5-3.5 3.5z"
      />
    </clipPath>
    <clipPath id="iconic-size-sm-hard-drive-clip-1">
      <path d="M12.5 12h-12c-.2 0-.3 0-.5-.1v4.1h13v-4.1c-.2.1-.3.1-.5.1zm-9.5 3h-1v-2h1v2zm2 0h-1v-2h1v2zm5 0c-.6 0-1-.4-1-1s.4-1 1-1 1 .4 1 1-.4 1-1 1z" />
    </clipPath>
  </defs>
  <g data-width="98" data-height="128" class="iconic-container iconic-lg" display="inline" transform="translate(15)">
    <path clip-path="url(#iconic-size-lg-hard-drive-clip-0)" d="M0 8v112c0 4.4 3.6 8 8 8h82c4.4 0 8-3.6 8-8v-112c0-4.4-3.6-8-8-8h-82c-4.4 0-8 3.6-8 8z" class="iconic-hard-drive-casing iconic-hard-drive-casing-top iconic-property-fill" />
    <path clip-path="url(#iconic-size-lg-hard-drive-clip-1)" d="M0 8v112c0 4.4 3.6 8 8 8h82c4.4 0 8-3.6 8-8v-112c0-4.4-3.6-8-8-8h-82c-4.4 0-8 3.6-8 8z" class="iconic-hard-drive-casing iconic-hard-drive-casing-bottom iconic-property-fill" />
    <path stroke="#000" stroke-width="2" stroke-miterlimit="10" d="M43.5 61.3c1.9 1.1 4.1 1.7 6.5 1.7 7.2 0 13-5.8 13-13s-5.8-13-13-13-13 5.8-13 13c0 2.4.6 4.6 1.7 6.5" class="iconic-hard-drive-plate iconic-hard-drive-plate-inner-rim iconic-property-accent iconic-property-stroke"
    fill="none" />
    <circle cx="50" cy="50" r="4" class="iconic-hard-drive-plate iconic-hard-drive-plate-axis iconic-property-fill" />
    <path d="M14.6 72.6c-3.5 3.5-3.5 9.2 0 12.7s9.2 3.5 12.7 0 16.7-29.3 16.7-29.3-25.8 13.1-29.4 16.6zm6.4 8.4c-1.1 0-2-.9-2-2s.9-2 2-2 2 .9 2 2-.9 2-2 2z" class="iconic-hard-drive-plate iconic-hard-drive-plate-needle iconic-property-accent iconic-property-fill"
    />
    <path stroke="#000" stroke-width="2" stroke-linecap="round" stroke-miterlimit="10" d="M28.1 28.1c5.6-5.6 13.3-9.1 21.9-9.1" class="iconic-hard-drive-plate iconic-hard-drive-plate-reflection iconic-property-accent iconic-property-stroke" fill="none"
    />
  </g>
  <g data-width="24" data-height="32" class="iconic-container iconic-md" display="none" transform="scale(4) translate(4)">
    <path clip-path="url(#iconic-size-md-hard-drive-clip-0)" d="M0 1v30c0 .6.4 1 1 1h22c.6 0 1-.4 1-1v-30c0-.6-.4-1-1-1h-22c-.6 0-1 .4-1 1z" class="iconic-hard-drive-casing iconic-hard-drive-casing-top iconic-property-fill" />
    <path clip-path="url(#iconic-size-md-hard-drive-clip-1)" d="M0 1v30c0 .6.4 1 1 1h22c.6 0 1-.4 1-1v-30c0-.6-.4-1-1-1h-22c-.6 0-1 .4-1 1z" class="iconic-hard-drive-casing iconic-hard-drive-casing-bottom iconic-property-fill" />
    <path d="M5.5 20.6c-.6.6-1.5.6-2.1 0-.6-.6-.6-1.5 0-2.1.6-.6 7.6-5.5 7.6-5.5s-4.9 7-5.5 7.6z" class="iconic-hard-drive-plate iconic-hard-drive-plate-needle iconic-property-accent iconic-property-fill" />
    <path stroke="#000" stroke-miterlimit="10" d="M11.3 14.4c.2.1.5.1.7.1 1.4 0 2.5-1.1 2.5-2.5s-1.1-2.5-2.5-2.5-2.5 1.1-2.5 2.5c0 .3.1.5.1.7" class="iconic-hard-drive-plate iconic-hard-drive-plate-inner-rim iconic-property-accent iconic-property-stroke"
    fill="none" />
  </g>
  <g data-width="13" data-height="16" class="iconic-container iconic-sm" display="none" transform="scale(8) translate(1)">
    <path clip-path="url(#iconic-size-sm-hard-drive-clip-0)" d="M0 .5v15c0 .3.2.5.5.5h12c.3 0 .5-.2.5-.5v-15c0-.3-.2-.5-.5-.5h-12c-.3 0-.5.2-.5.5z" class="iconic-hard-drive-casing iconic-hard-drive-casing-top iconic-property-fill" />
    <path clip-path="url(#iconic-size-sm-hard-drive-clip-1)" d="M0 .5v15c0 .3.2.5.5.5h12c.3 0 .5-.2.5-.5v-15c0-.3-.2-.5-.5-.5h-12c-.3 0-.5.2-.5.5z" class="iconic-hard-drive-casing iconic-hard-drive-casing-bottom iconic-property-fill" />
    <path d="M4.7 8.7c-.4.4-1 .4-1.4 0s-.4-1 0-1.4 2.7-1.3 2.7-1.3-.9 2.3-1.3 2.7z" class="iconic-hard-drive-plate iconic-hard-drive-plate-needle iconic-property-accent iconic-property-fill" />
    <path d="M6.5 5c-.3 0-.5.2-.5.5s.2.5.5.5.5-.2.5-.5-.2-.5-.5-.5z" class="iconic-hard-drive-plate iconic-hard-drive-plate-axis iconic-property-accent iconic-property-fill" />
  </g>
</svg>