<svg version="1.1" xmlns="http://www.w3.org/2000/svg" data-icon="header" width="128" height="128" class="iconic iconic-header" viewBox="0 0 128 128">
  <g class="iconic-metadata">
    <title>Header</title>
  </g>
  <g data-width="100" data-height="128" class="iconic-container iconic-lg" display="inline" transform="translate(14)">
    <path d="M98 4h2v-4h-28v4h2c3.3 0 6 2.7 6 6v52h-60v-52c0-3.3 2.7-6 6-6h2v-4h-28v4h2c3.3 0 6 2.7 6 6v108c0 3.3-2.7 6-6 6h-2v4h28v-4h-2c-3.3 0-6-2.7-6-6v-50h60v50c0 3.3-2.7 6-6 6h-2v4h28v-4h-2c-3.3 0-6-2.7-6-6v-108c0-3.3 2.7-6 6-6z" class="iconic-property-fill"
    />
  </g>
  <g data-width="27" data-height="32" class="iconic-container iconic-md" display="none" transform="scale(4) translate(2)">
    <path d="M26 1h1v-1h-9v1h1c1.1 0 2 .9 2 2v12h-15v-12c0-1.1.9-2 2-2h1v-1h-9v1h1c1.1 0 2 .9 2 2v26c0 1.1-.9 2-2 2h-1v1h9v-1h-1c-1.1 0-2-.9-2-2v-12h15v12c0 1.1-.9 2-2 2h-1v1h9v-1h-1c-1.1 0-2-.9-2-2v-26c0-1.1.9-2 2-2z" class="iconic-property-fill" />
  </g>
  <g data-width="15" data-height="16" class="iconic-container iconic-sm" display="none" transform="scale(8)">
    <path d="M14 1h1v-1h-6v1h1c.6 0 1 .4 1 1v5h-7v-5c0-.6.4-1 1-1h1v-1h-6v1h1c.6 0 1 .4 1 1v12c0 .6-.4 1-1 1h-1v1h6v-1h-1c-.6 0-1-.4-1-1v-5h7v5c0 .6-.4 1-1 1h-1v1h6v-1h-1c-.6 0-1-.4-1-1v-12c0-.6.4-1 1-1z" class="iconic-property-fill" />
  </g>
</svg>