<svg version="1.1" xmlns="http://www.w3.org/2000/svg" data-icon="headphones" width="128" height="128" class="iconic iconic-headphones" viewBox="0 0 128 128">
  <g class="iconic-metadata">
    <title>Headphones</title>
  </g>
  <g data-width="116" data-height="124" class="iconic-container iconic-lg" display="inline" transform="translate(6 2)">
    <path stroke="#000" stroke-width="2" stroke-linecap="round" stroke-miterlimit="10" d="M105 114v-27c0-2.2.5-5.7 1.2-7.8l3.6-11.4c.7-2.1 1.2-5.6 1.2-7.8v-9c0-2.2.4-5.8.9-7.9l3.1-14.1" class="iconic-headphones-connector iconic-headphones-connector-right iconic-property-stroke"
    fill="none" />
    <path stroke="#000" stroke-width="2" stroke-linecap="round" stroke-miterlimit="10" d="M11 113v-26c0-2.2-.5-5.7-1.2-7.8l-3.6-11.4c-.7-2.1-1.2-5.6-1.2-7.8v-9c0-2.2-.4-5.8-.9-7.9l-3.1-14.1" class="iconic-headphones-connector iconic-headphones-connector-left iconic-property-stroke"
    fill="none" />
    <path d="M14 116c-6.6 0-12-5.4-12-12s5.4-12 12-12" class="iconic-headphones-speaker iconic-headphones-speaker-back iconic-headphones-speaker-back-left iconic-property-fill" />
    <path d="M102 92c6.6 0 12 5.4 12 12s-5.4 12-12 12" class="iconic-headphones-speaker iconic-headphones-speaker-back iconic-headphones-speaker-back-right iconic-property-fill" />
    <path d="M22.5 124h-9c-.8 0-1.5-.7-1.5-1.5v-37c0-.8.7-1.5 1.5-1.5h9c.8 0 1.5.7 1.5 1.5v37c0 .8-.7 1.5-1.5 1.5z" class="iconic-headphones-speaker iconic-headphones-speaker-earpeice iconic-headphones-speaker-earpeice-left iconic-property-fill" />
    <path d="M102.5 124h-9c-.8 0-1.5-.7-1.5-1.5v-37c0-.8.7-1.5 1.5-1.5h9c.8 0 1.5.7 1.5 1.5v37c0 .8-.7 1.5-1.5 1.5z" class="iconic-headphones-speaker iconic-headphones-speaker-earpeice iconic-headphones-speaker-earpeice-right iconic-property-fill" />
    <path d="M111 38c-7.5-22.1-28.4-38-53-38s-45.5 15.9-53 38h-3v18c0 2.2 1.8 4 4 4s4-1.8 4-4c0-26.5 21.5-48 48-48s48 21.5 48 48c0 2.2 1.8 4 4 4s4-1.8 4-4v-18h-3z" class="iconic-headphones-top iconic-property-fill" />
  </g>
  <g data-width="29" data-height="32" class="iconic-container iconic-md" display="none" transform="scale(4) translate(1)">
    <path stroke="#000" stroke-miterlimit="10" d="M1.5 13.5v3c0 1.1.2 2.7.5 3.5s.5 2 .5 2.5 0 1.6 0 2.2 0 1.2 0 1.2" class="iconic-headphones-connector iconic-headphones-connector-left iconic-property-stroke" fill="none" />
    <path stroke="#000" stroke-miterlimit="10" d="M27.5 13.5v3c0 1.1-.2 2.7-.5 3.5s-.5 2-.5 2.5 0 1.6 0 2.2 0 1.2 0 1.2" class="iconic-headphones-connector iconic-headphones-connector-right iconic-property-stroke" fill="none" />
    <path d="M4 31c-2.2 0-4-1.8-4-4s1.8-4 4-4v8z" class="iconic-headphones-speaker iconic-headphones-speaker-back iconic-headphones-speaker-back-left iconic-property-fill" />
    <path d="M25 23c2.2 0 4 1.8 4 4s-1.8 4-4 4v-8z" class="iconic-headphones-speaker iconic-headphones-speaker-back iconic-headphones-speaker-back-right iconic-property-fill" />
    <path d="M5.5 32h-2c-.3 0-.5-.2-.5-.5v-9c0-.3.2-.5.5-.5h2c.3 0 .5.2.5.5v9c0 .3-.2.5-.5.5z" class="iconic-headphones-speaker iconic-headphones-speaker-earpeice iconic-headphones-speaker-earpeice-left iconic-property-fill" />
    <path d="M25.5 32h-2c-.3 0-.5-.2-.5-.5v-9c0-.3.2-.5.5-.5h2c.3 0 .5.2.5.5v9c0 .3-.2.5-.5.5z" class="iconic-headphones-speaker iconic-headphones-speaker-earpeice iconic-headphones-speaker-earpeice-right iconic-property-fill" />
    <path stroke="#000" stroke-width="3" stroke-linecap="round" stroke-linejoin="round" stroke-miterlimit="10" d="M27.5 14.5c0-7.2-5.8-13-13-13s-13 5.8-13 13" class="iconic-headphones-top iconic-property-stroke" fill="none" />
  </g>
  <g data-width="14" data-height="16" class="iconic-container iconic-sm" display="none" transform="scale(8) translate(1)">
    <path stroke="#000" stroke-miterlimit="10" class="iconic-headphones-connector iconic-headphones-connector-left iconic-property-stroke" d="M1.5 6v7" fill="none" />
    <path stroke="#000" stroke-miterlimit="10" class="iconic-headphones-connector iconic-headphones-connector-right iconic-property-stroke" d="M12.5 6v7" fill="none" />
    <path d="M12.5 15c.8 0 1.5-.7 1.5-1.5s-.7-1.5-1.5-1.5h-1.5v3h1.5z" class="iconic-headphones-speaker iconic-headphones-speaker-back iconic-headphones-speaker-back-right iconic-property-fill" />
    <path d="M1.5 12c-.8 0-1.5.7-1.5 1.5s.7 1.5 1.5 1.5h1.5v-3h-1.5z" class="iconic-headphones-speaker iconic-headphones-speaker-back iconic-headphones-speaker-back-left iconic-property-fill" />
    <path d="M3.8 16h-1.6c-.1 0-.2-.1-.2-.2v-4.5c0-.2.1-.3.2-.3h1.5c.2 0 .3.1.3.2v4.5c0 .2-.1.3-.2.3z" class="iconic-headphones-speaker iconic-headphones-speaker-earpeice iconic-headphones-speaker-earpeice-left iconic-property-fill" />
    <path d="M11.8 16h-1.5c-.1 0-.2-.1-.2-.2v-4.5c0-.1.1-.2.2-.2h1.5c.1 0 .2.1.2.2v4.5c0 .1-.1.2-.2.2z" class="iconic-headphones-speaker iconic-headphones-speaker-earpeice iconic-headphones-speaker-earpeice-right iconic-property-fill" />
    <path stroke="#000" stroke-width="2" stroke-linecap="round" stroke-linejoin="round" stroke-miterlimit="10" d="M13 7c0-3.3-2.7-6-6-6s-6 2.7-6 6" class="iconic-headphones-top iconic-property-stroke" fill="none" />
  </g>
</svg>