<svg version="1.1" xmlns="http://www.w3.org/2000/svg" data-icon="heart" width="128" height="128" class="iconic iconic-heart" viewBox="0 0 128 128">
  <g class="iconic-metadata">
    <title>Heart</title>
  </g>
  <g data-width="128" data-height="112" class="iconic-container iconic-lg" display="inline" transform="translate(0 8)">
    <path d="M118 10c-6.2-6.2-14.7-10-24-10-9.4 0-17.9 3.8-24 10-2.4 2.4-4.4 5.1-6 8-1.6-3-3.6-5.7-6-8-6.1-6.2-14.6-10-24-10s-17.9 3.8-24 10c-6.2 6.1-10 14.6-10 24s3.8 17.9 10 24l54 54 54-54c6.2-6.2 10-14.7 10-24 0-9.4-3.8-17.9-10-24z" class="iconic-property-fill"
    />
  </g>
  <g data-width="32" data-height="28" class="iconic-container iconic-md" display="none" transform="scale(4) translate(0 2)">
    <path d="M16 5s-.5-1.5-1.5-2.5c-1.5-1.6-3.7-2.5-6-2.5s-4.5 1-6 2.5-2.5 3.7-2.5 6 1 4.5 2.5 6l13.5 13.5 13.5-13.5c1.5-1.5 2.5-3.7 2.5-6s-1-4.5-2.5-6-3.7-2.5-6-2.5-4.5.9-6 2.5c-1 1-1.5 2.5-1.5 2.5z" class="iconic-property-fill" />
  </g>
  <g data-width="16" data-height="14" class="iconic-container iconic-sm" display="none" transform="scale(8) translate(0 1)">
    <path d="M14.8 1.2c-.7-.8-1.7-1.2-2.8-1.2s-2.1.4-2.8 1.2c-.8.7-1.1 1.5-1.2 1.8-.1-.3-.4-1.1-1.2-1.8-.7-.8-1.7-1.2-2.8-1.2s-2.1.4-2.8 1.2c-.8.7-1.2 1.7-1.2 2.8 0 1.1.4 2.1 1.2 2.8l6.8 6.9 6.8-6.8c.8-.8 1.2-1.8 1.2-2.9 0-1.1-.4-2.1-1.2-2.8z" class="iconic-property-fill"
    />
  </g>
</svg>