<svg version="1.1" xmlns="http://www.w3.org/2000/svg" data-icon="home" width="128" height="128" class="iconic iconic-home" viewBox="0 0 128 128">
  <g class="iconic-metadata">
    <title>Home</title>
  </g>
  <defs>
    <clipPath id="iconic-size-lg-home-clip-0">
      <path d="M64 16l-48 40 .2 62h37.8v-24h20v24h38v-62z" />
    </clipPath>
    <clipPath id="iconic-size-md-home-clip-0">
      <path d="M16 5l-11 10v14h9v-6h4v6h9v-14z" />
    </clipPath>
  </defs>
  <g data-width="128" data-height="122" class="iconic-container iconic-lg" display="inline" transform="translate(0 3)">
    <path clip-path="url(#iconic-size-lg-home-clip-0)" d="M16 57.5l.2 63c0 .8.7 1.5 1.5 1.5h92.8c.8 0 1.5-.7 1.5-1.5v-63c0-.8-.5-1.9-1.2-2.5l-45.6-38c-.6-.5-1.7-.5-2.3 0l-45.7 38c-.7.6-1.2 1.7-1.2 2.5z" class="iconic-home-wall iconic-property-fill" />
    <path d="M10.5 56h-9c-.8 0-1-.4-.4-1l61.8-54c.6-.5 1.6-.5 2.3 0l61.7 54c.6.5.5 1-.4 1h-9c-.8 0-2-.4-2.6-1l-49.8-42c-.6-.5-1.7-.5-2.3 0l-49.7 42c-.6.6-1.8 1-2.6 1z" class="iconic-home-roof iconic-property-fill" />
  </g>
  <g data-width="32" data-height="32" class="iconic-container iconic-md" display="none" transform="scale(4)">
    <path clip-path="url(#iconic-size-md-home-clip-0)" d="M5.5 32h21c.3 0 .5-.2.5-.5v-16c0-.3-.2-.7-.4-.8l-10.2-9.4c-.2-.2-.5-.2-.7 0l-10.3 9.4c-.2.1-.4.5-.4.8v16c0 .3.2.5.5.5z" class="iconic-home-wall iconic-property-fill" />
    <path d="M.4 14.7l15.2-14.4c.2-.2.5-.2.7 0l15.3 14.3c.2.2.1.3-.1.3h-2c-.3 0-.7-.2-.9-.3l-12.2-11.3c-.2-.2-.5-.2-.7 0l-12.3 11.4c-.2.1-.6.3-.9.3h-2c-.3 0-.3-.2-.1-.3z" class="iconic-home-roof iconic-property-fill" />
  </g>
  <g data-width="16" data-height="15" class="iconic-container iconic-sm" display="none" transform="scale(8)">
    <path class="iconic-home-wall iconic-property-fill" d="M8 0l-8 7h2v8h5v-3h2v3h5v-8h2z" />
  </g>
</svg>