<svg version="1.1" xmlns="http://www.w3.org/2000/svg" data-icon="infinity" width="128" height="128" class="iconic iconic-infinity" viewBox="0 0 128 128">
  <g class="iconic-metadata">
    <title>Infinity</title>
  </g>
  <g data-width="128" data-height="58" class="iconic-container iconic-lg" display="inline" transform="translate(0 35)">
    <path stroke="#000" stroke-width="8" stroke-miterlimit="10" d="M25 4c-13.1 0-21 12.9-21 25.3s7.9 24.7 21 24.7c26.9 0 51.1-50 79-50 13.3 0 20 12.9 20 25.3s-6.7 24.7-20 24.7c-28.1 0-52.3-50-79-50z" class="iconic-property-stroke" fill="none" />
  </g>
  <g data-width="32" data-height="15" class="iconic-container iconic-md" display="none" transform="scale(4) translate(0 8)">
    <path stroke="#000" stroke-width="3" stroke-miterlimit="10" d="M6.5 1.5c-3.2 0-5 3-5 6s1.8 6 5 6c6.5 0 12.5-12 19.2-12 3.2 0 4.7 3 4.8 6 0 3-1.5 6-4.8 6-6.7 0-12.7-12-19.2-12z" class="iconic-property-stroke" fill="none" />
  </g>
  <g data-width="16" data-height="8" class="iconic-container iconic-sm" display="none" transform="scale(8) translate(0 4)">
    <path stroke="#000" stroke-width="2" stroke-miterlimit="10" d="M3.2 1c-3 0-3 6 0 6s6.5-6 9.5-6 3 6 0 6-6.5-6-9.5-6z" class="iconic-property-stroke" fill="none" />
  </g>
</svg>