<svg version="1.1" xmlns="http://www.w3.org/2000/svg" data-icon="italic" width="128" height="128" class="iconic iconic-italic" viewBox="0 0 128 128">
  <g class="iconic-metadata">
    <title>Italic</title>
  </g>
  <g data-width="90" data-height="128" class="iconic-container iconic-lg" display="inline" transform="translate(19)">
    <path d="M34 0l-2 8h14c3.3 0 5.3 2.6 4.4 5.8l-26.8 100.4c-.9 3.2-4.3 5.8-7.6 5.8h-14l-2 8h58l2-8h-16c-3.3 0-5.3-2.6-4.4-5.8l26.8-100.4c.9-3.2 4.3-5.8 7.6-5.8h14l2-8h-56z" class="iconic-property-fill" />
  </g>
  <g data-width="22" data-height="32" class="iconic-container iconic-md" display="none" transform="scale(4) translate(5)">
    <path d="M8 0v2h4c.5 0 .9.4.8 1l-6.6 26c-.1.5-.7 1-1.2 1h-5v2h14.9v-2h-3.9c-.5 0-.9-.4-.8-1l6.6-26c.1-.5.7-1 1.2-1h4v-2h-14z" class="iconic-property-fill" />
  </g>
  <g data-width="12" data-height="16" class="iconic-container iconic-sm" display="none" transform="scale(8) translate(2)">
    <path d="M4 0v1h2.5c.3 0 .4.2.4.5l-3.7 13c-.1.3-.4.5-.7.5h-2.5v1h8v-1h-2.5c-.3 0-.4-.2-.4-.5l3.7-13c.1-.3.4-.5.7-.5h2.5v-1h-8z" class="iconic-property-fill" />
  </g>
</svg>