<svg version="1.1" xmlns="http://www.w3.org/2000/svg" data-icon="key" width="128" height="128" class="iconic iconic-key" viewBox="0 0 128 128">
  <g class="iconic-metadata">
    <title>Key</title>
  </g>
  <g data-width="128" data-height="126" class="iconic-container iconic-lg" display="inline" transform="translate(0 1)">
    <path d="M92 0c-19.9 0-36 16.1-36 36 0 4.2.7 8.2 2 12l-58 58v20h20l8-8v-8h8v-6h6v-8h8l10-10v-6h6l5.9-5.9 4 4 7.2-7.2c2.9.7 5.8 1.1 8.9 1.1 19.9 0 36-16.1 36-36s-16.1-36-36-36zm-87.9 112.2v-4.2l53.9-54 2 2.2-55.9 56zm102.9-84.2c-3.9 0-7-3.1-7-7s3.1-7 7-7 7 3.1 7 7-3.1 7-7 7z"
    class="iconic-property-fill" />
  </g>
  <g data-width="32" data-height="32" class="iconic-container iconic-md" display="none" transform="scale(4)">
    <path d="M23 0c-5 0-9 4-9 9 0 .9.1 1.8.4 2.6l-14.4 14.4v6h6v-3h3v-3h3v-3h3l5.4-5.4c.8.3 1.7.4 2.6.4 5 0 9-4 9-9s-4-9-9-9zm3 8c-1.1 0-2-.9-2-2s.9-2 2-2 2 .9 2 2-.9 2-2 2z" class="iconic-property-fill" />
  </g>
  <g data-width="16" data-height="16" class="iconic-container iconic-sm" display="none" transform="scale(8)">
    <path d="M11.5 0c-2.5 0-4.5 2-4.5 4.5 0 .5.1.9.2 1.3l-7.2 7.2v3h3v-2h2v-2h2v-2h2l1.2-1.2c.4.1.8.2 1.3.2 2.5 0 4.5-2 4.5-4.5s-2-4.5-4.5-4.5zm1.5 4c-.6 0-1-.4-1-1s.4-1 1-1 1 .4 1 1-.4 1-1 1z" class="iconic-property-fill" />
  </g>
</svg>