<svg version="1.1" xmlns="http://www.w3.org/2000/svg" data-icon="keyboard" width="128" height="128" class="iconic iconic-keyboard" viewBox="0 0 128 128">
  <g class="iconic-metadata">
    <title>Keyboard</title>
  </g>
  <defs>
    <clipPath id="iconic-size-lg-keyboard-clip-0">
      <path d="M0 0v50h126v-50h-126zm102 6.5c0-.3.2-.5.5-.5h5c.3 0 .5.2.5.5v5c0 .3-.2.5-.5.5h-5c-.3 0-.5-.2-.5-.5v-5zm9.5 7.5c.3 0 .5.2.5.5v5c0 .3-.2.5-.5.5h-5c-.3 0-.5-.2-.5-.5v-5c0-.3.2-.5.5-.5h5zm-11.5 8.5c0-.3.2-.5.5-.5h5c.3 0 .5.2.5.5v5c0 .3-.2.5-.5.5h-5c-.3 0-.5-.2-.5-.5v-5zm-1.5-2.5c-.3 0-.5-.2-.5-.5v-5c0-.3.2-.5.5-.5h5c.3 0 .5.2.5.5v5c0 .3-.2.5-.5.5h-5zm-4.5-13.5c0-.3.2-.5.5-.5h5c.3 0 .5.2.5.5v5c0 .3-.2.5-.5.5h-5c-.3 0-.5-.2-.5-.5v-5zm-2 16c0-.3.2-.5.5-.5h5c.3 0 .5.2.5.5v5c0 .3-.2.5-.5.5h-5c-.3 0-.5-.2-.5-.5v-5zm-1.5-2.5c-.3 0-.5-.2-.5-.5v-5c0-.3.2-.5.5-.5h5c.3 0 .5.2.5.5v5c0 .3-.2.5-.5.5h-5zm-4.5-13.5c0-.3.2-.5.5-.5h5c.3 0 .5.2.5.5v5c0 .3-.2.5-.5.5h-5c-.3 0-.5-.2-.5-.5v-5zm-2 16c0-.3.2-.5.5-.5h5c.3 0 .5.2.5.5v5c0 .3-.2.5-.5.5h-5c-.3 0-.5-.2-.5-.5v-5zm-1.5-2.5c-.3 0-.5-.2-.5-.5v-5c0-.3.2-.5.5-.5h5c.3 0 .5.2.5.5v5c0 .3-.2.5-.5.5h-5zm-4.5-13.5c0-.3.2-.5.5-.5h5c.3 0 .5.2.5.5v5c0 .3-.2.5-.5.5h-5c-.3 0-.5-.2-.5-.5v-5zm-42 16c0-.3.2-.5.5-.5h5c.3 0 .5.2.5.5v5c0 .3-.2.5-.5.5h-5c-.3 0-.5-.2-.5-.5v-5zm-1.5-2.5c-.3 0-.5-.2-.5-.5v-5c0-.3.2-.5.5-.5h5c.3 0 .5.2.5.5v5c0 .3-.2.5-.5.5h-5zm5.5 10.5c0-.3.2-.5.5-.5h5c.3 0 .5.2.5.5v5c0 .3-.2.5-.5.5h-5c-.3 0-.5-.2-.5-.5v-5zm2-11v-5c0-.3.2-.5.5-.5h5c.3 0 .5.2.5.5v5c0 .3-.2.5-.5.5h-5c-.3 0-.5-.2-.5-.5zm2.5 8.5c-.3 0-.5-.2-.5-.5v-5c0-.3.2-.5.5-.5h5c.3 0 .5.2.5.5v5c0 .3-.2.5-.5.5h-5zm3.5 2.5c0-.3.2-.5.5-.5h5c.3 0 .5.2.5.5v5c0 .3-.2.5-.5.5h-5c-.3 0-.5-.2-.5-.5v-5zm2-11v-5c0-.3.2-.5.5-.5h5c.3 0 .5.2.5.5v5c0 .3-.2.5-.5.5h-5c-.3 0-.5-.2-.5-.5zm2.5 8.5c-.3 0-.5-.2-.5-.5v-5c0-.3.2-.5.5-.5h5c.3 0 .5.2.5.5v5c0 .3-.2.5-.5.5h-5zm3.5 2.5c0-.3.2-.5.5-.5h5c.3 0 .5.2.5.5v5c0 .3-.2.5-.5.5h-5c-.3 0-.5-.2-.5-.5v-5zm2-11v-5c0-.3.2-.5.5-.5h5c.3 0 .5.2.5.5v5c0 .3-.2.5-.5.5h-5c-.3 0-.5-.2-.5-.5zm2.5 8.5c-.3 0-.5-.2-.5-.5v-5c0-.3.2-.5.5-.5h5c.3 0 .5.2.5.5v5c0 .3-.2.5-.5.5h-5zm3.5 2.5c0-.3.2-.5.5-.5h5c.3 0 .5.2.5.5v5c0 .3-.2.5-.5.5h-5c-.3 0-.5-.2-.5-.5v-5zm2-11v-5c0-.3.2-.5.5-.5h5c.3 0 .5.2.5.5v5c0 .3-.2.5-.5.5h-5c-.3 0-.5-.2-.5-.5zm2.5 8.5c-.3 0-.5-.2-.5-.5v-5c0-.3.2-.5.5-.5h5c.3 0 .5.2.5.5v5c0 .3-.2.5-.5.5h-5zm3.5 2.5c0-.3.2-.5.5-.5h5c.3 0 .5.2.5.5v5c0 .3-.2.5-.5.5h-5c-.3 0-.5-.2-.5-.5v-5zm2-11v-5c0-.3.2-.5.5-.5h5c.3 0 .5.2.5.5v5c0 .3-.2.5-.5.5h-5c-.3 0-.5-.2-.5-.5zm2.5 8.5c-.3 0-.5-.2-.5-.5v-5c0-.3.2-.5.5-.5h5c.3 0 .5.2.5.5v5c0 .3-.2.5-.5.5h-5zm-6.5-21.5c0-.3.2-.5.5-.5h5c.3 0 .5.2.5.5v5c0 .3-.2.5-.5.5h-5c-.3 0-.5-.2-.5-.5v-5zm-8 0c0-.3.2-.5.5-.5h5c.3 0 .5.2.5.5v5c0 .3-.2.5-.5.5h-5c-.3 0-.5-.2-.5-.5v-5zm-8 0c0-.3.2-.5.5-.5h5c.3 0 .5.2.5.5v5c0 .3-.2.5-.5.5h-5c-.3 0-.5-.2-.5-.5v-5zm-8 0c0-.3.2-.5.5-.5h5c.3 0 .5.2.5.5v5c0 .3-.2.5-.5.5h-5c-.3 0-.5-.2-.5-.5v-5zm-8 0c0-.3.2-.5.5-.5h5c.3 0 .5.2.5.5v5c0 .3-.2.5-.5.5h-5c-.3 0-.5-.2-.5-.5v-5zm-8 0c0-.3.2-.5.5-.5h5c.3 0 .5.2.5.5v5c0 .3-.2.5-.5.5h-5c-.3 0-.5-.2-.5-.5v-5zm-2 16c0-.3.2-.5.5-.5h5c.3 0 .5.2.5.5v5c0 .3-.2.5-.5.5h-5c-.3 0-.5-.2-.5-.5v-5zm-1.5-2.5c-.3 0-.5-.2-.5-.5v-5c0-.3.2-.5.5-.5h5c.3 0 .5.2.5.5v5c0 .3-.2.5-.5.5h-5zm-4.5-13.5c0-.3.2-.5.5-.5h5c.3 0 .5.2.5.5v5c0 .3-.2.5-.5.5h-5c-.3 0-.5-.2-.5-.5v-5zm-2 16c0-.3.2-.5.5-.5h5c.3 0 .5.2.5.5v5c0 .3-.2.5-.5.5h-5c-.3 0-.5-.2-.5-.5v-5zm-1.5-2.5c-.3 0-.5-.2-.5-.5v-5c0-.3.2-.5.5-.5h5c.3 0 .5.2.5.5v5c0 .3-.2.5-.5.5h-5zm-4.5-13.5c0-.3.2-.5.5-.5h5c.3 0 .5.2.5.5v5c0 .3-.2.5-.5.5h-5c-.3 0-.5-.2-.5-.5v-5zm-8 0c0-.3.2-.5.5-.5h5c.3 0 .5.2.5.5v5c0 .3-.2.5-.5.5h-5c-.3 0-.5-.2-.5-.5v-5zm0 8c0-.3.2-.5.5-.5h9c.3 0 .5.2.5.5v5c0 .3-.2.5-.5.5h-9c-.3 0-.5-.2-.5-.5v-5zm0 8c0-.3.2-.5.5-.5h11c.3 0 .5.2.5.5v5c0 .3-.2.5-.5.5h-11c-.3 0-.5-.2-.5-.5v-5zm6 21c0 .3-.2.5-.5.5h-5c-.3 0-.5-.2-.5-.5v-5c0-.3.2-.5.5-.5h5c.3 0 .5.2.5.5v5zm8 0c0 .3-.2.5-.5.5h-5c-.3 0-.5-.2-.5-.5v-5c0-.3.2-.5.5-.5h5c.3 0 .5.2.5.5v5zm1.5-7.5h-15c-.3 0-.5-.2-.5-.5v-5c0-.3.2-.5.5-.5h15c.3 0 .5.2.5.5v5c0 .3-.2.5-.5.5zm6.5 7.5c0 .3-.2.5-.5.5h-5c-.3 0-.5-.2-.5-.5v-5c0-.3.2-.5.5-.5h5c.3 0 .5.2.5.5v5zm1.5-7.5h-5c-.3 0-.5-.2-.5-.5v-5c0-.3.2-.5.5-.5h5c.3 0 .5.2.5.5v5c0 .3-.2.5-.5.5zm6.5 7.5c0 .3-.2.5-.5.5h-5c-.3 0-.5-.2-.5-.5v-5c0-.3.2-.5.5-.5h5c.3 0 .5.2.5.5v5zm1.5-7.5h-5c-.3 0-.5-.2-.5-.5v-5c0-.3.2-.5.5-.5h5c.3 0 .5.2.5.5v5c0 .3-.2.5-.5.5zm42.5 7.5c0 .3-.2.5-.5.5h-41c-.3 0-.5-.2-.5-.5v-5c0-.3.2-.5.5-.5h41c.3 0 .5.2.5.5v5zm0-8v-5c0-.3.2-.5.5-.5h5c.3 0 .5.2.5.5v5c0 .3-.2.5-.5.5h-5c-.3 0-.5-.2-.5-.5zm8 8c0 .3-.2.5-.5.5h-5c-.3 0-.5-.2-.5-.5v-5c0-.3.2-.5.5-.5h5c.3 0 .5.2.5.5v5zm0-8v-5c0-.3.2-.5.5-.5h5c.3 0 .5.2.5.5v5c0 .3-.2.5-.5.5h-5c-.3 0-.5-.2-.5-.5zm8 8c0 .3-.2.5-.5.5h-5c-.3 0-.5-.2-.5-.5v-5c0-.3.2-.5.5-.5h5c.3 0 .5.2.5.5v5zm0-8v-5c0-.3.2-.5.5-.5h5c.3 0 .5.2.5.5v5c0 .3-.2.5-.5.5h-5c-.3 0-.5-.2-.5-.5zm8 8.3c0 .1-.1.2-.2.2h-5.5c-.1 0-.2-.1-.2-.2v-1.5c0-.1.1-.2.2-.2h5.5c.1 0 .2.1.2.2v1.5zm8 0c0 .1-.1.2-.2.2h-5.5c-.1 0-.2-.1-.2-.2v-1.5c0-.1.1-.2.2-.2h5.5c.1 0 .2.1.2.2v1.5zm0-4c0 .1-.1.2-.2.2h-5.5c-.1 0-.2-.1-.2-.2v-1.5c0-.1.1-.2.2-.2h5.5c.1 0 .2.1.2.2v1.5zm8 4c0 .1-.1.2-.2.2h-5.5c-.1 0-.2-.1-.2-.2v-1.5c0-.1.1-.2.2-.2h5.5c.1 0 .2.1.2.2v1.5zm0-8.3c0 .3-.2.5-.5.5h-15c-.3 0-.5-.2-.5-.5v-5c0-.3.2-.5.5-.5h15c.3 0 .5.2.5.5v5zm0-8c0 .3-.2.5-.5.5h-11c-.3 0-.5-.2-.5-.5v-5c0-.3.2-.5.5-.5h11c.3 0 .5.2.5.5v5zm0-8c0 .3-.2.5-.5.5h-5c-.3 0-.5-.2-.5-.5v-5c0-.3.2-.5.5-.5h5c.3 0 .5.2.5.5v5zm0-8c0 .3-.2.5-.5.5h-9c-.3 0-.5-.2-.5-.5v-5c0-.3.2-.5.5-.5h9c.3 0 .5.2.5.5v5z"
      />
    </clipPath>
    <clipPath id="iconic-size-md-keyboard-clip-0">
      <path d="M0 0v15h31v-15h-31zm26 5.2v1.5c0 .2-.1.3-.2.3h-1.5c-.2 0-.3-.1-.3-.2v-1.6c0-.1.1-.2.2-.2h1.5c.2 0 .3.1.3.2zm-3-2.9c0-.2.1-.3.2-.3h1.5c.2 0 .3.1.3.3v1.5c0 .1-.1.2-.2.2h-1.5c-.2 0-.3-.1-.3-.2v-1.5zm0 2.9v1.5c0 .2-.1.3-.2.3h-1.5c-.2 0-.3-.1-.3-.2v-1.6c0-.1.1-.2.2-.2h1.5c.2 0 .3.1.3.2zm-3-2.9c0-.2.1-.3.2-.3h1.5c.2 0 .3.1.3.3v1.5c0 .1-.1.2-.2.2h-1.5c-.2 0-.3-.1-.3-.2v-1.5zm1 5.9v1.5c0 .1-.1.2-.2.2h-1.5c-.2.1-.3 0-.3-.1v-1.6c0-.1.1-.2.2-.2h1.5c.2 0 .3.1.3.2zm-1-3v1.5c0 .2-.1.3-.2.3h-1.5c-.2 0-.3-.1-.3-.2v-1.6c0-.1.1-.2.2-.2h1.5c.2 0 .3.1.3.2zm-3-2.9c0-.2.1-.3.2-.3h1.5c.2 0 .3.1.3.3v1.5c0 .1-.1.2-.2.2h-1.5c-.2 0-.3-.1-.3-.2v-1.5zm1 5.9v1.5c0 .1-.1.2-.2.2h-1.5c-.2.1-.3 0-.3-.1v-1.6c0-.1.1-.2.2-.2h1.5c.2 0 .3.1.3.2zm-1-3v1.5c0 .2-.1.3-.2.3h-1.5c-.2 0-.3-.1-.3-.2v-1.6c0-.1.1-.2.2-.2h1.5c.2 0 .3.1.3.2zm-3-2.9c0-.2.1-.3.2-.3h1.5c.2 0 .3.1.3.3v1.5c0 .1-.1.2-.2.2h-1.5c-.2 0-.3-.1-.3-.2v-1.5zm1 5.9v1.5c0 .1-.1.2-.2.2h-1.5c-.2.1-.3 0-.3-.1v-1.6c0-.1.1-.2.2-.2h1.5c.2 0 .3.1.3.2zm-1-3v1.5c0 .2-.1.3-.2.3h-1.5c-.2 0-.3-.1-.3-.2v-1.6c0-.1.1-.2.2-.2h1.5c.2 0 .3.1.3.2zm-3-2.9c0-.2.1-.3.2-.3h1.5c.2 0 .3.1.3.3v1.5c0 .1-.1.2-.2.2h-1.5c-.2 0-.3-.1-.3-.2v-1.5zm1 5.9v1.5c0 .1-.1.2-.2.2h-1.5c-.2.1-.3 0-.3-.1v-1.6c0-.1.1-.2.2-.2h1.5c.2 0 .3.1.3.2zm-1-3v1.5c0 .2-.1.3-.2.3h-1.6c-.1 0-.2-.1-.2-.2v-1.6c0-.1.1-.2.2-.2h1.5c.2 0 .3.1.3.2zm-3-2.9c0-.2.1-.3.2-.3h1.5c.2 0 .3.1.3.3v1.5c0 .1-.1.2-.2.2h-1.6c-.1 0-.2-.1-.2-.2v-1.5zm0 2.9v1.5c0 .2-.1.3-.2.3h-1.6c-.1 0-.2-.1-.2-.2v-1.6c0-.1.1-.2.2-.2h1.5c.2 0 .3.1.3.2zm-3-2.9c0-.2.1-.3.2-.3h1.5c.2 0 .3.1.3.3v1.5c0 .1-.1.2-.2.2h-1.6c-.1 0-.2-.1-.2-.2v-1.5zm-3 0c0-.2.1-.3.2-.3h1.5c.2 0 .3.1.3.3v1.5c0 .1-.1.2-.2.2h-1.6c-.1 0-.2-.1-.2-.2v-1.5zm0 2.9c0-.1.1-.2.2-.2h2.5c.2 0 .3.1.3.2v1.5c0 .2-.1.3-.2.3h-2.6c-.1 0-.2-.1-.2-.2v-1.6zm0 3c0-.1.1-.2.2-.2h3.5c.2 0 .3.1.3.2v1.5c0 .2-.1.3-.2.3h-3.6c-.1 0-.2-.1-.2-.2v-1.6zm2 4.6c0 .1-.1.2-.2.2h-1.6c-.1 0-.2-.1-.2-.2v-1.5c0-.2.1-.3.2-.3h1.5c.2 0 .3.1.3.2v1.6zm3 0c0 .1-.1.2-.2.2h-1.6c-.1 0-.2-.1-.2-.2v-1.5c0-.2.1-.3.2-.3h1.5c.2 0 .3.1.3.2v1.6zm0-3v-1.6c0-.1.1-.2.2-.2h1.5c.2 0 .3.1.3.2v1.5c0 .2-.1.3-.2.3h-1.6c-.1 0-.2-.1-.2-.2zm16 3c0 .1-.1.2-.2.2h-14.6c-.1 0-.2-.1-.2-.2v-1.5c0-.2.1-.3.2-.3h14.5c.1 0 .2.1.2.2v1.6zm.8-2.8h-1.5c-.2 0-.3-.1-.3-.2v-1.6c0-.1.1-.2.2-.2h1.5c.2 0 .3.1.3.2v1.5c0 .2-.1.3-.2.3zm2.2 2.8c0 .1-.1.2-.2.2h-1.5c-.1 0-.2-.1-.2-.2v-1.5c0-.1.1-.2.2-.2h1.5c.1 0 .2.1.2.2v1.5zm3 0c0 .1-.1.2-.2.2h-1.5c-.1 0-.2-.1-.2-.2v-1.5c0-.1.1-.2.2-.2h1.5c.1 0 .2.1.2.2v1.5zm0-3c0 .1-.1.2-.2.2h-3.5c-.2 0-.3-.1-.3-.2v-1.6c0-.1.1-.2.2-.2h3.5c.2 0 .3.1.3.2v1.6zm0-3c0 .1-.1.2-.2.2h-1.5c-.2 0-.3-.1-.3-.2v-1.6c0-.1.1-.2.2-.2h1.5c.2 0 .3.1.3.2v1.6zm0-3c0 .1-.1.2-.2.2h-2.5c-.2 0-.3-.1-.3-.2v-1.5c0-.2.1-.3.2-.3h2.5c.2 0 .3.1.3.3v1.5z"
      />
    </clipPath>
    <clipPath id="iconic-size-sm-keyboard-clip-0">
      <path d="M0 0v9h15v-9h-15zm10 2h1v1h-1v-1zm-2 0h1v1h-1v-1zm2 2v1h-1v-1h1zm-4-2h1v1h-1v-1zm2 2v1h-1v-1h1zm-4-2h1v1h-1v-1zm2 2v1h-1v-1h1zm-4-2h1v1h-1v-1zm0 2h2v1h-2v-1zm1 3h-1v-1h1v1zm8 0h-7v-1h7v1zm2 0h-1v-1h1v1zm0-2h-2v-1h2v1zm0-2h-1v-1h1v1z" />
    </clipPath>
  </defs>
  <g data-width="126" data-height="50" class="iconic-container iconic-lg" display="inline" transform="translate(1 39)">
    <path clip-path="url(#iconic-size-lg-keyboard-clip-0)" d="M124.5 50h-123c-.8 0-1.5-.7-1.5-1.5v-47c0-.8.7-1.5 1.5-1.5h123c.8 0 1.5.7 1.5 1.5v47c0 .8-.7 1.5-1.5 1.5z" class="iconic-property-fill" />
  </g>
  <g data-width="31" data-height="15" class="iconic-container iconic-md" display="none" transform="scale(4) translate(0 8)">
    <path clip-path="url(#iconic-size-md-keyboard-clip-0)" d="M30.5 15h-30c-.3 0-.5-.2-.5-.5v-14c0-.3.2-.5.5-.5h30c.3 0 .5.2.5.5v14c0 .3-.2.5-.5.5z" class="iconic-property-fill" />
  </g>
  <g data-width="15" data-height="9" class="iconic-container iconic-sm" display="none" transform="scale(8) translate(0 3)">
    <path d="M14.8 9h-14.5c-.2 0-.3-.1-.3-.2v-8.6c0-.1.1-.2.3-.2h14.5c.1 0 .2.1.2.2v8.5c0 .2-.1.3-.2.3z" clip-path="url(#iconic-size-sm-keyboard-clip-0)" class="iconic-property-fill" />
  </g>
</svg>