<svg version="1.1" xmlns="http://www.w3.org/2000/svg" data-icon="lightning-bolt" width="128" height="128" class="iconic iconic-lightning-bolt" viewBox="0 0 128 128">
  <g class="iconic-metadata">
    <title>Lightning Bolt</title>
  </g>
  <g data-width="116" data-height="128" class="iconic-container iconic-lg" display="inline" transform="translate(6)">
    <path d="M71.1 1.2l-44.2 61.6c-.5.7-.2 1.2.6 1.2h17c.8 0 1.1.5.6 1.2l-44.2 61.6c-.5.7-.4.8.3.3l97.7-82.1c.6-.5.5-1-.4-1h-23c-.8 0-1-.5-.5-1.1l40-41.8c.6-.6.4-1.1-.5-1.1h-41c-.8 0-1.9.5-2.4 1.2z" class="iconic-property-fill" />
  </g>
  <g data-width="29" data-height="32" class="iconic-container iconic-md" display="none" transform="scale(4) translate(1)">
    <path d="M17.7.4l-11.4 15.2c-.2.2-.1.4.2.4h5c.3 0 .4.2.2.4l-11.4 15.2c-.2.2-.1.3.1.1l24.2-20.4c.2-.2.2-.3-.1-.3h-6c-.3 0-.3-.2-.1-.4l10.2-10.2c.2-.2.2-.4-.1-.4h-10c-.3 0-.6.2-.8.4z" class="iconic-property-fill" />
  </g>
  <g data-width="14" data-height="16" class="iconic-container iconic-sm" display="none" transform="scale(8) translate(1)">
    <path class="iconic-property-fill" d="M8 0l-6 8h3l-5 8 13-11h-4l5-5z" />
  </g>
</svg>