<svg version="1.1" xmlns="http://www.w3.org/2000/svg" data-icon="lightning" width="128" height="128" class="iconic iconic-lightning" viewBox="0 0 128 128">
  <g class="iconic-metadata">
    <title>Lightning</title>
  </g>
  <defs>
    <clipPath id="iconic-size-lg-lightning-clip-0">
      <path d="M0 0v86h24.1l13.8-20h35.8l-16 16h17.3l-4.8 4h57.8v-86z" />
    </clipPath>
    <clipPath id="iconic-size-md-lightning-clip-0">
      <path d="M0 0v22h5.7l4.3-6h10.4l-3.5 4h4.3l-2.2 2h13v-22z" />
    </clipPath>
    <clipPath id="iconic-size-sm-lightning-clip-0">
      <path d="M0 0v12h1.8l.4-.6 3-4 .3-.4h5.9l-1.7 1.7-.3.3h2.3l-2 1.8-1.5 1.2h7.8v-12z" />
    </clipPath>
  </defs>
  <g data-width="128" data-height="126" class="iconic-container iconic-lg" display="inline" transform="translate(0 1)">
    <path class="iconic-lightning-lightning-bolt iconic-property-accent iconic-property-fill" d="M40 70l-18 26h15l-21 30 48-40h-16l16-16z" />
    <path d="M110 50c-.7 0-1.3-.1-2 0-.9-8.4-7.6-15.1-16-16-1-19-16.8-34-36-34-18.8 0-34.4 14.6-36 33-11.6 3-20 13.5-20 26 0 14.6 11.6 26.5 26 27h84c9.9 0 18-8.1 18-18s-8.1-18-18-18z" clip-path="url(#iconic-size-lg-lightning-clip-0)" class="iconic-lightning-cloud iconic-property-fill"
    />
  </g>
  <g data-width="32" data-height="32" class="iconic-container iconic-md" display="none" transform="scale(4)">
    <path class="iconic-lightning-lightning-bolt iconic-property-accent iconic-property-fill" d="M11 18l-5 7h3.5l-4.5 7 11-10h-3.5l3.5-4z" />
    <path d="M27 12c-.4-2-2.1-3.5-4-3.9-.5-4.5-4.3-8.1-9-8.1s-8.6 3.4-9 8c-2.9.9-5 3.8-5 7 0 3.5 2.6 6.5 6 7 4.3 0 20.9 0 21 0 2.8 0 5-2.2 5-5s-2.2-5-5-5z" clip-path="url(#iconic-size-md-lightning-clip-0)" class="iconic-lightning-cloud iconic-property-fill"
    />
  </g>
  <g data-width="16" data-height="16" class="iconic-container iconic-sm" display="none" transform="scale(8)">
    <path class="iconic-lightning-lightning-bolt iconic-property-accent iconic-property-fill" d="M6 8l-3 4h2l-3 4 7-6h-2l2-2z" />
    <path d="M13 6v-1c0-2.8-2.2-5-5-5-2.5 0-4.5 1.8-4.9 4.1-1.8.4-3.1 2-3.1 3.9 0 2.2 1.8 4 4 4h9c1.7 0 3-1.3 3-3s-1.3-3-3-3z" clip-path="url(#iconic-size-sm-lightning-clip-0)" class="iconic-lightning-cloud iconic-property-fill" />
  </g>
</svg>