<svg version="1.1" xmlns="http://www.w3.org/2000/svg" data-icon="lightbulb" width="128" height="128" class="iconic iconic-lightbulb" viewBox="0 0 128 128">
  <g class="iconic-metadata">
    <title>Lightbulb</title>
  </g>
  <defs>
    <clipPath id="iconic-size-lg-lightbulb-clip-0">
      <path d="M16.6 94h33.4v2.7l-39.1 6.3-.3-6.4z" />
    </clipPath>
    <clipPath id="iconic-size-lg-lightbulb-clip-1">
      <path d="M64 57l-14.5 8.2v16.8h-34.3l-1.4-16 50.2-23z" />
    </clipPath>
  </defs>
  <g data-width="64" data-height="128" class="iconic-container iconic-lg" display="inline" transform="translate(32)">
    <path stroke="#000" stroke-width="4" stroke-linecap="round" stroke-linejoin="round" stroke-miterlimit="10" class="iconic-lightbulb-screw iconic-lightbulb-screw-4 iconic-property-accent iconic-property-stroke" d="M44 122l-23.8 4" />
    <path stroke="#000" stroke-width="4" stroke-linecap="round" stroke-miterlimit="10" class="iconic-lightbulb-screw iconic-lightbulb-screw-3 iconic-property-accent iconic-property-stroke" d="M48 112l-32 6" fill="none" />
    <path stroke="#000" stroke-width="4" stroke-linecap="round" stroke-miterlimit="10" class="iconic-lightbulb-screw iconic-lightbulb-screw-2 iconic-property-accent iconic-property-stroke" d="M48 102l-32 6" fill="none" />
    <path clip-path="url(#iconic-size-lg-lightbulb-clip-0)" stroke="#000" stroke-width="4" stroke-linecap="round" stroke-miterlimit="10" class="iconic-lightbulb-screw iconic-lightbulb-screw-1 iconic-property-accent iconic-property-stroke" d="M48 92.5l-32 6"
    fill="none" />
    <path clip-path="url(#iconic-size-lg-lightbulb-clip-1)" stroke="#000" stroke-width="8" stroke-linecap="round" stroke-linejoin="round" stroke-miterlimit="10" class="iconic-lightbulb-coil iconic-lightbulb-coil-6 iconic-property-stroke" d="M60 54l-20 9v18.8"
    fill="none" />
    <path clip-path="url(#iconic-size-lg-lightbulb-clip-1)" stroke="#000" stroke-width="8" stroke-linecap="round" stroke-linejoin="round" stroke-miterlimit="10" class="iconic-lightbulb-coil iconic-lightbulb-coil-5 iconic-property-stroke" d="M24 68v13.8"
    fill="none" />
    <path d="M47 94h-30c-1.7 0-3.2-1.3-3.5-3l-1-6.1c-.3-1.6.8-3 2.5-3h34c1.7 0 2.8 1.3 2.5 3l-1 6.1c-.3 1.7-1.8 3-3.5 3z" class="iconic-lightbulb-base iconic-property-fill" />
    <path stroke="#000" stroke-width="8" stroke-linecap="round" stroke-linejoin="round" stroke-miterlimit="10" class="iconic-lightbulb-coil iconic-lightbulb-coil-4 iconic-property-stroke" d="M60 38l-56 26" fill="none" />
    <path stroke="#000" stroke-width="8" stroke-linecap="round" stroke-linejoin="round" stroke-miterlimit="10" class="iconic-lightbulb-coil iconic-lightbulb-coil-3 iconic-property-stroke" d="M60 22l-56 26" fill="none" />
    <path stroke="#000" stroke-width="8" stroke-linecap="round" stroke-linejoin="round" stroke-miterlimit="10" class="iconic-lightbulb-coil iconic-lightbulb-coil-2 iconic-property-stroke" d="M60 6l-56 26" fill="none" />
    <path stroke="#000" stroke-width="8" stroke-linecap="round" stroke-linejoin="round" stroke-miterlimit="10" class="iconic-lightbulb-coil iconic-lightbulb-coil-1 iconic-property-stroke" d="M30 4.1l-26 11.9" fill="none" />
  </g>
  <g data-width="16" data-height="32" class="iconic-container iconic-md" display="none" transform="scale(4) translate(8)">
    <path stroke="#000" stroke-linecap="round" stroke-miterlimit="10" class="iconic-lightbulb-screw iconic-lightbulb-screw-4 iconic-property-accent iconic-property-stroke" d="M5.5 31.5l5-1.4" fill="none" />
    <path stroke="#000" stroke-linecap="round" stroke-miterlimit="10" class="iconic-lightbulb-screw iconic-lightbulb-screw-3 iconic-property-accent iconic-property-stroke" d="M4.5 29.5l7-2" fill="none" />
    <path stroke="#000" stroke-linecap="round" stroke-miterlimit="10" class="iconic-lightbulb-screw iconic-lightbulb-screw-2 iconic-property-accent iconic-property-stroke" d="M4.5 27.5l7-2" fill="none" />
    <path stroke="#000" stroke-linecap="round" stroke-miterlimit="10" class="iconic-lightbulb-screw iconic-lightbulb-screw-1 iconic-property-accent iconic-property-stroke" d="M4.5 25.5l7-2" fill="none" />
    <path stroke="#000" stroke-width="3" stroke-linecap="round" stroke-linejoin="round" stroke-miterlimit="10" class="iconic-lightbulb-coil iconic-lightbulb-coil-5 iconic-property-stroke" d="M12.5 18.5l-2 1v3.5" fill="none" />
    <path stroke="#000" stroke-width="3" stroke-linecap="round" stroke-linejoin="round" stroke-miterlimit="10" class="iconic-lightbulb-coil iconic-lightbulb-coil-4 iconic-property-stroke" d="M5.5 23v-1.5" fill="none" />
    <path stroke="#000" stroke-width="3" stroke-linecap="round" stroke-miterlimit="10" class="iconic-lightbulb-coil iconic-lightbulb-coil-3 iconic-property-stroke" d="M14.5 11.5l-13 6" fill="none" />
    <path stroke="#000" stroke-width="3" stroke-linecap="round" stroke-miterlimit="10" class="iconic-lightbulb-coil iconic-lightbulb-coil-2 iconic-property-stroke" d="M14.5 5.5l-13 6" fill="none" />
    <path stroke="#000" stroke-width="3" stroke-linecap="round" stroke-miterlimit="10" class="iconic-lightbulb-coil iconic-lightbulb-coil-1 iconic-property-stroke" d="M10.5 1.5l-9 4" fill="none" />
    <path d="M11 25h-6c-.6 0-1.1-.4-1.3-.9l-.4-1.1c-.2-.6.1-1 .7-1h8c.6 0 .9.4.7.9l-.4 1.1c-.2.6-.7 1-1.3 1z" class="iconic-lightbulb-base iconic-property-fill" />
  </g>
  <g data-width="10" data-height="16" class="iconic-container iconic-sm" display="none" transform="scale(8) translate(3)">
    <path d="M7 14c0 1.1-.9 2-2 2s-2-.9-2-2" class="iconic-lightbulb-screw iconic-property-accent iconic-property-fill" />
    <path stroke="#000" stroke-width="2" stroke-linecap="round" stroke-linejoin="round" stroke-miterlimit="10" class="iconic-lightbulb-coil iconic-lightbulb-coil-4 iconic-property-stroke" d="M8 8l-2 1v2" fill="none" />
    <path stroke="#000" stroke-width="2" stroke-linecap="round" stroke-linejoin="round" stroke-miterlimit="10" class="iconic-lightbulb-coil iconic-lightbulb-coil-3 iconic-property-stroke" d="M4 10.5v.5" fill="none" />
    <path stroke="#000" stroke-width="2" stroke-linecap="round" stroke-linejoin="round" stroke-miterlimit="10" class="iconic-lightbulb-coil iconic-lightbulb-coil-2 iconic-property-stroke" d="M1 8l8-4" fill="none" />
    <path stroke="#000" stroke-width="2" stroke-linecap="round" stroke-miterlimit="10" class="iconic-lightbulb-coil iconic-lightbulb-coil-1 iconic-property-stroke" d="M7 1l-6 3" fill="none" />
    <path d="M1.8 12.6l-.6-1.1c-.1-.2 0-.4.3-.4h7c.3 0 .4.2.3.4l-.6 1.1c-.1.2-.4.4-.7.4h-5c-.3 0-.6-.2-.7-.4z" class="iconic-lightbulb-base iconic-property-fill" />
  </g>
</svg>