<svg version="1.1" xmlns="http://www.w3.org/2000/svg" data-icon="list-rich" width="128" height="128" class="iconic iconic-list-rich" viewBox="0 0 128 128">
  <g class="iconic-metadata">
    <title>List Rich</title>
  </g>
  <g data-width="120" data-height="128" class="iconic-container iconic-lg" display="inline" transform="translate(4)">
    <path stroke="#000" stroke-width="4" stroke-linecap="square" stroke-miterlimit="10" class="iconic-list-rich-list-group iconic-list-rich-list-group-3 iconic-list-rich-line iconic-list-rich-line-1 iconic-property-stroke" d="M56 102h62" fill="none" />
    <path stroke="#000" stroke-width="4" stroke-linecap="square" stroke-miterlimit="10" class="iconic-list-rich-list-group iconic-list-rich-list-group-3 iconic-list-rich-line iconic-list-rich-line-2 iconic-property-stroke" d="M56 112h46" fill="none" />
    <path stroke="#000" stroke-width="4" stroke-linecap="square" stroke-miterlimit="10" class="iconic-list-rich-list-group iconic-list-rich-list-group-3 iconic-list-rich-line iconic-list-rich-line-3 iconic-property-stroke" d="M56 122h56" fill="none" />
    <path d="M42.5 128h-41c-.8 0-1.5-.7-1.5-1.5v-29c0-.8.7-1.5 1.5-1.5h41c.8 0 1.5.7 1.5 1.5v29c0 .8-.7 1.5-1.5 1.5z" class="iconic-list-rich-list-group iconic-list-rich-list-group-3 iconic-list-rich-block iconic-property-accent iconic-property-fill"
    />
    <path stroke="#000" stroke-width="4" stroke-linecap="square" stroke-miterlimit="10" class="iconic-list-rich-list-group iconic-list-rich-list-group-2 iconic-list-rich-line iconic-list-rich-line-1 iconic-property-stroke" d="M56 54h62" fill="none" />
    <path stroke="#000" stroke-width="4" stroke-linecap="square" stroke-miterlimit="10" class="iconic-list-rich-list-group iconic-list-rich-list-group-2 iconic-list-rich-line iconic-list-rich-line-2 iconic-property-stroke" d="M56 64h46" fill="none" />
    <path stroke="#000" stroke-width="4" stroke-linecap="square" stroke-miterlimit="10" class="iconic-list-rich-list-group iconic-list-rich-list-group-2 iconic-list-rich-line iconic-list-rich-line-3 iconic-property-stroke" d="M56 74h56" fill="none" />
    <path d="M42.5 80h-41c-.8 0-1.5-.7-1.5-1.5v-29c0-.8.7-1.5 1.5-1.5h41c.8 0 1.5.7 1.5 1.5v29c0 .8-.7 1.5-1.5 1.5z" class="iconic-list-rich-list-group iconic-list-rich-list-group-2 iconic-list-rich-block iconic-property-accent iconic-property-fill" />
    <path stroke="#000" stroke-width="4" stroke-linecap="square" stroke-miterlimit="10" class="iconic-list-rich-list-group iconic-list-rich-list-group-1 iconic-list-rich-line iconic-list-rich-line-3 iconic-property-stroke" d="M56 26h56" fill="none" />
    <path stroke="#000" stroke-width="4" stroke-linecap="square" stroke-miterlimit="10" class="iconic-list-rich-list-group iconic-list-rich-list-group-1 iconic-list-rich-line iconic-list-rich-line-2 iconic-property-stroke" d="M56 16h46" fill="none" />
    <path stroke="#000" stroke-width="4" stroke-linecap="square" stroke-miterlimit="10" class="iconic-list-rich-list-group iconic-list-rich-list-group-1 iconic-list-rich-line iconic-list-rich-line-1 iconic-property-stroke" d="M56 6h62" fill="none" />
    <path d="M42.5 32h-41c-.8 0-1.5-.7-1.5-1.5v-29c0-.8.7-1.5 1.5-1.5h41c.8 0 1.5.7 1.5 1.5v29c0 .8-.7 1.5-1.5 1.5z" class="iconic-list-rich-list-group iconic-list-rich-list-group-1 iconic-list-rich-block iconic-property-accent iconic-property-fill" />
  </g>
  <g data-width="32" data-height="26" class="iconic-container iconic-md" display="none" transform="scale(4) translate(0 3)">
    <path stroke="#000" stroke-linecap="square" stroke-miterlimit="10" class="iconic-list-rich-list-group iconic-list-rich-list-group-3 iconic-list-rich-line iconic-list-rich-line-1 iconic-property-stroke" d="M12.5 21.5h19" fill="none" />
    <path stroke="#000" stroke-linecap="square" stroke-miterlimit="10" class="iconic-list-rich-list-group iconic-list-rich-list-group-3 iconic-list-rich-line iconic-list-rich-line-2 iconic-property-stroke" d="M12.5 24.5h15" fill="none" />
    <path d="M8.5 26h-8c-.3 0-.5-.2-.5-.5v-5c0-.3.2-.5.5-.5h8c.3 0 .5.2.5.5v5c0 .3-.2.5-.5.5z" class="iconic-list-rich-list-group iconic-list-rich-list-group-3 iconic-list-rich-block iconic-property-accent iconic-property-fill" />
    <path stroke="#000" stroke-linecap="square" stroke-miterlimit="10" class="iconic-list-rich-list-group iconic-list-rich-list-group-2 iconic-list-rich-line iconic-list-rich-line-1 iconic-property-stroke" d="M12.5 11.5h19" fill="none" />
    <path stroke="#000" stroke-linecap="square" stroke-miterlimit="10" class="iconic-list-rich-list-group iconic-list-rich-list-group-2 iconic-list-rich-line iconic-list-rich-line-2 iconic-property-stroke" d="M12.5 14.5h15" fill="none" />
    <path d="M8.5 16h-8c-.3 0-.5-.2-.5-.5v-5c0-.3.2-.5.5-.5h8c.3 0 .5.2.5.5v5c0 .3-.2.5-.5.5z" class="iconic-list-rich-list-group iconic-list-rich-list-group-2 iconic-list-rich-block iconic-property-accent iconic-property-fill" />
    <path stroke="#000" stroke-linecap="square" stroke-miterlimit="10" class="iconic-list-rich-list-group iconic-list-rich-list-group-1 iconic-list-rich-line iconic-list-rich-line-1 iconic-property-stroke" d="M12.5 1.5h19" fill="none" />
    <path stroke="#000" stroke-linecap="square" stroke-miterlimit="10" class="iconic-list-rich-list-group iconic-list-rich-list-group-1 iconic-list-rich-line iconic-list-rich-line-2 iconic-property-stroke" d="M12.5 4.5h15" fill="none" />
    <path d="M8.5 6h-8c-.3 0-.5-.2-.5-.5v-5c0-.3.2-.5.5-.5h8c.3 0 .5.2.5.5v5c0 .3-.2.5-.5.5z" class="iconic-list-rich-list-group iconic-list-rich-list-group-1 iconic-list-rich-block iconic-property-accent iconic-property-fill" />
  </g>
  <g data-width="16" data-height="15" class="iconic-container iconic-sm" display="none" transform="scale(8)">
    <path class="iconic-list-rich-list-group iconic-list-rich-list-group-3 iconic-list-rich-block iconic-property-accent iconic-property-fill" d="M0 12h5v3h-5z" />
    <path stroke="#000" stroke-linecap="square" stroke-miterlimit="10" class="iconic-list-rich-list-group iconic-list-rich-list-group-3 iconic-list-rich-line iconic-list-rich-line-1 iconic-property-stroke" d="M7.5 12.5h8" fill="none" />
    <path stroke="#000" stroke-linecap="square" stroke-miterlimit="10" class="iconic-list-rich-list-group iconic-list-rich-list-group-3 iconic-list-rich-line iconic-list-rich-line-2 iconic-property-stroke" d="M7.5 14.5h6" fill="none" />
    <path class="iconic-list-rich-list-group iconic-list-rich-list-group-2 iconic-list-rich-block iconic-property-accent iconic-property-fill" d="M0 6h5v3h-5z" />
    <path stroke="#000" stroke-linecap="square" stroke-miterlimit="10" class="iconic-list-rich-list-group iconic-list-rich-list-group-2 iconic-list-rich-line iconic-list-rich-line-1 iconic-property-stroke" d="M7.5 6.5h8" fill="none" />
    <path stroke="#000" stroke-linecap="square" stroke-miterlimit="10" class="iconic-list-rich-list-group iconic-list-rich-list-group-2 iconic-list-rich-line iconic-list-rich-line-2 iconic-property-stroke" d="M7.5 8.5h6" fill="none" />
    <path class="iconic-list-rich-list-group iconic-list-rich-list-group-1 iconic-list-rich-block iconic-property-accent iconic-property-fill" d="M0 0h5v3h-5z" />
    <path stroke="#000" stroke-linecap="square" stroke-miterlimit="10" class="iconic-list-rich-list-group iconic-list-rich-list-group-1 iconic-list-rich-line iconic-list-rich-line-1 iconic-property-stroke" d="M7.5.5h8" fill="none" />
    <path stroke="#000" stroke-linecap="square" stroke-miterlimit="10" class="iconic-list-rich-list-group iconic-list-rich-list-group-1 iconic-list-rich-line iconic-list-rich-line-2 iconic-property-stroke" d="M7.5 2.5h6" fill="none" />
  </g>
</svg>