<svg version="1.1" xmlns="http://www.w3.org/2000/svg" data-icon="location" width="128" height="128" class="iconic iconic-location" viewBox="0 0 128 128">
  <g class="iconic-metadata">
    <title>Location</title>
  </g>
  <g data-width="128" data-height="128" class="iconic-container iconic-lg" display="inline">
    <path d="M126.7.7l-125.4 62.6c-.7.4-.7.9 0 1.3l41.3 18.8c.8.3 1.6 1.2 2 2l18.8 41.3c.3.8.9.8 1.3 0l62.6-125.4c.4-.7.1-1-.6-.6z" class="iconic-property-fill" />
  </g>
  <g data-width="32" data-height="32" class="iconic-container iconic-md" display="none" transform="scale(4)">
    <path d="M10.5 20.8l-10-4.6c-.3-.1-.3-.3 0-.4l31.1-15.6c.2-.1.3 0 .2.2l-15.6 31.2c-.1.2-.3.2-.4 0l-4.6-10.1c-.1-.3-.4-.6-.7-.7z" class="iconic-property-fill" />
  </g>
  <g data-width="16" data-height="16" class="iconic-container iconic-sm" display="none" transform="scale(8)">
    <path class="iconic-property-fill" d="M16 0l-16 8 6 2 2 6z" />
  </g>
</svg>