<svg version="1.1" xmlns="http://www.w3.org/2000/svg" data-icon="loop" width="128" height="128" class="iconic iconic-loop" viewBox="0 0 128 128">
  <g class="iconic-metadata">
    <title>Loop</title>
  </g>
  <g data-width="112" data-height="72" class="iconic-container iconic-lg" display="inline" transform="translate(8 28)">
    <path stroke="#000" stroke-width="8" stroke-linecap="square" stroke-miterlimit="10" d="M46 58h59c1.7 0 3-1.3 3-3v-38c0-1.7-1.3-3-3-3h-5" class="iconic-loop-line iconic-loop-line-bottom iconic-property-stroke" fill="none" />
    <path d="M25.3 58.8l21.4 12.5c.7.4 1.3.1 1.3-.7v-25c0-.8-.6-1.2-1.3-.7l-21.4 12.3c-.7.5-.7 1.1 0 1.6z" class="iconic-loop-arrowhead iconic-loop-arrowhead-bottom iconic-property-fill" />
    <path stroke="#000" stroke-width="8" stroke-linecap="square" stroke-miterlimit="10" d="M72 14h-65c-1.7 0-3 1.3-3 3v38c0 1.7 1.3 3 3 3h5" class="iconic-loop-line iconic-loop-line-top iconic-property-stroke" fill="none" />
    <path d="M86.7 13.2l-21.4-12.4c-.7-.5-1.3-.1-1.3.7v25c0 .8.6 1.2 1.3.7l21.4-12.5c.7-.4.7-1 0-1.5z" class="iconic-loop-arrowhead iconic-loop-arrowhead-top iconic-property-fill" />
  </g>
  <g data-width="30" data-height="23" class="iconic-container iconic-md" display="none" transform="scale(4) translate(1 4)">
    <path stroke="#000" stroke-width="3" stroke-miterlimit="10" d="M12 18.5h15.5c.6 0 1-.4 1-1v-12c0-.6-.4-1-1-1h-2.5" class="iconic-loop-line iconic-loop-line-bottom iconic-property-stroke" fill="none" />
    <path d="M7.4 18.2l5.2-3.9c.2-.2.4-.1.4.2v8c0 .3-.2.4-.4.2l-5.2-3.9c-.2-.2-.2-.4 0-.6z" class="iconic-loop-arrowhead iconic-loop-arrowhead-bottom iconic-property-fill" />
    <path stroke="#000" stroke-width="3" stroke-miterlimit="10" d="M20 4.5h-17.5c-.6 0-1 .4-1 1v12c0 .6.4 1 1 1h2.5" class="iconic-loop-line iconic-loop-line-top iconic-property-stroke" fill="none" />
    <path d="M22.6 4.8l-5.2 3.9c-.2.2-.4.1-.4-.2v-8c0-.3.2-.4.4-.2l5.2 3.9c.2.2.2.4 0 .6z" class="iconic-loop-arrowhead iconic-loop-arrowhead-top iconic-property-fill" />
  </g>
  <g data-width="16" data-height="14" class="iconic-container iconic-sm" display="none" transform="scale(8) translate(0 1)">
    <path stroke="#000" stroke-width="2" stroke-miterlimit="10" d="M7 11h7.5c.3 0 .5-.2.5-.5v-7c0-.3-.2-.5-.5-.5h-1.5" class="iconic-loop-line iconic-loop-line-bottom iconic-property-stroke" fill="none" />
    <path class="iconic-loop-arrowhead iconic-loop-arrowhead-bottom iconic-property-fill" d="M7 14v-6l-3 3z" />
    <path stroke="#000" stroke-width="2" stroke-miterlimit="10" d="M10 3h-8.5c-.3 0-.5.2-.5.5v7c0 .3.2.5.5.5h1.5" class="iconic-loop-line iconic-loop-line-top iconic-property-stroke" fill="none" />
    <path class="iconic-loop-arrowhead iconic-loop-arrowhead-top iconic-property-fill" d="M9 0v6l3-3z" />
  </g>
</svg>