<svg version="1.1" xmlns="http://www.w3.org/2000/svg" data-icon="loop-circular" width="128" height="128" class="iconic iconic-loop-circular" viewBox="0 0 128 128">
  <g class="iconic-metadata">
    <title>Loop Circular</title>
  </g>
  <g data-width="128" data-height="107" class="iconic-container iconic-lg" display="inline" transform="translate(0 10)">
    <path stroke="#000" stroke-width="8" stroke-miterlimit="10" d="M15 64c-2.5-12.1-.3-25 6-35.6 6.1-10.3 15.9-18.2 27.3-21.9 17.7-5.9 37.8-1.1 51.1 12.1" class="iconic-loop-circular-line iconic-loop-circular-line-left iconic-property-stroke" fill="none"
    />
    <path class="iconic-loop-circular-arrowhead iconic-loop-circular-arrowhead-left iconic-property-fill" d="M14 78l14-24h-28z" />
    <path stroke="#000" stroke-width="8" stroke-miterlimit="10" d="M113 43.9c2.5 12.1.3 25-6 35.6-6.1 10.3-15.9 18.2-27.3 21.9-17.8 5.9-37.9 1.1-51.1-12.1" class="iconic-loop-circular-line iconic-loop-circular-line-right iconic-property-stroke" fill="none"
    />
    <path class="iconic-loop-circular-arrowhead iconic-loop-circular-arrowhead-right iconic-property-fill" d="M114 30l-14 24h28z" />
  </g>
  <g data-width="32" data-height="26" class="iconic-container iconic-md" display="none" transform="scale(4) translate(0 3)">
    <path stroke="#000" stroke-width="3" stroke-miterlimit="10" d="M4.5 13c0-4.5 2.7-8.7 6.9-10.5 4.3-1.9 9.4-.9 12.7 2.4" class="iconic-loop-circular-line iconic-loop-circular-line-left iconic-property-stroke" fill="none" />
    <path class="iconic-loop-circular-arrowhead iconic-loop-circular-arrowhead-left iconic-property-fill" d="M4.5 19l-4.5-6h9z" />
    <path stroke="#000" stroke-width="3" stroke-miterlimit="10" d="M27.5 13c0 4.5-2.7 8.7-6.9 10.5-4.3 1.9-9.4.9-12.7-2.4" class="iconic-loop-circular-line iconic-loop-circular-line-right iconic-property-stroke" fill="none" />
    <path class="iconic-loop-circular-arrowhead iconic-loop-circular-arrowhead-right iconic-property-fill" d="M27.5 7l4.5 6h-9z" />
  </g>
  <g data-width="16" data-height="11" class="iconic-container iconic-sm" display="none" transform="scale(8) translate(0 2)">
    <path stroke="#000" stroke-width="2" stroke-miterlimit="10" d="M3 6c0-4.4 5.5-6.6 8.5-3.5" class="iconic-loop-circular-line iconic-loop-circular-line-left iconic-property-stroke" fill="none" />
    <path class="iconic-loop-circular-arrowhead iconic-loop-circular-arrowhead-left iconic-property-fill" d="M3 9l-3-3h6z" />
    <path stroke="#000" stroke-width="2" stroke-miterlimit="10" d="M13 6c0 4.4-5.5 6.6-8.5 3.5" class="iconic-loop-circular-line iconic-loop-circular-line-right iconic-property-stroke" fill="none" />
    <path class="iconic-loop-circular-arrowhead iconic-loop-circular-arrowhead-right iconic-property-fill" d="M13 3l3 3h-6z" />
  </g>
</svg>