<svg version="1.1" xmlns="http://www.w3.org/2000/svg" data-icon="loop-square" width="128" height="128" class="iconic iconic-loop-square" viewBox="0 0 128 128">
  <g class="iconic-metadata">
    <title>Loop Square</title>
  </g>
  <g data-width="128" data-height="96" class="iconic-container iconic-lg" display="inline" transform="translate(0 16)">
    <path stroke="#000" stroke-width="8" stroke-miterlimit="10" d="M114 60v27.5c0 2.5-2 4.5-4.5 4.5h-91c-2.5 0-4.5-2-4.5-4.5v-27.5" class="iconic-loop-square-line iconic-loop-square-line-bottom iconic-property-stroke" fill="none" />
    <path d="M13.2 43.3l-12.4 21.4c-.5.7-.1 1.3.7 1.3h25c.8 0 1.2-.6.7-1.3l-12.4-21.4c-.5-.7-1.1-.7-1.6 0z" class="iconic-loop-square-arrowhead iconic-loop-square-arrowhead-bottom iconic-property-fill" />
    <path stroke="#000" stroke-width="8" stroke-miterlimit="10" d="M14 36v-27.5c0-2.5 2-4.5 4.5-4.5h91c2.5 0 4.5 2 4.5 4.5v27.5" class="iconic-loop-square-line iconic-loop-square-line-top iconic-property-stroke" fill="none" />
    <path d="M114.8 52.7l12.5-21.4c.4-.7.1-1.3-.7-1.3h-25c-.8 0-1.2.6-.7 1.3l12.5 21.4c.3.7.9.7 1.4 0z" class="iconic-loop-square-arrowhead iconic-loop-square-arrowhead-top iconic-property-fill" />
  </g>
  <g data-width="32" data-height="24" class="iconic-container iconic-md" display="none" transform="scale(4) translate(0 4)">
    <path stroke="#000" stroke-width="3" stroke-miterlimit="10" d="M27.5 16v5c0 .8-.7 1.5-1.5 1.5h-20c-.8 0-1.5-.7-1.5-1.5v-6" class="iconic-loop-square-line iconic-loop-square-line-bottom iconic-property-stroke" fill="none" />
    <path d="M4.8 10.4l3.9 5.2c.2.2.1.4-.2.4h-8c-.3 0-.4-.2-.2-.4l3.9-5.2c.2-.2.4-.2.6 0z" class="iconic-loop-square-arrowhead iconic-loop-square-arrowhead-bottom iconic-property-fill" />
    <path stroke="#000" stroke-width="3" stroke-miterlimit="10" d="M4.5 8v-5c0-.8.7-1.5 1.5-1.5h20c.8 0 1.5.7 1.5 1.5v6" class="iconic-loop-square-line iconic-loop-square-line-top iconic-property-stroke" fill="none" />
    <path d="M27.2 13.6l-3.9-5.2c-.2-.2-.1-.4.2-.4h8c.3 0 .4.2.2.4l-3.9 5.2c-.2.2-.4.2-.6 0z" class="iconic-loop-square-arrowhead iconic-loop-square-arrowhead-top iconic-property-fill" />
  </g>
  <g data-width="16" data-height="12" class="iconic-container iconic-sm" display="none" transform="scale(8) translate(0 2)">
    <path stroke="#000" stroke-width="2" stroke-miterlimit="10" d="M13 8v2.5c0 .3-.2.5-.5.5h-9c-.3 0-.5-.2-.5-.5v-3.5" class="iconic-loop-square-line iconic-loop-square-line-top iconic-property-stroke" fill="none" />
    <path class="iconic-loop-square-arrowhead iconic-loop-square-arrowhead-bottom iconic-property-fill" d="M3 5l3 3h-6z" />
    <path stroke="#000" stroke-width="2" stroke-miterlimit="10" d="M3 4v-2.5c0-.3.2-.5.5-.5h9c.3 0 .5.2.5.5v3.5" class="iconic-loop-square-line iconic-loop-square-line-top iconic-property-stroke" fill="none" />
    <path class="iconic-loop-square-arrowhead iconic-loop-square-arrowhead-top iconic-property-fill" d="M13 7l-3-3h6z" />
  </g>
</svg>