<svg version="1.1" xmlns="http://www.w3.org/2000/svg" data-icon="magic-wand" width="128" height="128" class="iconic iconic-magic-wand" viewBox="0 0 128 128">
  <g class="iconic-metadata">
    <title>Magic Wand</title>
  </g>
  <g data-width="128" data-height="128" class="iconic-container iconic-lg" display="inline">
    <path d="M89.1 31.1l7.9 7.9c.6.6.6 1.5 0 2.1l-85.9 85.9c-.6.6-1.5.6-2.1 0l-7.9-7.9c-.6-.6-.6-1.5 0-2.1l85.9-85.9c.5-.6 1.5-.6 2.1 0z" class="iconic-magic-wand-shaft iconic-magic-wand-shaft-handle iconic-property-fill" />
    <path d="M100.9 17.1l-9.9 9.9c-.6.6-.6 1.5 0 2.1l7.9 7.9c.6.6 1.5.6 2.1 0l9.9-9.9c.6-.6.6-1.5 0-2.1l-7.9-7.9c-.5-.6-1.5-.6-2.1 0z" class="iconic-magic-wand-shaft iconic-magic-wand-shaft-tip iconic-property-fill" />
    <path stroke="#000" stroke-width="2" stroke-linecap="round" stroke-miterlimit="10" class="iconic-magic-wand-ray iconic-magic-wand-ray-minor iconic-magic-wand-ray-7 iconic-property-stroke" d="M101 43v10" fill="none" />
    <path stroke="#000" stroke-width="2" stroke-linecap="round" stroke-miterlimit="10" class="iconic-magic-wand-ray iconic-magic-wand-ray-major iconic-magic-wand-ray-6 iconic-property-stroke" d="M113 39l14 14" fill="none" />
    <path stroke="#000" stroke-width="2" stroke-linecap="round" stroke-miterlimit="10" class="iconic-magic-wand-ray iconic-magic-wand-ray-minor iconic-magic-wand-ray-5 iconic-property-stroke" d="M127 27h-10" fill="none" />
    <path stroke="#000" stroke-width="2" stroke-linecap="round" stroke-miterlimit="10" class="iconic-magic-wand-ray iconic-magic-wand-ray-major iconic-magic-wand-ray-4 iconic-property-stroke" d="M127 1l-14 14" fill="none" />
    <path stroke="#000" stroke-width="2" stroke-linecap="round" stroke-miterlimit="10" class="iconic-magic-wand-ray iconic-magic-wand-ray-minor iconic-magic-wand-ray-3 iconic-property-stroke" d="M101 1v10" fill="none" />
    <path stroke="#000" stroke-width="2" stroke-linecap="round" stroke-miterlimit="10" class="iconic-magic-wand-ray iconic-magic-wand-ray-major iconic-magic-wand-ray-2 iconic-property-stroke" d="M75 1l14 14" fill="none" />
    <path stroke="#000" stroke-width="2" stroke-linecap="round" stroke-miterlimit="10" class="iconic-magic-wand-ray iconic-magic-wand-ray-minor iconic-magic-wand-ray-1 iconic-property-stroke" d="M85 27h-10" fill="none" />
    <circle cx="83" cy="19" r="1" class="iconic-magic-wand-spark iconic-property-fill" />
    <circle cx="75" cy="9" r="1" class="iconic-magic-wand-spark iconic-property-fill" />
    <circle cx="79" cy="23" r="1" class="iconic-magic-wand-spark iconic-property-fill" />
    <circle cx="93" cy="9" r="1" class="iconic-magic-wand-spark iconic-property-fill" />
    <circle cx="93" cy="9" r="1" class="iconic-magic-wand-spark iconic-property-fill" />
    <circle cx="97" cy="11" r="1" class="iconic-magic-wand-spark iconic-property-fill" />
    <circle cx="89" cy="3" r="1" class="iconic-magic-wand-spark iconic-property-fill" />
    <circle cx="109" cy="9" r="1" class="iconic-magic-wand-spark iconic-property-fill" />
    <circle cx="105" cy="3" r="1" class="iconic-magic-wand-spark iconic-property-fill" />
    <circle cx="117" cy="3" r="1" class="iconic-magic-wand-spark iconic-property-fill" />
    <circle cx="119" cy="19" r="1" class="iconic-magic-wand-spark iconic-property-fill" />
    <circle cx="119" cy="19" r="1" class="iconic-magic-wand-spark iconic-property-fill" />
    <circle cx="125" cy="11" r="1" class="iconic-magic-wand-spark iconic-property-fill" />
    <circle cx="123" cy="23" r="1" class="iconic-magic-wand-spark iconic-property-fill" />
    <circle cx="117" cy="35" r="1" class="iconic-magic-wand-spark iconic-property-fill" />
    <circle cx="123" cy="31" r="1" class="iconic-magic-wand-spark iconic-property-fill" />
    <circle cx="125" cy="39" r="1" class="iconic-magic-wand-spark iconic-property-fill" />
    <circle cx="109" cy="43" r="1" class="iconic-magic-wand-spark iconic-property-fill" />
    <circle cx="107" cy="49" r="1" class="iconic-magic-wand-spark iconic-property-fill" />
    <circle cx="115" cy="53" r="1" class="iconic-magic-wand-spark iconic-property-fill" />
  </g>
  <g data-width="32" data-height="32" class="iconic-container iconic-md" display="none" transform="scale(4)">
    <path d="M20.4 9.4l2.3 2.3c.2.2.2.5 0 .7l-19.3 19.2c-.2.2-.5.2-.7 0l-2.3-2.3c-.2-.2-.2-.5 0-.7l19.2-19.2c.2-.2.6-.2.8 0z" class="iconic-magic-wand-shaft iconic-magic-wand-shaft-handle iconic-property-fill" />
    <path d="M23.6 5.4l-2.3 2.3c-.2.2-.2.5 0 .7l2.3 2.3c.2.2.5.2.7 0l2.3-2.3c.2-.2.2-.5 0-.7l-2.3-2.3c-.1-.2-.5-.2-.7 0z" class="iconic-magic-wand-shaft iconic-magic-wand-shaft-tip iconic-property-fill" />
    <path stroke="#000" stroke-linecap="round" stroke-miterlimit="10" class="iconic-magic-wand-ray iconic-magic-wand-ray-minor iconic-magic-wand-ray-7 iconic-property-stroke" d="M24.5 13.5v2" fill="none" />
    <path stroke="#000" stroke-linecap="round" stroke-miterlimit="10" class="iconic-magic-wand-ray iconic-magic-wand-ray-major iconic-magic-wand-ray-6 iconic-property-stroke" d="M27.5 11.5l4 4" fill="none" />
    <path stroke="#000" stroke-linecap="round" stroke-miterlimit="10" class="iconic-magic-wand-ray iconic-magic-wand-ray-minor iconic-magic-wand-ray-5 iconic-property-stroke" d="M31.5 7.5h-2" fill="none" />
    <path stroke="#000" stroke-linecap="round" stroke-miterlimit="10" class="iconic-magic-wand-ray iconic-magic-wand-ray-major iconic-magic-wand-ray-4 iconic-property-stroke" d="M31.5.5l-4 4" fill="none" />
    <path stroke="#000" stroke-linecap="round" stroke-miterlimit="10" class="iconic-magic-wand-ray iconic-magic-wand-ray-minor iconic-magic-wand-ray-3 iconic-property-stroke" d="M24.5.5v2" fill="none" />
    <path stroke="#000" stroke-linecap="round" stroke-miterlimit="10" class="iconic-magic-wand-ray iconic-magic-wand-ray-major iconic-magic-wand-ray-2 iconic-property-stroke" d="M17 .5l4 4" fill="none" />
    <path stroke="#000" stroke-linecap="round" stroke-miterlimit="10" class="iconic-magic-wand-ray iconic-magic-wand-ray-minor iconic-magic-wand-ray-1 iconic-property-stroke" d="M18.5 7.5h-2" fill="none" />
  </g>
  <g data-width="16" data-height="16" class="iconic-container iconic-sm" display="none" transform="scale(8)">
    <path transform="matrix(-.707 -.707 .707 -.707 .757 22.314)" class="iconic-magic-wand-shaft iconic-magic-wand-shaft-handle iconic-property-fill" d="M3.6 5.3h2.8v11.3h-2.8z" />
    <path transform="matrix(.707 -.707 .707 .707 -.314 9.243)" class="iconic-magic-wand-shaft iconic-magic-wand-shaft-tip iconic-property-fill" d="M9.6 3.6h2.8v2.8h-2.8z" />
    <path stroke="#000" stroke-linecap="round" stroke-miterlimit="10" class="iconic-magic-wand-ray iconic-magic-wand-ray-major iconic-magic-wand-ray-4 iconic-property-stroke" d="M15.5.5l-2 2" fill="none" />
    <path stroke="#000" stroke-linecap="round" stroke-miterlimit="10" class="iconic-magic-wand-ray iconic-magic-wand-ray-major iconic-magic-wand-ray-6 iconic-property-stroke" d="M13.5 6.5l2 2" fill="none" />
    <path stroke="#000" stroke-linecap="round" stroke-miterlimit="10" class="iconic-magic-wand-ray iconic-magic-wand-ray-major iconic-magic-wand-ray-2 iconic-property-stroke" d="M7.5.5l2 2" fill="none" />
    <path stroke="#000" stroke-linecap="round" stroke-miterlimit="10" class="iconic-magic-wand-ray iconic-magic-wand-ray-minor iconic-magic-wand-ray-3 iconic-property-stroke" d="M11.5.5v1" fill="none" />
    <path stroke="#000" stroke-linecap="round" stroke-miterlimit="10" class="iconic-magic-wand-ray iconic-magic-wand-ray-minor iconic-magic-wand-ray-5 iconic-property-stroke" d="M15.5 4.5h-1" fill="none" />
    <path stroke="#000" stroke-linecap="round" stroke-miterlimit="10" class="iconic-magic-wand-ray iconic-magic-wand-ray-minor iconic-magic-wand-ray-7 iconic-property-stroke" d="M11.5 8.5v1" fill="none" />
    <path stroke="#000" stroke-linecap="round" stroke-miterlimit="10" class="iconic-magic-wand-ray iconic-magic-wand-ray-minor iconic-magic-wand-ray-1 iconic-property-stroke" d="M7.5 4.5h-1" fill="none" />
  </g>
</svg>