<svg version="1.1" xmlns="http://www.w3.org/2000/svg" data-icon="map-marker" width="128" height="128" class="iconic iconic-map-marker" viewBox="0 0 128 128">
  <g class="iconic-metadata">
    <title>Map Marker</title>
  </g>
  <g data-width="80" data-height="128" class="iconic-container iconic-lg" display="inline" transform="translate(24)">
    <path d="M40 0c-22.1 0-40 17.9-40 40 0 30 40 88 40 88s40-58 40-88c0-22.1-17.9-40-40-40zm0 58c-9.9 0-18-8.1-18-18s8.1-18 18-18 18 8.1 18 18-8.1 18-18 18z" class="iconic-property-fill" />
  </g>
  <g data-width="20" data-height="32" class="iconic-container iconic-md" display="none" transform="scale(4) translate(6)">
    <path d="M10 0c-5.5 0-10 4.5-10 10 0 7.5 10 22 10 22s10-14.5 10-22c0-5.5-4.5-10-10-10zm0 15c-2.8 0-5-2.2-5-5s2.2-5 5-5 5 2.2 5 5-2.2 5-5 5z" class="iconic-property-fill" />
  </g>
  <g data-width="10" data-height="16" class="iconic-container iconic-sm" display="none" transform="scale(8) translate(3)">
    <path d="M5 0c-2.8 0-5 2.2-5 5 0 3.8 5 11 5 11s5-7.2 5-11c0-2.8-2.2-5-5-5zm0 7c-1.1 0-2-.9-2-2s.9-2 2-2 2 .9 2 2-.9 2-2 2z" class="iconic-property-fill" />
  </g>
</svg>