<svg version="1.1" xmlns="http://www.w3.org/2000/svg" data-icon="map" width="128" height="128" class="iconic iconic-map" viewBox="0 0 128 128">
  <g class="iconic-metadata">
    <title>Map</title>
  </g>
  <defs>
    <clipPath id="iconic-size-lg-map-clip-0">
      <path d="M10 10h108v108h-108z" />
    </clipPath>
  </defs>
  <g data-width="128" data-height="128" class="iconic-container iconic-lg" display="inline">
    <path clip-path="url(#iconic-size-lg-map-clip-0)" stroke="#000" stroke-width="4" stroke-miterlimit="10" class="iconic-map-street iconic-map-street-cross iconic-map-street-cross-2 iconic-property-stroke" d="M126 46l-79.2 79.2" fill="none" />
    <path clip-path="url(#iconic-size-lg-map-clip-0)" stroke="#000" stroke-width="4" stroke-linecap="round" stroke-miterlimit="10" class="iconic-map-street iconic-map-street-cross iconic-map-street-cross-1 iconic-property-stroke" d="M50 36l32-32" fill="none"
    />
    <path clip-path="url(#iconic-size-lg-map-clip-0)" stroke="#000" stroke-width="4" stroke-miterlimit="10" class="iconic-map-street iconic-map-street-main iconic-property-stroke" d="M40 4l84.4 84.4" fill="none" />
    <path d="M48 52c-8.8 0-16 7.2-16 16 0 12 16 32 16 32s16-20 16-32c0-8.8-7.2-16-16-16zm0 24c-4.4 0-8-3.6-8-8s3.6-8 8-8 8 3.6 8 8-3.6 8-8 8z" class="iconic-map-map-marker iconic-property-accent iconic-property-fill" />
    <path stroke="#000" stroke-width="8" stroke-miterlimit="10" d="M122.5 124h-117c-.8 0-1.5-.7-1.5-1.5v-117c0-.8.7-1.5 1.5-1.5h117c.8 0 1.5.7 1.5 1.5v117c0 .8-.7 1.5-1.5 1.5z" class="iconic-map-frame iconic-property-stroke" fill="none" />
  </g>
  <g data-width="32" data-height="32" class="iconic-container iconic-md" display="none" transform="scale(4)">
    <path stroke="#000" stroke-miterlimit="10" class="iconic-map-street iconic-map-street-cross iconic-map-street-cross-2 iconic-property-stroke" d="M31 11l-20 20" fill="none" />
    <path stroke="#000" stroke-width="1.014" stroke-linecap="round" stroke-miterlimit="10" class="iconic-map-street iconic-map-street-cross iconic-map-street-cross-1 iconic-property-stroke" d="M12 9l8-8" fill="none" />
    <path stroke="#000" stroke-miterlimit="10" class="iconic-map-street iconic-map-street-main iconic-property-stroke" d="M10 1l21.1 21.1" fill="none" />
    <path d="M12 13c-2.2 0-4 1.8-4 4 0 3 4 8 4 8s4-5 4-8c0-2.2-1.8-4-4-4zm0 6c-1.1 0-2-.9-2-2s.9-2 2-2 2 .9 2 2-.9 2-2 2z" class="iconic-map-map-marker iconic-property-accent iconic-property-fill" />
    <path stroke="#000" stroke-width="3" stroke-miterlimit="10" d="M30 30.5h-28c-.3 0-.5-.2-.5-.5v-28c0-.3.2-.5.5-.5h28c.3 0 .5.2.5.5v28c0 .3-.2.5-.5.5z" class="iconic-map-frame iconic-property-stroke" fill="none" />
  </g>
  <g data-width="16" data-height="16" class="iconic-container iconic-sm" display="none" transform="scale(8)">
    <path stroke="#000" stroke-miterlimit="10" class="iconic-map-street iconic-map-street-cross iconic-property-stroke" d="M15 6l-9 9" fill="none" />
    <path stroke="#000" stroke-miterlimit="10" class="iconic-map-street iconic-map-street-main iconic-property-stroke" d="M5 1l10 10" fill="none" />
    <path d="M6 6c-1.1 0-2 .9-2 2 0 1.5 2 4 2 4s2-2.5 2-4c0-1.1-.9-2-2-2zm0 3c-.6 0-1-.4-1-1s.4-1 1-1 1 .4 1 1-.4 1-1 1z" class="iconic-map-map-marker iconic-property-accent iconic-property-fill" />
    <path stroke="#000" stroke-width="2" stroke-miterlimit="10" d="M14.8 15h-13.6c-.1 0-.2-.1-.2-.2v-13.6c0-.1.1-.2.2-.2h13.5c.2 0 .3.1.3.2v13.5c0 .2-.1.3-.2.3z" class="iconic-map-frame iconic-property-stroke" fill="none" />
  </g>
</svg>