<svg version="1.1" xmlns="http://www.w3.org/2000/svg" data-icon="medal" width="128" height="128" class="iconic iconic-medal" viewBox="0 0 128 128">
  <g class="iconic-metadata">
    <title>Medal</title>
  </g>
  <defs>
    <clipPath id="iconic-size-lg-medal-clip-0">
      <path d="M19.4 6l-3.4-6h92l-3.4 6h-85.2zm31.6 72.2c3.4-1.4 7.1-2.2 11-2.2s7.6.8 11 2.2l44.7-78.2h-7.7l-24 42h-2l18.3-32h-80.6l18.3 32h-2l-24-42h-7.7l44.7 78.2zm69-78.2l1.7 1-45.2 79.1c1.8 1.1 3.5 2.4 5 3.9h42.5v-84h-4zm-72.5 80.1l-45.2-79.1 1.7-1h-4v84h42.4c1.6-1.5 3.2-2.8 5.1-3.9z"
      />
    </clipPath>
    <clipPath id="iconic-size-md-medal-clip-0">
      <path d="M28 0l-6 10h-1l6-10h-22l6 10h-1l-6-10h-4v21h9.1c1.4-2.4 4-4 6.9-4s5.5 1.6 6.9 4h9.1v-21h-4z" />
    </clipPath>
  </defs>
  <g data-width="124" data-height="128" class="iconic-container iconic-lg" display="inline" transform="translate(2)">
    <path clip-path="url(#iconic-size-lg-medal-clip-0)" d="M108.5 0h-93c-.8 0-2 .4-2.7.9l-11.6 8.2c-.7.5-.9 1.5-.5 2.2l46.5 81.4c.4.7 1.3.9 2 .4l11.6-8.3c.7-.5.9-1.5.5-2.2l-37.4-65.3c-.4-.7-.1-1.3.8-1.3h74.7c.8 0 1.2.6.8 1.3l-37.5 65.4c-.4.7-.2 1.7.5 2.2l11.6 8.3c.7.5 1.6.3 2-.4l46.5-81.4c.4-.7.2-1.7-.5-2.2l-11.6-8.3c-.7-.5-1.9-.9-2.7-.9z"
    class="iconic-medal-band iconic-property-fill" />
    <circle cx="62" cy="104" r="24" class="iconic-medal-medal iconic-property-fill" />
  </g>
  <g data-width="32" data-height="31" class="iconic-container iconic-md" display="none" transform="scale(4)">
    <path d="M27.5 0h-23c-.3 0-.7.1-.9.3l-3.2 2.4c-.2.2-.3.5-.1.7l11.5 19.1c.1.2.4.3.7.1l3.2-2.4c.2-.2.3-.5.1-.7l-8.5-14.1c-.2-.2-.1-.4.2-.4h17c.3 0 .4.2.2.4l-8.5 14.1c-.1.2-.1.6.1.7l3.2 2.4c.2.2.5.1.7-.1l11.5-19.1c.1-.2.1-.6-.1-.7l-3.2-2.4c-.2-.2-.6-.3-.9-.3z"
    clip-path="url(#iconic-size-md-medal-clip-0)" class="iconic-medal-band iconic-property-fill" />
    <circle cx="16" cy="25" r="6" class="iconic-medal-medal iconic-property-fill" />
  </g>
  <g data-width="16" data-height="16" class="iconic-container iconic-sm" display="none" transform="scale(8)">
    <path d="M14 0l2 2-5 8.4c-.6-.7-1.5-1.2-2.4-1.3l5.4-9.1zm-2.8 3l1.8-3h-10l1.8 3h6.4zm-3.8 6.1l-5.4-9.1-2 2 5 8.4c.6-.7 1.5-1.2 2.4-1.3z" class="iconic-medal-band iconic-property-fill" />
    <circle cx="8" cy="13" r="3" class="iconic-medal-medal iconic-property-fill" />
  </g>
</svg>