<svg version="1.1" xmlns="http://www.w3.org/2000/svg" data-icon="media-play-circle" width="128" height="128" class="iconic iconic-media-play-circle" viewBox="0 0 128 128">
  <g class="iconic-metadata">
    <title>Media Play Circle</title>
  </g>
  <g data-width="128" data-height="128" class="iconic-container iconic-lg" display="inline">
    <path d="M64 0c-35.3 0-64 28.7-64 64s28.7 64 64 64 64-28.7 64-64-28.7-64-64-64zm-18 90v-52l52 26-52 26z" class="iconic-media-play-circle-body iconic-property-fill" />
  </g>
  <g data-width="32" data-height="32" class="iconic-container iconic-md" display="none" transform="scale(4)">
    <path d="M16 0c-8.8 0-16 7.2-16 16s7.2 16 16 16 16-7.2 16-16-7.2-16-16-16zm-5 23v-14l14 7-14 7z" class="iconic-media-play-circle-body iconic-property-fill" />
  </g>
  <g data-width="16" data-height="16" class="iconic-container iconic-sm" display="none" transform="scale(8)">
    <path d="M8 0c-4.4 0-8 3.6-8 8s3.6 8 8 8 8-3.6 8-8-3.6-8-8-8zm-3 12v-8l8 4-8 4z" class="iconic-media-play-circle-body iconic-property-fill" />
  </g>
</svg>