<svg version="1.1" xmlns="http://www.w3.org/2000/svg" data-icon="microphone" width="128" height="128" class="iconic iconic-microphone" viewBox="0 0 128 128">
  <g class="iconic-metadata">
    <title>Microphone</title>
  </g>
  <g data-width="62" data-height="128" class="iconic-container iconic-lg" display="inline" transform="translate(33)">
    <path d="M55 56h-1v-2h-4v2h-3c-.6 0-1 .4-1 1s.4 1 1 1h3v14.5c0 9.6-8.1 17.5-18 17.5h-2c-9.9 0-18-7.9-18-17.5v-14.5h3c.6 0 1-.4 1-1s-.4-1-1-1h-3v-2h-4v2h-1c-.6 0-1 .4-1 1s.4 1 1 1h1v2h2v12.5c0 10.8 9 19.5 20 19.5v4h2v-4c11 0 20-8.7 20-19.5v-12.5h2v-2h1c.6 0 1-.4 1-1s-.4-1-1-1z"
    class="iconic-microphone-hinge iconic-property-fill" />
    <path d="M34 94v28c0 1.1.9 2 2 2h22c2.2 0 4 1.8 4 4h-62c0-2.2 1.8-4 4-4h22c1.1 0 2-.9 2-2v-28h6z" class="iconic-microphone-base iconic-property-fill" />
    <path d="M47 60c-1.3 0-2.4-.8-2.8-2h-8.3c-.5 2.3-2.5 4-4.9 4s-4.4-1.7-4.9-4h-8.3c-.4 1.2-1.5 2-2.8 2h-1v11c0 9.3 7.7 17 17 17s17-7.7 17-17v-11h-1zm-16 22c-.6 0-1-.4-1-1s.4-1 1-1 1 .4 1 1-.4 1-1 1z" class="iconic-microphone-head iconic-microphone-head-bottom iconic-property-fill"
    />
    <circle cx="31" cy="57" r="3" class="iconic-microphone-head iconic-microphone-head-button iconic-property-fill" />
    <path d="M31 0c-9.3 0-17 7.7-17 17v37h1c1.3 0 2.4.8 2.8 2h8.3c.5-2.3 2.5-4 4.9-4 2.4 0 4.4 1.7 4.9 4h8.3c.4-1.2 1.5-2 2.8-2h1v-37c0-9.4-7.7-17-17-17zm-12 50c-.6 0-1-.4-1-1s.4-1 1-1 1 .4 1 1-.4 1-1 1zm0-4c-.6 0-1-.4-1-1s.4-1 1-1 1 .4 1 1-.4 1-1 1zm0-4c-.6 0-1-.4-1-1s.4-1 1-1 1 .4 1 1-.4 1-1 1zm0-4c-.6 0-1-.4-1-1s.4-1 1-1 1 .4 1 1-.4 1-1 1zm0-4c-.6 0-1-.4-1-1s.4-1 1-1 1 .4 1 1-.4 1-1 1zm0-4c-.6 0-1-.4-1-1s.4-1 1-1 1 .4 1 1-.4 1-1 1zm0-4c-.6 0-1-.4-1-1s.4-1 1-1 1 .4 1 1-.4 1-1 1zm0-4c-.6 0-1-.4-1-1s.4-1 1-1 1 .4 1 1-.4 1-1 1zm0-4c-.6 0-1-.4-1-1s.4-1 1-1 1 .4 1 1-.4 1-1 1zm0-4c-.6 0-1-.4-1-1s.4-1 1-1 1 .4 1 1-.4 1-1 1zm4 36c-.6 0-1-.4-1-1s.4-1 1-1 1 .4 1 1-.4 1-1 1zm0-4c-.6 0-1-.4-1-1s.4-1 1-1 1 .4 1 1-.4 1-1 1zm0-4c-.6 0-1-.4-1-1s.4-1 1-1 1 .4 1 1-.4 1-1 1zm0-4c-.6 0-1-.4-1-1s.4-1 1-1 1 .4 1 1-.4 1-1 1zm0-4c-.6 0-1-.4-1-1s.4-1 1-1 1 .4 1 1-.4 1-1 1zm0-4c-.6 0-1-.4-1-1s.4-1 1-1 1 .4 1 1-.4 1-1 1zm0-4c-.6 0-1-.4-1-1s.4-1 1-1 1 .4 1 1-.4 1-1 1zm0-4c-.6 0-1-.4-1-1s.4-1 1-1 1 .4 1 1-.4 1-1 1zm0-4c-.6 0-1-.4-1-1s.4-1 1-1 1 .4 1 1-.4 1-1 1zm0-4c-.6 0-1-.4-1-1s.4-1 1-1 1 .4 1 1-.4 1-1 1zm0-4c-.6 0-1-.4-1-1s.4-1 1-1 1 .4 1 1-.4 1-1 1zm4 40c-.6 0-1-.4-1-1s.4-1 1-1 1 .4 1 1-.4 1-1 1zm0-4c-.6 0-1-.4-1-1s.4-1 1-1 1 .4 1 1-.4 1-1 1zm0-4c-.6 0-1-.4-1-1s.4-1 1-1 1 .4 1 1-.4 1-1 1zm0-4c-.6 0-1-.4-1-1s.4-1 1-1 1 .4 1 1-.4 1-1 1zm0-4c-.6 0-1-.4-1-1s.4-1 1-1 1 .4 1 1-.4 1-1 1zm0-4c-.6 0-1-.4-1-1s.4-1 1-1 1 .4 1 1-.4 1-1 1zm0-4c-.6 0-1-.4-1-1s.4-1 1-1 1 .4 1 1-.4 1-1 1zm0-4c-.6 0-1-.4-1-1s.4-1 1-1 1 .4 1 1-.4 1-1 1zm0-4c-.6 0-1-.4-1-1s.4-1 1-1 1 .4 1 1-.4 1-1 1zm0-4c-.6 0-1-.4-1-1s.4-1 1-1 1 .4 1 1-.4 1-1 1zm0-4c-.6 0-1-.4-1-1s.4-1 1-1 1 .4 1 1-.4 1-1 1zm0-4c-.6 0-1-.4-1-1s.4-1 1-1 1 .4 1 1-.4 1-1 1zm4 44c-.6 0-1-.4-1-1s.4-1 1-1 1 .4 1 1-.4 1-1 1zm0-4c-.6 0-1-.4-1-1s.4-1 1-1 1 .4 1 1-.4 1-1 1zm0-4c-.6 0-1-.4-1-1s.4-1 1-1 1 .4 1 1-.4 1-1 1zm0-4c-.6 0-1-.4-1-1s.4-1 1-1 1 .4 1 1-.4 1-1 1zm0-4c-.6 0-1-.4-1-1s.4-1 1-1 1 .4 1 1-.4 1-1 1zm0-4c-.6 0-1-.4-1-1s.4-1 1-1 1 .4 1 1-.4 1-1 1zm0-4c-.6 0-1-.4-1-1s.4-1 1-1 1 .4 1 1-.4 1-1 1zm0-4c-.6 0-1-.4-1-1s.4-1 1-1 1 .4 1 1-.4 1-1 1zm0-4c-.6 0-1-.4-1-1s.4-1 1-1 1 .4 1 1-.4 1-1 1zm0-4c-.6 0-1-.4-1-1s.4-1 1-1 1 .4 1 1-.4 1-1 1zm0-4c-.6 0-1-.4-1-1s.4-1 1-1 1 .4 1 1-.4 1-1 1zm0-4c-.6 0-1-.4-1-1s.4-1 1-1 1 .4 1 1-.4 1-1 1zm4 44c-.6 0-1-.4-1-1s.4-1 1-1 1 .4 1 1-.4 1-1 1zm0-4c-.6 0-1-.4-1-1s.4-1 1-1 1 .4 1 1-.4 1-1 1zm0-4c-.6 0-1-.4-1-1s.4-1 1-1 1 .4 1 1-.4 1-1 1zm0-4c-.6 0-1-.4-1-1s.4-1 1-1 1 .4 1 1-.4 1-1 1zm0-4c-.6 0-1-.4-1-1s.4-1 1-1 1 .4 1 1-.4 1-1 1zm0-4c-.6 0-1-.4-1-1s.4-1 1-1 1 .4 1 1-.4 1-1 1zm0-4c-.6 0-1-.4-1-1s.4-1 1-1 1 .4 1 1-.4 1-1 1zm0-4c-.6 0-1-.4-1-1s.4-1 1-1 1 .4 1 1-.4 1-1 1zm0-4c-.6 0-1-.4-1-1s.4-1 1-1 1 .4 1 1-.4 1-1 1zm0-4c-.6 0-1-.4-1-1s.4-1 1-1 1 .4 1 1-.4 1-1 1zm0-4c-.6 0-1-.4-1-1s.4-1 1-1 1 .4 1 1-.4 1-1 1zm0-4c-.6 0-1-.4-1-1s.4-1 1-1 1 .4 1 1-.4 1-1 1zm4 44c-.6 0-1-.4-1-1s.4-1 1-1 1 .4 1 1-.4 1-1 1zm0-4c-.6 0-1-.4-1-1s.4-1 1-1 1 .4 1 1-.4 1-1 1zm0-4c-.6 0-1-.4-1-1s.4-1 1-1 1 .4 1 1-.4 1-1 1zm0-4c-.6 0-1-.4-1-1s.4-1 1-1 1 .4 1 1-.4 1-1 1zm0-4c-.6 0-1-.4-1-1s.4-1 1-1 1 .4 1 1-.4 1-1 1zm0-4c-.6 0-1-.4-1-1s.4-1 1-1 1 .4 1 1-.4 1-1 1zm0-4c-.6 0-1-.4-1-1s.4-1 1-1 1 .4 1 1-.4 1-1 1zm0-4c-.6 0-1-.4-1-1s.4-1 1-1 1 .4 1 1-.4 1-1 1zm0-4c-.6 0-1-.4-1-1s.4-1 1-1 1 .4 1 1-.4 1-1 1zm0-4c-.6 0-1-.4-1-1s.4-1 1-1 1 .4 1 1-.4 1-1 1zm0-4c-.6 0-1-.4-1-1s.4-1 1-1 1 .4 1 1-.4 1-1 1zm4 40c-.6 0-1-.4-1-1s.4-1 1-1 1 .4 1 1-.4 1-1 1zm0-4c-.6 0-1-.4-1-1s.4-1 1-1 1 .4 1 1-.4 1-1 1zm0-4c-.6 0-1-.4-1-1s.4-1 1-1 1 .4 1 1-.4 1-1 1zm0-4c-.6 0-1-.4-1-1s.4-1 1-1 1 .4 1 1-.4 1-1 1zm0-4c-.6 0-1-.4-1-1s.4-1 1-1 1 .4 1 1-.4 1-1 1zm0-4c-.6 0-1-.4-1-1s.4-1 1-1 1 .4 1 1-.4 1-1 1zm0-4c-.6 0-1-.4-1-1s.4-1 1-1 1 .4 1 1-.4 1-1 1zm0-4c-.6 0-1-.4-1-1s.4-1 1-1 1 .4 1 1-.4 1-1 1zm0-4c-.6 0-1-.4-1-1s.4-1 1-1 1 .4 1 1-.4 1-1 1zm0-4c-.6 0-1-.4-1-1s.4-1 1-1 1 .4 1 1-.4 1-1 1z"
    class="iconic-microphone-head iconic-microphone-head-top iconic-property-fill" />
  </g>
  <g data-width="16" data-height="32" class="iconic-container iconic-md" display="none" transform="scale(4) translate(8)">
    <path d="M13 30h-4v-5.6h-2v5.6h-4c-1.1 0-2 .9-2 2h14c0-1.1-.9-2-2-2z" class="iconic-microphone-base iconic-property-fill" />
    <path stroke="#000" stroke-linecap="round" stroke-miterlimit="10" d="M.5 15.4v1.6c0 4.1 3.4 7.5 7.5 7.5s7.5-3.4 7.5-7.5v-2.5" class="iconic-microphone-hinge iconic-property-stroke" fill="none" />
    <path d="M3 17c0 2.8 2.2 5 5 5s5-2.2 5-5v-1h-10v1z" class="iconic-microphone-head iconic-microphone-head-bottom iconic-property-fill" />
    <path d="M8 0c-2.8 0-5 2.2-5 5v10h10v-10c0-2.8-2.2-5-5-5zm-2 12c-.6 0-1-.4-1-1s.4-1 1-1 1 .4 1 1-.4 1-1 1zm0-4c-.6 0-1-.4-1-1s.4-1 1-1 1 .4 1 1-.4 1-1 1zm2-4c-.6 0-1-.4-1-1s.4-1 1-1 1 .4 1 1-.4 1-1 1zm2 8c-.6 0-1-.4-1-1s.4-1 1-1 1 .4 1 1-.4 1-1 1zm0-4c-.6 0-1-.4-1-1s.4-1 1-1 1 .4 1 1-.4 1-1 1z"
    class="iconic-microphone-head iconic-microphone-head-top iconic-property-fill" />
  </g>
  <g data-width="9" data-height="16" class="iconic-container iconic-sm" display="none" transform="scale(8) translate(3)">
    <path d="M4 11.5v3.5h-2c-.6 0-1 .4-1 1h7c0-.6-.4-1-1-1h-2v-3.5h-1z" class="iconic-microphone-base iconic-property-fill" />
    <path stroke="#000" stroke-linecap="round" stroke-miterlimit="10" d="M.5 6.7v.8c0 2.2 1.8 4 4 4s4-1.8 4-4v-.8" class="iconic-microphone-hinge iconic-property-stroke" fill="none" />
    <path d="M4.5 10c-1.4 0-2.5-1.1-2.5-2.5v-5c0-1.4 1.1-2.5 2.5-2.5s2.5 1.1 2.5 2.5v5c0 1.4-1.1 2.5-2.5 2.5z" class="iconic-microphone-head iconic-property-fill" />
  </g>
</svg>