<svg version="1.1" xmlns="http://www.w3.org/2000/svg" data-icon="moon" width="128" height="128" class="iconic iconic-moon" viewBox="0 0 128 128">
  <g class="iconic-metadata">
    <title>Moon</title>
  </g>
  <g data-width="118" data-height="118" class="iconic-container iconic-lg" display="inline" transform="translate(5 5)">
    <path d="M82 100c-35.3 0-64-28.7-64-64 0-13.1 3.9-25.2 10.7-35.3-17.3 11.4-28.7 31-28.7 53.3 0 35.3 28.7 64 64 64 22.3 0 41.9-11.4 53.3-28.7-10.1 6.8-22.2 10.7-35.3 10.7z" class="iconic-property-fill" />
  </g>
  <g data-width="30" data-height="30" class="iconic-container iconic-md" display="none" transform="scale(4) translate(1 1)">
    <path d="M22 24c-8.8 0-16-7.2-16-16 0-2.9.8-5.6 2.1-7.9-4.8 2.8-8.1 7.9-8.1 13.9 0 8.8 7.2 16 16 16 6 0 11.1-3.3 13.9-8.1-2.3 1.3-5 2.1-7.9 2.1z" class="iconic-property-fill" />
  </g>
  <g data-width="15" data-height="15" class="iconic-container iconic-sm" display="none" transform="scale(8)">
    <path d="M11 12c-4.4 0-8-3.6-8-8 0-1.4.4-2.8 1.1-4-2.5 1.4-4.1 4-4.1 7 0 4.4 3.6 8 8 8 3 0 5.6-1.6 7-4.1-1.2.7-2.5 1.1-4 1.1z" class="iconic-property-fill" />
  </g>
</svg>