<svg version="1.1" xmlns="http://www.w3.org/2000/svg" data-icon="move" width="128" height="128" class="iconic iconic-move" viewBox="0 0 128 128">
  <g class="iconic-metadata">
    <title>Move</title>
  </g>
  <g data-width="128" data-height="128" class="iconic-container iconic-lg" display="inline">
    <path stroke="#000" stroke-width="8" stroke-linecap="square" stroke-miterlimit="10" class="iconic-move-axis iconic-move-axis-vertical iconic-property-stroke" d="M64 15v97" fill="none" />
    <path stroke="#000" stroke-width="8" stroke-linecap="square" stroke-miterlimit="10" class="iconic-move-axis iconic-move-axis-horizontal iconic-property-stroke" d="M117 64h-105" fill="none" />
    <path d="M63.2 1.3l-12.4 21.4c-.4.7-.1 1.3.7 1.3h25c.8 0 1.2-.6.7-1.3l-12.4-21.4c-.5-.7-1.1-.7-1.6 0z" class="iconic-move-arrowhead iconic-move-arrowhead-top iconic-property-fill" />
    <path d="M64.8 126.7l12.5-21.4c.4-.7.1-1.3-.7-1.3h-25c-.8 0-1.2.6-.7 1.3l12.5 21.4c.3.7.9.7 1.4 0z" class="iconic-move-arrowhead iconic-move-arrowhead-bottom iconic-property-fill" />
    <path d="M126.7 63.2l-21.4-12.5c-.7-.4-1.3-.1-1.3.7v25c0 .8.6 1.2 1.3.7l21.4-12.5c.7-.3.7-.9 0-1.4z" class="iconic-move-arrowhead iconic-move-arrowhead-right iconic-property-fill" />
    <path d="M1.3 64.8l21.4 12.5c.7.4 1.3.1 1.3-.7v-25c0-.8-.6-1.2-1.3-.7l-21.4 12.3c-.7.5-.7 1.1 0 1.6z" class="iconic-move-arrowhead iconic-move-arrowhead-left iconic-property-fill" />
  </g>
  <g data-width="31" data-height="31" class="iconic-container iconic-md" display="none" transform="scale(4)">
    <path stroke="#000" stroke-width="3" stroke-linecap="square" stroke-miterlimit="10" class="iconic-move-axis iconic-move-axis-vertical iconic-property-stroke" d="M15.5 7v20" fill="none" />
    <path stroke="#000" stroke-width="3" stroke-linecap="square" stroke-miterlimit="10" class="iconic-move-axis iconic-move-axis-horizontal iconic-property-stroke" d="M24 15.5h-18" fill="none" />
    <path d="M15.2 30.6l-3.9-5.2c-.2-.2-.1-.4.2-.4h8c.3 0 .4.2.2.4l-3.9 5.2c-.2.2-.4.2-.6 0z" class="iconic-move-arrowhead iconic-move-arrowhead-bottom iconic-property-fill" />
    <path d="M15.8.4l3.9 5.2c.2.2.1.4-.2.4h-8c-.3 0-.4-.2-.2-.4l3.9-5.2c.2-.2.4-.2.6 0z" class="iconic-move-arrowhead iconic-move-arrowhead-top iconic-property-fill" />
    <path d="M.4 15.2l5.2-3.9c.2-.2.4-.1.4.2v8c0 .3-.2.4-.4.2l-5.2-3.9c-.2-.2-.2-.4 0-.6z" class="iconic-move-arrowhead iconic-move-arrowhead-left iconic-property-fill" />
    <path d="M30.6 15.8l-5.2 3.9c-.2.2-.4.1-.4-.2v-8c0-.3.2-.4.4-.2l5.2 3.9c.2.2.2.4 0 .6z" class="iconic-move-arrowhead iconic-move-arrowhead-right iconic-property-fill" />
  </g>
  <g data-width="16" data-height="16" class="iconic-container iconic-sm" display="none" transform="scale(8)">
    <path stroke="#000" stroke-width="2" stroke-linecap="square" stroke-miterlimit="10" class="iconic-move-axis iconic-move-axis-vertical iconic-property-stroke" d="M8 3v11" fill="none" />
    <path stroke="#000" stroke-width="2" stroke-linecap="square" stroke-miterlimit="10" class="iconic-move-axis iconic-move-axis-horizontal iconic-property-stroke" d="M13 8h-10" fill="none" />
    <path class="iconic-move-arrowhead iconic-move-arrowhead-top iconic-property-fill" d="M8 0l-3 3h6z" />
    <path class="iconic-move-arrowhead iconic-move-arrowhead-right iconic-property-fill" d="M16 8l-3-3v6z" />
    <path class="iconic-move-arrowhead iconic-move-arrowhead-left iconic-property-fill" d="M0 8l3 3v-6z" />
    <path class="iconic-move-arrowhead iconic-move-arrowhead-top iconic-property-fill" d="M8 16l3-3h-6z" />
  </g>
</svg>