<svg version="1.1" xmlns="http://www.w3.org/2000/svg" data-icon="musical-note" width="128" height="128" class="iconic iconic-musical-note" viewBox="0 0 128 128">
  <g class="iconic-metadata">
    <title>Musical Note</title>
  </g>
  <g data-width="118" data-height="128" class="iconic-container iconic-lg" display="inline" transform="translate(5)">
    <path d="M28 16v79c-2.9-1.9-6.3-3-10-3-9.9 0-18 8.1-18 18s8.1 18 18 18 18-8.1 18-18v-74.2c10.5-4.5 32.8-10.9 74-11.7v61c-2.9-1.9-6.3-3-10-3-9.9 0-18 8.1-18 18s8.1 18 18 18 18-8.1 18-18v-100.1c-70 0-90 16-90 16z" class="iconic-property-fill" />
  </g>
  <g data-width="31" data-height="32" class="iconic-container iconic-md" display="none" transform="scale(4)">
    <path d="M7 4v18.4c-.6-.2-1.3-.4-2-.4-2.8 0-5 2.2-5 5s2.2 5 5 5 5-2.2 5-5v-18.5c2.9-1 8.3-2.2 18-2.4v14.4c-.6-.3-1.3-.4-2-.4-2.8 0-5 2.2-5 5s2.2 5 5 5 5-2.2 5-5v-25.1c-20 0-24 4-24 4z" class="iconic-property-fill" />
  </g>
  <g data-width="16" data-height="16" class="iconic-container iconic-sm" display="none" transform="scale(8)">
    <path d="M4 2v8.2c-.3-.1-.6-.2-1-.2-1.7 0-3 1.3-3 3s1.3 3 3 3 3-1.3 3-3v-7.9c1.5-.5 4-.9 8-1v5.2c-.3-.2-.6-.3-1-.3-1.7 0-3 1.3-3 3s1.3 3 3 3 3-1.3 3-3v-12c-10 0-12 2-12 2z" class="iconic-property-fill" />
  </g>
</svg>