<svg version="1.1" xmlns="http://www.w3.org/2000/svg" data-icon="paperclip" width="128" height="128" class="iconic iconic-paperclip" viewBox="0 0 128 128">
  <g class="iconic-metadata">
    <title>Paperclip</title>
  </g>
  <g data-width="118" data-height="128" class="iconic-container iconic-lg" display="inline" transform="translate(5)">
    <path stroke="#000" stroke-width="6" stroke-linecap="square" d="M61.9 54.8l-40.6 40.5c-3.1 3.1-3.1 8.2 0 11.3 3.1 3.1 8.2 3.1 11.3 0l76.4-76.3c6.2-6.2 6.2-16.4 0-22.6s-16.4-6.2-22.6 0l-76.4 76.3c-9.4 9.4-9.4 24.6 0 33.9s24.6 9.4 33.9 0l40.5-40.5" class="iconic-property-stroke"
    fill="none" />
  </g>
  <g data-width="29" data-height="32" class="iconic-container iconic-md" display="none" transform="scale(4) translate(1)">
    <path stroke="#000" stroke-width="2" stroke-linecap="square" d="M16.1 13.1l-10.5 10.5c-.8.8-.8 2 0 2.8.8.8 2 .8 2.8 0l18.4-18.6c1.6-1.6 1.6-4.1 0-5.7-1.6-1.6-4.1-1.6-5.7 0l-18.3 18.7c-2.3 2.3-2.3 6.1 0 8.5s6.1 2.3 8.5 0l10.5-10.5" class="iconic-property-stroke"
    fill="none" />
  </g>
  <g data-width="14" data-height="16" class="iconic-container iconic-sm" display="none" transform="scale(8) translate(1)">
    <path stroke="#000" stroke-linecap="square" d="M8.3 6.3l-4.5 4.5c-.4.4-.4 1 0 1.4.4.4 1 .4 1.4 0l7.5-7.4c1-1 1-2.6 0-3.5s-2.6-1-3.5 0l-7.5 7.4c-1.6 1.6-1.6 4.1 0 5.7s4.1 1.6 5.7 0l4.5-4.5" class="iconic-property-stroke" fill="none" />
  </g>
</svg>