<svg version="1.1" xmlns="http://www.w3.org/2000/svg" data-icon="pen" width="128" height="128" class="iconic iconic-pen" viewBox="0 0 128 128">
  <g class="iconic-metadata">
    <title>Pen</title>
  </g>
  <g data-width="128" data-height="128" class="iconic-container iconic-lg" display="inline">
    <path transform="matrix(-.707 -.707 .707 -.707 187.125 103.51)" class="iconic-pen-button iconic-property-accent iconic-property-fill" d="M107.9 1.7h14.1v22.6h-14.1z" />
    <path class="iconic-pen-body iconic-pen-body-bottom iconic-property-fill" d="M38 100l-10-10-16 16v6l-6 6 4 4 6-6h6z" />
    <path transform="matrix(-.707 .707 -.707 -.707 151.51 71.243)" class="iconic-pen-body iconic-pen-body-middle iconic-property-fill" d="M17.2 55.7h87.7v22.6h-87.7z" />
    <path transform="matrix(-.707 .707 -.707 -.707 194.51 -32.569)" class="iconic-pen-body-top iconic-property-accent iconic-property-fill" d="M95.5 12.7h17v22.6h-17z" />
    <path class="iconic-pen-clip iconic-property-accent iconic-property-fill" d="M88 16l-38 38v4l34-34 20 20 6-6z" />
    <path class="iconic-pen-head iconic-property-accent iconic-property-fill" d="M8 124l-4-4-4 4v4h4z" />
  </g>
  <g data-width="32" data-height="32" class="iconic-container iconic-md" display="none" transform="scale(4)">
    <path transform="matrix(-.707 -.707 .707 -.707 46.178 26.127)" class="iconic-pen-button iconic-property-accent iconic-property-fill" d="M26.4.7h4.2v5.7h-4.2z" />
    <path class="iconic-pen-body iconic-pen-body-bottom iconic-property-fill" d="M10 25l-3-3-4 4v2l-1 1 1 1 1-1h2z" />
    <path transform="matrix(-.707 .707 -.707 -.707 37.127 19.621)" class="iconic-pen-body iconic-pen-body-middle iconic-property-fill" d="M4.6 14h19.8v7.1h-19.8z" />
    <path transform="matrix(-.707 .707 -.707 -.707 48.627 -8.142)" class="iconic-pen-body iconic-pen-body-top iconic-property-accent iconic-property-fill" d="M23.9 2.5h4.2v7.1h-4.2z" />
    <path class="iconic-pen-clip iconic-property-accent iconic-property-fill" d="M20 3l-11 11v2l10-10 6 6 2-2z" />
    <path class="iconic-pen-head iconic-property-accent iconic-property-fill" d="M2 31l-1-1-1 1v1h1z" />
  </g>
  <g data-width="16" data-height="16" class="iconic-container iconic-sm" display="none" transform="scale(8)">
    <path transform="matrix(-.707 -.707 .707 -.707 22.485 13.314)" class="iconic-pen-button iconic-property-accent iconic-property-fill" d="M13.3-.1h1.4v4.2h-1.4z" />
    <path transform="matrix(.707 -.707 .707 .707 -7.814 6.136)" class="iconic-pen-body iconic-pen-body-bottom iconic-property-fill" d="M2.1 11.8h2.8v1.4h-2.8z" />
    <path transform="matrix(-.707 .707 -.707 -.707 18.814 9.207)" class="iconic-pen-body iconic-pen-body-middle iconic-property-fill" d="M2.6 7.1h9.9v2.8h-9.9z" />
    <path transform="matrix(-.707 .707 -.707 -.707 24.814 -5.278)" class="iconic-pen-body iconic-pen-body-top iconic-property-accent iconic-property-fill" d="M12.8 1.1h1.4v2.8h-1.4z" />
    <path class="iconic-pen-clip iconic-property-accent iconic-property-fill" d="M10 0l-5 5v2l5-5 3 3 1-1z" />
    <path class="iconic-pen-head iconic-property-accent iconic-property-fill" d="M0 15v1h1l1-1-1-1z" />
  </g>
</svg>