<svg version="1.1" xmlns="http://www.w3.org/2000/svg" data-icon="people" width="128" height="128" class="iconic iconic-people" viewBox="0 0 128 128">
  <g class="iconic-metadata">
    <title>People</title>
  </g>
  <g data-width="128" data-height="58" class="iconic-container iconic-lg" display="inline" transform="translate(0 35)">
    <path d="M34.4 40.2c.5-.6.5-.6-.2-.2-1.9 1.3-4 2-6.3 2-2.8 0-5.4-1.1-7.6-3-.6-.5-1.8-1-2.6-1h-3.7c-7.7 0-14 6.3-14 14v2.5c0 .8.7 1.5 1.5 1.5h27c.8 0 1.5-.7 1.5-1.5v-2.5c0-4.5 1.7-8.7 4.4-11.8z" class="iconic-people-person iconic-people-person-body iconic-people-person-left iconic-people-person-body-left iconic-property-accent iconic-property-fill"
    />
    <path d="M40 24c0 8.3-5.4 16-12 16s-12-7.7-12-16 5.4-14 12-14 12 5.7 12 14z" class="iconic-people-person iconic-people-person-head iconic-people-person-left iconic-people-person-head-left iconic-property-accent iconic-property-fill" />
    <path d="M110.1 38c-.8 0-2 .5-2.6 1-2.2 1.9-4.8 3-7.6 3-2.3 0-4.5-.8-6.5-2.2-.7-.5-.7-.5-.1.1 2.9 3.2 4.6 7.4 4.6 12v2.5c0 .8.7 1.5 1.5 1.5h27c.8 0 1.5-.7 1.5-1.5v-2.4c0-7.7-6.3-14-14-14h-3.8z" class="iconic-people-person iconic-people-person-body iconic-people-person-right iconic-people-person-body-right iconic-property-accent iconic-property-fill"
    />
    <path d="M112 23.9c0 8.3-5.4 16.1-12 16.1s-12-7.8-12-16.1 5.4-13.9 12-13.9 12 5.6 12 13.9z" class="iconic-people-person iconic-people-person-head iconic-people-person-right iconic-people-person-head-right iconic-property-accent iconic-property-fill"
    />
    <path d="M77.5 36c-.8 0-1.9.5-2.5 1.1-3.1 3.1-6.9 4.9-11 4.9s-7.9-1.8-11-4.9c-.6-.6-1.7-1.1-2.5-1.1h-2.5c-8.8 0-16 7.2-16 16v4.5c0 .8.7 1.5 1.5 1.5h61c.8 0 1.5-.7 1.5-1.5v-4.5c0-8.8-7.2-16-16-16h-2.5z" class="iconic-people-person iconic-people-person-body iconic-people-person-center iconic-people-person-body-center iconic-property-fill"
    />
    <path d="M80 19c0 11-7.2 21-16 21s-16-10-16-21 7.2-19 16-19 16 8 16 19z" class="iconic-people-person iconic-people-person-head iconic-people-person-center iconic-people-person-head-center iconic-property-fill" />
  </g>
  <g data-width="32" data-height="15" class="iconic-container iconic-md" display="none" transform="scale(4) translate(0 8)">
    <path d="M7.3 11.4c.1-.3.1-.5 0-.4-.1 0-.1 0-.2 0-1.2 0-2.3-.6-3.1-1.6-.2-.2-.4-.4-.4-.4h-.1c-1.9 0-3.5 1.6-3.5 3.5v1c0 .3.2.5.5.5h6c.3 0 .5-.2.5-.5v-.5c0-.5.1-1.1.3-1.6z" class="iconic-people-person iconic-people-person-body iconic-people-person-left iconic-people-person-body-left iconic-property-accent iconic-property-fill"
    />
    <path d="M10.5 5.2c0 2.5-1.6 4.8-3.5 4.8s-3.5-2.3-3.5-4.8 1.6-4.2 3.5-4.2 3.5 1.8 3.5 4.2z" class="iconic-people-person iconic-people-person-head iconic-people-person-left iconic-people-person-head-left iconic-property-accent iconic-property-fill"
    />
    <path d="M28.4 9s-.2.2-.4.4c-.8 1-1.9 1.6-3.1 1.6-.1 0-.1 0-.2 0s-.1.2 0 .4c.2.5.3 1 .3 1.6v.5c0 .3.2.5.5.5h6c.3 0 .5-.2.5-.5v-1c0-1.9-1.6-3.5-3.6-3.5.1 0 .1 0 0 0z" class="iconic-people-person iconic-people-person-body iconic-people-person-right iconic-people-person-body-right iconic-property-accent iconic-property-fill"
    />
    <path d="M28.5 5.2c0 2.5-1.6 4.8-3.5 4.8s-3.5-2.3-3.5-4.8 1.6-4.2 3.5-4.2 3.5 1.8 3.5 4.2z" class="iconic-people-person iconic-people-person-head iconic-people-person-right iconic-people-person-head-right iconic-property-accent iconic-property-fill"
    />
    <path d="M19.8 9c-.1 0-.4.2-.5.4-.8 1-1.9 1.6-3.2 1.6s-2.4-.6-3.2-1.6c-.3-.2-.5-.4-.7-.4h-.2c-2.2 0-4 1.8-4 4v1.5c0 .3.2.5.5.5h15c.3 0 .5-.2.5-.5v-1.5c0-2.2-1.8-4-4-4 0 0-.1 0-.2 0z" class="iconic-people-person iconic-people-person-body iconic-people-person-center iconic-people-person-body-center iconic-property-fill"
    />
    <path d="M20 4.5c0 2.8-1.8 5.5-4 5.5s-4-2.7-4-5.5 1.8-4.5 4-4.5 4 1.7 4 4.5z" class="iconic-people-person iconic-people-person-head iconic-people-person-center iconic-people-person-head-center iconic-property-fill" />
  </g>
  <g data-width="16" data-height="10" class="iconic-container iconic-sm" display="none" transform="scale(8) translate(0 3)">
    <path d="M3 8c0-.8.3-1.5.8-2-.7-.1-1.4-.4-1.9-1-1 .1-1.9.9-1.9 2v2h3v-1z" class="iconic-people-person iconic-people-person-body iconic-people-person-left iconic-people-person-body-left iconic-property-accent iconic-property-fill" />
    <path d="M5 3.5c0-.9.3-1.6.7-2.3-.3-.7-1-1.2-1.7-1.2-1.1 0-2 1.1-2 2.5s.9 2.5 2 2.5c.4 0 .8-.2 1.2-.5-.1-.3-.2-.6-.2-1z" class="iconic-people-person iconic-people-person-head iconic-people-person-left iconic-people-person-head-left iconic-property-accent iconic-property-fill"
    />
    <path d="M14.1 5c-.5.6-1.2.9-1.9 1 .5.5.8 1.2.8 2v1h3v-2c0-1.1-.9-1.9-1.9-2z" class="iconic-people-person iconic-people-person-body iconic-people-person-right iconic-people-person-body-right iconic-property-accent iconic-property-fill" />
    <path d="M12 0c-.7 0-1.4.5-1.7 1.2.4.7.7 1.4.7 2.3 0 .4-.1.7-.2 1 .4.3.8.5 1.2.5 1.1 0 2-1.1 2-2.5s-.9-2.5-2-2.5z" class="iconic-people-person iconic-people-person-head iconic-people-person-right iconic-people-person-head-right iconic-property-accent iconic-property-fill"
    />
    <path d="M10.1 6c-.6.6-1.3 1-2.1 1s-1.5-.4-2.1-1c-1 .1-1.9.9-1.9 2v2h8v-2c0-1.1-.9-1.9-1.9-2z" class="iconic-people-person iconic-people-person-body iconic-people-person-center iconic-people-person-body-center iconic-property-fill" />
    <ellipse cx="8" cy="3.5" rx="2" ry="2.5" class="iconic-people-person iconic-people-person-head iconic-people-person-center iconic-people-person-head-center iconic-property-fill" />
  </g>
</svg>