<svg version="1.1" xmlns="http://www.w3.org/2000/svg" data-icon="pie-chart" width="128" height="128" class="iconic iconic-pie-chart" viewBox="0 0 128 128">
  <g class="iconic-metadata">
    <title>Pie Chart</title>
  </g>
  <defs>
    <clipPath id="iconic-size-lg-pie-chart-clip-0">
      <path d="M74 0l.2 74-54.2 54h108v-128z" />
    </clipPath>
    <clipPath id="iconic-size-lg-pie-chart-clip-1">
      <path d="M0 32l16-4 45.8 45.8-54.8 54.2h-7z" />
    </clipPath>
    <clipPath id="iconic-size-lg-pie-chart-clip-2">
      <path d="M66 0h-58l6 14 52 52z" />
    </clipPath>
    <clipPath id="iconic-size-md-pie-chart-clip-0">
      <path d="M19 0v19l-13 13h26v-32z" />
    </clipPath>
    <clipPath id="iconic-size-md-pie-chart-clip-1">
      <path d="M0 8l3-1 12 12-13 13h-2z" />
    </clipPath>
    <clipPath id="iconic-size-md-pie-chart-clip-2">
      <path d="M16 0h-14l2 4 12 12z" />
    </clipPath>
  </defs>
  <g data-width="128" data-height="128" class="iconic-container iconic-lg" display="inline">
    <circle clip-path="url(#iconic-size-lg-pie-chart-clip-0)" cx="68" cy="68" r="60" class="iconic-pie-chart-slice iconic-pie-chart-slice-large iconic-property-fill" />
    <circle clip-path="url(#iconic-size-lg-pie-chart-clip-1)" cx="48" cy="72" r="48" class="iconic-pie-chart-slice iconic-pie-chart-slice-medium iconic-property-fill" />
    <circle clip-path="url(#iconic-size-lg-pie-chart-clip-2)" cx="56" cy="56" r="56" class="iconic-pie-chart-slice iconic-pie-chart-slice-small iconic-property-fill" />
  </g>
  <g data-width="32" data-height="32" class="iconic-container iconic-md" display="none" transform="scale(4)">
    <circle clip-path="url(#iconic-size-md-pie-chart-clip-0)" cx="17.5" cy="17.5" r="14.5" class="iconic-pie-chart-slice iconic-pie-chart-slice-large iconic-property-fill" />
    <circle clip-path="url(#iconic-size-md-pie-chart-clip-1)" cx="12" cy="18" r="12" class="iconic-pie-chart-slice iconic-pie-chart-slice-medium iconic-property-fill" />
    <circle clip-path="url(#iconic-size-md-pie-chart-clip-2)" cx="14" cy="14" r="14" class="iconic-pie-chart-slice iconic-pie-chart-slice-small iconic-property-fill" />
  </g>
  <g data-width="16" data-height="16" class="iconic-container iconic-sm" display="none" transform="scale(8)">
    <path d="M10 2.1v6.8l-5.4 5.4c1.2 1.1 2.7 1.7 4.4 1.7 3.9 0 7-3.1 7-7 0-3.5-2.6-6.4-6-6.9z" class="iconic-pie-chart-slice iconic-pie-chart-slice-large iconic-property-fill" />
    <path d="M1.8 4.7c-1.1 1.1-1.8 2.6-1.8 4.3 0 1.9.9 3.6 2.3 4.7l4.3-4.3-4.8-4.7z" class="iconic-pie-chart-slice iconic-pie-chart-slice-medium iconic-property-fill" />
    <path d="M2.1 2.1c1.2-1.3 3-2.1 4.9-2.1.3 0 .7 0 1 .1v7.9l-5.9-5.9z" class="iconic-pie-chart-slice iconic-pie-chart-slice-small iconic-property-fill" />
  </g>
</svg>