<svg version="1.1" xmlns="http://www.w3.org/2000/svg" data-icon="pin" width="128" height="128" class="iconic iconic-pin" viewBox="0 0 128 128">
  <g class="iconic-metadata">
    <title>Pin</title>
  </g>
  <g data-width="76" data-height="128" class="iconic-container iconic-lg" display="inline" transform="translate(26)">
    <path class="iconic-pin-pin iconic-property-fill" d="M40 118l-2 10-2-10v-61h4z" />
    <path d="M68 50h-6c-4.4 0-8-3.6-8-8v-36h8v-2c0-2.2-1.8-4-4-4h-40c-2.2 0-4 1.8-4 4v2h8v36c0 4.4-3.6 8-8 8h-6c-4.4 0-8 3.6-8 8v8h76v-8c0-4.4-3.6-8-8-8z" class="iconic-pin-body iconic-property-accent iconic-property-fill" />
  </g>
  <g data-width="20" data-height="32" class="iconic-container iconic-md" display="none" transform="scale(4) translate(6)">
    <path class="iconic-pin-pin iconic-property-fill" d="M9 14v14l1 4 1-4v-14z" />
    <path d="M17.9 14h-1.8c-1.2 0-2.1.1-2.1-1.1v-10.9h3c0-1.1-.9-2-2-2h-10c-1.1 0-2 .9-2 2h3v10.9c0 1.2-.9 1.1-2.1 1.1h-1.8c-1.2 0-2.1.9-2.1 2.1v2.9h20v-2.9c0-1.2-.9-2.1-2.1-2.1z" class="iconic-pin-body iconic-property-accent iconic-property-fill" />
  </g>
  <g data-width="11" data-height="16" class="iconic-container iconic-sm" display="none" transform="scale(8) translate(2)">
    <path class="iconic-pin-pin iconic-property-fill" d="M5 6.1v7.9l.5 2 .5-2v-7.9z" />
    <path d="M9.8 6h-.6c-.7 0-1.2-.5-1.2-1.2v-3.8h.5c.3 0 .5-.2.5-.5s-.2-.5-.5-.5h-6c-.3 0-.5.2-.5.5s.2.5.5.5h.5v3.8c0 .7-.5 1.2-1.2 1.2h-.6c-.7 0-1.2.5-1.2 1.2v1.8h11v-1.8c0-.7-.5-1.2-1.2-1.2z" class="iconic-pin-body iconic-property-accent iconic-property-fill"
    />
  </g>
</svg>