<svg version="1.1" xmlns="http://www.w3.org/2000/svg" data-icon="power-standby" width="128" height="128" class="iconic iconic-power-standby" viewBox="0 0 128 128">
  <g class="iconic-metadata">
    <title>Power Standby</title>
  </g>
  <g data-width="112" data-height="126" class="iconic-container iconic-lg" display="inline" transform="translate(8 1)">
    <path stroke="#000" stroke-width="8" stroke-miterlimit="10" d="M71.5 20.3c1.6.5 3.2 1.1 4.8 1.7 1.6.7 3.1 1.4 4.5 2.2s2.9 1.7 4.3 2.6c1.4.9 2.7 1.9 4 3 1.3 1.1 2.5 2.2 3.7 3.4 1.2 1.2 2.3 2.4 3.4 3.7 1.1 1.3 2.1 2.6 3 4 .9 1.4 1.8 2.8 2.6 4.3s1.5 3 2.2 4.5 1.2 3.1 1.7 4.8c.5 1.6.9 3.3 1.3 5 .3 1.7.6 3.4.8 5.2.2 1.7.3 3.5.3 5.3s-.1 3.6-.3 5.3c-.2 1.7-.4 3.5-.8 5.2s-.8 3.4-1.3 5-1.1 3.2-1.7 4.8-1.4 3.1-2.2 4.5c-.8 1.5-1.7 2.9-2.6 4.3s-1.9 2.7-3 4c-1.1 1.3-2.2 2.5-3.4 3.7s-2.4 2.3-3.7 3.4c-1.3 1.1-2.6 2.1-4 3s-2.8 1.8-4.3 2.6-3 1.5-4.5 2.2-3.1 1.2-4.8 1.7-3.3.9-5 1.3-3.4.6-5.2.8c-1.7.2-3.5.3-5.3.3s-3.6-.1-5.3-.3c-1.7-.2-3.5-.4-5.2-.8-1.7-.3-3.4-.8-5-1.3s-3.2-1.1-4.8-1.7-3.1-1.4-4.5-2.2c-1.5-.8-2.9-1.7-4.3-2.6s-2.7-1.9-4-3c-1.3-1.1-2.5-2.2-3.7-3.4-1.2-1.2-2.3-2.4-3.4-3.7s-2.1-2.6-3-4-1.8-2.8-2.6-4.3-1.5-3-2.2-4.5c-.7-1.6-1.2-3.1-1.7-4.8s-.9-3.3-1.3-5c-.3-1.7-.6-3.4-.8-5.2-.1-1.7-.2-3.5-.2-5.3s.1-3.6.3-5.3c.2-1.7.4-3.5.8-5.2.3-1.7.8-3.4 1.3-5s1.1-3.2 1.7-4.8c.7-1.6 1.4-3.1 2.2-4.5s1.7-2.9 2.6-4.3c.9-1.4 1.9-2.7 3-4s2.2-2.5 3.4-3.7c1.2-1.2 2.4-2.3 3.7-3.4 1.3-1.1 2.6-2.1 4-3 1.4-.9 2.8-1.8 4.3-2.6s3-1.5 4.5-2.2c1.6-.7 3.1-1.2 4.8-1.7"
    class="iconic-power-standby-circle iconic-property-stroke" fill="none" />
    <path stroke="#000" stroke-width="8" stroke-linecap="square" stroke-miterlimit="10" class="iconic-power-standby-line iconic-property-accent iconic-property-stroke" d="M56 4v32" fill="none" />
  </g>
  <g data-width="27" data-height="31" class="iconic-container iconic-md" display="none" transform="scale(4) translate(2)">
    <path stroke="#000" stroke-width="3" stroke-miterlimit="10" d="M18.2 6.4c1.4.7 2.7 1.5 3.8 2.6s2 2.4 2.6 3.8.9 3 .9 4.7-.3 3.2-.9 4.7c-.6 1.4-1.5 2.7-2.6 3.8s-2.4 2-3.8 2.6c-1.4.6-3 .9-4.7.9s-3.2-.3-4.7-.9-2.7-1.5-3.8-2.6-2-2.4-2.6-3.8c-.6-1.4-.9-3-.9-4.7s.3-3.2.9-4.7 1.5-2.7 2.6-3.8 2.4-2 3.8-2.6"
    class="iconic-power-standby-circle iconic-property-stroke" fill="none" />
    <path stroke="#000" stroke-width="3" stroke-linecap="square" stroke-miterlimit="10" class="iconic-power-standby-line iconic-property-accent iconic-property-stroke" d="M13.5 1.5v9" fill="none" />
  </g>
  <g data-width="14" data-height="15" class="iconic-container iconic-sm" display="none" transform="scale(8) translate(1)">
    <path stroke="#000" stroke-width="2" stroke-miterlimit="10" d="M10.7 3.3c1.4 1.1 2.3 2.8 2.3 4.7 0 3.3-2.7 6-6 6s-6-2.7-6-6c0-1.9.9-3.6 2.3-4.7" class="iconic-power-standby-circle iconic-property-stroke" fill="none" />
    <path stroke="#000" stroke-width="2" stroke-linecap="square" stroke-miterlimit="10" class="iconic-power-standby-line iconic-property-accent iconic-property-stroke" d="M7 1v5" fill="none" />
  </g>
</svg>