<svg version="1.1" xmlns="http://www.w3.org/2000/svg" data-icon="puzzle-piece" width="128" height="128" class="iconic iconic-puzzle-piece" viewBox="0 0 128 128">
  <g class="iconic-metadata">
    <title>Puzzle Piece</title>
  </g>
  <g data-width="128" data-height="128" class="iconic-container iconic-lg" display="inline">
    <path d="M116 70c-2.7 0-5.1 1.2-7.3 2.5-.1.1-7.1 4.5-7.1 4.5-.9.6-2.6 1.1-3.7 1.1-3.3 0-6-2.7-6-6v-35.1c0-.5-.5-1-1-1h-34.9c-3.3 0-6-2.7-6-6 0-1.1.5-2.8 1.1-3.7 0 0 4.4-7 4.5-7.1 1.3-2.2 2.5-4.5 2.5-7.3 0-6.6-5.4-12-12-12s-12 5.4-12 12c0 2.7 1.2 5.1 2.5 7.3.1.1 4.5 7.1 4.5 7.1.6.9 1.1 2.6 1.1 3.7 0 3.3-2.7 6-6 6h-35.2c-.5 0-1 .5-1 1v90c0 .5.5 1 1 1h35c3.3 0 6-2.7 6-6 0-1.1-.5-2.8-1.1-3.7 0 0-4.4-7-4.5-7.1-1.3-2.2-2.5-4.5-2.5-7.3 0-6.6 5.4-12 12-12s12 5.4 12 12c0 2.7-1.2 5.1-2.5 7.3-.1.1-4.5 7.1-4.5 7.1-.6.9-1.1 2.6-1.1 3.7 0 3.3 2.7 6 6 6h35c.5 0 1-.5 1-1v-35c0-3.3 2.7-6 6-6 1.1 0 2.8.5 3.7 1.1 0 0 7 4.4 7.1 4.5 2.2 1.3 4.5 2.5 7.3 2.5 6.6 0 12-5.4 12-12 .1-6.7-5.3-12.1-11.9-12.1z"
    class="iconic-property-fill" />
  </g>
  <g data-width="32" data-height="32" class="iconic-container iconic-md" display="none" transform="scale(4)">
    <path class="iconic-property-fill" d="M18 20v4" />
    <path d="M29 18c-.7 0-1.3.3-1.8.6 0 0-1.8 1.1-1.8 1.1-.2.1-.6.3-.9.3h-.5c-1.1 0-2-.9-2-2v-7.5c0-.3-.2-.5-.5-.5h-7.5c-1.1 0-2-.9-2-2v-.5c0-.3.1-.7.3-.9 0 0 1.1-1.7 1.1-1.8.3-.5.6-1.1.6-1.8 0-1.7-1.3-3-3-3s-3 1.3-3 3c0 .7.3 1.3.6 1.8 0 0 1.1 1.8 1.1 1.8.2.2.3.6.3.9v.5c0 1.1-.9 2-2 2h-7.5c-.3 0-.5.2-.5.5v21c0 .3.2.5.5.5h7.5c1.1 0 2-.9 2-2v-.5c0-.3-.1-.7-.3-.9 0 0-1.1-1.7-1.1-1.8-.3-.5-.6-1.1-.6-1.8 0-1.7 1.3-3 3-3s3 1.3 3 3c0 .7-.3 1.3-.6 1.8 0 0-1.1 1.8-1.1 1.8-.1.2-.3.6-.3.9v.5c0 1.1.9 2 2 2h7.5c.3 0 .5-.2.5-.5v-7.5c0-1.1.9-2 2-2h.5c.3 0 .7.1.9.3 0 0 1.7 1.1 1.8 1.1.6.3 1.1.6 1.8.6 1.7 0 3-1.3 3-3s-1.3-3-3-3z"
    class="iconic-property-fill" />
  </g>
  <g data-width="16" data-height="16" class="iconic-container iconic-sm" display="none" transform="scale(8)">
    <path d="M14 9c-.5 0-1 .2-1.4.5 0 0-.2.2-.2.2-.2.2-.6.3-.9.3h-.5c-.6 0-1-.4-1-1v-3h-3c-.6 0-1-.4-1-1v-.5c0-.3.1-.7.3-.9 0 0 .2-.2.2-.2.3-.4.5-.9.5-1.4 0-1.1-.9-2-2-2s-2 .9-2 2c0 .5.2 1 .5 1.4 0 0 .2.2.2.2.2.2.3.6.3.9v.5c0 .6-.4 1-1 1h-3v10h3c.6 0 1-.4 1-1v-.5c0-.3-.1-.7-.3-.9 0 0-.2-.2-.2-.2-.3-.4-.5-.9-.5-1.4 0-1.1.9-2 2-2s2 .9 2 2c0 .5-.2 1-.5 1.4 0 0-.2.2-.2.2-.2.2-.3.6-.3.9v.5c0 .6.4 1 1 1h3v-3c0-.6.4-1 1-1h.5c.3 0 .7.1.9.3 0 0 .2.2.2.2.4.2.9.5 1.4.5 1.1 0 2-.9 2-2s-.9-2-2-2z"
    class="iconic-property-fill" />
  </g>
</svg>