<svg version="1.1" xmlns="http://www.w3.org/2000/svg" data-icon="question-mark" width="128" height="128" class="iconic iconic-question-mark" viewBox="0 0 128 128">
  <g class="iconic-metadata">
    <title>Question Mark</title>
  </g>
  <g data-width="76" data-height="128" class="iconic-container iconic-lg" display="inline" transform="translate(26)">
    <path stroke="#231F20" stroke-width="12" stroke-miterlimit="10" d="M38 104v-10c0-35 32-32 32-64 0-11.8-8-24-32-24-32 0-32 24-32 30v2" class="iconic-question-mark-curve iconic-property-stroke" fill="none" />
    <path class="iconic-question-mark-dot iconic-property-fill" d="M32 116h12v12h-12z" />
  </g>
  <g data-width="20" data-height="32" class="iconic-container iconic-md" display="none" transform="scale(4) translate(6)">
    <path stroke="#231F20" stroke-width="4" stroke-miterlimit="10" d="M2 10c0-2 0-8 8-8 6 0 8 3.1 8 6 0 8-8 7.2-8 16v1" class="iconic-question-mark-curve iconic-property-stroke" fill="none" />
    <path class="iconic-question-mark-dot iconic-property-fill" d="M8 28h4v4h-4z" />
  </g>
  <g data-width="10" data-height="16" class="iconic-container iconic-sm" display="none" transform="scale(8) translate(3)">
    <path stroke="#231F20" stroke-width="2" stroke-miterlimit="10" d="M1 5c0-1 0-4 4-4 3 0 4 1.5 4 3 0 4-4 3.5-4 7.5v.5" class="iconic-question-mark-curve iconic-property-stroke" fill="none" />
    <path class="iconic-question-mark-dot iconic-property-fill" d="M4 14h2v2h-2z" />
  </g>
</svg>