<svg version="1.1" xmlns="http://www.w3.org/2000/svg" data-icon="rainy" width="128" height="128" class="iconic iconic-rainy" viewBox="0 0 128 128">
  <g class="iconic-metadata">
    <title>Rainy</title>
  </g>
  <defs>
    <clipPath id="iconic-size-lg-rainy-clip-0">
      <path d="M0 0v86h30v-2c0-4.4 3.6-8 8-8 1.5 0 2.8.4 4 1.1v-1.1c0-4.4 3.6-8 8-8s8 3.6 8 8v1.1c1.2-.7 2.5-1.1 4-1.1s2.8.4 4 1.1v-1.1c0-4.4 3.6-8 8-8s8 3.6 8 8v.3c.6-.2 1.3-.3 2-.3 4.4 0 8 3.6 8 8v2h36v-86h-128z" />
    </clipPath>
    <clipPath id="iconic-size-md-rainy-clip-0">
      <path d="M0 0v22h7v-.5c0-1.4 1.1-2.5 2.5-2.5.2 0 .4 0 .5.1.2-1.2 1.2-2.1 2.5-2.1s2.2.9 2.5 2.1c.2 0 .4-.1.5-.1s.4 0 .5.1c.2-1.2 1.2-2.1 2.5-2.1s2.2.9 2.5 2.1c.2 0 .4-.1.5-.1 1.4 0 2.5 1.1 2.5 2.5v.5h8v-22h-32z" />
    </clipPath>
    <clipPath id="iconic-size-sm-rainy-clip-0">
      <path d="M0 0v12h4v-1.5c0-.8.7-1.5 1.5-1.5s1.5.7 1.5 1.5v-1c0-.8.7-1.5 1.5-1.5s1.5.7 1.5 1.5v1c0-.8.7-1.5 1.5-1.5s1.5.7 1.5 1.5v1.5h3v-12h-16z" />
    </clipPath>
  </defs>
  <g data-width="128" data-height="114" class="iconic-container iconic-lg" display="inline" transform="translate(0 7)">
    <path stroke="#000" stroke-width="4" stroke-linecap="round" class="iconic-rainy-rain-droplet iconic-rainy-rain-droplet-5 iconic-property-accent iconic-property-stroke" d="M38 84v22" fill="none" />
    <path stroke="#000" stroke-width="4" stroke-linecap="round" class="iconic-rainy-rain-droplet iconic-rainy-rain-droplet-4 iconic-property-accent iconic-property-stroke" d="M50 76v36" fill="none" />
    <path stroke="#000" stroke-width="4" stroke-linecap="round" class="iconic-rainy-rain-droplet iconic-rainy-rain-droplet-3 iconic-property-accent iconic-property-stroke" d="M62 84v24" fill="none" />
    <path stroke="#000" stroke-width="4" stroke-linecap="round" class="iconic-rainy-rain-droplet iconic-rainy-rain-droplet-2 iconic-property-accent iconic-property-stroke" d="M74 76v36" fill="none" />
    <path stroke="#000" stroke-width="4" stroke-linecap="round" class="iconic-rainy-rain-droplet iconic-rainy-rain-droplet-1 iconic-property-accent iconic-property-stroke" d="M84 84v22" fill="none" />
    <path d="M110 86c9.9 0 18-8.1 18-18s-8.1-18-18-18c-.7 0-1.3-.1-2 0-.9-8.4-7.6-15.1-16-16-1-19-16.8-34-36-34-18.8 0-34.4 14.6-36 33-11.6 3-20 13.5-20 26 0 14.6 11.6 26.5 26 27h84z" clip-path="url(#iconic-size-lg-rainy-clip-0)" class="iconic-rainy-cloud iconic-property-fill"
    />
  </g>
  <g data-width="32" data-height="28" class="iconic-container iconic-md" display="none" transform="scale(4) translate(0 2)">
    <path stroke="#000" stroke-linecap="round" class="iconic-rainy-rain-droplet iconic-rainy-rain-droplet-5 iconic-property-accent iconic-property-stroke" d="M9.5 21.5v5" fill="none" />
    <path stroke="#000" stroke-linecap="round" class="iconic-rainy-rain-droplet iconic-rainy-rain-droplet-4 iconic-property-accent iconic-property-stroke" d="M12.5 19.5v8" fill="none" />
    <path stroke="#000" stroke-linecap="round" class="iconic-rainy-rain-droplet iconic-rainy-rain-droplet-3 iconic-property-accent iconic-property-stroke" d="M15.5 21.5v5" fill="none" />
    <path stroke="#000" stroke-linecap="round" class="iconic-rainy-rain-droplet iconic-rainy-rain-droplet-2 iconic-property-accent iconic-property-stroke" d="M18.5 19.5v8" fill="none" />
    <path stroke="#000" stroke-linecap="round" class="iconic-rainy-rain-droplet iconic-rainy-rain-droplet-1 iconic-property-accent iconic-property-stroke" d="M21.5 21.5v5" fill="none" />
    <path d="M27 12c-.4-2-2.1-3.5-4-3.9-.5-4.5-4.3-8.1-9-8.1s-8.6 3.4-9 8c-2.9.9-5 3.8-5 7 0 3.5 2.6 6.5 6 7 4.3 0 20.9 0 21 0 2.8 0 5-2.2 5-5s-2.2-5-5-5z" clip-path="url(#iconic-size-md-rainy-clip-0)" class="iconic-rainy-cloud iconic-property-fill" />
  </g>
  <g data-width="16" data-height="15" class="iconic-container iconic-sm" display="none" transform="scale(8)">
    <path d="M13 6v-1c0-2.8-2.2-5-5-5-2.5 0-4.5 1.8-4.9 4.1-1.8.4-3.1 2-3.1 3.9 0 2.2 1.8 4 4 4h9c1.7 0 3-1.3 3-3s-1.3-3-3-3z" clip-path="url(#iconic-size-sm-rainy-clip-0)" class="iconic-rainy-cloud iconic-property-fill" />
    <path stroke="#000" stroke-linecap="round" class="iconic-rainy-rain-droplet iconic-rainy-rain-droplet-3 iconic-property-accent iconic-property-stroke" d="M11.5 10.5v4" fill="none" />
    <path stroke="#000" stroke-linecap="round" class="iconic-rainy-rain-droplet iconic-rainy-rain-droplet-2 iconic-property-accent iconic-property-stroke" d="M8.5 9.5v4" fill="none" />
    <path stroke="#000" stroke-linecap="round" class="iconic-rainy-rain-droplet iconic-rainy-rain-droplet-1 iconic-property-accent iconic-property-stroke" d="M5.5 10.5v4" fill="none" />
  </g>
</svg>