<svg version="1.1" xmlns="http://www.w3.org/2000/svg" data-icon="random" width="128" height="128" class="iconic iconic-random" viewBox="0 0 128 128">
  <g class="iconic-metadata">
    <title>Random</title>
  </g>
  <defs>
    <clipPath id="iconic-size-lg-random-clip-0">
      <path d="M0 0v98h128v-98h-128zm60 68l-22-22 14-14 21.8 21.9-13.8 14.1z" />
    </clipPath>
    <clipPath id="iconic-size-md-random-clip-0">
      <path d="M0 0v25h32v-25h-32zm15 18l-6-6 5-5 6 6-5 5z" />
    </clipPath>
    <clipPath id="iconic-size-sm-random-clip-0">
      <path d="M0 0v14h16v-14h-16zm5.5 10.5l-3-3 4.5-4.5 3 3-4.5 4.5z" />
    </clipPath>
  </defs>
  <g data-width="128" data-height="98" class="iconic-container iconic-lg" display="inline" transform="translate(0 15)">
    <path stroke="#000" stroke-width="8" stroke-linecap="square" stroke-miterlimit="10" d="M108 82h-17c-1.7 0-3.9-.9-5.1-2.1l-59.8-59.8c-1.2-1.2-3.4-2.1-5.1-2.1h-17" class="iconic-random-line iconic-random-line-bottom iconic-property-stroke" fill="none"
    />
    <path stroke="#000" stroke-width="8" stroke-linecap="square" stroke-miterlimit="10" d="M108 18h-17c-1.7 0-3.9.9-5.1 2.1l-59.8 59.8c-1.2 1.2-3.4 2.1-5.1 2.1h-17" clip-path="url(#iconic-size-lg-random-clip-0)" class="iconic-random-line iconic-random-line-top iconic-property-accent iconic-property-stroke"
    fill="none" />
    <path d="M126.7 81.2l-21.4-12.5c-.7-.4-1.3-.1-1.3.7v25c0 .8.6 1.2 1.3.7l21.4-12.5c.7-.3.7-.9 0-1.4z" class="iconic-random-arrowhead iconic-random-arrowhead-bottom iconic-property-fill" />
    <path d="M126.7 17.2l-21.4-12.4c-.7-.4-1.3-.1-1.3.7v25c0 .8.6 1.2 1.3.7l21.4-12.5c.7-.4.7-1 0-1.5z" class="iconic-random-arrowhead iconic-random-arrowhead-top iconic-property-accent iconic-property-fill" />
  </g>
  <g data-width="32" data-height="25" class="iconic-container iconic-md" display="none" transform="scale(4) translate(0 3)">
    <path stroke="#000" stroke-width="3" stroke-linecap="square" stroke-miterlimit="10" d="M27.5 20.5h-4c-.6 0-1.3-.3-1.7-.7l-14.6-14.6c-.4-.4-1.1-.7-1.7-.7h-4" class="iconic-random-line iconic-random-line-bottom iconic-property-stroke" fill="none" />
    <path clip-path="url(#iconic-size-md-random-clip-0)" stroke="#000" stroke-width="3" stroke-linecap="square" stroke-miterlimit="10" d="M27.5 4.5h-4c-.6 0-1.3.3-1.7.7l-14.6 14.6c-.4.4-1.2.7-1.7.7h-4" class="iconic-random-line iconic-random-line-top iconic-property-accent iconic-property-stroke"
    fill="none" />
    <path d="M31.6 20.8l-5.2 3.9c-.2.2-.4.1-.4-.2v-8c0-.3.2-.4.4-.2l5.2 3.9c.2.2.2.4 0 .6z" class="iconic-random-arrowhead iconic-random-arrowhead-bottom iconic-property-fill" />
    <path d="M31.6 4.8l-5.2 3.9c-.2.2-.4.1-.4-.2v-8c0-.3.2-.4.4-.2l5.2 3.9c.2.2.2.4 0 .6z" class="iconic-random-arrowhead iconic-random-arrowhead-top iconic-property-accent iconic-property-fill" />
  </g>
  <g data-width="16" data-height="14" class="iconic-container iconic-sm" display="none" transform="scale(8) translate(0 1)">
    <path stroke="#000" stroke-width="2" stroke-linecap="square" stroke-miterlimit="10" d="M14 11h-3c-.3 0-.7-.2-.9-.4l-7.2-7.2c-.2-.2-.6-.4-.9-.4h-1" class="iconic-random-line iconic-random-line-bottom iconic-property-stroke" fill="none" />
    <path clip-path="url(#iconic-size-sm-random-clip-0)" stroke="#000" stroke-width="2" stroke-linecap="square" stroke-miterlimit="10" d="M14 3h-3c-.3 0-.7.2-.9.4l-7.3 7.3c-.1.1-.5.3-.8.3h-1" class="iconic-random-line iconic-random-line-top iconic-property-accent iconic-property-stroke"
    fill="none" />
    <path class="iconic-random-arrowhead iconic-random-arrowhead-top iconic-property-accent iconic-property-fill" d="M16 3l-3-3v6z" />
    <path class="iconic-random-arrowhead iconic-random-arrowhead-bottom iconic-property-fill" d="M16 11l-3-3v6z" />
  </g>
</svg>