<svg version="1.1" xmlns="http://www.w3.org/2000/svg" data-icon="reload" width="128" height="128" class="iconic iconic-reload" viewBox="0 0 128 128">
  <g class="iconic-metadata">
    <title>Reload</title>
  </g>
  <g data-width="128" data-height="127" class="iconic-container iconic-lg" display="inline">
    <path stroke="#000" stroke-width="8" stroke-miterlimit="10" d="M124 64c0 22.5-13.1 43.6-33.2 53.7-20.8 10.4-46.4 7.6-64.4-7-17.8-14.3-26-38-20.9-60.1 5-22 22.6-39.7 44.5-45 20.1-4.8 41.7 1.3 56.4 15.9" class="iconic-reload-line iconic-property-stroke"
    fill="none" />
    <path d="M121.6 36.4l-5.4-24.9c-.2-.8-.8-1-1.4-.4l-19.8 19.9c-.6.6-.4 1.2.4 1.4l25.1 5.3c.8.1 1.3-.5 1.1-1.3z" class="iconic-reload-arrowhead iconic-property-fill" />
  </g>
  <g data-width="32" data-height="32" class="iconic-container iconic-md" display="none" transform="scale(4)">
    <path stroke="#000" stroke-width="3" stroke-miterlimit="10" d="M30.5 16c0 5.3-3 10.3-7.7 12.8-4.8 2.5-10.8 2.2-15.2-1-4.4-3.1-6.7-8.5-6-13.8.7-5.2 4.4-9.8 9.3-11.6 5.3-2 11.3-.6 15.3 3.3" class="iconic-reload-line iconic-property-stroke" fill="none"
    />
    <path d="M29.5 9.9l-6-.9c-.3 0-.3-.2-.1-.4l5.3-5.3c.2-.2.4-.1.4.1l.9 6c0 .4-.2.6-.5.5z" class="iconic-reload-arrowhead iconic-property-fill" />
  </g>
  <g data-width="16" data-height="16" class="iconic-container iconic-sm" display="none" transform="scale(8)">
    <path stroke="#000" stroke-width="2" stroke-miterlimit="10" d="M15 8c0 3.2-2.3 6.1-5.4 6.8-3.3.7-6.7-1-8-4.1-1.3-3-.3-6.5 2.4-8.4 2.7-1.9 6.6-1.6 9 .8" class="iconic-reload-line iconic-property-stroke" fill="none" />
    <path class="iconic-reload-arrowhead iconic-property-fill" d="M16 0v6h-6z" />
  </g>
</svg>