<svg version="1.1" xmlns="http://www.w3.org/2000/svg" data-icon="rss-alt" width="128" height="128" class="iconic iconic-rss-alt" viewBox="0 0 128 128">
  <g class="iconic-metadata">
    <title>Rss Alt</title>
  </g>
  <g data-width="128" data-height="128" class="iconic-container iconic-lg" display="inline">
    <path d="M24 128c0-13.3-10.7-24-24-24v24h24z" class="iconic-rss-alt-center iconic-property-accent iconic-property-fill" />
    <path stroke="#000" stroke-width="20" stroke-miterlimit="10" d="M66 128c0-36.5-29.5-66-66-66" class="iconic-rss-alt-wave iconic-rss-alt-wave-inner iconic-property-stroke" fill="none" />
    <path stroke="#000" stroke-width="20" stroke-miterlimit="10" d="M118 128c0-65.2-52.8-118-118-118" class="iconic-rss-alt-wave iconic-rss-alt-wave-outer iconic-property-stroke" fill="none" />
  </g>
  <g data-width="32" data-height="32" class="iconic-container iconic-md" display="none" transform="scale(4)">
    <path d="M6 32c0-3.3-2.7-6-6-6v6h6z" class="iconic-rss-alt-center iconic-property-accent iconic-property-fill" />
    <path stroke="#000" stroke-width="5" stroke-miterlimit="10" d="M0 15.5c9.1 0 16.5 7.4 16.5 16.5" class="iconic-rss-alt-wave iconic-rss-alt-wave-inner iconic-property-stroke" fill="none" />
    <path stroke="#000" stroke-width="5" stroke-miterlimit="10" d="M0 2.5c16.3 0 29.5 13.2 29.5 29.5" class="iconic-rss-alt-wave iconic-rss-alt-wave-outer iconic-property-stroke" fill="none" />
  </g>
  <g data-width="16" data-height="16" class="iconic-container iconic-sm" display="none" transform="scale(8)">
    <path d="M0 12c2.2 0 4 1.8 4 4h-4v-4z" class="iconic-rss-alt-center iconic-property-accent iconic-property-fill" />
    <path stroke="#000" stroke-width="3" stroke-miterlimit="10" d="M0 7.5c4.7 0 8.5 3.8 8.5 8.5" class="iconic-rss-alt-wave iconic-rss-alt-wave-inner iconic-property-stroke" fill="none" />
    <path stroke="#000" stroke-width="3" stroke-miterlimit="10" d="M0 1.5c8 0 14.5 6.5 14.5 14.5" class="iconic-rss-alt-wave iconic-rss-alt-wave-outer iconic-property-stroke" fill="none" />
  </g>
</svg>