<svg version="1.1" xmlns="http://www.w3.org/2000/svg" data-icon="rss" width="128" height="128" class="iconic iconic-rss" viewBox="0 0 128 128">
  <g class="iconic-metadata">
    <title>Rss</title>
  </g>
  <g data-width="108" data-height="108" class="iconic-container iconic-lg" display="inline" transform="translate(10 10)">
    <path d="M24 96c0 6.6-5.4 12-12 12s-12-5.4-12-12 5.4-12 12-12 12 5.4 12 12z" class="iconic-rss-center iconic-property-accent iconic-property-fill" />
    <path stroke="#000" stroke-width="8" stroke-miterlimit="10" d="M12 60c19.9 0 36 16.1 36 36" class="iconic-rss-wave iconic-rss-wave-inner iconic-property-stroke" fill="none" />
    <path stroke="#000" stroke-width="8" stroke-miterlimit="10" d="M12 32c35.3 0 64 28.7 64 64" class="iconic-rss-wave iconic-rss-wave-middle iconic-property-stroke" fill="none" />
    <path stroke="#000" stroke-width="8" stroke-miterlimit="10" d="M12 4c50.8 0 92 41.2 92 92" class="iconic-rss-wave iconic-rss-wave-outer iconic-property-stroke" fill="none" />
  </g>
  <g data-width="32" data-height="32" class="iconic-container iconic-md" display="none" transform="scale(4)">
    <circle cx="3" cy="29" r="3" class="iconic-rss-center iconic-property-accent iconic-property-fill" />
    <path stroke="#000" stroke-width="3" stroke-miterlimit="10" d="M4 19.5c4.7 0 8.5 3.8 8.5 8.5" class="iconic-rss-wave iconic-rss-wave-inner iconic-property-stroke" fill="none" />
    <path stroke="#000" stroke-width="3" stroke-miterlimit="10" d="M4 10.5c9.7 0 17.5 7.8 17.5 17.5" class="iconic-rss-wave iconic-rss-wave-middle iconic-property-stroke" fill="none" />
    <path stroke="#000" stroke-width="3" stroke-miterlimit="10" d="M4 1.5c14.6 0 26.5 11.9 26.5 26.5" class="iconic-rss-wave iconic-rss-wave-outer iconic-property-stroke" fill="none" />
  </g>
  <g data-width="16" data-height="16" class="iconic-container iconic-sm" display="none" transform="scale(8)">
    <circle cx="2" cy="14" r="2" class="iconic-rss-center iconic-property-accent iconic-property-fill" />
    <path stroke="#000" stroke-width="2" stroke-miterlimit="10" d="M2 9c2.8 0 5 2.2 5 5" class="iconic-rss-wave iconic-rss-wave-inner iconic-property-stroke" fill="none" />
    <path stroke="#000" stroke-width="2" stroke-miterlimit="10" d="M2 5c5 0 9 4 9 9" class="iconic-rss-wave iconic-rss-wave-middle iconic-property-stroke" fill="none" />
    <path stroke="#000" stroke-width="2" stroke-miterlimit="10" d="M2 1c7.2 0 13 5.8 13 13" class="iconic-rss-wave iconic-rss-wave-outer iconic-property-stroke" fill="none" />
  </g>
</svg>