<svg version="1.1" xmlns="http://www.w3.org/2000/svg" data-icon="screwdriver" width="128" height="128" class="iconic iconic-screwdriver" viewBox="0 0 128 128">
  <g class="iconic-metadata">
    <title>Screwdriver</title>
  </g>
  <g data-width="128" data-height="128" class="iconic-container iconic-lg" display="inline">
    <path class="iconic-screwdriver-head iconic-property-fill" d="M107.9 16.1l-57.5 57.5 4 4 57.5-57.5 8-2 8.1-14.1-4-4-14.1 8.1z" />
    <path d="M20 124l36-36v-4l2-2h2l2-2-14-14-2 2v2l-2 2h-4l-36 36c-2.5 2.1-4 5.2-4 8.6 0 6.3 5.1 11.3 11.3 11.3 3.5.1 6.6-1.5 8.7-3.9zm-13.7-12.3c-.2-.2-.3-.4-.3-.7s.1-.5.3-.7l34-34c.4-.4 1-.4 1.4 0s.4 1 0 1.4l-34 34c-.4.4-1 .4-1.4 0zm4 6c-.2-.2-.3-.5-.3-.7s.1-.5.3-.7l34-34c.4-.4 1-.4 1.4 0s.4 1 0 1.4l-34 34c-.4.4-1 .4-1.4 0zm6 4c-.2-.2-.3-.5-.3-.7s.1-.5.3-.7l34-34c.4-.4 1-.4 1.4 0s.4 1 0 1.4l-34 34c-.4.4-1 .4-1.4 0z"
    class="iconic-screwdriver-handle iconic-property-fill" />
  </g>
  <g data-width="32" data-height="32" class="iconic-container iconic-md" display="none" transform="scale(4)">
    <path class="iconic-screwdriver-head iconic-property-fill" d="M27 4l-16 16 1 1 16-16 2-1 2-3-1-1-3 2z" />
    <path d="M5 31l9-9v-1l1-1-3-3-1 1h-1l-9 9c-.6.5-1 1.3-1 2.2 0 1.5 1.3 2.8 2.8 2.8.9 0 1.7-.4 2.2-1z" class="iconic-screwdriver-handle iconic-property-fill" />
  </g>
  <g data-width="15" data-height="16" class="iconic-container iconic-sm" display="none" transform="scale(8)">
    <path class="iconic-screwdriver-head iconic-property-fill" d="M10.9 4l-6 6 1 1 6-6h2l2-4-1-1-4 2z" />
    <path d="M5 8.1l-4.4 4.5c-.8.8-.8 2 0 2.8.8.8 2 .8 2.8 0l4.5-4.4.1-1-2-2-1 .1z" class="iconic-screwdriver-handle iconic-property-fill" />
  </g>
</svg>