<svg version="1.1" xmlns="http://www.w3.org/2000/svg" data-icon="script" width="128" height="128" class="iconic iconic-script" viewBox="0 0 128 128">
  <g class="iconic-metadata">
    <title>Script</title>
  </g>
  <defs>
    <clipPath id="iconic-size-lg-script-clip-0">
      <path d="M0 0v128h104v-128h-104zm8 119c0 .6-.4 1-1 1s-1-.4-1-1v-43c0-.6.4-1 1-1s1 .4 1 1v43zm92-83h-86v-27c0-.6.4-1 1-1s1 .4 1 1v25h84c.6 0 1 .4 1 1s-.4 1-1 1z" />
    </clipPath>
    <clipPath id="iconic-size-md-script-clip-0">
      <path d="M0 0v32h29v-32h-29zm4 28.5c0 .3-.2.5-.5.5s-.5-.2-.5-.5v-9.5c0-.3.2-.5.5-.5s.5.2.5.5v9.5zm23-19.5h-21v-5.5c0-.3.2-.5.5-.5s.5.2.5.5v4.5h20c.3 0 .5.2.5.5s-.2.5-.5.5z" />
    </clipPath>
    <clipPath id="iconic-size-sm-script-clip-0">
      <path d="M0 0v16h15v-16h-15zm2 13.5c0 .3-.2.5-.5.5s-.5-.2-.5-.5v-4c0-.3.2-.5.5-.5s.5.2.5.5v4zm11.5-7.5h-10.5v-3.5c0-.3.2-.5.5-.5s.5.2.5.5v2.5h9.5c.3 0 .5.2.5.5s-.2.5-.5.5z" />
    </clipPath>
  </defs>
  <g data-width="104" data-height="128" class="iconic-container iconic-lg" display="inline" transform="translate(12)">
    <path clip-path="url(#iconic-size-lg-script-clip-0)" d="M96 0h-80c-4.4 0-8 3.6-8 8v86h-8v26c0 4.4 3.6 8 8 8h80c4.4 0 8-3.6 8-8v-86h8v-26c0-4.4-3.6-8-8-8z" class="iconic-script-body iconic-property-fill" />
  </g>
  <g data-width="29" data-height="32" class="iconic-container iconic-md" display="none" transform="scale(4) translate(1)">
    <path clip-path="url(#iconic-size-md-script-clip-0)" d="M26 0h-19c-1.7 0-3 1.3-3 3v20h-3v6c0 1.7 1.3 3 3 3h19c1.7 0 3-1.3 3-3v-21h3v-5c0-1.7-1.3-3-3-3z" class="iconic-script-body iconic-property-fill" />
  </g>
  <g data-width="15" data-height="16" class="iconic-container iconic-sm" display="none" transform="scale(8)">
    <path d="M13 0h-9c-1.1 0-2 .9-2 2v9h-2v3.1c.1 1 .9 1.9 2 1.9h9c1.1 0 2-.9 2-2v-9h2v-3c0-1.1-.9-2-2-2z" clip-path="url(#iconic-size-sm-script-clip-0)" class="iconic-script-body iconic-property-fill" />
  </g>
</svg>