<svg version="1.1" xmlns="http://www.w3.org/2000/svg" data-icon="settings" width="128" height="128" class="iconic iconic-settings" viewBox="0 0 128 128">
  <g class="iconic-metadata">
    <title>Settings</title>
  </g>
  <defs>
    <clipPath id="iconic-size-lg-settings-clip-0">
      <path d="M94 58.2c-9 0-16.2-7.3-16.2-16.2s7.2-16.2 16.2-16.2c8 0 14.7 5.9 16 13.5v-39.3h-110v30.3c2.7-5 8-8.3 14-8.3 8.8 0 16 7.2 16 16s-7.2 16-16 16c-6 0-11.3-3.3-14-8.3v82.3h110v-83.3c-1.3 7.7-8 13.5-16 13.5zm-40 51.8c-8.8 0-16-7.2-16-16s7.2-16 16-16 16 7.2 16 16-7.2 16-16 16z"
      />
    </clipPath>
    <clipPath id="iconic-size-md-settings-clip-0">
      <path d="M23.5 14c-2.5 0-4.5-2-4.5-4.5s2-4.5 4.5-4.5c1.4 0 2.7.7 3.5 1.7v-6.7h-27v6.7c.8-1 2.1-1.7 3.5-1.7 2.5 0 4.5 2 4.5 4.5s-2 4.5-4.5 4.5c-1.4 0-2.7-.7-3.5-1.7v19.7h27v-19.7c-.8 1-2.1 1.7-3.5 1.7zm-10 14c-2.5 0-4.5-2-4.5-4.5s2-4.5 4.5-4.5 4.5 2 4.5 4.5-2 4.5-4.5 4.5z"
      />
    </clipPath>
    <clipPath id="iconic-size-sm-settings-clip-0">
      <path d="M14 8c-1.7 0-3-1.3-3-3s1.3-3 3-3c.8 0 1.5.3 2 .8v-2.8h-16v2.8c.5-.5 1.2-.8 2-.8 1.7 0 3 1.3 3 3s-1.3 3-3 3c-.8 0-1.5-.3-2-.8v8.8h16v-8.8c-.5.5-1.2.8-2 .8zm-6 6c-1.7 0-3-1.3-3-3s1.3-3 3-3 3 1.3 3 3-1.3 3-3 3z" />
    </clipPath>
  </defs>
  <g data-width="110" data-height="128" class="iconic-container iconic-lg" display="inline" transform="translate(9)">
    <path stroke="#000" stroke-width="8" stroke-linecap="round" stroke-miterlimit="10" clip-path="url(#iconic-size-lg-settings-clip-0)" class="iconic-settings-line iconic-settings-line-1 iconic-property-accent iconic-property-stroke" d="M14 4v120" fill="none"
    />
    <path stroke="#000" stroke-width="8" stroke-linecap="round" stroke-miterlimit="10" clip-path="url(#iconic-size-lg-settings-clip-0)" class="iconic-settings-line iconic-settings-line-2 iconic-property-accent iconic-property-stroke" d="M54 4v120" fill="none"
    />
    <path stroke="#000" stroke-width="8" stroke-linecap="round" stroke-miterlimit="10" clip-path="url(#iconic-size-lg-settings-clip-0)" class="iconic-settings-line iconic-settings-line-3 iconic-property-accent iconic-property-stroke" d="M94 4v120" fill="none"
    />
    <path d="M94 28c-7.7 0-14 6.3-14 14s6.3 14 14 14 14-6.3 14-14-6.3-14-14-14z" class="iconic-settings-knob iconic-settings-knob-3 iconic-property-fill" />
    <path d="M54 80c-7.7 0-14 6.3-14 14s6.3 14 14 14 14-6.3 14-14-6.3-14-14-14z" class="iconic-settings-knob iconic-settings-knob-2 iconic-property-fill" />
    <path d="M14 24c-7.7 0-14 6.3-14 14s6.3 14 14 14 14-6.3 14-14-6.3-14-14-14z" class="iconic-settings-knob iconic-settings-knob-1 iconic-property-fill" />
  </g>
  <g data-width="27" data-height="32" class="iconic-container iconic-md" display="none" transform="scale(4) translate(2)">
    <path clip-path="url(#iconic-size-md-settings-clip-0)" stroke="#000" stroke-width="3" stroke-linecap="round" stroke-miterlimit="10" class="iconic-settings-line iconic-settings-line-1 iconic-property-accent iconic-property-stroke" d="M3.5 1.5v29" fill="none"
    />
    <path clip-path="url(#iconic-size-md-settings-clip-0)" stroke="#000" stroke-width="3" stroke-linecap="round" stroke-miterlimit="10" class="iconic-settings-line iconic-settings-line-2 iconic-property-accent iconic-property-stroke" d="M13.5 1.5v29"
    fill="none" />
    <path clip-path="url(#iconic-size-md-settings-clip-0)" stroke="#000" stroke-width="3" stroke-linecap="round" stroke-miterlimit="10" class="iconic-settings-line iconic-settings-line-3 iconic-property-accent iconic-property-stroke" d="M23.5 1.5v29"
    fill="none" />
    <path d="M23.5 6c-1.9 0-3.5 1.6-3.5 3.5s1.6 3.5 3.5 3.5 3.5-1.6 3.5-3.5-1.6-3.5-3.5-3.5z" class="iconic-settings-knob iconic-settings-knob-3 iconic-property-fill" />
    <path d="M13.5 20c-1.9 0-3.5 1.6-3.5 3.5s1.6 3.5 3.5 3.5 3.5-1.6 3.5-3.5-1.6-3.5-3.5-3.5z" class="iconic-settings-knob iconic-settings-knob-2 iconic-property-fill" />
    <path d="M3.5 6c-1.9 0-3.5 1.6-3.5 3.5s1.6 3.5 3.5 3.5 3.5-1.6 3.5-3.5-1.6-3.5-3.5-3.5z" class="iconic-settings-knob iconic-settings-knob-1 iconic-property-fill" />
  </g>
  <g data-width="16" data-height="16" class="iconic-container iconic-sm" display="none" transform="scale(8)">
    <path clip-path="url(#iconic-size-sm-settings-clip-0)" stroke="#000" stroke-width="2" stroke-linecap="round" stroke-miterlimit="10" class="iconic-settings-line iconic-settings-line-1 iconic-property-accent iconic-property-stroke" d="M2 1v14" fill="none"
    />
    <path clip-path="url(#iconic-size-sm-settings-clip-0)" stroke="#000" stroke-width="2" stroke-linecap="round" stroke-miterlimit="10" class="iconic-settings-line iconic-settings-line-2 iconic-property-accent iconic-property-stroke" d="M8 1v14" fill="none"
    />
    <path clip-path="url(#iconic-size-sm-settings-clip-0)" stroke="#000" stroke-width="2" stroke-linecap="round" stroke-miterlimit="10" class="iconic-settings-line iconic-settings-line-3 iconic-property-accent iconic-property-stroke" d="M14 1v14" fill="none"
    />
    <circle cx="2" cy="5" r="2" class="iconic-settings-knob iconic-settings-knob-1 iconic-property-fill" />
    <circle cx="8" cy="11" r="2" class="iconic-settings-knob iconic-settings-knob-2 iconic-property-fill" />
    <circle cx="14" cy="5" r="2" class="iconic-settings-knob iconic-settings-knob-3 iconic-property-fill" />
  </g>
</svg>