<svg version="1.1" xmlns="http://www.w3.org/2000/svg" data-icon="share-boxed" width="128" height="128" class="iconic iconic-share-boxed" viewBox="0 0 128 128">
  <g class="iconic-metadata">
    <title>Share Boxed</title>
  </g>
  <g data-width="128" data-height="112" class="iconic-container iconic-lg" display="inline" transform="translate(0 8)">
    <path stroke="#000" stroke-width="8" stroke-linecap="square" stroke-miterlimit="10" d="M108 56v49c0 1.7-1.3 3-3 3h-98c-1.7 0-3-1.3-3-3v-98c0-1.7 1.3-3 3-3h37" class="iconic-share-boxed-box iconic-property-accent iconic-property-stroke" fill="none" />
    <path d="M128 26l-32-20v8h-2c-54 0-78 24.9-78 72 8.2-31.8 26-48 66-48 7.7 0 11.9 0 14 0v8l32-20z" class="iconic-share-boxed-arrow iconic-property-fill" />
  </g>
  <g data-width="32" data-height="29" class="iconic-container iconic-md" display="none" transform="scale(4) translate(0 1)">
    <path stroke="#000" stroke-width="3" stroke-linecap="square" stroke-miterlimit="10" d="M27.5 17.5v9c0 .6-.4 1-1 1h-24c-.6 0-1-.4-1-1v-24c0-.6.4-1 1-1h8" class="iconic-share-boxed-box iconic-property-accent iconic-property-stroke" fill="none" />
    <path d="M32 7.3l-8-6.3v3c-13 0-18 6.2-18 18 2.1-7.9 8-12 16-12 .9 0 1.5 0 2 0v3l8-5.7z" class="iconic-share-boxed-arrow iconic-property-fill" />
  </g>
  <g data-width="16" data-height="14" class="iconic-container iconic-sm" display="none" transform="scale(8) translate(0 1)">
    <path stroke="#000" stroke-width="2" stroke-linecap="square" stroke-miterlimit="10" d="M13 11v1.5c0 .3-.2.5-.5.5h-11c-.3 0-.5-.2-.5-.5v-11c0-.3.2-.5.5-.5h3.5" class="iconic-share-boxed-box iconic-property-accent iconic-property-stroke" fill="none" />
    <path d="M16 4l-4-4v2c-4.4 0-8 3.6-8 8 0-2.2 3-4 5-4 1.2 0 2.3 0 3 0v2l4-4z" class="iconic-share-boxed-arrow iconic-property-fill" />
  </g>
</svg>