<svg version="1.1" xmlns="http://www.w3.org/2000/svg" data-icon="share" width="128" height="128" class="iconic iconic-share" viewBox="0 0 128 128">
  <g class="iconic-metadata">
    <title>Share</title>
  </g>
  <g data-width="128" data-height="80" class="iconic-container iconic-lg" display="inline" transform="translate(0 24)">
    <path d="M128 20l-32-20v8h-16c-64 0-80 24.9-80 72 8.2-31.8 28-48 68-48 16.4 0 25 0 28 0v8l32-20z" class="iconic-property-fill" />
  </g>
  <g data-width="32" data-height="21" class="iconic-container iconic-md" display="none" transform="scale(4) translate(0 5)">
    <path d="M32 6.3l-8-6.3v3h-4c-16 0-20 6.2-20 18 2.1-7.9 8-12 16-12 5.3 0 8 0 8 0v3l8-5.7z" class="iconic-property-fill" />
  </g>
  <g data-width="16" data-height="13" class="iconic-container iconic-sm" display="none" transform="scale(8) translate(0 1)">
    <path d="M16 5.7l-5-5.7v3h-1c-8 0-10 4.1-10 10 1-4 4-5 8-5 1.5 0 2.4 0 3 0v3l5-5.3z" class="iconic-property-fill" />
  </g>
</svg>