<svg version="1.1" xmlns="http://www.w3.org/2000/svg" data-icon="shield" width="128" height="128" class="iconic iconic-shield" viewBox="0 0 128 128">
  <g class="iconic-metadata">
    <title>Shield</title>
  </g>
  <g data-width="128" data-height="128" class="iconic-container iconic-lg" display="inline">
    <path d="M94.2 96.7c9.3-11.7 20.6-33.1 21.7-69.4l-51.9-14.8v103.7c5 0 17.8-4.1 30.2-19.5z" class="iconic-shield-shadow iconic-property-fill" />
    <path stroke="#000" stroke-width="8" stroke-miterlimit="10" d="M64 124.2c17.1 0 60-25.7 60-102.9l-60-17.1-60 17.1c0 77.1 42.9 102.9 60 102.9z" class="iconic-shield-rim iconic-property-stroke" fill="none" />
  </g>
  <g data-width="32" data-height="32" class="iconic-container iconic-md" display="none" transform="scale(4)">
    <path d="M16 30.6c4.1 0 14.5-6.4 14.5-25l-14.5-4v29z" class="iconic-shield-shadow iconic-property-fill" />
    <path stroke="#000" stroke-width="3" stroke-miterlimit="10" d="M16 30.6c4.1 0 14.5-6.4 14.5-25l-14.5-4-14.5 4c0 18.6 10.4 25 14.5 25z" class="iconic-shield-rim iconic-property-stroke" fill="none" />
  </g>
  <g data-width="16" data-height="16" class="iconic-container iconic-sm" display="none" transform="scale(8)">
    <path d="M8 15c2 0 7-3 7-12l-7-2v14z" class="iconic-shield-shadow iconic-property-fill" />
    <path stroke="#000" stroke-width="2" stroke-miterlimit="10" d="M8 15c2 0 7-3 7-12l-7-2-7 2c0 9 5 12 7 12z" class="iconic-shield-rim iconic-property-stroke" fill="none" />
  </g>
</svg>