<svg version="1.1" xmlns="http://www.w3.org/2000/svg" data-icon="spreadsheet" width="128" height="128" class="iconic iconic-spreadsheet" viewBox="0 0 128 128">
  <g class="iconic-metadata">
    <title>Spreadsheet</title>
  </g>
  <g data-width="128" data-height="104" class="iconic-container iconic-lg" display="inline" transform="translate(0 12)">
    <path stroke="#000" stroke-width="2" stroke-miterlimit="10" class="iconic-spreadsheet-column iconic-spreadsheet-column-2 iconic-property-accent iconic-property-stroke" d="M73 4v96.6" fill="none" />
    <path stroke="#000" stroke-width="2" stroke-miterlimit="10" class="iconic-spreadsheet-column iconic-spreadsheet-column-1 iconic-property-accent iconic-property-stroke" d="M25 4v96.6" fill="none" />
    <path stroke="#000" stroke-width="2" stroke-miterlimit="10" class="iconic-spreadsheet-row iconic-spreadsheet-row-4 iconic-property-accent iconic-property-stroke" d="M4 79h120" fill="none" />
    <path stroke="#000" stroke-width="2" stroke-miterlimit="10" class="iconic-spreadsheet-row iconic-spreadsheet-row-3 iconic-property-accent iconic-property-stroke" d="M4 61h120" fill="none" />
    <path stroke="#000" stroke-width="2" stroke-miterlimit="10" class="iconic-spreadsheet-row iconic-spreadsheet-row-2 iconic-property-accent iconic-property-stroke" d="M4 43h120" fill="none" />
    <path stroke="#000" stroke-width="2" stroke-miterlimit="10" class="iconic-spreadsheet-row iconic-spreadsheet-row-1 iconic-property-accent iconic-property-stroke" d="M4 25h120" fill="none" />
    <path d="M120 8v88h-112v-88h112m5-8h-122c-1.7 0-3 1.3-3 3v98c0 1.7 1.3 3 3 3h122c1.7 0 3-1.3 3-3v-98c0-1.7-1.3-3-3-3z" class="iconic-spreadsheet-frame iconic-property-fill" />
  </g>
  <g data-width="32" data-height="30" class="iconic-container iconic-md" display="none" transform="scale(4) translate(0 1)">
    <path stroke="#000" stroke-miterlimit="10" class="iconic-spreadsheet-column iconic-spreadsheet-column-2 iconic-property-accent iconic-property-stroke" d="M18.5 2v26" fill="none" />
    <path stroke="#000" stroke-miterlimit="10" class="iconic-spreadsheet-column iconic-spreadsheet-column-1 iconic-property-accent iconic-property-stroke" d="M7.5 1.5v27" fill="none" />
    <path stroke="#000" stroke-miterlimit="10" class="iconic-spreadsheet-row iconic-spreadsheet-row-4 iconic-property-accent iconic-property-stroke" d="M1.5 22.5h29" fill="none" />
    <path stroke="#000" stroke-miterlimit="10" class="iconic-spreadsheet-row iconic-spreadsheet-row-3 iconic-property-accent iconic-property-stroke" d="M1.5 17.5h29" fill="none" />
    <path stroke="#000" stroke-miterlimit="10" class="iconic-spreadsheet-row iconic-spreadsheet-row-2 iconic-property-accent iconic-property-stroke" d="M1.5 12.5h29" fill="none" />
    <path stroke="#000" stroke-miterlimit="10" class="iconic-spreadsheet-row iconic-spreadsheet-row-1 iconic-property-accent iconic-property-stroke" d="M1.5 7.5h29" fill="none" />
    <path d="M29 3v24h-26v-24h26m2-3h-30c-.6 0-1 .4-1 1v28c0 .6.4 1 1 1h30c.6 0 1-.4 1-1v-28c0-.6-.4-1-1-1z" class="iconic-spreadsheet-frame iconic-property-fill" />
  </g>
  <g data-width="16" data-height="15" class="iconic-container iconic-sm" display="none" transform="scale(8)">
    <path stroke="#000" stroke-miterlimit="10" class="iconic-spreadsheet-column iconic-spreadsheet-column-2 iconic-property-accent iconic-property-stroke" d="M9.5 2v12" fill="none" />
    <path stroke="#000" stroke-miterlimit="10" class="iconic-spreadsheet-column iconic-spreadsheet-column-1 iconic-property-accent iconic-property-stroke" d="M4.5 1v13" fill="none" />
    <path stroke="#000" stroke-miterlimit="10" class="iconic-spreadsheet-row iconic-spreadsheet-row-3 iconic-property-accent iconic-property-stroke" d="M1 10.5h14" fill="none" />
    <path stroke="#000" stroke-miterlimit="10" class="iconic-spreadsheet-row iconic-spreadsheet-row-2 iconic-property-accent iconic-property-stroke" d="M1 7.5h14" fill="none" />
    <path stroke="#000" stroke-miterlimit="10" class="iconic-spreadsheet-row iconic-spreadsheet-row-1 iconic-property-accent iconic-property-stroke" d="M1 4.5h14" fill="none" />
    <path d="M14 2v11h-12v-11h12m1.8-2h-15.6c-.1 0-.2.1-.2.2v14.5c0 .2.1.3.2.3h15.5c.1 0 .2-.1.2-.2v-14.6c.1-.1 0-.2-.1-.2z" class="iconic-spreadsheet-frame iconic-property-fill" />
  </g>
</svg>