<svg version="1.1" xmlns="http://www.w3.org/2000/svg" data-icon="star" width="128" height="128" class="iconic iconic-star" viewBox="0 0 128 128">
  <g class="iconic-metadata">
    <title>Star</title>
  </g>
  <g data-width="128" data-height="122" class="iconic-container iconic-lg" display="inline" transform="translate(0 3)">
    <path class="iconic-property-fill" d="M88.5 74.8l39.5-28.8h-48.9l-15.1-46-15.1 46h-48.9l39.5 28.8-15.5 47.2 40-29.2 40 29.2z" />
  </g>
  <g data-width="32" data-height="31" class="iconic-container iconic-md" display="none" transform="scale(4)">
    <path class="iconic-property-fill" d="M22.2 19.2l9.8-7.2h-12.1l-3.9-12-3.9 12h-12.1l9.8 7.2-3.8 11.8 10-7.3 10 7.3z" />
  </g>
  <g data-width="16" data-height="16" class="iconic-container iconic-sm" display="none" transform="scale(8)">
    <path class="iconic-property-fill" d="M11 10l5-4h-6l-2-6-2 6h-6l5 4-2 6 5-4 5 4z" />
  </g>
</svg>