<svg version="1.1" xmlns="http://www.w3.org/2000/svg" data-icon="sun" width="128" height="128" class="iconic iconic-sun" viewBox="0 0 128 128">
  <g class="iconic-metadata">
    <title>Sun</title>
  </g>
  <g data-width="128" data-height="128" class="iconic-container iconic-lg" display="inline">
    <path d="M64 30c-18.7 0-34 15.3-34 34s15.3 34 34 34 34-15.3 34-34-15.3-34-34-34z" class="iconic-property-fill" />
    <path stroke="#000" stroke-width="4" stroke-linecap="round" stroke-miterlimit="10" class="iconic-sun-ray iconic-sun-ray-minor iconic-property-accent iconic-property-stroke" d="M42.6 12.3l3.8 9.2" fill="none" />
    <path stroke="#000" stroke-width="4" stroke-linecap="round" stroke-miterlimit="10" class="iconic-sun-ray iconic-sun-ray-major iconic-property-accent iconic-property-stroke" d="M34.3 34.3l-14.1-14.1" fill="none" />
    <path stroke="#000" stroke-width="4" stroke-linecap="round" stroke-miterlimit="10" class="iconic-sun-ray iconic-sun-ray-minor iconic-property-accent iconic-property-stroke" d="M12.3 42.6l9.2 3.8" fill="none" />
    <path stroke="#000" stroke-width="4" stroke-linecap="round" stroke-miterlimit="10" class="iconic-sun-ray iconic-sun-ray-major iconic-property-accent iconic-property-stroke" d="M22 64h-20" fill="none" />
    <path stroke="#000" stroke-width="4" stroke-linecap="round" stroke-miterlimit="10" class="iconic-sun-ray iconic-sun-ray-minor iconic-property-accent iconic-property-stroke" d="M12.3 85.4l9.2-3.8" fill="none" />
    <path stroke="#000" stroke-width="4" stroke-linecap="round" stroke-miterlimit="10" class="iconic-sun-ray iconic-sun-ray-major iconic-property-accent iconic-property-stroke" d="M34.3 93.7l-14.1 14.1" fill="none" />
    <path stroke="#000" stroke-width="4" stroke-linecap="round" stroke-miterlimit="10" class="iconic-sun-ray iconic-sun-ray-minor iconic-property-accent iconic-property-stroke" d="M42.6 115.7l3.8-9.2" fill="none" />
    <path stroke="#000" stroke-width="4" stroke-linecap="round" stroke-miterlimit="10" class="iconic-sun-ray iconic-sun-ray-major iconic-property-accent iconic-property-stroke" d="M64 106v20" fill="none" />
    <path stroke="#000" stroke-width="4" stroke-linecap="round" stroke-miterlimit="10" class="iconic-sun-ray iconic-sun-ray-minor iconic-property-accent iconic-property-stroke" d="M85.4 115.7l-3.8-9.2" fill="none" />
    <path stroke="#000" stroke-width="4" stroke-linecap="round" stroke-miterlimit="10" class="iconic-sun-ray iconic-sun-ray-major iconic-property-accent iconic-property-stroke" d="M107.8 107.8l-14.1-14.1" fill="none" />
    <path stroke="#000" stroke-width="4" stroke-linecap="round" stroke-miterlimit="10" class="iconic-sun-ray iconic-sun-ray-minor iconic-property-accent iconic-property-stroke" d="M115.7 85.4l-9.2-3.8" fill="none" />
    <path stroke="#000" stroke-width="4" stroke-linecap="round" stroke-miterlimit="10" class="iconic-sun-ray iconic-sun-ray-major iconic-property-accent iconic-property-stroke" d="M126 64h-20" fill="none" />
    <path stroke="#000" stroke-width="4" stroke-linecap="round" stroke-miterlimit="10" class="iconic-sun-ray iconic-sun-ray-minor iconic-property-accent iconic-property-stroke" d="M115.7 42.6l-9.2 3.8" fill="none" />
    <path stroke="#000" stroke-width="4" stroke-linecap="round" stroke-miterlimit="10" class="iconic-sun-ray iconic-sun-ray-major iconic-property-accent iconic-property-stroke" d="M107.8 20.2l-14.1 14.1" fill="none" />
    <path stroke="#000" stroke-width="4" stroke-linecap="round" stroke-miterlimit="10" class="iconic-sun-ray iconic-sun-ray-minor iconic-property-accent iconic-property-stroke" d="M85.4 12.3l-3.8 9.2" fill="none" />
    <path stroke="#000" stroke-width="4" stroke-linecap="round" stroke-miterlimit="10" class="iconic-sun-ray iconic-sun-ray-major iconic-property-accent iconic-property-stroke" d="M64 2v20" fill="none" />
  </g>
  <g data-width="32" data-height="32" class="iconic-container iconic-md" display="none" transform="scale(4)">
    <path d="M16 8c-4.4 0-8 3.6-8 8s3.6 8 8 8 8-3.6 8-8-3.6-8-8-8z" class="iconic-sun-center iconic-property-fill" />
    <path stroke="#000" stroke-width="2" stroke-linecap="round" stroke-miterlimit="10" class="iconic-sun-ray iconic-property-accent iconic-property-stroke" d="M7.5 7.5l-2.1-2.1m-1.4 10.6h-3m6.5 8.5l-2.1 2.1m10.6 1.4v3m10.6-4.4l-2.1-2.1m6.5-8.5h-3m-1.4-10.6l-2.1 2.1m-8.5-6.5v3"
    fill="none" />
  </g>
  <g data-width="16" data-height="16" class="iconic-container iconic-sm" display="none" transform="scale(8)">
    <path d="M8 4c-2.2 0-4 1.8-4 4s1.8 4 4 4 4-1.8 4-4-1.8-4-4-4z" class="iconic-sun-center iconic-property-fill" />
    <circle cx="3" cy="3" r="1" class="iconic-sun-ray iconic-property-accent iconic-property-fill" />
    <circle cx="1" cy="8" r="1" class="iconic-sun-ray iconic-property-accent iconic-property-fill" />
    <circle cx="3" cy="13" r="1" class="iconic-sun-ray iconic-property-accent iconic-property-fill" />
    <circle cx="8" cy="15" r="1" class="iconic-sun-ray iconic-property-accent iconic-property-fill" />
    <circle cx="13" cy="13" r="1" class="iconic-sun-ray iconic-property-accent iconic-property-fill" />
    <circle cx="15" cy="8" r="1" class="iconic-sun-ray iconic-property-accent iconic-property-fill" />
    <circle cx="13" cy="3" r="1" class="iconic-sun-ray iconic-property-accent iconic-property-fill" />
    <circle cx="8" cy="1" r="1" class="iconic-sun-ray iconic-property-accent iconic-property-fill" />
  </g>
</svg>