<svg version="1.1" xmlns="http://www.w3.org/2000/svg" data-icon="tag" width="128" height="128" class="iconic iconic-tag" viewBox="0 0 128 128">
  <g class="iconic-metadata">
    <title>Tag</title>
  </g>
  <defs>
    <clipPath id="iconic-size-lg-tag-clip-0">
      <path d="M48 0h-48v48l80 80 48-48-80-80zm-22 34c-4.4 0-8-3.6-8-8s3.6-8 8-8 8 3.6 8 8-3.6 8-8 8z" />
    </clipPath>
    <clipPath id="iconic-size-md-tag-clip-0">
      <path d="M12 0h-12v12l20 20 12-12-20-20zm-5.5 9c-1.4 0-2.5-1.1-2.5-2.5s1.1-2.5 2.5-2.5 2.5 1.1 2.5 2.5-1.1 2.5-2.5 2.5z" />
    </clipPath>
  </defs>
  <g data-width="128" data-height="128" class="iconic-container iconic-lg" display="inline">
    <path d="M46.5 0h-45c-.8 0-1.5.7-1.5 1.5v45c0 .8.5 2 1.1 2.6l77.9 77.9c.6.6 1.5.6 2.1 0l45.9-45.9c.6-.6.6-1.5 0-2.1l-77.9-77.9c-.6-.6-1.8-1.1-2.6-1.1z" clip-path="url(#iconic-size-lg-tag-clip-0)" class="iconic-property-fill" />
  </g>
  <g data-width="32" data-height="32" class="iconic-container iconic-md" display="none" transform="scale(4)">
    <path d="M11.5 0h-11c-.3 0-.5.2-.5.5v11c0 .3.2.7.4.9l19.3 19.3c.2.2.5.2.7 0l11.3-11.3c.2-.2.2-.5 0-.7l-19.3-19.3c-.2-.2-.6-.4-.9-.4z" clip-path="url(#iconic-size-md-tag-clip-0)" class="iconic-property-fill" />
  </g>
  <g data-width="16" data-height="16" class="iconic-container iconic-sm" display="none" transform="scale(8)">
    <path d="M6 0h-6v6l10 10 6-6-10-10zm-2 6c-1.1 0-2-.9-2-2s.9-2 2-2 2 .9 2 2-.9 2-2 2z" class="iconic-property-fill" />
  </g>
</svg>