<svg version="1.1" xmlns="http://www.w3.org/2000/svg" data-icon="tags" width="128" height="128" class="iconic iconic-tags" viewBox="0 0 128 128">
  <g class="iconic-metadata">
    <title>Tags</title>
  </g>
  <defs>
    <clipPath id="iconic-size-lg-tags-clip-0">
      <path d="M108 64l-32 32 6 6 38-38-68-64h-12z" />
    </clipPath>
    <clipPath id="iconic-size-lg-tags-clip-1">
      <path d="M36 0h-36v36l68 64 36-36-68-64zm-14 28c-3.3 0-6-2.7-6-6s2.7-6 6-6 6 2.7 6 6-2.7 6-6 6z" />
    </clipPath>
    <clipPath id="iconic-size-md-tags-clip-0">
      <path d="M32 16l-17-16h-3l17 16-8.5 8.5 1.5 1.5z" />
    </clipPath>
    <clipPath id="iconic-size-md-tags-clip-1">
      <path d="M10 0h-10v10l17 16 10-10-17-16zm-4 8c-1.1 0-2-.9-2-2s.9-2 2-2 2 .9 2 2-.9 2-2 2z" />
    </clipPath>
    <clipPath id="iconic-size-sm-tags-clip-0">
      <path d="M7 0l7 7-4 4 1 1 5-5-7-7z" />
    </clipPath>
  </defs>
  <g data-width="120" data-height="102" class="iconic-container iconic-lg" display="inline" transform="translate(4 13)">
    <path d="M16 1.5v33c0 .8.5 2 1.1 2.5l65.8 62c.6.6 1.6.6 2.2 0l33.9-33.9c.6-.6.6-1.5 0-2.1l-65.9-62c-.6-.6-1.8-1-2.6-1h-33c-.8 0-1.5.7-1.5 1.5z" clip-path="url(#iconic-size-lg-tags-clip-0)" class="iconic-tags-back iconic-property-accent iconic-property-fill"
    />
    <path d="M34.5 0h-33c-.8 0-1.5.7-1.5 1.5v33c0 .8.5 2 1.1 2.5l65.8 62c.6.6 1.6.6 2.2 0l33.9-33.9c.6-.6.6-1.5 0-2.1l-65.9-62c-.6-.5-1.8-1-2.6-1z" clip-path="url(#iconic-size-lg-tags-clip-1)" class="iconic-tags-front iconic-property-fill" />
  </g>
  <g data-width="32" data-height="26" class="iconic-container iconic-md" display="none" transform="scale(4) translate(0 3)">
    <path d="M5 .5v9c0 .3.2.7.4.8l16.3 15.3c.2.2.5.2.7 0l9.3-9.3c.2-.2.2-.5 0-.7l-16.3-15.3c-.2-.1-.6-.3-.9-.3h-9c-.3 0-.5.2-.5.5z" clip-path="url(#iconic-size-md-tags-clip-0)" class="iconic-tags-back iconic-property-accent iconic-property-fill" />
    <path d="M9.5 0h-9c-.3 0-.5.2-.5.5v9c0 .3.2.7.4.8l16.3 15.3c.2.2.5.2.7 0l9.3-9.3c.2-.2.2-.5 0-.7l-16.3-15.3c-.2-.1-.6-.3-.9-.3z" clip-path="url(#iconic-size-md-tags-clip-1)" class="iconic-tags-front iconic-property-fill" />
  </g>
  <g data-width="16" data-height="12" class="iconic-container iconic-sm" display="none" transform="scale(8) translate(0 2)">
    <path clip-path="url(#iconic-size-sm-tags-clip-0)" class="iconic-tags-back iconic-property-accent iconic-property-fill" d="M4 0v5l7 7 5-5-7-7z" />
    <path d="M5 0h-5v5l7 7 5-5-7-7zm-1.5 5c-.8 0-1.5-.7-1.5-1.5s.7-1.5 1.5-1.5 1.5.7 1.5 1.5-.7 1.5-1.5 1.5z" class="iconic-tags-front iconic-property-fill" />
  </g>
</svg>