<svg version="1.1" xmlns="http://www.w3.org/2000/svg" data-icon="task" width="128" height="128" class="iconic iconic-task" viewBox="0 0 128 128">
  <g class="iconic-metadata">
    <title>Task</title>
  </g>
  <defs>
    <clipPath id="iconic-size-lg-task-clip-0">
      <path d="M27.7 48.4l-20.1-22.3 8.6-8.4 9.6 11.7 25.4-25.4h-51.2v56h56v-39.9z" />
    </clipPath>
    <clipPath id="iconic-size-md-task-clip-0">
      <path d="M10.5 11l-2.5-.5v-6.9l2.6-2.6h-10.6v13h13v-5.5z" />
    </clipPath>
    <clipPath id="iconic-size-sm-task-clip-0">
      <path d="M6 5.9l-1.5-4.2 1.7-1.7h-6.2v8h8v-4.1z" />
    </clipPath>
  </defs>
  <g data-width="128" data-height="60" class="iconic-container iconic-lg" display="inline" transform="translate(0 34)">
    <path clip-path="url(#iconic-size-lg-task-clip-0)" stroke="#000" stroke-width="4" stroke-miterlimit="10" d="M52.5 58h-49c-.8 0-1.5-.7-1.5-1.5v-49c0-.8.7-1.5 1.5-1.5h49c.8 0 1.5.7 1.5 1.5v49c0 .8-.7 1.5-1.5 1.5z" class="iconic-task-check iconic-task-check-box iconic-property-stroke"
    fill="none" />
    <path stroke="#000" stroke-width="8" stroke-miterlimit="10" class="iconic-task-check iconic-task-check-mark iconic-property-accent iconic-property-stroke" d="M11.9 21.9l15.8 16 33.9-33.8" fill="none" />
    <path stroke="#000" stroke-width="4" stroke-miterlimit="10" class="iconic-task-line iconic-task-line-3 iconic-property-stroke" d="M68 42h54" fill="none" />
    <path stroke="#000" stroke-width="4" stroke-miterlimit="10" class="iconic-task-line iconic-task-line-2 iconic-property-stroke" d="M68 30h50" fill="none" />
    <path stroke="#000" stroke-width="4" stroke-miterlimit="10" class="iconic-task-line iconic-task-line-1 iconic-property-stroke" d="M68 18h60" fill="none" />
  </g>
  <g data-width="32" data-height="14" class="iconic-container iconic-md" display="none" transform="scale(4) translate(0 9)">
    <path clip-path="url(#iconic-size-md-task-clip-0)" stroke="#000" stroke-width="2" stroke-miterlimit="10" d="M11.5 13h-10c-.3 0-.5-.2-.5-.5v-10c0-.3.2-.5.5-.5h10c.3 0 .5.2.5.5v10c0 .3-.2.5-.5.5z" class="iconic-task-check iconic-task-check-box iconic-property-stroke"
    fill="none" />
    <path stroke="#000" stroke-width="3" stroke-miterlimit="10" class="iconic-task-check iconic-task-check-mark iconic-property-accent iconic-property-stroke" d="M5 5.5l3 3 7.5-7.5" fill="none" />
    <path stroke="#000" stroke-width="2" stroke-miterlimit="10" class="iconic-task-line iconic-task-line-2 iconic-property-stroke" d="M17 10h12" fill="none" />
    <path stroke="#000" stroke-width="2" stroke-miterlimit="10" class="iconic-task-line iconic-task-line-1 iconic-property-stroke" d="M17 5h15" fill="none" />
  </g>
  <g data-width="16" data-height="8" class="iconic-container iconic-sm" display="none" transform="scale(8) translate(0 4)">
    <path clip-path="url(#iconic-size-sm-task-clip-0)" stroke="#000" stroke-miterlimit="10" class="iconic-task-check iconic-task-check-box iconic-property-stroke" d="M.5.5h7v7h-7z" fill="none" />
    <path stroke="#000" stroke-width="2" stroke-miterlimit="10" class="iconic-task-check iconic-task-check-mark iconic-property-accent iconic-property-stroke" d="M2.5 2.5l2 2 3.8-3.8" fill="none" />
    <path stroke="#000" stroke-miterlimit="10" class="iconic-task-line iconic-task-line-2 iconic-property-stroke" d="M10 5.5h5" fill="none" />
    <path stroke="#000" stroke-miterlimit="10" class="iconic-task-line iconic-task-line-1 iconic-property-stroke" d="M10 2.5h6" fill="none" />
  </g>
</svg>