<svg version="1.1" xmlns="http://www.w3.org/2000/svg" data-icon="terminal" width="128" height="128" class="iconic iconic-terminal" viewBox="0 0 128 128">
  <g class="iconic-metadata">
    <title>Terminal</title>
  </g>
  <defs>
    <clipPath id="iconic-size-lg-terminal-clip-0">
      <path d="M0 0v106h128v-106h-128zm26 22l-18 10v-4l13-7-13-7 .1-4 17.9 10v2zm30 10h-26v-4h26v4z" />
    </clipPath>
    <clipPath id="iconic-size-md-terminal-clip-0">
      <path d="M0 0v28h32v-28h-32zm9 8l-6 3v-1l5-2.5-5-2.5v-1l6 3v1zm12 3h-9v-1h9v1z" />
    </clipPath>
    <clipPath id="iconic-size-sm-terminal-clip-0">
      <path d="M0 0v14h16v-14h-16zm6 5l-4 2v-1l3-1.5-3-1.5v-1l4 2v1zm7 2h-5v-1h5v1z" />
    </clipPath>
  </defs>
  <g data-width="128" data-height="106" class="iconic-container iconic-lg" display="inline" transform="translate(0 11)">
    <path clip-path="url(#iconic-size-lg-terminal-clip-0)" d="M126.5 106h-125c-.8 0-1.5-.7-1.5-1.5v-103c0-.8.7-1.5 1.5-1.5h125c.8 0 1.5.7 1.5 1.5v103c0 .8-.7 1.5-1.5 1.5z" class="iconic-terminal-screen iconic-property-fill" />
  </g>
  <g data-width="32" data-height="28" class="iconic-container iconic-md" display="none" transform="scale(4) translate(0 2)">
    <path clip-path="url(#iconic-size-md-terminal-clip-0)" d="M31.5 28h-31c-.3 0-.5-.2-.5-.5v-27c0-.3.2-.5.5-.5h31c.3 0 .5.2.5.5v27c0 .3-.2.5-.5.5z" class="iconic-terminal-screen iconic-property-fill" />
  </g>
  <g data-width="16" data-height="14" class="iconic-container iconic-sm" display="none" transform="scale(8) translate(0 1)">
    <path clip-path="url(#iconic-size-sm-terminal-clip-0)" d="M15.8 14h-15.5c-.2 0-.3-.1-.3-.2v-13.6c0-.1.1-.2.3-.2h15.5c.1 0 .2.1.2.2v13.5c0 .2-.1.3-.2.3z" class="iconic-terminal-screen iconic-property-fill" />
  </g>
</svg>