<svg version="1.1" xmlns="http://www.w3.org/2000/svg" data-icon="text" width="128" height="128" class="iconic iconic-text" viewBox="0 0 128 128">
  <g class="iconic-metadata">
    <title>Text</title>
  </g>
  <g data-width="128" data-height="128" class="iconic-container iconic-lg" display="inline">
    <path d="M124 0h-120l-4 28h4c0-11 9-20 20-20h32v106c0 5.5-4.5 10-10 10h-5.7v4h47.7v-4h-6c-5.5 0-10-4.5-10-10v-106h32c11 0 20 9 20 20h4l-4-28z" class="iconic-property-fill" />
  </g>
  <g data-width="32" data-height="32" class="iconic-container iconic-md" display="none" transform="scale(4)">
    <path d="M31 0h-30l-1 8h1c0-2.8 2.2-5 5-5h7v25.5c0 1.4-1.1 2.5-2.5 2.5h-2.5v1h16v-1h-2.5c-1.4 0-2.5-1.1-2.5-2.5v-25.5h7c2.8 0 5 2.2 5 5h1l-1-8z" class="iconic-property-fill" />
  </g>
  <g data-width="16" data-height="16" class="iconic-container iconic-sm" display="none" transform="scale(8)">
    <path d="M15 0h-14l-1 4h1c0-1.1.9-2 2-2h3v12c0 .6-.4 1-1 1h-1v1h8v-1h-1c-.6 0-1-.4-1-1v-12h3c1.1 0 2 .9 2 2h1l-1-4z" class="iconic-property-fill" />
  </g>
</svg>