<svg version="1.1" xmlns="http://www.w3.org/2000/svg" data-icon="thermometer" width="128" height="128" class="iconic iconic-thermometer" viewBox="0 0 128 128">
  <g class="iconic-metadata">
    <title>Thermometer</title>
  </g>
  <g data-width="44" data-height="128" class="iconic-container iconic-lg" display="inline" transform="translate(42)">
    <path stroke="#000" stroke-width="2" stroke-linecap="round" stroke-miterlimit="10" class="iconic-thermometer-tick iconic-thermometer-tick-6 iconic-property-stroke" d="M28 75h2" fill="none" />
    <path stroke="#000" stroke-width="2" stroke-linecap="round" stroke-miterlimit="10" class="iconic-thermometer-tick iconic-thermometer-tick-5 iconic-property-stroke" d="M28 63h2" fill="none" />
    <path stroke="#000" stroke-width="2" stroke-linecap="round" stroke-miterlimit="10" class="iconic-thermometer-tick iconic-thermometer-tick-4 iconic-property-stroke" d="M28 51h2" fill="none" />
    <path stroke="#000" stroke-width="2" stroke-linecap="round" stroke-miterlimit="10" class="iconic-thermometer-tick iconic-thermometer-tick-3 iconic-property-stroke" d="M28 39h2" fill="none" />
    <path stroke="#000" stroke-width="2" stroke-linecap="round" stroke-miterlimit="10" class="iconic-thermometer-tick iconic-thermometer-tick-2 iconic-property-stroke" d="M28 27h2" fill="none" />
    <path stroke="#000" stroke-width="2" stroke-linecap="round" stroke-miterlimit="10" class="iconic-thermometer-tick iconic-thermometer-tick-1 iconic-property-stroke" d="M28 15h2" fill="none" />
    <path stroke="#000" stroke-width="2" stroke-linecap="round" stroke-miterlimit="10" d="M14 86.6c-7.6 3.1-13 10.6-13 19.4 0 11.6 9.4 21 21 21s21-9.4 21-21c0-8.8-5.4-16.3-13-19.4v-77.6c0-4.4-3.6-8-8-8s-8 3.6-8 8v77.6z" class="iconic-thermometer-body iconic-property-stroke"
    fill="none" />
    <path stroke="#000" stroke-width="6" stroke-linecap="round" stroke-miterlimit="10" class="iconic-thermometer-shaft iconic-property-stroke" d="M22 9v101" fill="none" />
    <circle cx="22" cy="106" r="16" class="iconic-thermometer-well iconic-property-fill" />
  </g>
  <g data-width="14" data-height="32" class="iconic-container iconic-md" display="none" transform="scale(4) translate(9)">
    <path stroke="#000" stroke-linecap="round" stroke-miterlimit="10" d="M10.5 19.5c1.8 1.2 3 3.2 3 5.5 0 3.6-2.9 6.5-6.5 6.5s-6.5-2.9-6.5-6.5c0-2.3 1.2-4.3 3-5.5v-15.5c0-1.9 1.6-3.5 3.5-3.5s3.5 1.6 3.5 3.5v15.5z" class="iconic-thermometer-body iconic-property-stroke"
    fill="none" />
    <path stroke="#000" stroke-width="2" stroke-linecap="round" stroke-miterlimit="10" class="iconic-thermometer-shaft iconic-property-stroke" d="M7 4v22" fill="none" />
    <circle cx="7" cy="25" r="4" class="iconic-thermometer-well iconic-property-fill" />
  </g>
  <g data-width="8" data-height="16" class="iconic-container iconic-sm" display="none" transform="scale(8) translate(4)">
    <path stroke="#000" stroke-linecap="round" stroke-miterlimit="10" d="M1.5 9.6c-.6.6-1 1.5-1 2.4 0 1.9 1.6 3.5 3.5 3.5s3.5-1.6 3.5-3.5c0-1-.4-1.8-1-2.4v-6.6c0-1.4-1.1-2.5-2.5-2.5s-2.5 1.1-2.5 2.5v6.6z" class="iconic-thermometer-body iconic-property-stroke"
    fill="none" />
    <path stroke="#000" stroke-width="2" stroke-linecap="round" stroke-miterlimit="10" class="iconic-thermometer-shaft iconic-property-stroke" d="M4 3v9" fill="none" />
    <circle cx="4" cy="12" r="2" class="iconic-thermometer-well iconic-property-fill" />
  </g>
</svg>