<svg version="1.1" xmlns="http://www.w3.org/2000/svg" data-icon="tiara" width="128" height="128" class="iconic iconic-tiara" viewBox="0 0 128 128">
  <g class="iconic-metadata">
    <title>Tiara</title>
  </g>
  <g data-width="128" data-height="48" class="iconic-container iconic-lg" display="inline" transform="translate(0 40)">
    <path d="M120 46c-15.8 0-24-26-24-26s-7.7 15-14.4 5.6c-4.5-6.2-17.6-25.6-17.6-25.6s-13.2 19.1-17.6 25.6c-6.4 9.4-14.4-5.6-14.4-5.6s-8 26-24 26h-8v2h128v-2h-8zm-65-9l-3-5 3-5 3 5-3 5zm3-13l6-10 6 10-6 10-6-10zm15 13l-3-5 3-5 3 5-3 5z" class="iconic-property-fill"
    />
  </g>
  <g data-width="32" data-height="12" class="iconic-container iconic-md" display="none" transform="scale(4) translate(0 10)">
    <path d="M31 11c-3.9 0-7-6-7-6s-1.6 3.4-3.6 1.4c-1.3-1.4-4.4-6.4-4.4-6.4s-3 5-4.4 6.4c-2 2-3.6-1.4-3.6-1.4s-3 6-7 6h-1v1h32v-1h-1zm-15-1l-2-3 2-3 2 3-2 3z" class="iconic-property-fill" />
  </g>
  <g data-width="16" data-height="6" class="iconic-container iconic-sm" display="none" transform="scale(8) translate(0 5)">
    <path d="M15 5c-2 0-3-2.5-3-2.5s-1 1.5-2 .5c-.7-.7-2-3-2-3s-1.3 2.3-2 3c-1 1-2-.5-2-.5s-1 2.5-3 2.5c-1 0-1 0-1 0v1h16v-1s0 0-1 0zm-7 0l-1-1 1-1 1 1-1 1z" class="iconic-property-fill" />
  </g>
</svg>