<svg version="1.1" xmlns="http://www.w3.org/2000/svg" data-icon="timer" width="128" height="128" class="iconic iconic-timer" viewBox="0 0 128 128">
  <g class="iconic-metadata">
    <title>Timer</title>
  </g>
  <defs>
    <clipPath id="iconic-size-sm-timer-clip-0">
      <path d="M13.8 3.6l-5.3 6.7c-.5.5-1 .7-1.5.7s-1-.2-1.4-.6-.6-.9-.6-1.4.2-1 .6-1.4l6.7-5.3.4-.3h-12.7v14h14v-12.7l-.2.3z" />
    </clipPath>
  </defs>
  <g data-width="116" data-height="128" class="iconic-container iconic-lg" display="inline" transform="translate(6)">
    <path d="M52.3 64.3c-3.1 3.1-3.1 8.2 0 11.3 3.1 3.1 8.2 3.1 11.3 0 3.2-3.1 26.4-35.6 26.4-35.6s-34.5 21.2-37.7 24.3zm5.7 9.7c-2.2 0-4-1.8-4-4s1.8-4 4-4 4 1.8 4 4-1.8 4-4 4z" class="iconic-timer-needle iconic-property-fill" />
    <path class="iconic-timer-stop-button iconic-timer-stop-button-base iconic-property-fill" d="M52 4h12v12.1h-12z" />
    <path class="iconic-timer-stop-button iconic-timer-stop-button-top iconic-property-fill" d="M48 0h20v2h-20z" />
    <circle stroke="#000" stroke-width="8" stroke-miterlimit="10" cx="58" cy="70" r="54" class="iconic-timer-body iconic-property-stroke" fill="none" />
  </g>
  <g data-width="29" data-height="32" class="iconic-container iconic-md" display="none" transform="scale(4) translate(1)">
    <path class="iconic-timer-stop-button iconic-timer-stop-button-base iconic-property-fill" d="M13 1h3v4h-3z" />
    <path class="iconic-timer-stop-button iconic-timer-stop-button-top iconic-property-fill" d="M12 0h5v1h-5z" />
    <path d="M15.6 18.6c-.6.6-1.5.6-2.1 0-.6-.6-.6-1.5 0-2.1.5-.6 8.5-6.5 8.5-6.5s-5.9 8-6.4 8.6z" class="iconic-timer-needle iconic-property-fill" />
    <circle stroke="#000" stroke-width="3" stroke-miterlimit="10" cx="14.5" cy="17.5" r="13" class="iconic-timer-body iconic-property-stroke" fill="none" />
  </g>
  <g data-width="14" data-height="16" class="iconic-container iconic-sm" display="none" transform="scale(8) translate(1)">
    <path class="iconic-timer-stop-button iconic-timer-stop-button-base iconic-property-fill" d="M6 0h2v3h-2z" />
    <path class="iconic-timer-stop-button iconic-timer-stop-button-top iconic-property-fill" d="M5 0h4v1h-4z" />
    <path d="M6.3 8.3c-.4.4-.4 1 0 1.4s1 .4 1.4 0l5.3-6.7-6.7 5.3z" class="iconic-timer-needle iconic-property-fill" />
    <circle clip-path="url(#iconic-size-sm-timer-clip-0)" fill="#fff" stroke="#000" stroke-width="2" stroke-miterlimit="10" cx="7" cy="9" r="6" class="iconic-timer-body iconic-property-stroke" />
  </g>
</svg>