<svg version="1.1" xmlns="http://www.w3.org/2000/svg" data-icon="tint" width="128" height="128" class="iconic iconic-tint" viewBox="0 0 128 128">
  <g class="iconic-metadata">
    <title>Tint</title>
  </g>
  <defs>
    <clipPath id="iconic-size-lg-tint-clip-0">
      <path d="M0 0v128h96v-128h-96zm42.9 115.9c-.4 1.9-2.1 3.2-3.9 3.2-.3 0-.5 0-.8-.1-3.6-.7-6.9-1.8-10-3.3-10.4-5-17.1-14-19.3-26-.4-2.2 1-4.3 3.2-4.7 2.2-.4 4.3 1 4.7 3.2 1.8 9.5 6.8 16.3 15 20.3 2.5 1.2 5.2 2.1 8.1 2.7 2.1.4 3.5 2.5 3 4.7z" />
    </clipPath>
    <clipPath id="iconic-size-md-tint-clip-0">
      <path d="M0 0v32h24v-32h-24zm12 27.6c-.1.7-.8 1.3-1.5 1.3-.1 0-.2 0-.2 0-4-.6-6.6-3.2-7.2-7.2-.1-.8.5-1.6 1.3-1.7.8-.1 1.6.5 1.7 1.3.4 2.6 1.9 4.2 4.6 4.6.9.1 1.4.9 1.3 1.7z" />
    </clipPath>
    <clipPath id="iconic-size-sm-tint-clip-0">
      <path d="M0 0v16h12v-16h-12zm6 14c-2.5 0-4-1.5-4-4 0-.6.4-1 1-1s1 .4 1 1c0 .9.2 2 2 2 .6 0 1 .4 1 1s-.4 1-1 1z" />
    </clipPath>
  </defs>
  <g data-width="96" data-height="128" class="iconic-container iconic-lg" display="inline" transform="translate(16)">
    <path d="M96 80c0 32-22.8 48-48 48s-48-16-48-48c0-36.6 48-80 48-80s48 43.4 48 80z" clip-path="url(#iconic-size-lg-tint-clip-0)" class="iconic-tint-drop iconic-property-fill" />
  </g>
  <g data-width="24" data-height="32" class="iconic-container iconic-md" display="none" transform="scale(4) translate(4)">
    <path d="M24 20c0 8-5.7 12-12 12s-12-4-12-12c0-9.1 12-20 12-20s12 10.9 12 20z" clip-path="url(#iconic-size-md-tint-clip-0)" class="iconic-tint-drop iconic-property-fill" />
  </g>
  <g data-width="12" data-height="16" class="iconic-container iconic-sm" display="none" transform="scale(8) translate(2)">
    <path d="M12 10c0 4-2.8 6-6 6s-6-2-6-6c0-4.6 6-10 6-10s6 5.4 6 10z" clip-path="url(#iconic-size-sm-tint-clip-0)" class="iconic-tint-drop iconic-property-fill" />
  </g>
</svg>