<svg version="1.1" xmlns="http://www.w3.org/2000/svg" data-icon="tools" width="128" height="128" class="iconic iconic-tools" viewBox="0 0 128 128">
  <g class="iconic-metadata">
    <title>Tools</title>
  </g>
  <defs>
    <clipPath id="iconic-size-lg-tools-clip-0">
      <path d="M0 0v128h128v-128h-128zm76.5 84.6l-68.4-68.5 4-4 68.5 68.5-4.1 4zm4.1-4.1l-64.5-64.4 4-4 64.5 64.5-4 3.9z" />
    </clipPath>
    <clipPath id="iconic-size-md-tools-clip-0">
      <path d="M0 0v32h32v-32h-32zm20 21l-1 1-17-17 1-1 2-2 17 17-2 2z" />
    </clipPath>
    <clipPath id="iconic-size-sm-tools-clip-0">
      <path d="M0 0v16h16v-16h-16zm10 9l-2 2-6-6 2-2 1-1 6 6-1 1z" />
    </clipPath>
  </defs>
  <g data-width="128" data-height="128" class="iconic-container iconic-lg" display="inline">
    <path class="iconic-tools-screwdriver iconic-tools-screwdriver-head iconic-property-accent iconic-property-fill" d="M16.1 20.1l57.5 57.5 4-4-57.5-57.5-2-8-14.1-8.1-4 4 8.1 14.1z" />
    <path d="M124 108l-36-36h-4l-2-2v-2l-2-2-14 14 2 2h2l2 2v4l36 36c2.1 2.5 5.2 4 8.6 4 6.3 0 11.3-5.1 11.3-11.3.1-3.5-1.5-6.6-3.9-8.7zm-12.3 13.7c-.2.2-.5.3-.7.3s-.5-.1-.7-.3l-34-34c-.4-.4-.4-1 0-1.4s1-.4 1.4 0l34 34c.4.4.4 1 0 1.4zm6-4c-.2.2-.5.3-.7.3s-.5-.1-.7-.3l-34-34c-.4-.4-.4-1 0-1.4s1-.4 1.4 0l34 34c.4.4.4 1 0 1.4zm4-6c-.2.2-.5.3-.7.3s-.5-.1-.7-.3l-34-34c-.4-.4-.4-1 0-1.4s1-.4 1.4 0l34 34c.4.4.4 1 0 1.4z"
    class="iconic-tools-screwdriver iconic-tools-screwdriver-handle iconic-property-accent iconic-property-fill" />
    <path clip-path="url(#iconic-size-lg-tools-clip-0)" d="M127.6 31.6l-1.3-1.3c-.7-.7-1.7-1.7-2.4-2.4-4-4-6 0-10-4s-2-8-6-12c-11.9-11.9-15.9-11.9-39.9-11.9 28 12.1 19.9 24.1 16 28l-36 36 8 8 36-36c5.9-5.9 7.9-6.1 12-2s0 6 4 10c1 1 3 3 3 3l.6.6c.2.2.5.2.7 0l15.3-15.3c.2-.1.2-.5 0-.7z"
    class="iconic-tools-hammer iconic-tools-hammer-head iconic-property-fill" />
    <path d="M57.2 52.9l-6.3 2.1c-1.6.5-3.8 1.9-5 3.1l-43.8 43.8c-1.2 1.2-1.5 3.3-.8 4.8l9.3 18.6c.7 1.5 2.1 1.6 3 .2l4.7-7.1c.9-1.4 2.6-3.4 3.8-4.6l39.7-39.7c1.2-1.2 2.5-3.4 3.1-5l2-6.2c.5-1.6 1.9-3.8 3-4.9s1.1-3-.1-4.2l-3.8-3.8c-1.2-1.2-3-1.2-4.1-.1s-3.2 2.5-4.7 3z"
    clip-path="url(#iconic-size-lg-tools-clip-0)" class="iconic-tools-hammer iconic-tools-hammer-handle iconic-property-fill" />
  </g>
  <g data-width="32" data-height="32" class="iconic-container iconic-md" display="none" transform="scale(4)">
    <path class="iconic-tools-screwdriver iconic-tools-screwdriver-head iconic-property-accent iconic-property-fill" d="M4 5l16 16 1-1-16-16-1-2-3-2-1 1 2 3z" />
    <path d="M31 27l-9-9h-1l-1-1-3 3 1 1v1l9 9c.5.6 1.3 1 2.2 1 1.6 0 2.8-1.3 2.8-2.8 0-.9-.4-1.7-1-2.2z" class="iconic-tools-screwdriver iconic-tools-screwdriver-handle iconic-property-accent iconic-property-fill" />
    <path d="M31 7c-1-1-1 0-2-1s0-1-1-2-1-1-1-1c-3-3-4-3-10-3 7 3 5 6 4 7l-9 9 2 2 9-9c1-1 2-1 3 0s0 1 1 2 1 1 1 1l4-4s0 0-1-1z" clip-path="url(#iconic-size-md-tools-clip-0)" class="iconic-tools-hammer iconic-tools-hammer-head iconic-property-fill" />
    <path d="M14.5 13.2l-2.1.7c-.3.1-.6.3-.8.5l-11.2 11.2c-.2.2-.3.6-.1.8l2.6 5.1c.1.2.3.3.5 0l1.5-2.2c.2-.2.4-.6.6-.8l10.3-10.3c.2-.2.4-.6.5-.8l.7-2c.1-.3.3-.6.5-.8l.3-.3c.2-.2.2-.5 0-.7l-1.3-1.3c-.2-.2-.5-.2-.7 0l-.3.3c-.3.2-.7.5-1 .6z" clip-path="url(#iconic-size-md-tools-clip-0)"
    class="iconic-tools-hammer iconic-tools-hammer-handle iconic-property-fill" />
  </g>
  <g data-width="16" data-height="16" class="iconic-container iconic-sm" display="none" transform="scale(8)">
    <path class="iconic-tools-screwdriver iconic-tools-screwdriver-head iconic-property-accent iconic-property-fill" d="M4 5l6 6 1-1-6-6v-2l-4-2-1 1 2 4z" />
    <path d="M15.6 13.6s-5.1-5.1-5.1-5.1l-2 2s5.1 5.1 5.1 5.1c.6.6 1.4.6 2 0 .5-.6.5-1.5 0-2z" class="iconic-tools-screwdriver iconic-tools-screwdriver-handle iconic-property-accent iconic-property-fill" />
    <path d="M14 2c-2-2-3-2-6-2 3 1 3 2.9 2 4l-4 4 1 1 4-4c1-1 1-1 2 0 .5.5 0 0 .5.5s.5.5.5.5l2-2s-1-1-2-2z" clip-path="url(#iconic-size-sm-tools-clip-0)" class="iconic-tools-hammer iconic-tools-hammer-head iconic-property-fill" />
    <path d="M7.2 6.8c-.1.1-.3.2-.5.2h-.5c-.1 0-.3.1-.4.2l-5.6 5.6c-.1.1-.1.3 0 .4l1.7 2.6c.1.1.2.1.3 0l.8-1.6c.1-.1.2-.3.3-.4l4.6-4.6c0-.1.1-.3.1-.4v-.5c0-.1.1-.3.2-.4l.7-.7c.1-.1.1-.3 0-.4l-.7-.6c-.1-.1-.3-.1-.4 0l-.6.6z" clip-path="url(#iconic-size-sm-tools-clip-0)"
    class="iconic-tools-hammer iconic-tools-hammer-handle iconic-property-fill" />
  </g>
</svg>