<svg version="1.1" xmlns="http://www.w3.org/2000/svg" data-icon="transfer" width="128" height="128" class="iconic iconic-transfer" viewBox="0 0 128 128">
  <g class="iconic-metadata">
    <title>Transfer</title>
  </g>
  <g data-width="128" data-height="60" class="iconic-container iconic-lg" display="inline" transform="translate(0 34)">
    <path stroke="#000" stroke-width="8" stroke-linecap="square" stroke-miterlimit="10" class="iconic-transfer-line iconic-transfer-line-bottom iconic-property-accent iconic-property-stroke" d="M124 46h-100" fill="none" />
    <path d="M1.3 46.8l21.4 12.5c.7.4 1.3.1 1.3-.7v-25c0-.8-.6-1.2-1.3-.7l-21.4 12.3c-.7.5-.7 1.1 0 1.6z" class="iconic-transfer-arrowhead iconic-transfer-arrowhead-bottom iconic-property-accent iconic-property-fill" />
    <path stroke="#000" stroke-width="8" stroke-linecap="square" stroke-miterlimit="10" class="iconic-transfer-line iconic-transfer-line-top iconic-property-stroke" d="M4 14h100" fill="none" />
    <path d="M126.7 13.2l-21.4-12.4c-.7-.4-1.3-.1-1.3.7v25c0 .8.6 1.2 1.3.7l21.4-12.5c.7-.4.7-1 0-1.5z" class="iconic-transfer-arrowhead iconic-transfer-arrowhead-top iconic-property-fill" />
  </g>
  <g data-width="32" data-height="18" class="iconic-container iconic-md" display="none" transform="scale(4) translate(0 7)">
    <path stroke="#000" stroke-width="3" stroke-linecap="square" stroke-miterlimit="10" class="iconic-transfer-line iconic-transfer-line-bottom iconic-property-accent iconic-property-stroke" d="M30.5 13.5h-25" fill="none" />
    <path d="M.4 13.2l5.2-3.9c.2-.2.4-.1.4.2v8c0 .3-.2.4-.4.2l-5.2-3.9c-.2-.2-.2-.4 0-.6z" class="iconic-transfer-arrowhead iconic-transfer-arrowhead-bottom iconic-property-accent iconic-property-fill" />
    <path stroke="#000" stroke-width="3" stroke-linecap="square" stroke-miterlimit="10" class="iconic-transfer-line iconic-transfer-line-bottom iconic-property-stroke" d="M1.5 4.5h25" fill="none" />
    <path d="M31.6 4.8l-5.2 3.9c-.2.2-.4.1-.4-.2v-8c0-.3.2-.4.4-.2l5.2 3.9c.2.2.2.4 0 .6z" class="iconic-transfer-arrowhead iconic-transfer-arrowhead-top iconic-property-fill" />
  </g>
  <g data-width="16" data-height="12" class="iconic-container iconic-sm" display="none" transform="scale(8) translate(0 2)">
    <path stroke="#000" stroke-width="2" stroke-linecap="square" stroke-miterlimit="10" class="iconic-transfer-line iconic-transfer-line-bottom iconic-property-accent iconic-property-stroke" d="M15 9h-12" fill="none" />
    <path class="iconic-transfer-arrowhead iconic-transfer-arrowhead-bottom iconic-property-accent iconic-property-fill" d="M3 12v-6l-3 3z" />
    <path stroke="#000" stroke-width="2" stroke-linecap="square" stroke-miterlimit="10" class="iconic-transfer-line iconic-transfer-line-top iconic-property-stroke" d="M1 3h12" fill="none" />
    <path class="iconic-transfer-arrowhead iconic-transfer-arrowhead-top iconic-property-fill" d="M13 0v6l3-3z" />
  </g>
</svg>