<svg version="1.1" xmlns="http://www.w3.org/2000/svg" data-icon="trash" width="128" height="128" class="iconic iconic-trash" viewBox="0 0 128 128">
  <g class="iconic-metadata">
    <title>Trash</title>
  </g>
  <defs>
    <clipPath id="iconic-size-lg-trash-clip-0">
      <path d="M88 20v93c0 1.1-.9 2-2 2s-2-.9-2-2v-93h-12v93c0 1.1-.9 2-2 2s-2-.9-2-2v-93h-12v93c0 1.1-.9 2-2 2s-2-.9-2-2v-93h-12v93c0 1.1-.9 2-2 2s-2-.9-2-2v-93h-12v93c0 1.1-.9 2-2 2s-2-.9-2-2v-93h-12v108h92v-108h-12z" />
    </clipPath>
    <clipPath id="iconic-size-md-trash-clip-0">
      <path d="M23 7v21.5c0 .3-.2.5-.5.5s-.5-.2-.5-.5v-21.5h-3v21.5c0 .3-.2.5-.5.5s-.5-.2-.5-.5v-21.5h-3v21.5c0 .3-.2.5-.5.5s-.5-.2-.5-.5v-21.5h-3v21.5c0 .3-.2.5-.5.5s-.5-.2-.5-.5v-21.5h-3v21.5c0 .3-.2.5-.5.5s-.5-.2-.5-.5v-21.5h-3v25h23v-25h-3z" />
    </clipPath>
    <clipPath id="iconic-size-sm-trash-clip-0">
      <path d="M11 5v8.5c0 .3-.2.5-.5.5s-.5-.2-.5-.5v-8.5h-2v8.5c0 .3-.2.5-.5.5s-.5-.2-.5-.5v-8.5h-2v8.5c0 .3-.2.5-.5.5s-.5-.2-.5-.5v-8.5h-2v11h11v-11h-2z" />
    </clipPath>
  </defs>
  <g data-width="108" data-height="128" class="iconic-container iconic-lg" display="inline" transform="translate(10)">
    <path clip-path="url(#iconic-size-lg-trash-clip-0)" d="M97 128h-86c-1.7 0-3-1.3-3-3v-106c0-1.7 1.3-3 3-3h86c1.7 0 3 1.3 3 3v106c0 1.7-1.3 3-3 3z" class="iconic-trash-can iconic-property-fill" />
    <path stroke="#000" stroke-width="2" stroke-miterlimit="10" d="M41 15.3v-11.3c0-1.7 1.3-3 3-3h20c1.7 0 3 1.3 3 3v11.3" class="iconic-trash-lid iconic-trash-lid-handle iconic-property-accent iconic-property-stroke" fill="none" />
    <path d="M104 10c-.1 0-.2 0-.2 0h-15.8c0-1.1-.9-2-2-2h-63.9s0 0-.1 0c-1.1 0-2 .9-2 2h-16c-2.2 0-4 1.8-4 4v4h108v-4c0-2.2-1.8-4-4-4z" class="iconic-trash-lid iconic-property-fill" />
  </g>
  <g data-width="29" data-height="32" class="iconic-container iconic-md" display="none" transform="scale(4) translate(1)">
    <path clip-path="url(#iconic-size-md-trash-clip-0)" d="M25 32h-21c-.6 0-1-.4-1-1v-25c0-.6.4-1 1-1h21c.6 0 1 .4 1 1v25c0 .6-.4 1-1 1z" class="iconic-trash-can iconic-property-fill" />
    <path stroke="#000" stroke-miterlimit="10" d="M11.5 4v-3c0-.3.2-.5.5-.5h5c.3 0 .5.2.5.5v3" class="iconic-trash-lid iconic-trash-lid-handle iconic-property-accent iconic-property-stroke" fill="none" />
    <path d="M26 3h-3c0-.6-.4-1-1-1h-15c-.6 0-1 .4-1 1h-3c-1.7 0-3 1.3-3 3h29c0-1.7-1.3-3-3-3z" class="iconic-trash-lid iconic-property-fill" />
  </g>
  <g data-width="15" data-height="16" class="iconic-container iconic-sm" display="none" transform="scale(8)">
    <path clip-path="url(#iconic-size-sm-trash-clip-0)" d="M12.5 16h-10c-.3 0-.5-.2-.5-.5v-12c0-.3.2-.5.5-.5h10c.3 0 .5.2.5.5v12c0 .3-.2.5-.5.5z" class="iconic-trash-can iconic-property-fill" />
    <path stroke="#000" stroke-miterlimit="10" d="M5.5 3v-2.2c0-.1.1-.2.2-.2h3.5c.1 0 .2.1.2.2v2.2" class="iconic-trash-lid iconic-trash-lid-handle iconic-property-accent iconic-property-stroke" fill="none" />
    <path d="M15 4c0-1.1-.9-2-2-2h-11c-1.1 0-2 .9-2 2h15z" class="iconic-trash-lid iconic-property-fill" />
  </g>
</svg>