<svg version="1.1" xmlns="http://www.w3.org/2000/svg" data-icon="video" width="128" height="128" class="iconic iconic-video" viewBox="0 0 128 128">
  <g class="iconic-metadata">
    <title>Video</title>
  </g>
  <g data-width="128" data-height="58" class="iconic-container iconic-lg" display="inline" transform="translate(0 35)">
    <path class="iconic-video-lens iconic-video-lens-barrel iconic-property-fill" d="M90 16.1h18v28h-18z" />
    <path class="iconic-video-lens iconic-video-lens-hood iconic-property-fill" d="M110 16.1l6-4.1h12l-.1 36-12 .1-5.9-4z" />
    <path d="M85 58h-82c-1.7 0-3-1.3-3-3v-52c0-1.7 1.3-3 3-3h82c1.7 0 3 1.3 3 3v52c0 1.7-1.3 3-3 3z" class="iconic-video-body iconic-property-fill" />
  </g>
  <g data-width="32" data-height="18" class="iconic-container iconic-md" display="none" transform="scale(4) translate(0 7)">
    <path d="M23 18h-22c-.6 0-1-.4-1-1v-16c0-.6.4-1 1-1h22c.6 0 1 .4 1 1v16c0 .6-.4 1-1 1z" class="iconic-video-body iconic-property-fill" />
    <path class="iconic-video-lens iconic-property-fill" d="M25 6l5-3h2v12h-2l-5-3z" />
  </g>
  <g data-width="16" data-height="10" class="iconic-container iconic-sm" display="none" transform="scale(8) translate(0 3)">
    <path d="M11.8 10h-11.6c-.1 0-.2-.1-.2-.2v-9.6c0-.1.1-.2.2-.2h11.5c.2 0 .3.1.3.2v9.5c0 .2-.1.3-.2.3z" class="iconic-video-body iconic-property-fill" />
    <path class="iconic-video-lens iconic-property-fill" d="M12 4l3-2h1v6h-1l-3-2z" />
  </g>
</svg>