<svg version="1.1" xmlns="http://www.w3.org/2000/svg" data-icon="warning" width="128" height="128" class="iconic iconic-warning" viewBox="0 0 128 128">
  <g class="iconic-metadata">
    <title>Warning</title>
  </g>
  <defs>
    <clipPath id="iconic-size-lg-warning-clip-0">
      <path d="M0 0v118h128v-118h-128zm64 98c-2.2 0-4-1.8-4-4s1.8-4 4-4 4 1.8 4 4-1.8 4-4 4zm4-29.8l-2 13.8h-4l-2-13.9v-18.1h8v18.2z" />
    </clipPath>
    <clipPath id="iconic-size-md-warning-clip-0">
      <path d="M0 0v30h31v-30h-31zm15.5 26c-.8 0-1.5-.7-1.5-1.5s.7-1.5 1.5-1.5 1.5.7 1.5 1.5-.7 1.5-1.5 1.5zm1.5-10l-1 5h-1l-1-5v-6h3v6z" />
    </clipPath>
    <clipPath id="iconic-size-sm-warning-clip-0">
      <path d="M0 0v16h16v-16h-16zm8 14c-.6 0-1-.4-1-1s.4-1 1-1 1 .4 1 1-.4 1-1 1zm1-5l-1 1-1-1v-4h2v4z" />
    </clipPath>
  </defs>
  <g data-width="128" data-height="118" class="iconic-container iconic-lg" display="inline" transform="translate(0 5)">
    <path d="M.7 116.7l62.6-115.4c.4-.7 1-.7 1.4 0l62.6 115.4c.4.7 0 1.3-.8 1.3h-125c-.8 0-1.2-.6-.8-1.3z" clip-path="url(#iconic-size-lg-warning-clip-0)" class="iconic-warning-body iconic-property-fill" />
  </g>
  <g data-width="31" data-height="30" class="iconic-container iconic-md" display="none" transform="scale(4) translate(0 1)">
    <path d="M.2 29.6l15-29.1c.1-.2.3-.2.5 0l15 29.1c.1.2 0 .4-.3.4h-30c-.2 0-.3-.2-.2-.4z" clip-path="url(#iconic-size-md-warning-clip-0)" class="iconic-warning-body iconic-property-fill" />
  </g>
  <g data-width="16" data-height="16" class="iconic-container iconic-sm" display="none" transform="scale(8)">
    <path d="M0 15.8v-1.5c0-.1.1-.4.1-.5l6.8-13.6c0-.1.2-.2.3-.2h1.5c.1 0 .3.1.4.2l6.8 13.6c.1.1.1.3.1.5v1.5c0 .1-.1.2-.2.2h-15.5c-.2 0-.3-.1-.3-.2z" clip-path="url(#iconic-size-sm-warning-clip-0)" class="iconic-warning-body iconic-property-fill" />
  </g>
</svg>