<svg version="1.1" xmlns="http://www.w3.org/2000/svg" data-icon="wifi" width="128" height="128" class="iconic iconic-wifi" viewBox="0 0 128 128">
  <g class="iconic-metadata">
    <title>Wifi</title>
  </g>
  <g data-width="128" data-height="88" class="iconic-container iconic-lg" display="inline" transform="translate(0 20)">
    <path d="M52.7 76.7c2.9-2.9 6.9-4.7 11.3-4.7s8.4 1.8 11.3 4.7l-11.3 11.3-11.3-11.3z" class="iconic-wifi-center iconic-property-accent iconic-property-fill" />
    <path stroke="#000" stroke-width="8" stroke-miterlimit="10" d="M38.5 62.5c6.6-6.5 15.6-10.5 25.5-10.5s18.9 4 25.5 10.5" class="iconic-wifi-wave iconic-wifi-wave-inner iconic-property-stroke" fill="none" />
    <path stroke="#000" stroke-width="8" stroke-miterlimit="10" d="M21.6 45.6c10.8-10.9 25.8-17.6 42.4-17.6s31.6 6.7 42.4 17.6" class="iconic-wifi-wave iconic-wifi-wave-middle iconic-property-stroke" fill="none" />
    <path stroke="#000" stroke-width="8" stroke-miterlimit="10" d="M4.6 28.6c15.2-15.2 36.2-24.6 59.4-24.6s44.2 9.4 59.4 24.6" class="iconic-wifi-wave iconic-wifi-wave-outer iconic-property-stroke" fill="none" />
  </g>
  <g data-width="32" data-height="22" class="iconic-container iconic-md" display="none" transform="scale(4) translate(0 5)">
    <path d="M13.2 19.2c.7-.7 1.7-1.2 2.8-1.2s2.1.4 2.8 1.2l-2.8 2.8-2.8-2.8z" class="iconic-wifi-center iconic-property-accent iconic-property-fill" />
    <path stroke="#000" stroke-width="3" stroke-miterlimit="10" d="M10 16c1.5-1.5 3.7-2.5 6-2.5s4.5 1 6 2.5" class="iconic-wifi-wave iconic-wifi-wave-inner iconic-property-stroke" fill="none" />
    <path stroke="#000" stroke-width="3" stroke-miterlimit="10" d="M5.4 11.8c2.7-2.7 6.5-4.3 10.6-4.3s7.9 1.6 10.6 4.2" class="iconic-wifi-wave iconic-wifi-wave-middle iconic-property-stroke" fill="none" />
    <path stroke="#000" stroke-width="3" stroke-miterlimit="10" d="M1 7.5c3.8-3.7 9.1-6 15-6s11.2 2.3 15 6" class="iconic-wifi-wave iconic-wifi-wave-outer iconic-property-stroke" fill="none" />
  </g>
  <g data-width="16" data-height="10" class="iconic-container iconic-sm" display="none" transform="scale(8) translate(0 3)">
    <path d="M6.6 8.6c.3-.4.8-.6 1.4-.6s1.1.2 1.4.6l-1.4 1.4-1.4-1.4z" class="iconic-wifi-center iconic-property-accent iconic-property-fill" />
    <path stroke="#000" stroke-width="2" stroke-miterlimit="10" d="M4.5 6.5c.9-.9 2.1-1.5 3.5-1.5s2.6.6 3.5 1.5" class="iconic-wifi-wave iconic-wifi-wave-inner iconic-property-stroke" fill="none" />
    <path stroke="#000" stroke-width="2" stroke-miterlimit="10" d="M1.6 3.6c1.7-1.6 3.9-2.6 6.4-2.6s4.7 1 6.4 2.6" class="iconic-wifi-wave iconic-wifi-wave-outer iconic-property-stroke" fill="none" />
  </g>
</svg>