<svg version="1.1" xmlns="http://www.w3.org/2000/svg" data-icon="wrench" width="128" height="128" class="iconic iconic-wrench" viewBox="0 0 128 128">
  <g class="iconic-metadata">
    <title>Wrench</title>
  </g>
  <g data-width="128" data-height="128" class="iconic-container iconic-lg" display="inline">
    <path d="M127.6 20.4l-9.6 9.6h-20v-20l9.6-9.6c-1.5-.3-3-.4-4.6-.4-13.5 0-24.5 10.6-25 24 0 8.8-3.6 16.8-9.4 22.6l-66 66c-3.5 3.5-3.5 9.2 0 12.7 1.8 1.8 4.1 2.6 6.4 2.6s4.6-.9 6.4-2.6l66-66c5.8-5.7 13.8-9.3 22.6-9.3 13.4-.5 24-11.5 24-25 0-1.6-.2-3.1-.4-4.6zm-118.6 103.6c-2.8 0-5-2.2-5-5s2.2-5 5-5 5 2.2 5 5-2.2 5-5 5z"
    class="iconic-property-fill" />
  </g>
  <g data-width="32" data-height="32" class="iconic-container iconic-md" display="none" transform="scale(4)">
    <path d="M31.7 5.3l-3.7 3.7h-5v-5l3.7-3.7c-.7-.2-1.4-.3-2.2-.3-4.1 0-7.5 3.4-7.5 7.5 0 2.2-.9 4.1-2.3 5.5l-13.8 13.9c-1.2 1.2-1.2 3.1 0 4.2.6.6 1.3.9 2.1.9s1.5-.3 2.1-.9l13.9-13.8c1.4-1.4 3.3-2.3 5.5-2.3 4.1 0 7.5-3.4 7.5-7.5 0-.8-.1-1.5-.3-2.2zm-28.7 25.2c-.8 0-1.5-.7-1.5-1.5s.7-1.5 1.5-1.5 1.5.7 1.5 1.5-.7 1.5-1.5 1.5z"
    class="iconic-property-fill" />
  </g>
  <g data-width="16" data-height="16" class="iconic-container iconic-sm" display="none" transform="scale(8)">
    <path d="M15.9 3.1l-1.9 1.9h-3v-3l1.9-1.9c-.3-.1-.6-.1-.9-.1-2.2 0-4 1.8-4 4 0 .8-.3 1.5-.8 2l-6.6 6.6c-.8.8-.8 2 0 2.8.4.4.9.6 1.4.6s1-.2 1.4-.6l6.6-6.6c.5-.5 1.2-.8 2-.8 2.2 0 4-1.8 4-4 0-.3 0-.6-.1-.9zm-13.9 11.9c-.6 0-1-.4-1-1s.4-1 1-1 1 .4 1 1-.4 1-1 1z"
    class="iconic-property-fill" />
  </g>
</svg>